G04 (created by PCBNEW (2013-mar-13)-testing) date wto, 19 mar 2013, 20:20:01*
%MOIN*%
G04 Gerber Fmt 3.4, Leading zero omitted, Abs format*
%FSLAX34Y34*%
G01*
G70*
G90*
G04 APERTURE LIST*
%ADD10C,0.006*%
%ADD11C,0.0035*%
%ADD12C,0.00393701*%
G04 APERTURE END LIST*
G54D10*
G54D11*
X68312Y-32211D02*
X68074Y-32377D01*
X68312Y-32496D02*
X67812Y-32496D01*
X67812Y-32306D01*
X67836Y-32258D01*
X67860Y-32235D01*
X67907Y-32211D01*
X67979Y-32211D01*
X68026Y-32235D01*
X68050Y-32258D01*
X68074Y-32306D01*
X68074Y-32496D01*
X67860Y-32020D02*
X67836Y-31996D01*
X67812Y-31949D01*
X67812Y-31830D01*
X67836Y-31782D01*
X67860Y-31758D01*
X67907Y-31735D01*
X67955Y-31735D01*
X68026Y-31758D01*
X68312Y-32044D01*
X68312Y-31735D01*
X67812Y-31568D02*
X67812Y-31258D01*
X68003Y-31425D01*
X68003Y-31354D01*
X68026Y-31306D01*
X68050Y-31282D01*
X68098Y-31258D01*
X68217Y-31258D01*
X68264Y-31282D01*
X68288Y-31306D01*
X68312Y-31354D01*
X68312Y-31496D01*
X68288Y-31544D01*
X68264Y-31568D01*
X52320Y-37723D02*
X52343Y-37746D01*
X52367Y-37818D01*
X52367Y-37865D01*
X52343Y-37937D01*
X52296Y-37984D01*
X52248Y-38008D01*
X52153Y-38032D01*
X52082Y-38032D01*
X51986Y-38008D01*
X51939Y-37984D01*
X51891Y-37937D01*
X51867Y-37865D01*
X51867Y-37818D01*
X51891Y-37746D01*
X51915Y-37723D01*
X51867Y-37556D02*
X51867Y-37246D01*
X52058Y-37413D01*
X52058Y-37342D01*
X52082Y-37294D01*
X52105Y-37270D01*
X52153Y-37246D01*
X52272Y-37246D01*
X52320Y-37270D01*
X52343Y-37294D01*
X52367Y-37342D01*
X52367Y-37484D01*
X52343Y-37532D01*
X52320Y-37556D01*
X51915Y-37056D02*
X51891Y-37032D01*
X51867Y-36984D01*
X51867Y-36865D01*
X51891Y-36818D01*
X51915Y-36794D01*
X51962Y-36770D01*
X52010Y-36770D01*
X52082Y-36794D01*
X52367Y-37080D01*
X52367Y-36770D01*
X58186Y-37880D02*
X58210Y-37904D01*
X58233Y-37975D01*
X58233Y-38023D01*
X58210Y-38094D01*
X58162Y-38142D01*
X58114Y-38166D01*
X58019Y-38190D01*
X57948Y-38190D01*
X57852Y-38166D01*
X57805Y-38142D01*
X57757Y-38094D01*
X57733Y-38023D01*
X57733Y-37975D01*
X57757Y-37904D01*
X57781Y-37880D01*
X57781Y-37690D02*
X57757Y-37666D01*
X57733Y-37618D01*
X57733Y-37499D01*
X57757Y-37451D01*
X57781Y-37428D01*
X57829Y-37404D01*
X57876Y-37404D01*
X57948Y-37428D01*
X58233Y-37713D01*
X58233Y-37404D01*
X58233Y-37166D02*
X58233Y-37070D01*
X58210Y-37023D01*
X58186Y-36999D01*
X58114Y-36951D01*
X58019Y-36928D01*
X57829Y-36928D01*
X57781Y-36951D01*
X57757Y-36975D01*
X57733Y-37023D01*
X57733Y-37118D01*
X57757Y-37166D01*
X57781Y-37190D01*
X57829Y-37213D01*
X57948Y-37213D01*
X57995Y-37190D01*
X58019Y-37166D01*
X58043Y-37118D01*
X58043Y-37023D01*
X58019Y-36975D01*
X57995Y-36951D01*
X57948Y-36928D01*
X58127Y-31325D02*
X58151Y-31349D01*
X58174Y-31420D01*
X58174Y-31468D01*
X58151Y-31539D01*
X58103Y-31587D01*
X58055Y-31611D01*
X57960Y-31634D01*
X57889Y-31634D01*
X57793Y-31611D01*
X57746Y-31587D01*
X57698Y-31539D01*
X57674Y-31468D01*
X57674Y-31420D01*
X57698Y-31349D01*
X57722Y-31325D01*
X57722Y-31134D02*
X57698Y-31111D01*
X57674Y-31063D01*
X57674Y-30944D01*
X57698Y-30896D01*
X57722Y-30872D01*
X57770Y-30849D01*
X57817Y-30849D01*
X57889Y-30872D01*
X58174Y-31158D01*
X58174Y-30849D01*
X57674Y-30539D02*
X57674Y-30492D01*
X57698Y-30444D01*
X57722Y-30420D01*
X57770Y-30396D01*
X57865Y-30372D01*
X57984Y-30372D01*
X58079Y-30396D01*
X58127Y-30420D01*
X58151Y-30444D01*
X58174Y-30492D01*
X58174Y-30539D01*
X58151Y-30587D01*
X58127Y-30611D01*
X58079Y-30634D01*
X57984Y-30658D01*
X57865Y-30658D01*
X57770Y-30634D01*
X57722Y-30611D01*
X57698Y-30587D01*
X57674Y-30539D01*
X52556Y-31266D02*
X52580Y-31290D01*
X52603Y-31361D01*
X52603Y-31409D01*
X52580Y-31480D01*
X52532Y-31528D01*
X52484Y-31552D01*
X52389Y-31575D01*
X52318Y-31575D01*
X52223Y-31552D01*
X52175Y-31528D01*
X52127Y-31480D01*
X52103Y-31409D01*
X52103Y-31361D01*
X52127Y-31290D01*
X52151Y-31266D01*
X52151Y-31075D02*
X52127Y-31052D01*
X52103Y-31004D01*
X52103Y-30885D01*
X52127Y-30837D01*
X52151Y-30813D01*
X52199Y-30790D01*
X52246Y-30790D01*
X52318Y-30813D01*
X52603Y-31099D01*
X52603Y-30790D01*
X52103Y-30337D02*
X52103Y-30575D01*
X52342Y-30599D01*
X52318Y-30575D01*
X52294Y-30528D01*
X52294Y-30409D01*
X52318Y-30361D01*
X52342Y-30337D01*
X52389Y-30313D01*
X52508Y-30313D01*
X52556Y-30337D01*
X52580Y-30361D01*
X52603Y-30409D01*
X52603Y-30528D01*
X52580Y-30575D01*
X52556Y-30599D01*
X60390Y-31325D02*
X60414Y-31349D01*
X60438Y-31420D01*
X60438Y-31468D01*
X60414Y-31539D01*
X60367Y-31587D01*
X60319Y-31611D01*
X60224Y-31634D01*
X60152Y-31634D01*
X60057Y-31611D01*
X60010Y-31587D01*
X59962Y-31539D01*
X59938Y-31468D01*
X59938Y-31420D01*
X59962Y-31349D01*
X59986Y-31325D01*
X60438Y-30849D02*
X60438Y-31134D01*
X60438Y-30992D02*
X59938Y-30992D01*
X60010Y-31039D01*
X60057Y-31087D01*
X60081Y-31134D01*
X60152Y-30563D02*
X60129Y-30611D01*
X60105Y-30634D01*
X60057Y-30658D01*
X60033Y-30658D01*
X59986Y-30634D01*
X59962Y-30611D01*
X59938Y-30563D01*
X59938Y-30468D01*
X59962Y-30420D01*
X59986Y-30396D01*
X60033Y-30372D01*
X60057Y-30372D01*
X60105Y-30396D01*
X60129Y-30420D01*
X60152Y-30468D01*
X60152Y-30563D01*
X60176Y-30611D01*
X60200Y-30634D01*
X60248Y-30658D01*
X60343Y-30658D01*
X60390Y-30634D01*
X60414Y-30611D01*
X60438Y-30563D01*
X60438Y-30468D01*
X60414Y-30420D01*
X60390Y-30396D01*
X60343Y-30372D01*
X60248Y-30372D01*
X60200Y-30396D01*
X60176Y-30420D01*
X60152Y-30468D01*
X50115Y-37683D02*
X50139Y-37707D01*
X50163Y-37778D01*
X50163Y-37826D01*
X50139Y-37897D01*
X50091Y-37945D01*
X50043Y-37969D01*
X49948Y-37993D01*
X49877Y-37993D01*
X49782Y-37969D01*
X49734Y-37945D01*
X49686Y-37897D01*
X49663Y-37826D01*
X49663Y-37778D01*
X49686Y-37707D01*
X49710Y-37683D01*
X49710Y-37493D02*
X49686Y-37469D01*
X49663Y-37421D01*
X49663Y-37302D01*
X49686Y-37255D01*
X49710Y-37231D01*
X49758Y-37207D01*
X49805Y-37207D01*
X49877Y-37231D01*
X50163Y-37516D01*
X50163Y-37207D01*
X49877Y-36921D02*
X49853Y-36969D01*
X49829Y-36993D01*
X49782Y-37016D01*
X49758Y-37016D01*
X49710Y-36993D01*
X49686Y-36969D01*
X49663Y-36921D01*
X49663Y-36826D01*
X49686Y-36778D01*
X49710Y-36755D01*
X49758Y-36731D01*
X49782Y-36731D01*
X49829Y-36755D01*
X49853Y-36778D01*
X49877Y-36826D01*
X49877Y-36921D01*
X49901Y-36969D01*
X49924Y-36993D01*
X49972Y-37016D01*
X50067Y-37016D01*
X50115Y-36993D01*
X50139Y-36969D01*
X50163Y-36921D01*
X50163Y-36826D01*
X50139Y-36778D01*
X50115Y-36755D01*
X50067Y-36731D01*
X49972Y-36731D01*
X49924Y-36755D01*
X49901Y-36778D01*
X49877Y-36826D01*
X66001Y-31226D02*
X66025Y-31250D01*
X66048Y-31322D01*
X66048Y-31369D01*
X66025Y-31441D01*
X65977Y-31488D01*
X65929Y-31512D01*
X65834Y-31536D01*
X65763Y-31536D01*
X65667Y-31512D01*
X65620Y-31488D01*
X65572Y-31441D01*
X65548Y-31369D01*
X65548Y-31322D01*
X65572Y-31250D01*
X65596Y-31226D01*
X66048Y-30750D02*
X66048Y-31036D01*
X66048Y-30893D02*
X65548Y-30893D01*
X65620Y-30941D01*
X65667Y-30988D01*
X65691Y-31036D01*
X66048Y-30512D02*
X66048Y-30417D01*
X66025Y-30369D01*
X66001Y-30345D01*
X65929Y-30298D01*
X65834Y-30274D01*
X65644Y-30274D01*
X65596Y-30298D01*
X65572Y-30322D01*
X65548Y-30369D01*
X65548Y-30465D01*
X65572Y-30512D01*
X65596Y-30536D01*
X65644Y-30560D01*
X65763Y-30560D01*
X65810Y-30536D01*
X65834Y-30512D01*
X65858Y-30465D01*
X65858Y-30369D01*
X65834Y-30322D01*
X65810Y-30298D01*
X65763Y-30274D01*
G54D12*
X59422Y-49452D02*
X59403Y-49471D01*
X59347Y-49490D01*
X59310Y-49490D01*
X59253Y-49471D01*
X59216Y-49433D01*
X59197Y-49396D01*
X59178Y-49321D01*
X59178Y-49265D01*
X59197Y-49190D01*
X59216Y-49152D01*
X59253Y-49115D01*
X59310Y-49096D01*
X59347Y-49096D01*
X59403Y-49115D01*
X59422Y-49133D01*
X59572Y-49133D02*
X59591Y-49115D01*
X59628Y-49096D01*
X59722Y-49096D01*
X59760Y-49115D01*
X59778Y-49133D01*
X59797Y-49171D01*
X59797Y-49208D01*
X59778Y-49265D01*
X59553Y-49490D01*
X59797Y-49490D01*
G54D11*
X67001Y-56099D02*
X66977Y-56123D01*
X66906Y-56147D01*
X66858Y-56147D01*
X66787Y-56123D01*
X66739Y-56075D01*
X66715Y-56028D01*
X66691Y-55932D01*
X66691Y-55861D01*
X66715Y-55766D01*
X66739Y-55718D01*
X66787Y-55671D01*
X66858Y-55647D01*
X66906Y-55647D01*
X66977Y-55671D01*
X67001Y-55694D01*
X67191Y-55694D02*
X67215Y-55671D01*
X67263Y-55647D01*
X67382Y-55647D01*
X67429Y-55671D01*
X67453Y-55694D01*
X67477Y-55742D01*
X67477Y-55790D01*
X67453Y-55861D01*
X67168Y-56147D01*
X67477Y-56147D01*
X67668Y-55694D02*
X67691Y-55671D01*
X67739Y-55647D01*
X67858Y-55647D01*
X67906Y-55671D01*
X67929Y-55694D01*
X67953Y-55742D01*
X67953Y-55790D01*
X67929Y-55861D01*
X67644Y-56147D01*
X67953Y-56147D01*
X62239Y-47162D02*
X62215Y-47186D01*
X62144Y-47210D01*
X62096Y-47210D01*
X62025Y-47186D01*
X61977Y-47138D01*
X61953Y-47091D01*
X61929Y-46995D01*
X61929Y-46924D01*
X61953Y-46829D01*
X61977Y-46781D01*
X62025Y-46734D01*
X62096Y-46710D01*
X62144Y-46710D01*
X62215Y-46734D01*
X62239Y-46757D01*
X62406Y-46710D02*
X62715Y-46710D01*
X62549Y-46900D01*
X62620Y-46900D01*
X62668Y-46924D01*
X62691Y-46948D01*
X62715Y-46995D01*
X62715Y-47115D01*
X62691Y-47162D01*
X62668Y-47186D01*
X62620Y-47210D01*
X62477Y-47210D01*
X62429Y-47186D01*
X62406Y-47162D01*
X60428Y-36099D02*
X60404Y-36123D01*
X60333Y-36147D01*
X60285Y-36147D01*
X60214Y-36123D01*
X60166Y-36075D01*
X60142Y-36028D01*
X60118Y-35932D01*
X60118Y-35861D01*
X60142Y-35766D01*
X60166Y-35718D01*
X60214Y-35671D01*
X60285Y-35647D01*
X60333Y-35647D01*
X60404Y-35671D01*
X60428Y-35694D01*
X60904Y-36147D02*
X60618Y-36147D01*
X60761Y-36147D02*
X60761Y-35647D01*
X60714Y-35718D01*
X60666Y-35766D01*
X60618Y-35790D01*
X57436Y-47202D02*
X57412Y-47225D01*
X57341Y-47249D01*
X57293Y-47249D01*
X57222Y-47225D01*
X57174Y-47178D01*
X57150Y-47130D01*
X57126Y-47035D01*
X57126Y-46963D01*
X57150Y-46868D01*
X57174Y-46821D01*
X57222Y-46773D01*
X57293Y-46749D01*
X57341Y-46749D01*
X57412Y-46773D01*
X57436Y-46797D01*
X57864Y-46916D02*
X57864Y-47249D01*
X57745Y-46725D02*
X57626Y-47082D01*
X57936Y-47082D01*
G54D12*
X69313Y-44373D02*
X69295Y-44392D01*
X69238Y-44411D01*
X69201Y-44411D01*
X69145Y-44392D01*
X69107Y-44355D01*
X69088Y-44317D01*
X69070Y-44242D01*
X69070Y-44186D01*
X69088Y-44111D01*
X69107Y-44073D01*
X69145Y-44036D01*
X69201Y-44017D01*
X69238Y-44017D01*
X69295Y-44036D01*
X69313Y-44055D01*
X69688Y-44411D02*
X69463Y-44411D01*
X69576Y-44411D02*
X69576Y-44017D01*
X69538Y-44073D01*
X69501Y-44111D01*
X69463Y-44130D01*
X70063Y-44411D02*
X69838Y-44411D01*
X69951Y-44411D02*
X69951Y-44017D01*
X69913Y-44073D01*
X69876Y-44111D01*
X69838Y-44130D01*
G54D11*
X64737Y-25154D02*
X64713Y-25178D01*
X64642Y-25202D01*
X64594Y-25202D01*
X64523Y-25178D01*
X64475Y-25130D01*
X64451Y-25083D01*
X64428Y-24988D01*
X64428Y-24916D01*
X64451Y-24821D01*
X64475Y-24773D01*
X64523Y-24726D01*
X64594Y-24702D01*
X64642Y-24702D01*
X64713Y-24726D01*
X64737Y-24750D01*
X64904Y-24702D02*
X65213Y-24702D01*
X65047Y-24892D01*
X65118Y-24892D01*
X65166Y-24916D01*
X65190Y-24940D01*
X65213Y-24988D01*
X65213Y-25107D01*
X65190Y-25154D01*
X65166Y-25178D01*
X65118Y-25202D01*
X64975Y-25202D01*
X64928Y-25178D01*
X64904Y-25154D01*
X65690Y-25202D02*
X65404Y-25202D01*
X65547Y-25202D02*
X65547Y-24702D01*
X65499Y-24773D01*
X65451Y-24821D01*
X65404Y-24845D01*
X44247Y-49761D02*
X44223Y-49784D01*
X44152Y-49808D01*
X44104Y-49808D01*
X44033Y-49784D01*
X43985Y-49737D01*
X43961Y-49689D01*
X43937Y-49594D01*
X43937Y-49522D01*
X43961Y-49427D01*
X43985Y-49380D01*
X44033Y-49332D01*
X44104Y-49308D01*
X44152Y-49308D01*
X44223Y-49332D01*
X44247Y-49356D01*
X44414Y-49308D02*
X44747Y-49308D01*
X44533Y-49808D01*
X55977Y-25450D02*
X55953Y-25473D01*
X55882Y-25497D01*
X55834Y-25497D01*
X55763Y-25473D01*
X55715Y-25426D01*
X55692Y-25378D01*
X55668Y-25283D01*
X55668Y-25211D01*
X55692Y-25116D01*
X55715Y-25069D01*
X55763Y-25021D01*
X55834Y-24997D01*
X55882Y-24997D01*
X55953Y-25021D01*
X55977Y-25045D01*
X56168Y-25045D02*
X56192Y-25021D01*
X56239Y-24997D01*
X56358Y-24997D01*
X56406Y-25021D01*
X56430Y-25045D01*
X56453Y-25092D01*
X56453Y-25140D01*
X56430Y-25211D01*
X56144Y-25497D01*
X56453Y-25497D01*
X56620Y-24997D02*
X56930Y-24997D01*
X56763Y-25188D01*
X56834Y-25188D01*
X56882Y-25211D01*
X56906Y-25235D01*
X56930Y-25283D01*
X56930Y-25402D01*
X56906Y-25450D01*
X56882Y-25473D01*
X56834Y-25497D01*
X56692Y-25497D01*
X56644Y-25473D01*
X56620Y-25450D01*
X69402Y-52831D02*
X69379Y-52855D01*
X69307Y-52879D01*
X69260Y-52879D01*
X69188Y-52855D01*
X69141Y-52808D01*
X69117Y-52760D01*
X69093Y-52665D01*
X69093Y-52593D01*
X69117Y-52498D01*
X69141Y-52450D01*
X69188Y-52403D01*
X69260Y-52379D01*
X69307Y-52379D01*
X69379Y-52403D01*
X69402Y-52427D01*
X69593Y-52427D02*
X69617Y-52403D01*
X69664Y-52379D01*
X69783Y-52379D01*
X69831Y-52403D01*
X69855Y-52427D01*
X69879Y-52474D01*
X69879Y-52522D01*
X69855Y-52593D01*
X69569Y-52879D01*
X69879Y-52879D01*
X70307Y-52379D02*
X70212Y-52379D01*
X70164Y-52403D01*
X70141Y-52427D01*
X70093Y-52498D01*
X70069Y-52593D01*
X70069Y-52784D01*
X70093Y-52831D01*
X70117Y-52855D01*
X70164Y-52879D01*
X70260Y-52879D01*
X70307Y-52855D01*
X70331Y-52831D01*
X70355Y-52784D01*
X70355Y-52665D01*
X70331Y-52617D01*
X70307Y-52593D01*
X70260Y-52570D01*
X70164Y-52570D01*
X70117Y-52593D01*
X70093Y-52617D01*
X70069Y-52665D01*
G54D12*
X69313Y-40476D02*
X69295Y-40494D01*
X69238Y-40513D01*
X69201Y-40513D01*
X69145Y-40494D01*
X69107Y-40457D01*
X69088Y-40419D01*
X69070Y-40344D01*
X69070Y-40288D01*
X69088Y-40213D01*
X69107Y-40176D01*
X69145Y-40138D01*
X69201Y-40119D01*
X69238Y-40119D01*
X69295Y-40138D01*
X69313Y-40157D01*
X69688Y-40513D02*
X69463Y-40513D01*
X69576Y-40513D02*
X69576Y-40119D01*
X69538Y-40176D01*
X69501Y-40213D01*
X69463Y-40232D01*
X69932Y-40119D02*
X69970Y-40119D01*
X70007Y-40138D01*
X70026Y-40157D01*
X70044Y-40194D01*
X70063Y-40269D01*
X70063Y-40363D01*
X70044Y-40438D01*
X70026Y-40476D01*
X70007Y-40494D01*
X69970Y-40513D01*
X69932Y-40513D01*
X69895Y-40494D01*
X69876Y-40476D01*
X69857Y-40438D01*
X69838Y-40363D01*
X69838Y-40269D01*
X69857Y-40194D01*
X69876Y-40157D01*
X69895Y-40138D01*
X69932Y-40119D01*
X69658Y-36460D02*
X69640Y-36479D01*
X69583Y-36497D01*
X69546Y-36497D01*
X69490Y-36479D01*
X69452Y-36441D01*
X69433Y-36404D01*
X69415Y-36329D01*
X69415Y-36272D01*
X69433Y-36197D01*
X69452Y-36160D01*
X69490Y-36122D01*
X69546Y-36104D01*
X69583Y-36104D01*
X69640Y-36122D01*
X69658Y-36141D01*
X69996Y-36104D02*
X69921Y-36104D01*
X69883Y-36122D01*
X69865Y-36141D01*
X69827Y-36197D01*
X69808Y-36272D01*
X69808Y-36422D01*
X69827Y-36460D01*
X69846Y-36479D01*
X69883Y-36497D01*
X69958Y-36497D01*
X69996Y-36479D01*
X70014Y-36460D01*
X70033Y-36422D01*
X70033Y-36329D01*
X70014Y-36291D01*
X69996Y-36272D01*
X69958Y-36254D01*
X69883Y-36254D01*
X69846Y-36272D01*
X69827Y-36291D01*
X69808Y-36329D01*
X56082Y-39127D02*
X55990Y-38996D01*
X55925Y-39127D02*
X55925Y-38851D01*
X56030Y-38851D01*
X56056Y-38864D01*
X56069Y-38877D01*
X56082Y-38904D01*
X56082Y-38943D01*
X56069Y-38969D01*
X56056Y-38982D01*
X56030Y-38996D01*
X55925Y-38996D01*
X56187Y-38877D02*
X56200Y-38864D01*
X56227Y-38851D01*
X56292Y-38851D01*
X56318Y-38864D01*
X56332Y-38877D01*
X56345Y-38904D01*
X56345Y-38930D01*
X56332Y-38969D01*
X56174Y-39127D01*
X56345Y-39127D01*
X56502Y-38969D02*
X56476Y-38956D01*
X56463Y-38943D01*
X56450Y-38917D01*
X56450Y-38904D01*
X56463Y-38877D01*
X56476Y-38864D01*
X56502Y-38851D01*
X56555Y-38851D01*
X56581Y-38864D01*
X56594Y-38877D01*
X56607Y-38904D01*
X56607Y-38917D01*
X56594Y-38943D01*
X56581Y-38956D01*
X56555Y-38969D01*
X56502Y-38969D01*
X56476Y-38982D01*
X56463Y-38996D01*
X56450Y-39022D01*
X56450Y-39074D01*
X56463Y-39101D01*
X56476Y-39114D01*
X56502Y-39127D01*
X56555Y-39127D01*
X56581Y-39114D01*
X56594Y-39101D01*
X56607Y-39074D01*
X56607Y-39022D01*
X56594Y-38996D01*
X56581Y-38982D01*
X56555Y-38969D01*
G54D11*
X63883Y-31973D02*
X63645Y-32139D01*
X63883Y-32258D02*
X63383Y-32258D01*
X63383Y-32068D01*
X63407Y-32020D01*
X63431Y-31996D01*
X63478Y-31973D01*
X63550Y-31973D01*
X63597Y-31996D01*
X63621Y-32020D01*
X63645Y-32068D01*
X63645Y-32258D01*
X63597Y-31687D02*
X63573Y-31735D01*
X63550Y-31758D01*
X63502Y-31782D01*
X63478Y-31782D01*
X63431Y-31758D01*
X63407Y-31735D01*
X63383Y-31687D01*
X63383Y-31592D01*
X63407Y-31544D01*
X63431Y-31520D01*
X63478Y-31496D01*
X63502Y-31496D01*
X63550Y-31520D01*
X63573Y-31544D01*
X63597Y-31592D01*
X63597Y-31687D01*
X63621Y-31735D01*
X63645Y-31758D01*
X63693Y-31782D01*
X63788Y-31782D01*
X63835Y-31758D01*
X63859Y-31735D01*
X63883Y-31687D01*
X63883Y-31592D01*
X63859Y-31544D01*
X63835Y-31520D01*
X63788Y-31496D01*
X63693Y-31496D01*
X63645Y-31520D01*
X63621Y-31544D01*
X63597Y-31592D01*
X56029Y-32329D02*
X55791Y-32495D01*
X56029Y-32615D02*
X55529Y-32615D01*
X55529Y-32424D01*
X55552Y-32376D01*
X55576Y-32353D01*
X55624Y-32329D01*
X55695Y-32329D01*
X55743Y-32353D01*
X55767Y-32376D01*
X55791Y-32424D01*
X55791Y-32615D01*
X56029Y-31853D02*
X56029Y-32138D01*
X56029Y-31995D02*
X55529Y-31995D01*
X55600Y-32043D01*
X55648Y-32091D01*
X55672Y-32138D01*
X55529Y-31543D02*
X55529Y-31495D01*
X55552Y-31448D01*
X55576Y-31424D01*
X55624Y-31400D01*
X55719Y-31376D01*
X55838Y-31376D01*
X55933Y-31400D01*
X55981Y-31424D01*
X56005Y-31448D01*
X56029Y-31495D01*
X56029Y-31543D01*
X56005Y-31591D01*
X55981Y-31615D01*
X55933Y-31638D01*
X55838Y-31662D01*
X55719Y-31662D01*
X55624Y-31638D01*
X55576Y-31615D01*
X55552Y-31591D01*
X55529Y-31543D01*
X57781Y-26797D02*
X57543Y-26964D01*
X57781Y-27083D02*
X57281Y-27083D01*
X57281Y-26893D01*
X57304Y-26845D01*
X57328Y-26821D01*
X57376Y-26797D01*
X57447Y-26797D01*
X57495Y-26821D01*
X57519Y-26845D01*
X57543Y-26893D01*
X57543Y-27083D01*
X57781Y-26321D02*
X57781Y-26607D01*
X57781Y-26464D02*
X57281Y-26464D01*
X57352Y-26512D01*
X57400Y-26559D01*
X57423Y-26607D01*
X57781Y-26083D02*
X57781Y-25988D01*
X57757Y-25940D01*
X57733Y-25916D01*
X57662Y-25869D01*
X57566Y-25845D01*
X57376Y-25845D01*
X57328Y-25869D01*
X57304Y-25893D01*
X57281Y-25940D01*
X57281Y-26035D01*
X57304Y-26083D01*
X57328Y-26107D01*
X57376Y-26131D01*
X57495Y-26131D01*
X57543Y-26107D01*
X57566Y-26083D01*
X57590Y-26035D01*
X57590Y-25940D01*
X57566Y-25893D01*
X57543Y-25869D01*
X57495Y-25845D01*
X47198Y-31107D02*
X47031Y-30869D01*
X46912Y-31107D02*
X46912Y-30607D01*
X47103Y-30607D01*
X47150Y-30631D01*
X47174Y-30655D01*
X47198Y-30703D01*
X47198Y-30774D01*
X47174Y-30822D01*
X47150Y-30845D01*
X47103Y-30869D01*
X46912Y-30869D01*
X47364Y-30607D02*
X47674Y-30607D01*
X47507Y-30798D01*
X47579Y-30798D01*
X47626Y-30822D01*
X47650Y-30845D01*
X47674Y-30893D01*
X47674Y-31012D01*
X47650Y-31060D01*
X47626Y-31084D01*
X47579Y-31107D01*
X47436Y-31107D01*
X47388Y-31084D01*
X47364Y-31060D01*
X47983Y-30607D02*
X48031Y-30607D01*
X48079Y-30631D01*
X48103Y-30655D01*
X48126Y-30703D01*
X48150Y-30798D01*
X48150Y-30917D01*
X48126Y-31012D01*
X48103Y-31060D01*
X48079Y-31084D01*
X48031Y-31107D01*
X47983Y-31107D01*
X47936Y-31084D01*
X47912Y-31060D01*
X47888Y-31012D01*
X47864Y-30917D01*
X47864Y-30798D01*
X47888Y-30703D01*
X47912Y-30655D01*
X47936Y-30631D01*
X47983Y-30607D01*
X47198Y-30123D02*
X47031Y-29885D01*
X46912Y-30123D02*
X46912Y-29623D01*
X47103Y-29623D01*
X47150Y-29647D01*
X47174Y-29671D01*
X47198Y-29718D01*
X47198Y-29790D01*
X47174Y-29837D01*
X47150Y-29861D01*
X47103Y-29885D01*
X46912Y-29885D01*
X47364Y-29623D02*
X47674Y-29623D01*
X47507Y-29814D01*
X47579Y-29814D01*
X47626Y-29837D01*
X47650Y-29861D01*
X47674Y-29909D01*
X47674Y-30028D01*
X47650Y-30076D01*
X47626Y-30099D01*
X47579Y-30123D01*
X47436Y-30123D01*
X47388Y-30099D01*
X47364Y-30076D01*
X48150Y-30123D02*
X47864Y-30123D01*
X48007Y-30123D02*
X48007Y-29623D01*
X47960Y-29695D01*
X47912Y-29742D01*
X47864Y-29766D01*
X69296Y-32211D02*
X69058Y-32377D01*
X69296Y-32496D02*
X68796Y-32496D01*
X68796Y-32306D01*
X68820Y-32258D01*
X68844Y-32235D01*
X68892Y-32211D01*
X68963Y-32211D01*
X69011Y-32235D01*
X69034Y-32258D01*
X69058Y-32306D01*
X69058Y-32496D01*
X68844Y-32020D02*
X68820Y-31996D01*
X68796Y-31949D01*
X68796Y-31830D01*
X68820Y-31782D01*
X68844Y-31758D01*
X68892Y-31735D01*
X68939Y-31735D01*
X69011Y-31758D01*
X69296Y-32044D01*
X69296Y-31735D01*
X69296Y-31258D02*
X69296Y-31544D01*
X69296Y-31401D02*
X68796Y-31401D01*
X68868Y-31449D01*
X68915Y-31496D01*
X68939Y-31544D01*
X59848Y-26797D02*
X59609Y-26964D01*
X59848Y-27083D02*
X59348Y-27083D01*
X59348Y-26893D01*
X59371Y-26845D01*
X59395Y-26821D01*
X59443Y-26797D01*
X59514Y-26797D01*
X59562Y-26821D01*
X59586Y-26845D01*
X59609Y-26893D01*
X59609Y-27083D01*
X59395Y-26607D02*
X59371Y-26583D01*
X59348Y-26535D01*
X59348Y-26416D01*
X59371Y-26369D01*
X59395Y-26345D01*
X59443Y-26321D01*
X59490Y-26321D01*
X59562Y-26345D01*
X59848Y-26631D01*
X59848Y-26321D01*
X59348Y-26012D02*
X59348Y-25964D01*
X59371Y-25916D01*
X59395Y-25893D01*
X59443Y-25869D01*
X59538Y-25845D01*
X59657Y-25845D01*
X59752Y-25869D01*
X59800Y-25893D01*
X59824Y-25916D01*
X59848Y-25964D01*
X59848Y-26012D01*
X59824Y-26059D01*
X59800Y-26083D01*
X59752Y-26107D01*
X59657Y-26131D01*
X59538Y-26131D01*
X59443Y-26107D01*
X59395Y-26083D01*
X59371Y-26059D01*
X59348Y-26012D01*
X62800Y-31973D02*
X62562Y-32139D01*
X62800Y-32258D02*
X62300Y-32258D01*
X62300Y-32068D01*
X62324Y-32020D01*
X62348Y-31996D01*
X62396Y-31973D01*
X62467Y-31973D01*
X62515Y-31996D01*
X62538Y-32020D01*
X62562Y-32068D01*
X62562Y-32258D01*
X62300Y-31806D02*
X62300Y-31473D01*
X62800Y-31687D01*
X56619Y-49729D02*
X56381Y-49895D01*
X56619Y-50014D02*
X56119Y-50014D01*
X56119Y-49824D01*
X56143Y-49776D01*
X56167Y-49752D01*
X56214Y-49729D01*
X56286Y-49729D01*
X56333Y-49752D01*
X56357Y-49776D01*
X56381Y-49824D01*
X56381Y-50014D01*
X56167Y-49538D02*
X56143Y-49514D01*
X56119Y-49467D01*
X56119Y-49348D01*
X56143Y-49300D01*
X56167Y-49276D01*
X56214Y-49252D01*
X56262Y-49252D01*
X56333Y-49276D01*
X56619Y-49562D01*
X56619Y-49252D01*
X48037Y-36935D02*
X47798Y-37102D01*
X48037Y-37221D02*
X47537Y-37221D01*
X47537Y-37030D01*
X47560Y-36983D01*
X47584Y-36959D01*
X47632Y-36935D01*
X47703Y-36935D01*
X47751Y-36959D01*
X47775Y-36983D01*
X47798Y-37030D01*
X47798Y-37221D01*
X47584Y-36745D02*
X47560Y-36721D01*
X47537Y-36673D01*
X47537Y-36554D01*
X47560Y-36507D01*
X47584Y-36483D01*
X47632Y-36459D01*
X47679Y-36459D01*
X47751Y-36483D01*
X48037Y-36768D01*
X48037Y-36459D01*
X48037Y-36221D02*
X48037Y-36126D01*
X48013Y-36078D01*
X47989Y-36054D01*
X47917Y-36007D01*
X47822Y-35983D01*
X47632Y-35983D01*
X47584Y-36007D01*
X47560Y-36030D01*
X47537Y-36078D01*
X47537Y-36173D01*
X47560Y-36221D01*
X47584Y-36245D01*
X47632Y-36268D01*
X47751Y-36268D01*
X47798Y-36245D01*
X47822Y-36221D01*
X47846Y-36173D01*
X47846Y-36078D01*
X47822Y-36030D01*
X47798Y-36007D01*
X47751Y-35983D01*
X58765Y-26797D02*
X58527Y-26964D01*
X58765Y-27083D02*
X58265Y-27083D01*
X58265Y-26893D01*
X58289Y-26845D01*
X58312Y-26821D01*
X58360Y-26797D01*
X58432Y-26797D01*
X58479Y-26821D01*
X58503Y-26845D01*
X58527Y-26893D01*
X58527Y-27083D01*
X58765Y-26321D02*
X58765Y-26607D01*
X58765Y-26464D02*
X58265Y-26464D01*
X58336Y-26512D01*
X58384Y-26559D01*
X58408Y-26607D01*
X58312Y-26131D02*
X58289Y-26107D01*
X58265Y-26059D01*
X58265Y-25940D01*
X58289Y-25893D01*
X58312Y-25869D01*
X58360Y-25845D01*
X58408Y-25845D01*
X58479Y-25869D01*
X58765Y-26154D01*
X58765Y-25845D01*
X65674Y-53156D02*
X65436Y-53322D01*
X65674Y-53441D02*
X65174Y-53441D01*
X65174Y-53251D01*
X65198Y-53203D01*
X65222Y-53179D01*
X65270Y-53156D01*
X65341Y-53156D01*
X65389Y-53179D01*
X65412Y-53203D01*
X65436Y-53251D01*
X65436Y-53441D01*
X65174Y-52989D02*
X65174Y-52679D01*
X65365Y-52846D01*
X65365Y-52775D01*
X65389Y-52727D01*
X65412Y-52703D01*
X65460Y-52679D01*
X65579Y-52679D01*
X65627Y-52703D01*
X65651Y-52727D01*
X65674Y-52775D01*
X65674Y-52917D01*
X65651Y-52965D01*
X65627Y-52989D01*
X65222Y-52489D02*
X65198Y-52465D01*
X65174Y-52417D01*
X65174Y-52298D01*
X65198Y-52251D01*
X65222Y-52227D01*
X65270Y-52203D01*
X65317Y-52203D01*
X65389Y-52227D01*
X65674Y-52513D01*
X65674Y-52203D01*
X54966Y-32329D02*
X54728Y-32495D01*
X54966Y-32615D02*
X54466Y-32615D01*
X54466Y-32424D01*
X54489Y-32376D01*
X54513Y-32353D01*
X54561Y-32329D01*
X54632Y-32329D01*
X54680Y-32353D01*
X54704Y-32376D01*
X54728Y-32424D01*
X54728Y-32615D01*
X54966Y-31853D02*
X54966Y-32138D01*
X54966Y-31995D02*
X54466Y-31995D01*
X54537Y-32043D01*
X54585Y-32091D01*
X54609Y-32138D01*
X54632Y-31424D02*
X54966Y-31424D01*
X54442Y-31543D02*
X54799Y-31662D01*
X54799Y-31353D01*
X57170Y-32329D02*
X56932Y-32495D01*
X57170Y-32615D02*
X56670Y-32615D01*
X56670Y-32424D01*
X56694Y-32376D01*
X56718Y-32353D01*
X56766Y-32329D01*
X56837Y-32329D01*
X56885Y-32353D01*
X56908Y-32376D01*
X56932Y-32424D01*
X56932Y-32615D01*
X57170Y-31853D02*
X57170Y-32138D01*
X57170Y-31995D02*
X56670Y-31995D01*
X56742Y-32043D01*
X56789Y-32091D01*
X56813Y-32138D01*
X57170Y-31376D02*
X57170Y-31662D01*
X57170Y-31519D02*
X56670Y-31519D01*
X56742Y-31567D01*
X56789Y-31615D01*
X56813Y-31662D01*
X64867Y-31973D02*
X64629Y-32139D01*
X64867Y-32258D02*
X64367Y-32258D01*
X64367Y-32068D01*
X64391Y-32020D01*
X64415Y-31996D01*
X64462Y-31973D01*
X64534Y-31973D01*
X64582Y-31996D01*
X64605Y-32020D01*
X64629Y-32068D01*
X64629Y-32258D01*
X64867Y-31735D02*
X64867Y-31639D01*
X64843Y-31592D01*
X64820Y-31568D01*
X64748Y-31520D01*
X64653Y-31496D01*
X64462Y-31496D01*
X64415Y-31520D01*
X64391Y-31544D01*
X64367Y-31592D01*
X64367Y-31687D01*
X64391Y-31735D01*
X64415Y-31758D01*
X64462Y-31782D01*
X64582Y-31782D01*
X64629Y-31758D01*
X64653Y-31735D01*
X64677Y-31687D01*
X64677Y-31592D01*
X64653Y-31544D01*
X64629Y-31520D01*
X64582Y-31496D01*
X58981Y-51815D02*
X58981Y-52053D01*
X58481Y-52053D01*
X58481Y-51696D02*
X58481Y-51387D01*
X58672Y-51553D01*
X58672Y-51482D01*
X58696Y-51434D01*
X58720Y-51410D01*
X58767Y-51387D01*
X58886Y-51387D01*
X58934Y-51410D01*
X58958Y-51434D01*
X58981Y-51482D01*
X58981Y-51625D01*
X58958Y-51672D01*
X58934Y-51696D01*
X71234Y-35866D02*
X71104Y-35680D01*
X71011Y-35866D02*
X71011Y-35476D01*
X71159Y-35476D01*
X71197Y-35495D01*
X71215Y-35513D01*
X71234Y-35550D01*
X71234Y-35606D01*
X71215Y-35643D01*
X71197Y-35662D01*
X71159Y-35680D01*
X71011Y-35680D01*
X71605Y-35866D02*
X71382Y-35866D01*
X71494Y-35866D02*
X71494Y-35476D01*
X71457Y-35532D01*
X71419Y-35569D01*
X71382Y-35587D01*
X68804Y-26699D02*
X68566Y-26866D01*
X68804Y-26985D02*
X68304Y-26985D01*
X68304Y-26794D01*
X68328Y-26747D01*
X68352Y-26723D01*
X68399Y-26699D01*
X68471Y-26699D01*
X68519Y-26723D01*
X68542Y-26747D01*
X68566Y-26794D01*
X68566Y-26985D01*
X68352Y-26508D02*
X68328Y-26485D01*
X68304Y-26437D01*
X68304Y-26318D01*
X68328Y-26270D01*
X68352Y-26247D01*
X68399Y-26223D01*
X68447Y-26223D01*
X68519Y-26247D01*
X68804Y-26532D01*
X68804Y-26223D01*
X68352Y-26032D02*
X68328Y-26008D01*
X68304Y-25961D01*
X68304Y-25842D01*
X68328Y-25794D01*
X68352Y-25770D01*
X68399Y-25747D01*
X68447Y-25747D01*
X68519Y-25770D01*
X68804Y-26056D01*
X68804Y-25747D01*
X48135Y-21736D02*
X47897Y-21903D01*
X48135Y-22022D02*
X47635Y-22022D01*
X47635Y-21832D01*
X47659Y-21784D01*
X47683Y-21760D01*
X47730Y-21736D01*
X47802Y-21736D01*
X47849Y-21760D01*
X47873Y-21784D01*
X47897Y-21832D01*
X47897Y-22022D01*
X47802Y-21308D02*
X48135Y-21308D01*
X47611Y-21427D02*
X47968Y-21546D01*
X47968Y-21236D01*
X66245Y-21540D02*
X66007Y-21706D01*
X66245Y-21825D02*
X65745Y-21825D01*
X65745Y-21635D01*
X65769Y-21587D01*
X65793Y-21563D01*
X65840Y-21540D01*
X65912Y-21540D01*
X65959Y-21563D01*
X65983Y-21587D01*
X66007Y-21635D01*
X66007Y-21825D01*
X65745Y-21373D02*
X65745Y-21063D01*
X65936Y-21230D01*
X65936Y-21159D01*
X65959Y-21111D01*
X65983Y-21087D01*
X66031Y-21063D01*
X66150Y-21063D01*
X66198Y-21087D01*
X66221Y-21111D01*
X66245Y-21159D01*
X66245Y-21301D01*
X66221Y-21349D01*
X66198Y-21373D01*
M02*
