G04 (created by PCBNEW (2013-mar-13)-testing) date wto, 19 mar 2013, 20:20:01*
%MOIN*%
G04 Gerber Fmt 3.4, Leading zero omitted, Abs format*
%FSLAX34Y34*%
G01*
G70*
G90*
G04 APERTURE LIST*
%ADD10C,0.006*%
%ADD11C,0.019685*%
%ADD12C,0.0026*%
%ADD13C,0.024*%
%ADD14C,0.008*%
%ADD15C,0.012*%
%ADD16C,0.0079*%
%ADD17C,0.01*%
%ADD18C,0.015*%
%ADD19C,0.0394*%
%ADD20C,0.003*%
%ADD21C,0.0039*%
%ADD22C,0.0118*%
%ADD23C,0.02*%
%ADD24C,0.00590551*%
%ADD25C,0.0035*%
%ADD26C,0.01125*%
%ADD27C,0.00393701*%
G04 APERTURE END LIST*
G54D10*
G54D11*
X64251Y-23740D02*
X52834Y-23740D01*
X52834Y-18858D02*
X64251Y-18858D01*
X52834Y-23740D02*
X52834Y-18858D01*
X64251Y-23740D02*
X64251Y-18858D01*
G54D12*
X68151Y-30639D02*
X68151Y-30299D01*
X68151Y-30299D02*
X67911Y-30299D01*
X67911Y-30639D02*
X67911Y-30299D01*
X68151Y-30639D02*
X67911Y-30639D01*
X68151Y-33479D02*
X68151Y-33139D01*
X68151Y-33139D02*
X67911Y-33139D01*
X67911Y-33479D02*
X67911Y-33139D01*
X68151Y-33479D02*
X67911Y-33479D01*
G54D13*
X68031Y-29889D02*
X68031Y-30289D01*
X68031Y-33889D02*
X68031Y-33489D01*
G54D10*
X68381Y-33139D02*
X67681Y-33139D01*
X67581Y-33039D02*
X67581Y-32889D01*
X67631Y-32839D02*
X67581Y-32889D01*
X68481Y-33039D02*
X68481Y-32889D01*
X68431Y-32839D02*
X68481Y-32889D01*
X67631Y-30939D02*
X67581Y-30889D01*
X67631Y-30939D02*
X67631Y-32839D01*
X68431Y-30939D02*
X68481Y-30889D01*
X68431Y-30939D02*
X68431Y-32839D01*
X67581Y-30739D02*
X67581Y-30889D01*
X68481Y-30739D02*
X68481Y-30889D01*
X68381Y-30639D02*
X67681Y-30639D01*
X67581Y-33039D02*
G75*
G03X67681Y-33139I100J0D01*
G74*
G01*
X68381Y-33139D02*
G75*
G03X68481Y-33039I0J100D01*
G74*
G01*
X68481Y-30739D02*
G75*
G03X68381Y-30639I-100J0D01*
G74*
G01*
X67681Y-30639D02*
G75*
G03X67581Y-30739I0J-100D01*
G74*
G01*
G54D14*
X61514Y-47260D02*
X59114Y-47260D01*
X61514Y-48960D02*
X59114Y-48960D01*
X61514Y-47460D02*
X59114Y-47460D01*
X59114Y-48760D02*
X61514Y-48760D01*
X61514Y-48960D02*
G75*
G03X61514Y-47260I0J850D01*
G74*
G01*
X59114Y-47260D02*
G75*
G03X59114Y-48960I0J-850D01*
G74*
G01*
X61514Y-48760D02*
G75*
G03X61514Y-47460I0J650D01*
G74*
G01*
X59114Y-47460D02*
G75*
G03X59114Y-48760I0J-650D01*
G74*
G01*
G54D15*
X57102Y-35972D02*
X55602Y-34472D01*
X55602Y-34472D02*
X55102Y-34472D01*
X55102Y-34472D02*
X54602Y-34972D01*
X54602Y-34972D02*
X54602Y-35972D01*
X54602Y-35972D02*
X55602Y-36972D01*
X55602Y-36972D02*
X56602Y-36972D01*
X56602Y-36972D02*
X57102Y-36472D01*
X57102Y-36472D02*
X57102Y-35972D01*
G54D16*
X70512Y-32991D02*
X70512Y-33385D01*
X70512Y-33385D02*
X71102Y-33385D01*
X71102Y-33385D02*
X71102Y-33975D01*
X71102Y-33975D02*
X71496Y-33975D01*
X71496Y-33975D02*
X71496Y-33385D01*
X71496Y-33385D02*
X72086Y-33385D01*
X72086Y-33385D02*
X72086Y-32991D01*
X72086Y-32991D02*
X71496Y-32991D01*
X71496Y-32991D02*
X71496Y-32401D01*
X71496Y-32401D02*
X71102Y-32401D01*
X71102Y-32401D02*
X71102Y-32991D01*
X71102Y-32991D02*
X70512Y-32991D01*
G54D14*
X72299Y-33188D02*
G75*
G03X72299Y-33188I-1000J0D01*
G74*
G01*
X72549Y-34438D02*
X72549Y-34688D01*
X72549Y-34688D02*
X70049Y-34688D01*
X70049Y-34688D02*
X70049Y-34438D01*
G54D16*
X72549Y-34438D02*
X72549Y-32438D01*
G54D14*
X72549Y-32438D02*
X72049Y-31938D01*
X72049Y-31938D02*
X70549Y-31938D01*
X70549Y-31938D02*
X70049Y-32438D01*
X70049Y-32438D02*
X70049Y-34438D01*
G54D16*
X50629Y-34370D02*
X50629Y-33976D01*
X50629Y-33976D02*
X50039Y-33976D01*
X50039Y-33976D02*
X50039Y-33386D01*
X50039Y-33386D02*
X49645Y-33386D01*
X49645Y-33386D02*
X49645Y-33976D01*
X49645Y-33976D02*
X49055Y-33976D01*
X49055Y-33976D02*
X49055Y-34370D01*
X49055Y-34370D02*
X49645Y-34370D01*
X49645Y-34370D02*
X49645Y-34960D01*
X49645Y-34960D02*
X50039Y-34960D01*
X50039Y-34960D02*
X50039Y-34370D01*
X50039Y-34370D02*
X50629Y-34370D01*
G54D14*
X50842Y-34173D02*
G75*
G03X50842Y-34173I-1000J0D01*
G74*
G01*
X48592Y-32923D02*
X48592Y-32673D01*
X48592Y-32673D02*
X51092Y-32673D01*
X51092Y-32673D02*
X51092Y-32923D01*
G54D16*
X48592Y-32923D02*
X48592Y-34923D01*
G54D14*
X48592Y-34923D02*
X49092Y-35423D01*
X49092Y-35423D02*
X50592Y-35423D01*
X50592Y-35423D02*
X51092Y-34923D01*
X51092Y-34923D02*
X51092Y-32923D01*
G54D16*
X51968Y-33897D02*
X51968Y-34291D01*
X51968Y-34291D02*
X52558Y-34291D01*
X52558Y-34291D02*
X52558Y-34881D01*
X52558Y-34881D02*
X52952Y-34881D01*
X52952Y-34881D02*
X52952Y-34291D01*
X52952Y-34291D02*
X53542Y-34291D01*
X53542Y-34291D02*
X53542Y-33897D01*
X53542Y-33897D02*
X52952Y-33897D01*
X52952Y-33897D02*
X52952Y-33307D01*
X52952Y-33307D02*
X52558Y-33307D01*
X52558Y-33307D02*
X52558Y-33897D01*
X52558Y-33897D02*
X51968Y-33897D01*
G54D14*
X53755Y-34094D02*
G75*
G03X53755Y-34094I-1000J0D01*
G74*
G01*
X54005Y-35344D02*
X54005Y-35594D01*
X54005Y-35594D02*
X51505Y-35594D01*
X51505Y-35594D02*
X51505Y-35344D01*
G54D16*
X54005Y-35344D02*
X54005Y-33344D01*
G54D14*
X54005Y-33344D02*
X53505Y-32844D01*
X53505Y-32844D02*
X52005Y-32844D01*
X52005Y-32844D02*
X51505Y-33344D01*
X51505Y-33344D02*
X51505Y-35344D01*
G54D17*
X69799Y-41309D02*
X69799Y-43809D01*
X72799Y-41309D02*
X72799Y-43809D01*
X72799Y-42059D02*
X69799Y-42059D01*
X69799Y-41309D02*
X72799Y-41309D01*
X72799Y-43809D02*
X69799Y-43809D01*
X69779Y-37431D02*
X69779Y-39931D01*
X72779Y-37431D02*
X72779Y-39931D01*
X72779Y-38181D02*
X69779Y-38181D01*
X69779Y-37431D02*
X72779Y-37431D01*
X72779Y-39931D02*
X69779Y-39931D01*
X69799Y-45167D02*
X69799Y-47667D01*
X72799Y-45167D02*
X72799Y-47667D01*
X72799Y-45917D02*
X69799Y-45917D01*
X69799Y-45167D02*
X72799Y-45167D01*
X72799Y-47667D02*
X69799Y-47667D01*
G54D14*
X69314Y-38017D02*
X69314Y-34817D01*
X61314Y-34817D02*
X61314Y-38017D01*
X61314Y-34817D02*
X69314Y-34817D01*
X66114Y-38017D02*
X66114Y-37617D01*
X66114Y-37617D02*
X64514Y-37617D01*
X64514Y-38017D02*
X64514Y-37617D01*
X69314Y-38017D02*
X66114Y-38017D01*
X61314Y-38017D02*
X64514Y-38017D01*
X63314Y-38167D02*
X62814Y-38667D01*
X62814Y-38667D02*
X63814Y-38667D01*
X63814Y-38667D02*
X63314Y-38167D01*
G54D18*
X55464Y-27507D02*
X54964Y-27507D01*
X54964Y-27507D02*
X54964Y-26507D01*
X54964Y-26507D02*
X55464Y-26507D01*
X55464Y-28007D02*
X51464Y-28007D01*
X51464Y-28007D02*
X51464Y-26007D01*
X51464Y-26007D02*
X55464Y-26007D01*
X55464Y-26007D02*
X55464Y-28007D01*
X45834Y-26507D02*
X46334Y-26507D01*
X46334Y-26507D02*
X46334Y-27507D01*
X46334Y-27507D02*
X45834Y-27507D01*
X45834Y-26007D02*
X49834Y-26007D01*
X49834Y-26007D02*
X49834Y-28007D01*
X49834Y-28007D02*
X45834Y-28007D01*
X45834Y-28007D02*
X45834Y-26007D01*
X64362Y-27507D02*
X63862Y-27507D01*
X63862Y-27507D02*
X63862Y-26507D01*
X63862Y-26507D02*
X64362Y-26507D01*
X64362Y-28007D02*
X60362Y-28007D01*
X60362Y-28007D02*
X60362Y-26007D01*
X60362Y-26007D02*
X64362Y-26007D01*
X64362Y-26007D02*
X64362Y-28007D01*
X47846Y-42413D02*
X48346Y-42413D01*
X48346Y-42413D02*
X48346Y-43413D01*
X48346Y-43413D02*
X47846Y-43413D01*
X47846Y-40413D02*
X68846Y-40413D01*
X68846Y-40413D02*
X68846Y-45413D01*
X68846Y-45413D02*
X47846Y-45413D01*
X47846Y-45413D02*
X47846Y-40413D01*
X46366Y-49106D02*
X46366Y-49106D01*
X46366Y-49106D02*
X46866Y-49106D01*
X46866Y-49106D02*
X46866Y-50106D01*
X46866Y-50106D02*
X46366Y-50106D01*
X46366Y-48606D02*
X55366Y-48606D01*
X55366Y-48606D02*
X55366Y-50606D01*
X55366Y-50606D02*
X46366Y-50606D01*
X46366Y-50606D02*
X46366Y-48606D01*
G54D15*
X46411Y-45562D02*
X46411Y-32762D01*
X46411Y-32762D02*
X39411Y-32762D01*
X39411Y-32762D02*
X39411Y-45562D01*
X39411Y-45562D02*
X46411Y-45562D01*
X39411Y-42762D02*
X42411Y-42762D01*
X42411Y-42762D02*
X42411Y-35562D01*
X42411Y-35562D02*
X39411Y-35562D01*
X39411Y-42162D02*
X36011Y-42162D01*
X36011Y-42162D02*
X36011Y-36162D01*
X36011Y-36162D02*
X39411Y-36162D01*
G54D19*
X62047Y-50610D02*
G75*
G03X59508Y-53149I0J-2539D01*
G74*
G01*
X64586Y-53149D02*
G75*
G03X62047Y-50610I-2539J0D01*
G74*
G01*
G54D14*
X64803Y-53149D02*
G75*
G03X64803Y-53149I-2756J0D01*
G74*
G01*
G54D19*
X67322Y-46712D02*
G75*
G03X65334Y-48700I0J-1988D01*
G74*
G01*
X69310Y-48679D02*
G75*
G03X67302Y-46712I-1987J-20D01*
G74*
G01*
G54D14*
X69518Y-48700D02*
G75*
G03X69518Y-48700I-2195J0D01*
G74*
G01*
G54D19*
X55865Y-38070D02*
G75*
G03X55078Y-37283I-787J0D01*
G74*
G01*
X55078Y-37283D02*
G75*
G03X54291Y-38070I0J-787D01*
G74*
G01*
G54D16*
X56079Y-38070D02*
G75*
G03X56079Y-38070I-1001J0D01*
G74*
G01*
G54D19*
X47637Y-53936D02*
G75*
G03X48424Y-53149I0J787D01*
G74*
G01*
X48424Y-53149D02*
G75*
G03X47637Y-52362I-787J0D01*
G74*
G01*
G54D16*
X48639Y-53149D02*
G75*
G03X48639Y-53149I-1001J0D01*
G74*
G01*
G54D19*
X52047Y-53936D02*
G75*
G03X52834Y-53149I0J787D01*
G74*
G01*
X52834Y-53149D02*
G75*
G03X52047Y-52362I-787J0D01*
G74*
G01*
G54D16*
X53048Y-53149D02*
G75*
G03X53048Y-53149I-1001J0D01*
G74*
G01*
G54D19*
X49842Y-52362D02*
G75*
G03X49055Y-53149I0J-787D01*
G74*
G01*
X49055Y-53149D02*
G75*
G03X49842Y-53936I787J0D01*
G74*
G01*
G54D16*
X50843Y-53149D02*
G75*
G03X50843Y-53149I-1001J0D01*
G74*
G01*
G54D19*
X54251Y-54015D02*
G75*
G03X55038Y-53228I0J787D01*
G74*
G01*
X55038Y-53228D02*
G75*
G03X54251Y-52441I-787J0D01*
G74*
G01*
G54D16*
X55253Y-53228D02*
G75*
G03X55253Y-53228I-1001J0D01*
G74*
G01*
G54D15*
X53045Y-37281D02*
X52795Y-37281D01*
X52795Y-37281D02*
X52545Y-37281D01*
G54D10*
X52795Y-37281D02*
X52795Y-36801D01*
G54D15*
X53045Y-37531D02*
X52795Y-37531D01*
X52795Y-37531D02*
X52545Y-37531D01*
G54D10*
X52795Y-37531D02*
X52795Y-38001D01*
X53795Y-35951D02*
X51795Y-35951D01*
X51695Y-36051D02*
X51695Y-38751D01*
X51795Y-38851D02*
X53795Y-38851D01*
X53895Y-38751D02*
X53895Y-36051D01*
X53795Y-38851D02*
G75*
G03X53895Y-38751I0J100D01*
G74*
G01*
X51695Y-38751D02*
G75*
G03X51795Y-38851I100J0D01*
G74*
G01*
X51795Y-35951D02*
G75*
G03X51695Y-36051I0J-100D01*
G74*
G01*
X53895Y-36051D02*
G75*
G03X53795Y-35951I-100J0D01*
G74*
G01*
G54D15*
X58450Y-37639D02*
X58700Y-37639D01*
X58700Y-37639D02*
X58950Y-37639D01*
G54D10*
X58700Y-37639D02*
X58700Y-38119D01*
G54D15*
X58450Y-37389D02*
X58700Y-37389D01*
X58700Y-37389D02*
X58950Y-37389D01*
G54D10*
X58700Y-37389D02*
X58700Y-36919D01*
X57700Y-38969D02*
X59700Y-38969D01*
X59800Y-38869D02*
X59800Y-36169D01*
X59700Y-36069D02*
X57700Y-36069D01*
X57600Y-36169D02*
X57600Y-38869D01*
X57700Y-36069D02*
G75*
G03X57600Y-36169I0J-100D01*
G74*
G01*
X59800Y-36169D02*
G75*
G03X59700Y-36069I-100J0D01*
G74*
G01*
X59700Y-38969D02*
G75*
G03X59800Y-38869I0J100D01*
G74*
G01*
X57600Y-38869D02*
G75*
G03X57700Y-38969I100J0D01*
G74*
G01*
G54D15*
X58332Y-31064D02*
X58582Y-31064D01*
X58582Y-31064D02*
X58832Y-31064D01*
G54D10*
X58582Y-31064D02*
X58582Y-31544D01*
G54D15*
X58332Y-30814D02*
X58582Y-30814D01*
X58582Y-30814D02*
X58832Y-30814D01*
G54D10*
X58582Y-30814D02*
X58582Y-30344D01*
X57682Y-32394D02*
X59482Y-32394D01*
X59582Y-32294D02*
X59582Y-29594D01*
X59482Y-29494D02*
X57682Y-29494D01*
X57582Y-29594D02*
X57582Y-32294D01*
X57682Y-29494D02*
G75*
G03X57582Y-29594I0J-100D01*
G74*
G01*
X59582Y-29594D02*
G75*
G03X59482Y-29494I-100J0D01*
G74*
G01*
X59482Y-32394D02*
G75*
G03X59582Y-32294I0J100D01*
G74*
G01*
X57582Y-32294D02*
G75*
G03X57682Y-32394I100J0D01*
G74*
G01*
G54D15*
X53242Y-30824D02*
X52992Y-30824D01*
X52992Y-30824D02*
X52742Y-30824D01*
G54D10*
X52992Y-30824D02*
X52992Y-30344D01*
G54D15*
X53242Y-31074D02*
X52992Y-31074D01*
X52992Y-31074D02*
X52742Y-31074D01*
G54D10*
X52992Y-31074D02*
X52992Y-31544D01*
X53892Y-29494D02*
X52092Y-29494D01*
X51992Y-29594D02*
X51992Y-32294D01*
X52092Y-32394D02*
X53892Y-32394D01*
X53992Y-32294D02*
X53992Y-29594D01*
X53892Y-32394D02*
G75*
G03X53992Y-32294I0J100D01*
G74*
G01*
X51992Y-32294D02*
G75*
G03X52092Y-32394I100J0D01*
G74*
G01*
X52092Y-29494D02*
G75*
G03X51992Y-29594I0J-100D01*
G74*
G01*
X53992Y-29594D02*
G75*
G03X53892Y-29494I-100J0D01*
G74*
G01*
G54D15*
X61037Y-30824D02*
X60787Y-30824D01*
X60787Y-30824D02*
X60537Y-30824D01*
G54D10*
X60787Y-30824D02*
X60787Y-30344D01*
G54D15*
X61037Y-31074D02*
X60787Y-31074D01*
X60787Y-31074D02*
X60537Y-31074D01*
G54D10*
X60787Y-31074D02*
X60787Y-31544D01*
X61687Y-29494D02*
X59887Y-29494D01*
X59787Y-29594D02*
X59787Y-32294D01*
X59887Y-32394D02*
X61687Y-32394D01*
X61787Y-32294D02*
X61787Y-29594D01*
X61687Y-32394D02*
G75*
G03X61787Y-32294I0J100D01*
G74*
G01*
X59787Y-32294D02*
G75*
G03X59887Y-32394I100J0D01*
G74*
G01*
X59887Y-29494D02*
G75*
G03X59787Y-29594I0J-100D01*
G74*
G01*
X61787Y-29594D02*
G75*
G03X61687Y-29494I-100J0D01*
G74*
G01*
G54D15*
X50801Y-37281D02*
X50551Y-37281D01*
X50551Y-37281D02*
X50301Y-37281D01*
G54D10*
X50551Y-37281D02*
X50551Y-36801D01*
G54D15*
X50801Y-37531D02*
X50551Y-37531D01*
X50551Y-37531D02*
X50301Y-37531D01*
G54D10*
X50551Y-37531D02*
X50551Y-38001D01*
X51451Y-35951D02*
X49651Y-35951D01*
X49551Y-36051D02*
X49551Y-38751D01*
X49651Y-38851D02*
X51451Y-38851D01*
X51551Y-38751D02*
X51551Y-36051D01*
X51451Y-38851D02*
G75*
G03X51551Y-38751I0J100D01*
G74*
G01*
X49551Y-38751D02*
G75*
G03X49651Y-38851I100J0D01*
G74*
G01*
X49651Y-35951D02*
G75*
G03X49551Y-36051I0J-100D01*
G74*
G01*
X51551Y-36051D02*
G75*
G03X51451Y-35951I-100J0D01*
G74*
G01*
G54D15*
X66127Y-30986D02*
X66377Y-30986D01*
X66377Y-30986D02*
X66627Y-30986D01*
G54D10*
X66377Y-30986D02*
X66377Y-31466D01*
G54D15*
X66127Y-30736D02*
X66377Y-30736D01*
X66377Y-30736D02*
X66627Y-30736D01*
G54D10*
X66377Y-30736D02*
X66377Y-30266D01*
X65477Y-32316D02*
X67277Y-32316D01*
X67377Y-32216D02*
X67377Y-29516D01*
X67277Y-29416D02*
X65477Y-29416D01*
X65377Y-29516D02*
X65377Y-32216D01*
X65477Y-29416D02*
G75*
G03X65377Y-29516I0J-100D01*
G74*
G01*
X67377Y-29516D02*
G75*
G03X67277Y-29416I-100J0D01*
G74*
G01*
X67277Y-32316D02*
G75*
G03X67377Y-32216I0J100D01*
G74*
G01*
X65377Y-32216D02*
G75*
G03X65477Y-32316I100J0D01*
G74*
G01*
G54D15*
X50694Y-31064D02*
X50944Y-31064D01*
X50944Y-31064D02*
X51194Y-31064D01*
G54D10*
X50944Y-31064D02*
X50944Y-31544D01*
G54D15*
X50694Y-30814D02*
X50944Y-30814D01*
X50944Y-30814D02*
X51194Y-30814D01*
G54D10*
X50944Y-30814D02*
X50944Y-30344D01*
X50144Y-32394D02*
X51744Y-32394D01*
X51844Y-32294D02*
X51844Y-29594D01*
X51744Y-29494D02*
X50144Y-29494D01*
X50044Y-29594D02*
X50044Y-32294D01*
X50144Y-29494D02*
G75*
G03X50044Y-29594I0J-100D01*
G74*
G01*
X51844Y-29594D02*
G75*
G03X51744Y-29494I-100J0D01*
G74*
G01*
X51744Y-32394D02*
G75*
G03X51844Y-32294I0J100D01*
G74*
G01*
X50044Y-32294D02*
G75*
G03X50144Y-32394I100J0D01*
G74*
G01*
G54D12*
X60173Y-49495D02*
X60023Y-49495D01*
X60023Y-49495D02*
X60023Y-49795D01*
X60173Y-49795D02*
X60023Y-49795D01*
X60173Y-49495D02*
X60173Y-49795D01*
X62023Y-49495D02*
X61873Y-49495D01*
X61873Y-49495D02*
X61873Y-49795D01*
X62023Y-49795D02*
X61873Y-49795D01*
X62023Y-49495D02*
X62023Y-49795D01*
G54D10*
X61873Y-49395D02*
X61873Y-49895D01*
X60373Y-50095D02*
X61673Y-50095D01*
X60173Y-49395D02*
X60173Y-49895D01*
X60373Y-49195D02*
X61673Y-49195D01*
G54D15*
X61143Y-49945D02*
X61143Y-49645D01*
X61143Y-49645D02*
X61143Y-49345D01*
X60893Y-49945D02*
X60893Y-49645D01*
X60893Y-49645D02*
X60893Y-49345D01*
G54D10*
X60523Y-49645D02*
X60893Y-49645D01*
X61523Y-49645D02*
X61143Y-49645D01*
X61673Y-50095D02*
G75*
G03X61873Y-49895I0J200D01*
G74*
G01*
X61873Y-49395D02*
G75*
G03X61673Y-49195I-200J0D01*
G74*
G01*
X60173Y-49895D02*
G75*
G03X60373Y-50095I200J0D01*
G74*
G01*
X60373Y-49195D02*
G75*
G03X60173Y-49395I0J-200D01*
G74*
G01*
G54D12*
X68693Y-54779D02*
X68693Y-54629D01*
X68693Y-54629D02*
X68393Y-54629D01*
X68393Y-54779D02*
X68393Y-54629D01*
X68693Y-54779D02*
X68393Y-54779D01*
X68693Y-56629D02*
X68693Y-56479D01*
X68693Y-56479D02*
X68393Y-56479D01*
X68393Y-56629D02*
X68393Y-56479D01*
X68693Y-56629D02*
X68393Y-56629D01*
G54D10*
X68793Y-56479D02*
X68293Y-56479D01*
X68093Y-54979D02*
X68093Y-56279D01*
X68793Y-54779D02*
X68293Y-54779D01*
X68993Y-54979D02*
X68993Y-56279D01*
G54D15*
X68243Y-55749D02*
X68543Y-55749D01*
X68543Y-55749D02*
X68843Y-55749D01*
X68243Y-55499D02*
X68543Y-55499D01*
X68543Y-55499D02*
X68843Y-55499D01*
G54D10*
X68543Y-55129D02*
X68543Y-55499D01*
X68543Y-56129D02*
X68543Y-55749D01*
X68093Y-56279D02*
G75*
G03X68293Y-56479I200J0D01*
G74*
G01*
X68793Y-56479D02*
G75*
G03X68993Y-56279I0J200D01*
G74*
G01*
X68293Y-54779D02*
G75*
G03X68093Y-54979I0J-200D01*
G74*
G01*
X68993Y-54979D02*
G75*
G03X68793Y-54779I-200J0D01*
G74*
G01*
G54D12*
X62920Y-49117D02*
X62920Y-49267D01*
X62920Y-49267D02*
X63220Y-49267D01*
X63220Y-49117D02*
X63220Y-49267D01*
X62920Y-49117D02*
X63220Y-49117D01*
X62920Y-47267D02*
X62920Y-47417D01*
X62920Y-47417D02*
X63220Y-47417D01*
X63220Y-47267D02*
X63220Y-47417D01*
X62920Y-47267D02*
X63220Y-47267D01*
G54D10*
X62820Y-47417D02*
X63320Y-47417D01*
X63520Y-48917D02*
X63520Y-47617D01*
X62820Y-49117D02*
X63320Y-49117D01*
X62620Y-48917D02*
X62620Y-47617D01*
G54D15*
X63370Y-48147D02*
X63070Y-48147D01*
X63070Y-48147D02*
X62770Y-48147D01*
X63370Y-48397D02*
X63070Y-48397D01*
X63070Y-48397D02*
X62770Y-48397D01*
G54D10*
X63070Y-48767D02*
X63070Y-48397D01*
X63070Y-47767D02*
X63070Y-48147D01*
X63520Y-47617D02*
G75*
G03X63320Y-47417I-200J0D01*
G74*
G01*
X62820Y-47417D02*
G75*
G03X62620Y-47617I0J-200D01*
G74*
G01*
X63320Y-49117D02*
G75*
G03X63520Y-48917I0J200D01*
G74*
G01*
X62620Y-48917D02*
G75*
G03X62820Y-49117I200J0D01*
G74*
G01*
G54D12*
X60701Y-36669D02*
X60701Y-36519D01*
X60701Y-36519D02*
X60401Y-36519D01*
X60401Y-36669D02*
X60401Y-36519D01*
X60701Y-36669D02*
X60401Y-36669D01*
X60701Y-38519D02*
X60701Y-38369D01*
X60701Y-38369D02*
X60401Y-38369D01*
X60401Y-38519D02*
X60401Y-38369D01*
X60701Y-38519D02*
X60401Y-38519D01*
G54D10*
X60801Y-38369D02*
X60301Y-38369D01*
X60101Y-36869D02*
X60101Y-38169D01*
X60801Y-36669D02*
X60301Y-36669D01*
X61001Y-36869D02*
X61001Y-38169D01*
G54D15*
X60251Y-37639D02*
X60551Y-37639D01*
X60551Y-37639D02*
X60851Y-37639D01*
X60251Y-37389D02*
X60551Y-37389D01*
X60551Y-37389D02*
X60851Y-37389D01*
G54D10*
X60551Y-37019D02*
X60551Y-37389D01*
X60551Y-38019D02*
X60551Y-37639D01*
X60101Y-38169D02*
G75*
G03X60301Y-38369I200J0D01*
G74*
G01*
X60801Y-38369D02*
G75*
G03X61001Y-38169I0J200D01*
G74*
G01*
X60301Y-36669D02*
G75*
G03X60101Y-36869I0J-200D01*
G74*
G01*
X61001Y-36869D02*
G75*
G03X60801Y-36669I-200J0D01*
G74*
G01*
G54D12*
X57409Y-49511D02*
X57409Y-49661D01*
X57409Y-49661D02*
X57709Y-49661D01*
X57709Y-49511D02*
X57709Y-49661D01*
X57409Y-49511D02*
X57709Y-49511D01*
X57409Y-47661D02*
X57409Y-47811D01*
X57409Y-47811D02*
X57709Y-47811D01*
X57709Y-47661D02*
X57709Y-47811D01*
X57409Y-47661D02*
X57709Y-47661D01*
G54D10*
X57309Y-47811D02*
X57809Y-47811D01*
X58009Y-49311D02*
X58009Y-48011D01*
X57309Y-49511D02*
X57809Y-49511D01*
X57109Y-49311D02*
X57109Y-48011D01*
G54D15*
X57859Y-48541D02*
X57559Y-48541D01*
X57559Y-48541D02*
X57259Y-48541D01*
X57859Y-48791D02*
X57559Y-48791D01*
X57559Y-48791D02*
X57259Y-48791D01*
G54D10*
X57559Y-49161D02*
X57559Y-48791D01*
X57559Y-48161D02*
X57559Y-48541D01*
X58009Y-48011D02*
G75*
G03X57809Y-47811I-200J0D01*
G74*
G01*
X57309Y-47811D02*
G75*
G03X57109Y-48011I0J-200D01*
G74*
G01*
X57809Y-49511D02*
G75*
G03X58009Y-49311I0J200D01*
G74*
G01*
X57109Y-49311D02*
G75*
G03X57309Y-49511I200J0D01*
G74*
G01*
G54D12*
X72149Y-44638D02*
X72299Y-44638D01*
X72299Y-44638D02*
X72299Y-44338D01*
X72149Y-44338D02*
X72299Y-44338D01*
X72149Y-44638D02*
X72149Y-44338D01*
X70299Y-44638D02*
X70449Y-44638D01*
X70449Y-44638D02*
X70449Y-44338D01*
X70299Y-44338D02*
X70449Y-44338D01*
X70299Y-44638D02*
X70299Y-44338D01*
G54D10*
X70449Y-44738D02*
X70449Y-44238D01*
X71949Y-44038D02*
X70649Y-44038D01*
X72149Y-44738D02*
X72149Y-44238D01*
X71949Y-44938D02*
X70649Y-44938D01*
G54D15*
X71179Y-44188D02*
X71179Y-44488D01*
X71179Y-44488D02*
X71179Y-44788D01*
X71429Y-44188D02*
X71429Y-44488D01*
X71429Y-44488D02*
X71429Y-44788D01*
G54D10*
X71799Y-44488D02*
X71429Y-44488D01*
X70799Y-44488D02*
X71179Y-44488D01*
X70649Y-44038D02*
G75*
G03X70449Y-44238I0J-200D01*
G74*
G01*
X70449Y-44738D02*
G75*
G03X70649Y-44938I200J0D01*
G74*
G01*
X72149Y-44238D02*
G75*
G03X71949Y-44038I-200J0D01*
G74*
G01*
X71949Y-44938D02*
G75*
G03X72149Y-44738I0J200D01*
G74*
G01*
G54D12*
X65346Y-25992D02*
X65346Y-25842D01*
X65346Y-25842D02*
X65046Y-25842D01*
X65046Y-25992D02*
X65046Y-25842D01*
X65346Y-25992D02*
X65046Y-25992D01*
X65346Y-27842D02*
X65346Y-27692D01*
X65346Y-27692D02*
X65046Y-27692D01*
X65046Y-27842D02*
X65046Y-27692D01*
X65346Y-27842D02*
X65046Y-27842D01*
G54D10*
X65446Y-27692D02*
X64946Y-27692D01*
X64746Y-26192D02*
X64746Y-27492D01*
X65446Y-25992D02*
X64946Y-25992D01*
X65646Y-26192D02*
X65646Y-27492D01*
G54D15*
X64896Y-26962D02*
X65196Y-26962D01*
X65196Y-26962D02*
X65496Y-26962D01*
X64896Y-26712D02*
X65196Y-26712D01*
X65196Y-26712D02*
X65496Y-26712D01*
G54D10*
X65196Y-26342D02*
X65196Y-26712D01*
X65196Y-27342D02*
X65196Y-26962D01*
X64746Y-27492D02*
G75*
G03X64946Y-27692I200J0D01*
G74*
G01*
X65446Y-27692D02*
G75*
G03X65646Y-27492I0J200D01*
G74*
G01*
X64946Y-25992D02*
G75*
G03X64746Y-26192I0J-200D01*
G74*
G01*
X65646Y-26192D02*
G75*
G03X65446Y-25992I-200J0D01*
G74*
G01*
G54D12*
X45125Y-50456D02*
X45125Y-50606D01*
X45125Y-50606D02*
X45425Y-50606D01*
X45425Y-50456D02*
X45425Y-50606D01*
X45125Y-50456D02*
X45425Y-50456D01*
X45125Y-48606D02*
X45125Y-48756D01*
X45125Y-48756D02*
X45425Y-48756D01*
X45425Y-48606D02*
X45425Y-48756D01*
X45125Y-48606D02*
X45425Y-48606D01*
G54D10*
X45025Y-48756D02*
X45525Y-48756D01*
X45725Y-50256D02*
X45725Y-48956D01*
X45025Y-50456D02*
X45525Y-50456D01*
X44825Y-50256D02*
X44825Y-48956D01*
G54D15*
X45575Y-49486D02*
X45275Y-49486D01*
X45275Y-49486D02*
X44975Y-49486D01*
X45575Y-49736D02*
X45275Y-49736D01*
X45275Y-49736D02*
X44975Y-49736D01*
G54D10*
X45275Y-50106D02*
X45275Y-49736D01*
X45275Y-49106D02*
X45275Y-49486D01*
X45725Y-48956D02*
G75*
G03X45525Y-48756I-200J0D01*
G74*
G01*
X45025Y-48756D02*
G75*
G03X44825Y-48956I0J-200D01*
G74*
G01*
X45525Y-50456D02*
G75*
G03X45725Y-50256I0J200D01*
G74*
G01*
X44825Y-50256D02*
G75*
G03X45025Y-50456I200J0D01*
G74*
G01*
G54D12*
X56724Y-26275D02*
X56724Y-26125D01*
X56724Y-26125D02*
X56424Y-26125D01*
X56424Y-26275D02*
X56424Y-26125D01*
X56724Y-26275D02*
X56424Y-26275D01*
X56724Y-28125D02*
X56724Y-27975D01*
X56724Y-27975D02*
X56424Y-27975D01*
X56424Y-28125D02*
X56424Y-27975D01*
X56724Y-28125D02*
X56424Y-28125D01*
G54D10*
X56824Y-27975D02*
X56324Y-27975D01*
X56124Y-26475D02*
X56124Y-27775D01*
X56824Y-26275D02*
X56324Y-26275D01*
X57024Y-26475D02*
X57024Y-27775D01*
G54D15*
X56274Y-27245D02*
X56574Y-27245D01*
X56574Y-27245D02*
X56874Y-27245D01*
X56274Y-26995D02*
X56574Y-26995D01*
X56574Y-26995D02*
X56874Y-26995D01*
G54D10*
X56574Y-26625D02*
X56574Y-26995D01*
X56574Y-27625D02*
X56574Y-27245D01*
X56124Y-27775D02*
G75*
G03X56324Y-27975I200J0D01*
G74*
G01*
X56824Y-27975D02*
G75*
G03X57024Y-27775I0J200D01*
G74*
G01*
X56324Y-26275D02*
G75*
G03X56124Y-26475I0J-200D01*
G74*
G01*
X57024Y-26475D02*
G75*
G03X56824Y-26275I-200J0D01*
G74*
G01*
G54D12*
X45031Y-26669D02*
X45031Y-26519D01*
X45031Y-26519D02*
X44731Y-26519D01*
X44731Y-26669D02*
X44731Y-26519D01*
X45031Y-26669D02*
X44731Y-26669D01*
X45031Y-28519D02*
X45031Y-28369D01*
X45031Y-28369D02*
X44731Y-28369D01*
X44731Y-28519D02*
X44731Y-28369D01*
X45031Y-28519D02*
X44731Y-28519D01*
G54D10*
X45131Y-28369D02*
X44631Y-28369D01*
X44431Y-26869D02*
X44431Y-28169D01*
X45131Y-26669D02*
X44631Y-26669D01*
X45331Y-26869D02*
X45331Y-28169D01*
G54D15*
X44581Y-27639D02*
X44881Y-27639D01*
X44881Y-27639D02*
X45181Y-27639D01*
X44581Y-27389D02*
X44881Y-27389D01*
X44881Y-27389D02*
X45181Y-27389D01*
G54D10*
X44881Y-27019D02*
X44881Y-27389D01*
X44881Y-28019D02*
X44881Y-27639D01*
X44431Y-28169D02*
G75*
G03X44631Y-28369I200J0D01*
G74*
G01*
X45131Y-28369D02*
G75*
G03X45331Y-28169I0J200D01*
G74*
G01*
X44631Y-26669D02*
G75*
G03X44431Y-26869I0J-200D01*
G74*
G01*
X45331Y-26869D02*
G75*
G03X45131Y-26669I-200J0D01*
G74*
G01*
G54D12*
X68353Y-53527D02*
X68353Y-53677D01*
X68353Y-53677D02*
X68653Y-53677D01*
X68653Y-53527D02*
X68653Y-53677D01*
X68353Y-53527D02*
X68653Y-53527D01*
X68353Y-51677D02*
X68353Y-51827D01*
X68353Y-51827D02*
X68653Y-51827D01*
X68653Y-51677D02*
X68653Y-51827D01*
X68353Y-51677D02*
X68653Y-51677D01*
G54D10*
X68253Y-51827D02*
X68753Y-51827D01*
X68953Y-53327D02*
X68953Y-52027D01*
X68253Y-53527D02*
X68753Y-53527D01*
X68053Y-53327D02*
X68053Y-52027D01*
G54D15*
X68803Y-52557D02*
X68503Y-52557D01*
X68503Y-52557D02*
X68203Y-52557D01*
X68803Y-52807D02*
X68503Y-52807D01*
X68503Y-52807D02*
X68203Y-52807D01*
G54D10*
X68503Y-53177D02*
X68503Y-52807D01*
X68503Y-52177D02*
X68503Y-52557D01*
X68953Y-52027D02*
G75*
G03X68753Y-51827I-200J0D01*
G74*
G01*
X68253Y-51827D02*
G75*
G03X68053Y-52027I0J-200D01*
G74*
G01*
X68753Y-53527D02*
G75*
G03X68953Y-53327I0J200D01*
G74*
G01*
X68053Y-53327D02*
G75*
G03X68253Y-53527I200J0D01*
G74*
G01*
G54D12*
X50479Y-27818D02*
X50479Y-27968D01*
X50479Y-27968D02*
X50779Y-27968D01*
X50779Y-27818D02*
X50779Y-27968D01*
X50479Y-27818D02*
X50779Y-27818D01*
X50479Y-25968D02*
X50479Y-26118D01*
X50479Y-26118D02*
X50779Y-26118D01*
X50779Y-25968D02*
X50779Y-26118D01*
X50479Y-25968D02*
X50779Y-25968D01*
G54D10*
X50379Y-26118D02*
X50879Y-26118D01*
X51079Y-27618D02*
X51079Y-26318D01*
X50379Y-27818D02*
X50879Y-27818D01*
X50179Y-27618D02*
X50179Y-26318D01*
G54D15*
X50929Y-26848D02*
X50629Y-26848D01*
X50629Y-26848D02*
X50329Y-26848D01*
X50929Y-27098D02*
X50629Y-27098D01*
X50629Y-27098D02*
X50329Y-27098D01*
G54D10*
X50629Y-27468D02*
X50629Y-27098D01*
X50629Y-26468D02*
X50629Y-26848D01*
X51079Y-26318D02*
G75*
G03X50879Y-26118I-200J0D01*
G74*
G01*
X50379Y-26118D02*
G75*
G03X50179Y-26318I0J-200D01*
G74*
G01*
X50879Y-27818D02*
G75*
G03X51079Y-27618I0J200D01*
G74*
G01*
X50179Y-27618D02*
G75*
G03X50379Y-27818I200J0D01*
G74*
G01*
G54D12*
X72149Y-40779D02*
X72299Y-40779D01*
X72299Y-40779D02*
X72299Y-40479D01*
X72149Y-40479D02*
X72299Y-40479D01*
X72149Y-40779D02*
X72149Y-40479D01*
X70299Y-40779D02*
X70449Y-40779D01*
X70449Y-40779D02*
X70449Y-40479D01*
X70299Y-40479D02*
X70449Y-40479D01*
X70299Y-40779D02*
X70299Y-40479D01*
G54D10*
X70449Y-40879D02*
X70449Y-40379D01*
X71949Y-40179D02*
X70649Y-40179D01*
X72149Y-40879D02*
X72149Y-40379D01*
X71949Y-41079D02*
X70649Y-41079D01*
G54D15*
X71179Y-40329D02*
X71179Y-40629D01*
X71179Y-40629D02*
X71179Y-40929D01*
X71429Y-40329D02*
X71429Y-40629D01*
X71429Y-40629D02*
X71429Y-40929D01*
G54D10*
X71799Y-40629D02*
X71429Y-40629D01*
X70799Y-40629D02*
X71179Y-40629D01*
X70649Y-40179D02*
G75*
G03X70449Y-40379I0J-200D01*
G74*
G01*
X70449Y-40879D02*
G75*
G03X70649Y-41079I200J0D01*
G74*
G01*
X72149Y-40379D02*
G75*
G03X71949Y-40179I-200J0D01*
G74*
G01*
X71949Y-41079D02*
G75*
G03X72149Y-40879I0J200D01*
G74*
G01*
G54D12*
X72149Y-36882D02*
X72299Y-36882D01*
X72299Y-36882D02*
X72299Y-36582D01*
X72149Y-36582D02*
X72299Y-36582D01*
X72149Y-36882D02*
X72149Y-36582D01*
X70299Y-36882D02*
X70449Y-36882D01*
X70449Y-36882D02*
X70449Y-36582D01*
X70299Y-36582D02*
X70449Y-36582D01*
X70299Y-36882D02*
X70299Y-36582D01*
G54D10*
X70449Y-36982D02*
X70449Y-36482D01*
X71949Y-36282D02*
X70649Y-36282D01*
X72149Y-36982D02*
X72149Y-36482D01*
X71949Y-37182D02*
X70649Y-37182D01*
G54D15*
X71179Y-36432D02*
X71179Y-36732D01*
X71179Y-36732D02*
X71179Y-37032D01*
X71429Y-36432D02*
X71429Y-36732D01*
X71429Y-36732D02*
X71429Y-37032D01*
G54D10*
X71799Y-36732D02*
X71429Y-36732D01*
X70799Y-36732D02*
X71179Y-36732D01*
X70649Y-36282D02*
G75*
G03X70449Y-36482I0J-200D01*
G74*
G01*
X70449Y-36982D02*
G75*
G03X70649Y-37182I200J0D01*
G74*
G01*
X72149Y-36482D02*
G75*
G03X71949Y-36282I-200J0D01*
G74*
G01*
X71949Y-37182D02*
G75*
G03X72149Y-36982I0J200D01*
G74*
G01*
G54D16*
X65881Y-57403D02*
X65881Y-55903D01*
X65881Y-55903D02*
G75*
G03X65881Y-57404I-999J-750D01*
G74*
G01*
G54D13*
X56889Y-37374D02*
X56889Y-37724D01*
X56889Y-37774D02*
X56889Y-37974D01*
X56889Y-38024D02*
X56889Y-38374D01*
G54D20*
X57243Y-37374D02*
G75*
G03X57243Y-37374I-353J0D01*
G74*
G01*
X57172Y-37374D02*
G75*
G03X57172Y-37374I-282J0D01*
G74*
G01*
G54D21*
X48642Y-38051D02*
X48838Y-38051D01*
X48642Y-36279D02*
X48838Y-36279D01*
X48523Y-36378D02*
X48642Y-36279D01*
X48957Y-36378D02*
X48838Y-36279D01*
X48464Y-36378D02*
X49045Y-36378D01*
X48376Y-36437D02*
X48376Y-37903D01*
G54D22*
X48425Y-37716D02*
X49016Y-37716D01*
X49016Y-37716D02*
X49016Y-37618D01*
X49016Y-37618D02*
X48425Y-37618D01*
G54D21*
X49055Y-37736D02*
X49055Y-37578D01*
X48405Y-37736D02*
X48405Y-37578D01*
X48523Y-37952D02*
X48642Y-38051D01*
X48976Y-37952D02*
X48838Y-38051D01*
X48474Y-37952D02*
X49016Y-37952D01*
X48376Y-37756D02*
X49094Y-37756D01*
X49094Y-37756D02*
X49094Y-37559D01*
X49094Y-37559D02*
X48376Y-37559D01*
X48376Y-37559D02*
X48376Y-37765D01*
X49055Y-37952D02*
X49016Y-37952D01*
X49055Y-36378D02*
X49016Y-36378D01*
X48425Y-36378D02*
X48464Y-36378D01*
X48435Y-37952D02*
X48474Y-37952D01*
X49055Y-37952D02*
G75*
G03X49094Y-37913I0J39D01*
G74*
G01*
X49094Y-36417D02*
G75*
G03X49055Y-36378I-39J0D01*
G74*
G01*
X49094Y-37913D02*
X49094Y-36417D01*
X48425Y-36378D02*
G75*
G03X48376Y-36427I0J-49D01*
G74*
G01*
X48376Y-37905D02*
G75*
G03X48425Y-37954I49J0D01*
G74*
G01*
X66279Y-25570D02*
X66083Y-25570D01*
X66279Y-27342D02*
X66083Y-27342D01*
X66398Y-27243D02*
X66279Y-27342D01*
X65964Y-27243D02*
X66083Y-27342D01*
X66457Y-27243D02*
X65876Y-27243D01*
X66545Y-27184D02*
X66545Y-25718D01*
G54D22*
X66496Y-25905D02*
X65905Y-25905D01*
X65905Y-25905D02*
X65905Y-26003D01*
X65905Y-26003D02*
X66496Y-26003D01*
G54D21*
X65866Y-25885D02*
X65866Y-26043D01*
X66516Y-25885D02*
X66516Y-26043D01*
X66398Y-25669D02*
X66279Y-25570D01*
X65945Y-25669D02*
X66083Y-25570D01*
X66447Y-25669D02*
X65905Y-25669D01*
X66545Y-25865D02*
X65827Y-25865D01*
X65827Y-25865D02*
X65827Y-26062D01*
X65827Y-26062D02*
X66545Y-26062D01*
X66545Y-26062D02*
X66545Y-25856D01*
X65866Y-25669D02*
X65905Y-25669D01*
X65866Y-27243D02*
X65905Y-27243D01*
X66496Y-27243D02*
X66457Y-27243D01*
X66486Y-25669D02*
X66447Y-25669D01*
X65866Y-25669D02*
G75*
G03X65827Y-25708I0J-39D01*
G74*
G01*
X65827Y-27204D02*
G75*
G03X65866Y-27243I39J0D01*
G74*
G01*
X65827Y-25708D02*
X65827Y-27204D01*
X66496Y-27243D02*
G75*
G03X66545Y-27194I0J49D01*
G74*
G01*
X66545Y-25716D02*
G75*
G03X66496Y-25667I-49J0D01*
G74*
G01*
X67303Y-27342D02*
X67499Y-27342D01*
X67303Y-25570D02*
X67499Y-25570D01*
X67184Y-25669D02*
X67303Y-25570D01*
X67618Y-25669D02*
X67499Y-25570D01*
X67125Y-25669D02*
X67706Y-25669D01*
X67037Y-25728D02*
X67037Y-27194D01*
G54D22*
X67086Y-27007D02*
X67677Y-27007D01*
X67677Y-27007D02*
X67677Y-26909D01*
X67677Y-26909D02*
X67086Y-26909D01*
G54D21*
X67716Y-27027D02*
X67716Y-26869D01*
X67066Y-27027D02*
X67066Y-26869D01*
X67184Y-27243D02*
X67303Y-27342D01*
X67637Y-27243D02*
X67499Y-27342D01*
X67135Y-27243D02*
X67677Y-27243D01*
X67037Y-27047D02*
X67755Y-27047D01*
X67755Y-27047D02*
X67755Y-26850D01*
X67755Y-26850D02*
X67037Y-26850D01*
X67037Y-26850D02*
X67037Y-27056D01*
X67716Y-27243D02*
X67677Y-27243D01*
X67716Y-25669D02*
X67677Y-25669D01*
X67086Y-25669D02*
X67125Y-25669D01*
X67096Y-27243D02*
X67135Y-27243D01*
X67716Y-27243D02*
G75*
G03X67755Y-27204I0J39D01*
G74*
G01*
X67755Y-25708D02*
G75*
G03X67716Y-25669I-39J0D01*
G74*
G01*
X67755Y-27204D02*
X67755Y-25708D01*
X67086Y-25669D02*
G75*
G03X67037Y-25718I0J-49D01*
G74*
G01*
X67037Y-27196D02*
G75*
G03X67086Y-27245I49J0D01*
G74*
G01*
G54D12*
X63742Y-30679D02*
X63742Y-30339D01*
X63742Y-30339D02*
X63502Y-30339D01*
X63502Y-30679D02*
X63502Y-30339D01*
X63742Y-30679D02*
X63502Y-30679D01*
X63742Y-33519D02*
X63742Y-33179D01*
X63742Y-33179D02*
X63502Y-33179D01*
X63502Y-33519D02*
X63502Y-33179D01*
X63742Y-33519D02*
X63502Y-33519D01*
G54D13*
X63622Y-29929D02*
X63622Y-30329D01*
X63622Y-33929D02*
X63622Y-33529D01*
G54D10*
X63972Y-33179D02*
X63272Y-33179D01*
X63172Y-33079D02*
X63172Y-32929D01*
X63222Y-32879D02*
X63172Y-32929D01*
X64072Y-33079D02*
X64072Y-32929D01*
X64022Y-32879D02*
X64072Y-32929D01*
X63222Y-30979D02*
X63172Y-30929D01*
X63222Y-30979D02*
X63222Y-32879D01*
X64022Y-30979D02*
X64072Y-30929D01*
X64022Y-30979D02*
X64022Y-32879D01*
X63172Y-30779D02*
X63172Y-30929D01*
X64072Y-30779D02*
X64072Y-30929D01*
X63972Y-30679D02*
X63272Y-30679D01*
X63172Y-33079D02*
G75*
G03X63272Y-33179I100J0D01*
G74*
G01*
X63972Y-33179D02*
G75*
G03X64072Y-33079I0J100D01*
G74*
G01*
X64072Y-30779D02*
G75*
G03X63972Y-30679I-100J0D01*
G74*
G01*
X63272Y-30679D02*
G75*
G03X63172Y-30779I0J-100D01*
G74*
G01*
G54D12*
X55946Y-30718D02*
X55946Y-30378D01*
X55946Y-30378D02*
X55706Y-30378D01*
X55706Y-30718D02*
X55706Y-30378D01*
X55946Y-30718D02*
X55706Y-30718D01*
X55946Y-33558D02*
X55946Y-33218D01*
X55946Y-33218D02*
X55706Y-33218D01*
X55706Y-33558D02*
X55706Y-33218D01*
X55946Y-33558D02*
X55706Y-33558D01*
G54D13*
X55826Y-29968D02*
X55826Y-30368D01*
X55826Y-33968D02*
X55826Y-33568D01*
G54D10*
X56176Y-33218D02*
X55476Y-33218D01*
X55376Y-33118D02*
X55376Y-32968D01*
X55426Y-32918D02*
X55376Y-32968D01*
X56276Y-33118D02*
X56276Y-32968D01*
X56226Y-32918D02*
X56276Y-32968D01*
X55426Y-31018D02*
X55376Y-30968D01*
X55426Y-31018D02*
X55426Y-32918D01*
X56226Y-31018D02*
X56276Y-30968D01*
X56226Y-31018D02*
X56226Y-32918D01*
X55376Y-30818D02*
X55376Y-30968D01*
X56276Y-30818D02*
X56276Y-30968D01*
X56176Y-30718D02*
X55476Y-30718D01*
X55376Y-33118D02*
G75*
G03X55476Y-33218I100J0D01*
G74*
G01*
X56176Y-33218D02*
G75*
G03X56276Y-33118I0J100D01*
G74*
G01*
X56276Y-30818D02*
G75*
G03X56176Y-30718I-100J0D01*
G74*
G01*
X55476Y-30718D02*
G75*
G03X55376Y-30818I0J-100D01*
G74*
G01*
G54D12*
X57399Y-27746D02*
X57399Y-28086D01*
X57399Y-28086D02*
X57639Y-28086D01*
X57639Y-27746D02*
X57639Y-28086D01*
X57399Y-27746D02*
X57639Y-27746D01*
X57399Y-24906D02*
X57399Y-25246D01*
X57399Y-25246D02*
X57639Y-25246D01*
X57639Y-24906D02*
X57639Y-25246D01*
X57399Y-24906D02*
X57639Y-24906D01*
G54D13*
X57519Y-28496D02*
X57519Y-28096D01*
X57519Y-24496D02*
X57519Y-24896D01*
G54D10*
X57169Y-25246D02*
X57869Y-25246D01*
X57969Y-25346D02*
X57969Y-25496D01*
X57919Y-25546D02*
X57969Y-25496D01*
X57069Y-25346D02*
X57069Y-25496D01*
X57119Y-25546D02*
X57069Y-25496D01*
X57919Y-27446D02*
X57969Y-27496D01*
X57919Y-27446D02*
X57919Y-25546D01*
X57119Y-27446D02*
X57069Y-27496D01*
X57119Y-27446D02*
X57119Y-25546D01*
X57969Y-27646D02*
X57969Y-27496D01*
X57069Y-27646D02*
X57069Y-27496D01*
X57169Y-27746D02*
X57869Y-27746D01*
X57969Y-25346D02*
G75*
G03X57869Y-25246I-100J0D01*
G74*
G01*
X57169Y-25246D02*
G75*
G03X57069Y-25346I0J-100D01*
G74*
G01*
X57069Y-27646D02*
G75*
G03X57169Y-27746I100J0D01*
G74*
G01*
X57869Y-27746D02*
G75*
G03X57969Y-27646I0J100D01*
G74*
G01*
G54D12*
X48651Y-30986D02*
X48991Y-30986D01*
X48991Y-30986D02*
X48991Y-30746D01*
X48651Y-30746D02*
X48991Y-30746D01*
X48651Y-30986D02*
X48651Y-30746D01*
X45811Y-30986D02*
X46151Y-30986D01*
X46151Y-30986D02*
X46151Y-30746D01*
X45811Y-30746D02*
X46151Y-30746D01*
X45811Y-30986D02*
X45811Y-30746D01*
G54D13*
X49401Y-30866D02*
X49001Y-30866D01*
X45401Y-30866D02*
X45801Y-30866D01*
G54D10*
X46151Y-31216D02*
X46151Y-30516D01*
X46251Y-30416D02*
X46401Y-30416D01*
X46451Y-30466D02*
X46401Y-30416D01*
X46251Y-31316D02*
X46401Y-31316D01*
X46451Y-31266D02*
X46401Y-31316D01*
X48351Y-30466D02*
X48401Y-30416D01*
X48351Y-30466D02*
X46451Y-30466D01*
X48351Y-31266D02*
X48401Y-31316D01*
X48351Y-31266D02*
X46451Y-31266D01*
X48551Y-30416D02*
X48401Y-30416D01*
X48551Y-31316D02*
X48401Y-31316D01*
X48651Y-31216D02*
X48651Y-30516D01*
X46251Y-30416D02*
G75*
G03X46151Y-30516I0J-100D01*
G74*
G01*
X46151Y-31216D02*
G75*
G03X46251Y-31316I100J0D01*
G74*
G01*
X48551Y-31316D02*
G75*
G03X48651Y-31216I0J100D01*
G74*
G01*
X48651Y-30516D02*
G75*
G03X48551Y-30416I-100J0D01*
G74*
G01*
G54D12*
X46151Y-29722D02*
X45811Y-29722D01*
X45811Y-29722D02*
X45811Y-29962D01*
X46151Y-29962D02*
X45811Y-29962D01*
X46151Y-29722D02*
X46151Y-29962D01*
X48991Y-29722D02*
X48651Y-29722D01*
X48651Y-29722D02*
X48651Y-29962D01*
X48991Y-29962D02*
X48651Y-29962D01*
X48991Y-29722D02*
X48991Y-29962D01*
G54D13*
X45401Y-29842D02*
X45801Y-29842D01*
X49401Y-29842D02*
X49001Y-29842D01*
G54D10*
X48651Y-29492D02*
X48651Y-30192D01*
X48551Y-30292D02*
X48401Y-30292D01*
X48351Y-30242D02*
X48401Y-30292D01*
X48551Y-29392D02*
X48401Y-29392D01*
X48351Y-29442D02*
X48401Y-29392D01*
X46451Y-30242D02*
X46401Y-30292D01*
X46451Y-30242D02*
X48351Y-30242D01*
X46451Y-29442D02*
X46401Y-29392D01*
X46451Y-29442D02*
X48351Y-29442D01*
X46251Y-30292D02*
X46401Y-30292D01*
X46251Y-29392D02*
X46401Y-29392D01*
X46151Y-29492D02*
X46151Y-30192D01*
X48551Y-30292D02*
G75*
G03X48651Y-30192I0J100D01*
G74*
G01*
X48651Y-29492D02*
G75*
G03X48551Y-29392I-100J0D01*
G74*
G01*
X46251Y-29392D02*
G75*
G03X46151Y-29492I0J-100D01*
G74*
G01*
X46151Y-30192D02*
G75*
G03X46251Y-30292I100J0D01*
G74*
G01*
G54D12*
X69175Y-30639D02*
X69175Y-30299D01*
X69175Y-30299D02*
X68935Y-30299D01*
X68935Y-30639D02*
X68935Y-30299D01*
X69175Y-30639D02*
X68935Y-30639D01*
X69175Y-33479D02*
X69175Y-33139D01*
X69175Y-33139D02*
X68935Y-33139D01*
X68935Y-33479D02*
X68935Y-33139D01*
X69175Y-33479D02*
X68935Y-33479D01*
G54D13*
X69055Y-29889D02*
X69055Y-30289D01*
X69055Y-33889D02*
X69055Y-33489D01*
G54D10*
X69405Y-33139D02*
X68705Y-33139D01*
X68605Y-33039D02*
X68605Y-32889D01*
X68655Y-32839D02*
X68605Y-32889D01*
X69505Y-33039D02*
X69505Y-32889D01*
X69455Y-32839D02*
X69505Y-32889D01*
X68655Y-30939D02*
X68605Y-30889D01*
X68655Y-30939D02*
X68655Y-32839D01*
X69455Y-30939D02*
X69505Y-30889D01*
X69455Y-30939D02*
X69455Y-32839D01*
X68605Y-30739D02*
X68605Y-30889D01*
X69505Y-30739D02*
X69505Y-30889D01*
X69405Y-30639D02*
X68705Y-30639D01*
X68605Y-33039D02*
G75*
G03X68705Y-33139I100J0D01*
G74*
G01*
X69405Y-33139D02*
G75*
G03X69505Y-33039I0J100D01*
G74*
G01*
X69505Y-30739D02*
G75*
G03X69405Y-30639I-100J0D01*
G74*
G01*
X68705Y-30639D02*
G75*
G03X68605Y-30739I0J-100D01*
G74*
G01*
G54D12*
X59686Y-25246D02*
X59686Y-24906D01*
X59686Y-24906D02*
X59446Y-24906D01*
X59446Y-25246D02*
X59446Y-24906D01*
X59686Y-25246D02*
X59446Y-25246D01*
X59686Y-28086D02*
X59686Y-27746D01*
X59686Y-27746D02*
X59446Y-27746D01*
X59446Y-28086D02*
X59446Y-27746D01*
X59686Y-28086D02*
X59446Y-28086D01*
G54D13*
X59566Y-24496D02*
X59566Y-24896D01*
X59566Y-28496D02*
X59566Y-28096D01*
G54D10*
X59916Y-27746D02*
X59216Y-27746D01*
X59116Y-27646D02*
X59116Y-27496D01*
X59166Y-27446D02*
X59116Y-27496D01*
X60016Y-27646D02*
X60016Y-27496D01*
X59966Y-27446D02*
X60016Y-27496D01*
X59166Y-25546D02*
X59116Y-25496D01*
X59166Y-25546D02*
X59166Y-27446D01*
X59966Y-25546D02*
X60016Y-25496D01*
X59966Y-25546D02*
X59966Y-27446D01*
X59116Y-25346D02*
X59116Y-25496D01*
X60016Y-25346D02*
X60016Y-25496D01*
X59916Y-25246D02*
X59216Y-25246D01*
X59116Y-27646D02*
G75*
G03X59216Y-27746I100J0D01*
G74*
G01*
X59916Y-27746D02*
G75*
G03X60016Y-27646I0J100D01*
G74*
G01*
X60016Y-25346D02*
G75*
G03X59916Y-25246I-100J0D01*
G74*
G01*
X59216Y-25246D02*
G75*
G03X59116Y-25346I0J-100D01*
G74*
G01*
G54D12*
X62439Y-33179D02*
X62439Y-33519D01*
X62439Y-33519D02*
X62679Y-33519D01*
X62679Y-33179D02*
X62679Y-33519D01*
X62439Y-33179D02*
X62679Y-33179D01*
X62439Y-30339D02*
X62439Y-30679D01*
X62439Y-30679D02*
X62679Y-30679D01*
X62679Y-30339D02*
X62679Y-30679D01*
X62439Y-30339D02*
X62679Y-30339D01*
G54D13*
X62559Y-33929D02*
X62559Y-33529D01*
X62559Y-29929D02*
X62559Y-30329D01*
G54D10*
X62209Y-30679D02*
X62909Y-30679D01*
X63009Y-30779D02*
X63009Y-30929D01*
X62959Y-30979D02*
X63009Y-30929D01*
X62109Y-30779D02*
X62109Y-30929D01*
X62159Y-30979D02*
X62109Y-30929D01*
X62959Y-32879D02*
X63009Y-32929D01*
X62959Y-32879D02*
X62959Y-30979D01*
X62159Y-32879D02*
X62109Y-32929D01*
X62159Y-32879D02*
X62159Y-30979D01*
X63009Y-33079D02*
X63009Y-32929D01*
X62109Y-33079D02*
X62109Y-32929D01*
X62209Y-33179D02*
X62909Y-33179D01*
X63009Y-30779D02*
G75*
G03X62909Y-30679I-100J0D01*
G74*
G01*
X62209Y-30679D02*
G75*
G03X62109Y-30779I0J-100D01*
G74*
G01*
X62109Y-33079D02*
G75*
G03X62209Y-33179I100J0D01*
G74*
G01*
X62909Y-33179D02*
G75*
G03X63009Y-33079I0J100D01*
G74*
G01*
G54D12*
X56497Y-48395D02*
X56497Y-48055D01*
X56497Y-48055D02*
X56257Y-48055D01*
X56257Y-48395D02*
X56257Y-48055D01*
X56497Y-48395D02*
X56257Y-48395D01*
X56497Y-51235D02*
X56497Y-50895D01*
X56497Y-50895D02*
X56257Y-50895D01*
X56257Y-51235D02*
X56257Y-50895D01*
X56497Y-51235D02*
X56257Y-51235D01*
G54D13*
X56377Y-47645D02*
X56377Y-48045D01*
X56377Y-51645D02*
X56377Y-51245D01*
G54D10*
X56727Y-50895D02*
X56027Y-50895D01*
X55927Y-50795D02*
X55927Y-50645D01*
X55977Y-50595D02*
X55927Y-50645D01*
X56827Y-50795D02*
X56827Y-50645D01*
X56777Y-50595D02*
X56827Y-50645D01*
X55977Y-48695D02*
X55927Y-48645D01*
X55977Y-48695D02*
X55977Y-50595D01*
X56777Y-48695D02*
X56827Y-48645D01*
X56777Y-48695D02*
X56777Y-50595D01*
X55927Y-48495D02*
X55927Y-48645D01*
X56827Y-48495D02*
X56827Y-48645D01*
X56727Y-48395D02*
X56027Y-48395D01*
X55927Y-50795D02*
G75*
G03X56027Y-50895I100J0D01*
G74*
G01*
X56727Y-50895D02*
G75*
G03X56827Y-50795I0J100D01*
G74*
G01*
X56827Y-48495D02*
G75*
G03X56727Y-48395I-100J0D01*
G74*
G01*
X56027Y-48395D02*
G75*
G03X55927Y-48495I0J-100D01*
G74*
G01*
G54D12*
X47915Y-35364D02*
X47915Y-35024D01*
X47915Y-35024D02*
X47675Y-35024D01*
X47675Y-35364D02*
X47675Y-35024D01*
X47915Y-35364D02*
X47675Y-35364D01*
X47915Y-38204D02*
X47915Y-37864D01*
X47915Y-37864D02*
X47675Y-37864D01*
X47675Y-38204D02*
X47675Y-37864D01*
X47915Y-38204D02*
X47675Y-38204D01*
G54D13*
X47795Y-34614D02*
X47795Y-35014D01*
X47795Y-38614D02*
X47795Y-38214D01*
G54D10*
X48145Y-37864D02*
X47445Y-37864D01*
X47345Y-37764D02*
X47345Y-37614D01*
X47395Y-37564D02*
X47345Y-37614D01*
X48245Y-37764D02*
X48245Y-37614D01*
X48195Y-37564D02*
X48245Y-37614D01*
X47395Y-35664D02*
X47345Y-35614D01*
X47395Y-35664D02*
X47395Y-37564D01*
X48195Y-35664D02*
X48245Y-35614D01*
X48195Y-35664D02*
X48195Y-37564D01*
X47345Y-35464D02*
X47345Y-35614D01*
X48245Y-35464D02*
X48245Y-35614D01*
X48145Y-35364D02*
X47445Y-35364D01*
X47345Y-37764D02*
G75*
G03X47445Y-37864I100J0D01*
G74*
G01*
X48145Y-37864D02*
G75*
G03X48245Y-37764I0J100D01*
G74*
G01*
X48245Y-35464D02*
G75*
G03X48145Y-35364I-100J0D01*
G74*
G01*
X47445Y-35364D02*
G75*
G03X47345Y-35464I0J-100D01*
G74*
G01*
G54D12*
X58663Y-25246D02*
X58663Y-24906D01*
X58663Y-24906D02*
X58423Y-24906D01*
X58423Y-25246D02*
X58423Y-24906D01*
X58663Y-25246D02*
X58423Y-25246D01*
X58663Y-28086D02*
X58663Y-27746D01*
X58663Y-27746D02*
X58423Y-27746D01*
X58423Y-28086D02*
X58423Y-27746D01*
X58663Y-28086D02*
X58423Y-28086D01*
G54D13*
X58543Y-24496D02*
X58543Y-24896D01*
X58543Y-28496D02*
X58543Y-28096D01*
G54D10*
X58893Y-27746D02*
X58193Y-27746D01*
X58093Y-27646D02*
X58093Y-27496D01*
X58143Y-27446D02*
X58093Y-27496D01*
X58993Y-27646D02*
X58993Y-27496D01*
X58943Y-27446D02*
X58993Y-27496D01*
X58143Y-25546D02*
X58093Y-25496D01*
X58143Y-25546D02*
X58143Y-27446D01*
X58943Y-25546D02*
X58993Y-25496D01*
X58943Y-25546D02*
X58943Y-27446D01*
X58093Y-25346D02*
X58093Y-25496D01*
X58993Y-25346D02*
X58993Y-25496D01*
X58893Y-25246D02*
X58193Y-25246D01*
X58093Y-27646D02*
G75*
G03X58193Y-27746I100J0D01*
G74*
G01*
X58893Y-27746D02*
G75*
G03X58993Y-27646I0J100D01*
G74*
G01*
X58993Y-25346D02*
G75*
G03X58893Y-25246I-100J0D01*
G74*
G01*
X58193Y-25246D02*
G75*
G03X58093Y-25346I0J-100D01*
G74*
G01*
G54D12*
X65273Y-54084D02*
X65273Y-54424D01*
X65273Y-54424D02*
X65513Y-54424D01*
X65513Y-54084D02*
X65513Y-54424D01*
X65273Y-54084D02*
X65513Y-54084D01*
X65273Y-51244D02*
X65273Y-51584D01*
X65273Y-51584D02*
X65513Y-51584D01*
X65513Y-51244D02*
X65513Y-51584D01*
X65273Y-51244D02*
X65513Y-51244D01*
G54D13*
X65393Y-54834D02*
X65393Y-54434D01*
X65393Y-50834D02*
X65393Y-51234D01*
G54D10*
X65043Y-51584D02*
X65743Y-51584D01*
X65843Y-51684D02*
X65843Y-51834D01*
X65793Y-51884D02*
X65843Y-51834D01*
X64943Y-51684D02*
X64943Y-51834D01*
X64993Y-51884D02*
X64943Y-51834D01*
X65793Y-53784D02*
X65843Y-53834D01*
X65793Y-53784D02*
X65793Y-51884D01*
X64993Y-53784D02*
X64943Y-53834D01*
X64993Y-53784D02*
X64993Y-51884D01*
X65843Y-53984D02*
X65843Y-53834D01*
X64943Y-53984D02*
X64943Y-53834D01*
X65043Y-54084D02*
X65743Y-54084D01*
X65843Y-51684D02*
G75*
G03X65743Y-51584I-100J0D01*
G74*
G01*
X65043Y-51584D02*
G75*
G03X64943Y-51684I0J-100D01*
G74*
G01*
X64943Y-53984D02*
G75*
G03X65043Y-54084I100J0D01*
G74*
G01*
X65743Y-54084D02*
G75*
G03X65843Y-53984I0J100D01*
G74*
G01*
G54D12*
X54604Y-33218D02*
X54604Y-33558D01*
X54604Y-33558D02*
X54844Y-33558D01*
X54844Y-33218D02*
X54844Y-33558D01*
X54604Y-33218D02*
X54844Y-33218D01*
X54604Y-30378D02*
X54604Y-30718D01*
X54604Y-30718D02*
X54844Y-30718D01*
X54844Y-30378D02*
X54844Y-30718D01*
X54604Y-30378D02*
X54844Y-30378D01*
G54D13*
X54724Y-33968D02*
X54724Y-33568D01*
X54724Y-29968D02*
X54724Y-30368D01*
G54D10*
X54374Y-30718D02*
X55074Y-30718D01*
X55174Y-30818D02*
X55174Y-30968D01*
X55124Y-31018D02*
X55174Y-30968D01*
X54274Y-30818D02*
X54274Y-30968D01*
X54324Y-31018D02*
X54274Y-30968D01*
X55124Y-32918D02*
X55174Y-32968D01*
X55124Y-32918D02*
X55124Y-31018D01*
X54324Y-32918D02*
X54274Y-32968D01*
X54324Y-32918D02*
X54324Y-31018D01*
X55174Y-33118D02*
X55174Y-32968D01*
X54274Y-33118D02*
X54274Y-32968D01*
X54374Y-33218D02*
X55074Y-33218D01*
X55174Y-30818D02*
G75*
G03X55074Y-30718I-100J0D01*
G74*
G01*
X54374Y-30718D02*
G75*
G03X54274Y-30818I0J-100D01*
G74*
G01*
X54274Y-33118D02*
G75*
G03X54374Y-33218I100J0D01*
G74*
G01*
X55074Y-33218D02*
G75*
G03X55174Y-33118I0J100D01*
G74*
G01*
G54D12*
X56809Y-33218D02*
X56809Y-33558D01*
X56809Y-33558D02*
X57049Y-33558D01*
X57049Y-33218D02*
X57049Y-33558D01*
X56809Y-33218D02*
X57049Y-33218D01*
X56809Y-30378D02*
X56809Y-30718D01*
X56809Y-30718D02*
X57049Y-30718D01*
X57049Y-30378D02*
X57049Y-30718D01*
X56809Y-30378D02*
X57049Y-30378D01*
G54D13*
X56929Y-33968D02*
X56929Y-33568D01*
X56929Y-29968D02*
X56929Y-30368D01*
G54D10*
X56579Y-30718D02*
X57279Y-30718D01*
X57379Y-30818D02*
X57379Y-30968D01*
X57329Y-31018D02*
X57379Y-30968D01*
X56479Y-30818D02*
X56479Y-30968D01*
X56529Y-31018D02*
X56479Y-30968D01*
X57329Y-32918D02*
X57379Y-32968D01*
X57329Y-32918D02*
X57329Y-31018D01*
X56529Y-32918D02*
X56479Y-32968D01*
X56529Y-32918D02*
X56529Y-31018D01*
X57379Y-33118D02*
X57379Y-32968D01*
X56479Y-33118D02*
X56479Y-32968D01*
X56579Y-33218D02*
X57279Y-33218D01*
X57379Y-30818D02*
G75*
G03X57279Y-30718I-100J0D01*
G74*
G01*
X56579Y-30718D02*
G75*
G03X56479Y-30818I0J-100D01*
G74*
G01*
X56479Y-33118D02*
G75*
G03X56579Y-33218I100J0D01*
G74*
G01*
X57279Y-33218D02*
G75*
G03X57379Y-33118I0J100D01*
G74*
G01*
G54D12*
X64545Y-33159D02*
X64545Y-33499D01*
X64545Y-33499D02*
X64785Y-33499D01*
X64785Y-33159D02*
X64785Y-33499D01*
X64545Y-33159D02*
X64785Y-33159D01*
X64545Y-30319D02*
X64545Y-30659D01*
X64545Y-30659D02*
X64785Y-30659D01*
X64785Y-30319D02*
X64785Y-30659D01*
X64545Y-30319D02*
X64785Y-30319D01*
G54D13*
X64665Y-33909D02*
X64665Y-33509D01*
X64665Y-29909D02*
X64665Y-30309D01*
G54D10*
X64315Y-30659D02*
X65015Y-30659D01*
X65115Y-30759D02*
X65115Y-30909D01*
X65065Y-30959D02*
X65115Y-30909D01*
X64215Y-30759D02*
X64215Y-30909D01*
X64265Y-30959D02*
X64215Y-30909D01*
X65065Y-32859D02*
X65115Y-32909D01*
X65065Y-32859D02*
X65065Y-30959D01*
X64265Y-32859D02*
X64215Y-32909D01*
X64265Y-32859D02*
X64265Y-30959D01*
X65115Y-33059D02*
X65115Y-32909D01*
X64215Y-33059D02*
X64215Y-32909D01*
X64315Y-33159D02*
X65015Y-33159D01*
X65115Y-30759D02*
G75*
G03X65015Y-30659I-100J0D01*
G74*
G01*
X64315Y-30659D02*
G75*
G03X64215Y-30759I0J-100D01*
G74*
G01*
X64215Y-33059D02*
G75*
G03X64315Y-33159I100J0D01*
G74*
G01*
X65015Y-33159D02*
G75*
G03X65115Y-33059I0J100D01*
G74*
G01*
G54D12*
X58860Y-50482D02*
X58860Y-50142D01*
X58860Y-50142D02*
X58620Y-50142D01*
X58620Y-50482D02*
X58620Y-50142D01*
X58860Y-50482D02*
X58620Y-50482D01*
X58860Y-53322D02*
X58860Y-52982D01*
X58860Y-52982D02*
X58620Y-52982D01*
X58620Y-53322D02*
X58620Y-52982D01*
X58860Y-53322D02*
X58620Y-53322D01*
G54D13*
X58740Y-49732D02*
X58740Y-50132D01*
X58740Y-53732D02*
X58740Y-53332D01*
G54D10*
X59090Y-52982D02*
X58390Y-52982D01*
X58290Y-52882D02*
X58290Y-52732D01*
X58340Y-52682D02*
X58290Y-52732D01*
X59190Y-52882D02*
X59190Y-52732D01*
X59140Y-52682D02*
X59190Y-52732D01*
X58340Y-50782D02*
X58290Y-50732D01*
X58340Y-50782D02*
X58340Y-52682D01*
X59140Y-50782D02*
X59190Y-50732D01*
X59140Y-50782D02*
X59140Y-52682D01*
X58290Y-50582D02*
X58290Y-50732D01*
X59190Y-50582D02*
X59190Y-50732D01*
X59090Y-50482D02*
X58390Y-50482D01*
X58290Y-52882D02*
G75*
G03X58390Y-52982I100J0D01*
G74*
G01*
X59090Y-52982D02*
G75*
G03X59190Y-52882I0J100D01*
G74*
G01*
X59190Y-50582D02*
G75*
G03X59090Y-50482I-100J0D01*
G74*
G01*
X58390Y-50482D02*
G75*
G03X58290Y-50582I0J-100D01*
G74*
G01*
G54D12*
X70479Y-35788D02*
X70579Y-35788D01*
X70579Y-35788D02*
X70579Y-35588D01*
X70479Y-35588D02*
X70579Y-35588D01*
X70479Y-35788D02*
X70479Y-35588D01*
X71979Y-35788D02*
X72079Y-35788D01*
X72079Y-35788D02*
X72079Y-35588D01*
X71979Y-35588D02*
X72079Y-35588D01*
X71979Y-35788D02*
X71979Y-35588D01*
G54D23*
X72279Y-35688D02*
X72079Y-35688D01*
X70279Y-35688D02*
X70479Y-35688D01*
G54D10*
X70579Y-35938D02*
X70579Y-35438D01*
X70679Y-35338D02*
X70779Y-35338D01*
X70829Y-35388D02*
X70779Y-35338D01*
X70679Y-36038D02*
X70779Y-36038D01*
X70829Y-35988D02*
X70779Y-36038D01*
X71729Y-35388D02*
X71779Y-35338D01*
X71729Y-35388D02*
X70829Y-35388D01*
X71729Y-35988D02*
X71779Y-36038D01*
X71729Y-35988D02*
X70829Y-35988D01*
X71879Y-35338D02*
X71779Y-35338D01*
X71879Y-36038D02*
X71779Y-36038D01*
X71979Y-35938D02*
X71979Y-35438D01*
X70679Y-35338D02*
G75*
G03X70579Y-35438I0J-100D01*
G74*
G01*
X70579Y-35938D02*
G75*
G03X70679Y-36038I100J0D01*
G74*
G01*
X71879Y-36038D02*
G75*
G03X71979Y-35938I0J100D01*
G74*
G01*
X71979Y-35438D02*
G75*
G03X71879Y-35338I-100J0D01*
G74*
G01*
G54D14*
X71759Y-47897D02*
X71759Y-48897D01*
X71759Y-48897D02*
X72759Y-48897D01*
X69759Y-47897D02*
X72759Y-47897D01*
X72759Y-49897D02*
X69759Y-49897D01*
X69759Y-49897D02*
X69759Y-47897D01*
X72759Y-47897D02*
X72759Y-49897D01*
G54D12*
X68702Y-27727D02*
X68702Y-27627D01*
X68702Y-27627D02*
X68462Y-27627D01*
X68462Y-27727D02*
X68462Y-27627D01*
X68702Y-27727D02*
X68462Y-27727D01*
X68702Y-25127D02*
X68702Y-25027D01*
X68702Y-25027D02*
X68462Y-25027D01*
X68462Y-25127D02*
X68462Y-25027D01*
X68702Y-25127D02*
X68462Y-25127D01*
G54D13*
X68582Y-27877D02*
X68582Y-27727D01*
G54D10*
X68932Y-27627D02*
X68232Y-27627D01*
X68132Y-27527D02*
X68132Y-27377D01*
X68182Y-27327D02*
X68132Y-27377D01*
X69032Y-27527D02*
X69032Y-27377D01*
X68982Y-27327D02*
X69032Y-27377D01*
X68182Y-25427D02*
X68132Y-25377D01*
X68182Y-25427D02*
X68182Y-27327D01*
X68982Y-25427D02*
X69032Y-25377D01*
X68982Y-25427D02*
X68982Y-27327D01*
X68132Y-25227D02*
X68132Y-25377D01*
X69032Y-25227D02*
X69032Y-25377D01*
X68932Y-25127D02*
X68232Y-25127D01*
G54D13*
X68582Y-25027D02*
X68582Y-24877D01*
G54D10*
X68132Y-27527D02*
G75*
G03X68232Y-27627I100J0D01*
G74*
G01*
X68932Y-27627D02*
G75*
G03X69032Y-27527I0J100D01*
G74*
G01*
X69032Y-25227D02*
G75*
G03X68932Y-25127I-100J0D01*
G74*
G01*
X68232Y-25127D02*
G75*
G03X68132Y-25227I0J-100D01*
G74*
G01*
G54D14*
X73017Y-23401D02*
X69817Y-23401D01*
X69817Y-31401D02*
X73017Y-31401D01*
X69817Y-31401D02*
X69817Y-23401D01*
X73017Y-26601D02*
X72617Y-26601D01*
X72617Y-26601D02*
X72617Y-28201D01*
X73017Y-28201D02*
X72617Y-28201D01*
X73017Y-23401D02*
X73017Y-26601D01*
X73017Y-31401D02*
X73017Y-28201D01*
X73167Y-29401D02*
X73667Y-29901D01*
X73667Y-29901D02*
X73667Y-28901D01*
X73667Y-28901D02*
X73167Y-29401D01*
G54D18*
X60988Y-34173D02*
G75*
G03X60988Y-34173I-1500J0D01*
G74*
G01*
G54D14*
X54901Y-57446D02*
X54601Y-57446D01*
X53901Y-57446D02*
X53601Y-57446D01*
X58901Y-56646D02*
X58601Y-56646D01*
X57901Y-56646D02*
X57601Y-56646D01*
X56901Y-56646D02*
X56601Y-56646D01*
X55901Y-56646D02*
X55601Y-56646D01*
X54901Y-56646D02*
X54601Y-56646D01*
X53901Y-56646D02*
X53601Y-56646D01*
X52901Y-56646D02*
X52601Y-56646D01*
X51901Y-56646D02*
X51601Y-56646D01*
X50901Y-56646D02*
X50601Y-56646D01*
X49901Y-56646D02*
X49601Y-56646D01*
X47751Y-56646D02*
X47751Y-60146D01*
X60751Y-60146D02*
X60751Y-56646D01*
X60751Y-60146D02*
X58151Y-60146D01*
X47751Y-56646D02*
X49351Y-56646D01*
X60751Y-56646D02*
X58151Y-56646D01*
X58751Y-56746D02*
X58251Y-57446D01*
X58251Y-57446D02*
X59251Y-57446D01*
X59251Y-57446D02*
X58751Y-56746D01*
X55051Y-59946D02*
X55251Y-60146D01*
X55251Y-60146D02*
X53251Y-60146D01*
X53251Y-60146D02*
X53451Y-59946D01*
X56351Y-60146D02*
X55251Y-60146D01*
X58151Y-56646D02*
X56351Y-56646D01*
X56751Y-60146D02*
X56351Y-60146D01*
X57751Y-60146D02*
X58151Y-60146D01*
X55051Y-57446D02*
X53451Y-57446D01*
X55051Y-57446D02*
X55051Y-59946D01*
X53451Y-57446D02*
X53451Y-59946D01*
X51151Y-56646D02*
X56351Y-56646D01*
X49751Y-60146D02*
X49351Y-60146D01*
X50751Y-60146D02*
X51151Y-60146D01*
X49351Y-56646D02*
X51151Y-56646D01*
X47751Y-60146D02*
X49351Y-60146D01*
X51151Y-60146D02*
X53251Y-60146D01*
X49751Y-60146D02*
X50751Y-60146D01*
X57751Y-60146D02*
X56751Y-60146D01*
X67600Y-51425D02*
X67850Y-51425D01*
X67850Y-51425D02*
X67850Y-55425D01*
X67850Y-55425D02*
X67600Y-55425D01*
X66100Y-51425D02*
X67600Y-51425D01*
X67600Y-51425D02*
X67600Y-55425D01*
X67600Y-55425D02*
X66100Y-55425D01*
X66100Y-55425D02*
X66100Y-51425D01*
G54D19*
X50669Y-24645D02*
G75*
G03X51456Y-23858I0J787D01*
G74*
G01*
X51456Y-23858D02*
G75*
G03X50669Y-23071I-787J0D01*
G74*
G01*
G54D16*
X51670Y-23858D02*
G75*
G03X51670Y-23858I-1001J0D01*
G74*
G01*
G54D15*
X49775Y-22692D02*
X51275Y-21192D01*
X51275Y-21192D02*
X51275Y-20692D01*
X51275Y-20692D02*
X50775Y-20192D01*
X50775Y-20192D02*
X49775Y-20192D01*
X49775Y-20192D02*
X48775Y-21192D01*
X48775Y-21192D02*
X48775Y-22192D01*
X48775Y-22192D02*
X49275Y-22692D01*
X49275Y-22692D02*
X49775Y-22692D01*
X66598Y-22177D02*
X68098Y-23677D01*
X68098Y-23677D02*
X68598Y-23677D01*
X68598Y-23677D02*
X69098Y-23177D01*
X69098Y-23177D02*
X69098Y-22177D01*
X69098Y-22177D02*
X68098Y-21177D01*
X68098Y-21177D02*
X67098Y-21177D01*
X67098Y-21177D02*
X66598Y-21677D01*
X66598Y-21677D02*
X66598Y-22177D01*
G54D12*
X48033Y-20442D02*
X48033Y-20102D01*
X48033Y-20102D02*
X47793Y-20102D01*
X47793Y-20442D02*
X47793Y-20102D01*
X48033Y-20442D02*
X47793Y-20442D01*
X48033Y-23282D02*
X48033Y-22942D01*
X48033Y-22942D02*
X47793Y-22942D01*
X47793Y-23282D02*
X47793Y-22942D01*
X48033Y-23282D02*
X47793Y-23282D01*
G54D13*
X47913Y-19692D02*
X47913Y-20092D01*
X47913Y-23692D02*
X47913Y-23292D01*
G54D10*
X48263Y-22942D02*
X47563Y-22942D01*
X47463Y-22842D02*
X47463Y-22692D01*
X47513Y-22642D02*
X47463Y-22692D01*
X48363Y-22842D02*
X48363Y-22692D01*
X48313Y-22642D02*
X48363Y-22692D01*
X47513Y-20742D02*
X47463Y-20692D01*
X47513Y-20742D02*
X47513Y-22642D01*
X48313Y-20742D02*
X48363Y-20692D01*
X48313Y-20742D02*
X48313Y-22642D01*
X47463Y-20542D02*
X47463Y-20692D01*
X48363Y-20542D02*
X48363Y-20692D01*
X48263Y-20442D02*
X47563Y-20442D01*
X47463Y-22842D02*
G75*
G03X47563Y-22942I100J0D01*
G74*
G01*
X48263Y-22942D02*
G75*
G03X48363Y-22842I0J100D01*
G74*
G01*
X48363Y-20542D02*
G75*
G03X48263Y-20442I-100J0D01*
G74*
G01*
X47563Y-20442D02*
G75*
G03X47463Y-20542I0J-100D01*
G74*
G01*
G54D12*
X66143Y-20324D02*
X66143Y-19984D01*
X66143Y-19984D02*
X65903Y-19984D01*
X65903Y-20324D02*
X65903Y-19984D01*
X66143Y-20324D02*
X65903Y-20324D01*
X66143Y-23164D02*
X66143Y-22824D01*
X66143Y-22824D02*
X65903Y-22824D01*
X65903Y-23164D02*
X65903Y-22824D01*
X66143Y-23164D02*
X65903Y-23164D01*
G54D13*
X66023Y-19574D02*
X66023Y-19974D01*
X66023Y-23574D02*
X66023Y-23174D01*
G54D10*
X66373Y-22824D02*
X65673Y-22824D01*
X65573Y-22724D02*
X65573Y-22574D01*
X65623Y-22524D02*
X65573Y-22574D01*
X66473Y-22724D02*
X66473Y-22574D01*
X66423Y-22524D02*
X66473Y-22574D01*
X65623Y-20624D02*
X65573Y-20574D01*
X65623Y-20624D02*
X65623Y-22524D01*
X66423Y-20624D02*
X66473Y-20574D01*
X66423Y-20624D02*
X66423Y-22524D01*
X65573Y-20424D02*
X65573Y-20574D01*
X66473Y-20424D02*
X66473Y-20574D01*
X66373Y-20324D02*
X65673Y-20324D01*
X65573Y-22724D02*
G75*
G03X65673Y-22824I100J0D01*
G74*
G01*
X66373Y-22824D02*
G75*
G03X66473Y-22724I0J100D01*
G74*
G01*
X66473Y-20424D02*
G75*
G03X66373Y-20324I-100J0D01*
G74*
G01*
X65673Y-20324D02*
G75*
G03X65573Y-20424I0J-100D01*
G74*
G01*
G54D21*
X52145Y-20413D02*
X51949Y-20413D01*
X52145Y-22185D02*
X51949Y-22185D01*
X52264Y-22086D02*
X52145Y-22185D01*
X51830Y-22086D02*
X51949Y-22185D01*
X52323Y-22086D02*
X51742Y-22086D01*
X52411Y-22027D02*
X52411Y-20561D01*
G54D22*
X52362Y-20748D02*
X51771Y-20748D01*
X51771Y-20748D02*
X51771Y-20846D01*
X51771Y-20846D02*
X52362Y-20846D01*
G54D21*
X51732Y-20728D02*
X51732Y-20886D01*
X52382Y-20728D02*
X52382Y-20886D01*
X52264Y-20512D02*
X52145Y-20413D01*
X51811Y-20512D02*
X51949Y-20413D01*
X52313Y-20512D02*
X51771Y-20512D01*
X52411Y-20708D02*
X51693Y-20708D01*
X51693Y-20708D02*
X51693Y-20905D01*
X51693Y-20905D02*
X52411Y-20905D01*
X52411Y-20905D02*
X52411Y-20699D01*
X51732Y-20512D02*
X51771Y-20512D01*
X51732Y-22086D02*
X51771Y-22086D01*
X52362Y-22086D02*
X52323Y-22086D01*
X52352Y-20512D02*
X52313Y-20512D01*
X51732Y-20512D02*
G75*
G03X51693Y-20551I0J-39D01*
G74*
G01*
X51693Y-22047D02*
G75*
G03X51732Y-22086I39J0D01*
G74*
G01*
X51693Y-20551D02*
X51693Y-22047D01*
X52362Y-22086D02*
G75*
G03X52411Y-22037I0J49D01*
G74*
G01*
X52411Y-20559D02*
G75*
G03X52362Y-20510I-49J0D01*
G74*
G01*
X65137Y-20413D02*
X64941Y-20413D01*
X65137Y-22185D02*
X64941Y-22185D01*
X65256Y-22086D02*
X65137Y-22185D01*
X64822Y-22086D02*
X64941Y-22185D01*
X65315Y-22086D02*
X64734Y-22086D01*
X65403Y-22027D02*
X65403Y-20561D01*
G54D22*
X65354Y-20748D02*
X64763Y-20748D01*
X64763Y-20748D02*
X64763Y-20846D01*
X64763Y-20846D02*
X65354Y-20846D01*
G54D21*
X64724Y-20728D02*
X64724Y-20886D01*
X65374Y-20728D02*
X65374Y-20886D01*
X65256Y-20512D02*
X65137Y-20413D01*
X64803Y-20512D02*
X64941Y-20413D01*
X65305Y-20512D02*
X64763Y-20512D01*
X65403Y-20708D02*
X64685Y-20708D01*
X64685Y-20708D02*
X64685Y-20905D01*
X64685Y-20905D02*
X65403Y-20905D01*
X65403Y-20905D02*
X65403Y-20699D01*
X64724Y-20512D02*
X64763Y-20512D01*
X64724Y-22086D02*
X64763Y-22086D01*
X65354Y-22086D02*
X65315Y-22086D01*
X65344Y-20512D02*
X65305Y-20512D01*
X64724Y-20512D02*
G75*
G03X64685Y-20551I0J-39D01*
G74*
G01*
X64685Y-22047D02*
G75*
G03X64724Y-22086I39J0D01*
G74*
G01*
X64685Y-20551D02*
X64685Y-22047D01*
X65354Y-22086D02*
G75*
G03X65403Y-22037I0J49D01*
G74*
G01*
X65403Y-20559D02*
G75*
G03X65354Y-20510I-49J0D01*
G74*
G01*
X65409Y-28756D02*
X65409Y-28952D01*
X67181Y-28756D02*
X67181Y-28952D01*
X67082Y-28637D02*
X67181Y-28756D01*
X67082Y-29071D02*
X67181Y-28952D01*
X67082Y-28578D02*
X67082Y-29159D01*
X67023Y-28490D02*
X65557Y-28490D01*
G54D22*
X65744Y-28539D02*
X65744Y-29130D01*
X65744Y-29130D02*
X65842Y-29130D01*
X65842Y-29130D02*
X65842Y-28539D01*
G54D21*
X65724Y-29169D02*
X65882Y-29169D01*
X65724Y-28519D02*
X65882Y-28519D01*
X65508Y-28637D02*
X65409Y-28756D01*
X65508Y-29090D02*
X65409Y-28952D01*
X65508Y-28588D02*
X65508Y-29130D01*
X65704Y-28490D02*
X65704Y-29208D01*
X65704Y-29208D02*
X65901Y-29208D01*
X65901Y-29208D02*
X65901Y-28490D01*
X65901Y-28490D02*
X65695Y-28490D01*
X65508Y-29169D02*
X65508Y-29130D01*
X67082Y-29169D02*
X67082Y-29130D01*
X67082Y-28539D02*
X67082Y-28578D01*
X65508Y-28549D02*
X65508Y-28588D01*
X65508Y-29169D02*
G75*
G03X65547Y-29208I38J0D01*
G74*
G01*
X67043Y-29208D02*
G75*
G03X67082Y-29169I0J39D01*
G74*
G01*
X65547Y-29208D02*
X67043Y-29208D01*
X67082Y-28539D02*
G75*
G03X67033Y-28490I-49J0D01*
G74*
G01*
X65555Y-28490D02*
G75*
G03X65506Y-28539I0J-49D01*
G74*
G01*
G54D24*
X57241Y-20711D02*
X57241Y-20120D01*
X57466Y-20120D01*
X57522Y-20149D01*
X57550Y-20177D01*
X57578Y-20233D01*
X57578Y-20317D01*
X57550Y-20374D01*
X57522Y-20402D01*
X57466Y-20430D01*
X57241Y-20430D01*
X58169Y-20711D02*
X57972Y-20430D01*
X57831Y-20711D02*
X57831Y-20120D01*
X58056Y-20120D01*
X58113Y-20149D01*
X58141Y-20177D01*
X58169Y-20233D01*
X58169Y-20317D01*
X58141Y-20374D01*
X58113Y-20402D01*
X58056Y-20430D01*
X57831Y-20430D01*
X58731Y-20711D02*
X58394Y-20711D01*
X58562Y-20711D02*
X58562Y-20120D01*
X58506Y-20205D01*
X58450Y-20261D01*
X58394Y-20289D01*
G54D14*
X55607Y-36415D02*
X55607Y-36739D01*
X55626Y-36777D01*
X55645Y-36796D01*
X55683Y-36815D01*
X55759Y-36815D01*
X55797Y-36796D01*
X55816Y-36777D01*
X55835Y-36739D01*
X55835Y-36415D01*
X56007Y-36796D02*
X56064Y-36815D01*
X56159Y-36815D01*
X56197Y-36796D01*
X56216Y-36777D01*
X56235Y-36739D01*
X56235Y-36701D01*
X56216Y-36663D01*
X56197Y-36644D01*
X56159Y-36624D01*
X56083Y-36605D01*
X56045Y-36586D01*
X56026Y-36567D01*
X56007Y-36529D01*
X56007Y-36491D01*
X56026Y-36453D01*
X56045Y-36434D01*
X56083Y-36415D01*
X56178Y-36415D01*
X56235Y-36434D01*
X56578Y-36415D02*
X56502Y-36415D01*
X56464Y-36434D01*
X56445Y-36453D01*
X56407Y-36510D01*
X56388Y-36586D01*
X56388Y-36739D01*
X56407Y-36777D01*
X56426Y-36796D01*
X56464Y-36815D01*
X56540Y-36815D01*
X56578Y-36796D01*
X56597Y-36777D01*
X56616Y-36739D01*
X56616Y-36644D01*
X56597Y-36605D01*
X56578Y-36586D01*
X56540Y-36567D01*
X56464Y-36567D01*
X56426Y-36586D01*
X56407Y-36605D01*
X56388Y-36644D01*
G54D10*
X69689Y-32049D02*
X69689Y-31655D01*
X69839Y-31655D01*
X69877Y-31674D01*
X69895Y-31692D01*
X69914Y-31730D01*
X69914Y-31786D01*
X69895Y-31824D01*
X69877Y-31842D01*
X69839Y-31861D01*
X69689Y-31861D01*
X70064Y-31692D02*
X70083Y-31674D01*
X70120Y-31655D01*
X70214Y-31655D01*
X70252Y-31674D01*
X70270Y-31692D01*
X70289Y-31730D01*
X70289Y-31767D01*
X70270Y-31824D01*
X70045Y-32049D01*
X70289Y-32049D01*
X47509Y-32880D02*
X47509Y-32280D01*
X47738Y-32280D01*
X47795Y-32309D01*
X47824Y-32337D01*
X47852Y-32394D01*
X47852Y-32480D01*
X47824Y-32537D01*
X47795Y-32566D01*
X47738Y-32594D01*
X47509Y-32594D01*
X48052Y-32280D02*
X48424Y-32280D01*
X48224Y-32509D01*
X48309Y-32509D01*
X48367Y-32537D01*
X48395Y-32566D01*
X48424Y-32623D01*
X48424Y-32766D01*
X48395Y-32823D01*
X48367Y-32852D01*
X48309Y-32880D01*
X48138Y-32880D01*
X48081Y-32852D01*
X48052Y-32823D01*
X51205Y-32954D02*
X51205Y-32560D01*
X51355Y-32560D01*
X51392Y-32579D01*
X51411Y-32598D01*
X51430Y-32635D01*
X51430Y-32692D01*
X51411Y-32729D01*
X51392Y-32748D01*
X51355Y-32767D01*
X51205Y-32767D01*
X51767Y-32692D02*
X51767Y-32954D01*
X51674Y-32542D02*
X51580Y-32823D01*
X51824Y-32823D01*
G54D25*
X70803Y-41454D02*
X70803Y-41778D01*
X70823Y-41816D01*
X70842Y-41835D01*
X70880Y-41854D01*
X70956Y-41854D01*
X70994Y-41835D01*
X71013Y-41816D01*
X71032Y-41778D01*
X71032Y-41454D01*
X71203Y-41835D02*
X71261Y-41854D01*
X71356Y-41854D01*
X71394Y-41835D01*
X71413Y-41816D01*
X71432Y-41778D01*
X71432Y-41740D01*
X71413Y-41702D01*
X71394Y-41683D01*
X71356Y-41664D01*
X71280Y-41645D01*
X71242Y-41626D01*
X71223Y-41607D01*
X71203Y-41569D01*
X71203Y-41531D01*
X71223Y-41492D01*
X71242Y-41473D01*
X71280Y-41454D01*
X71375Y-41454D01*
X71432Y-41473D01*
X71584Y-41492D02*
X71603Y-41473D01*
X71642Y-41454D01*
X71737Y-41454D01*
X71775Y-41473D01*
X71794Y-41492D01*
X71813Y-41531D01*
X71813Y-41569D01*
X71794Y-41626D01*
X71565Y-41854D01*
X71813Y-41854D01*
X70725Y-37557D02*
X70725Y-37880D01*
X70744Y-37919D01*
X70763Y-37938D01*
X70801Y-37957D01*
X70877Y-37957D01*
X70915Y-37938D01*
X70934Y-37919D01*
X70953Y-37880D01*
X70953Y-37557D01*
X71125Y-37938D02*
X71182Y-37957D01*
X71277Y-37957D01*
X71315Y-37938D01*
X71334Y-37919D01*
X71353Y-37880D01*
X71353Y-37842D01*
X71334Y-37804D01*
X71315Y-37785D01*
X71277Y-37766D01*
X71201Y-37747D01*
X71163Y-37728D01*
X71144Y-37709D01*
X71125Y-37671D01*
X71125Y-37633D01*
X71144Y-37595D01*
X71163Y-37576D01*
X71201Y-37557D01*
X71296Y-37557D01*
X71353Y-37576D01*
X71696Y-37690D02*
X71696Y-37957D01*
X71601Y-37538D02*
X71506Y-37823D01*
X71753Y-37823D01*
X70764Y-45313D02*
X70764Y-45636D01*
X70783Y-45674D01*
X70802Y-45694D01*
X70840Y-45713D01*
X70916Y-45713D01*
X70955Y-45694D01*
X70974Y-45674D01*
X70993Y-45636D01*
X70993Y-45313D01*
X71164Y-45694D02*
X71221Y-45713D01*
X71316Y-45713D01*
X71355Y-45694D01*
X71374Y-45674D01*
X71393Y-45636D01*
X71393Y-45598D01*
X71374Y-45560D01*
X71355Y-45541D01*
X71316Y-45522D01*
X71240Y-45503D01*
X71202Y-45484D01*
X71183Y-45465D01*
X71164Y-45427D01*
X71164Y-45389D01*
X71183Y-45351D01*
X71202Y-45332D01*
X71240Y-45313D01*
X71336Y-45313D01*
X71393Y-45332D01*
X71774Y-45713D02*
X71545Y-45713D01*
X71659Y-45713D02*
X71659Y-45313D01*
X71621Y-45370D01*
X71583Y-45408D01*
X71545Y-45427D01*
G54D10*
X61663Y-35675D02*
X61663Y-35075D01*
X62006Y-35675D02*
X61749Y-35333D01*
X62006Y-35075D02*
X61663Y-35418D01*
X62234Y-35133D02*
X62263Y-35104D01*
X62320Y-35075D01*
X62463Y-35075D01*
X62520Y-35104D01*
X62549Y-35133D01*
X62577Y-35190D01*
X62577Y-35247D01*
X62549Y-35333D01*
X62206Y-35675D01*
X62577Y-35675D01*
G54D26*
X53200Y-26650D02*
X53200Y-27216D01*
X53221Y-27283D01*
X53243Y-27316D01*
X53286Y-27350D01*
X53371Y-27350D01*
X53414Y-27316D01*
X53436Y-27283D01*
X53457Y-27216D01*
X53457Y-26650D01*
X53907Y-27350D02*
X53650Y-27350D01*
X53779Y-27350D02*
X53779Y-26650D01*
X53736Y-26750D01*
X53693Y-26816D01*
X53650Y-26850D01*
G54D15*
G54D26*
X47277Y-26551D02*
X47277Y-27118D01*
X47298Y-27185D01*
X47320Y-27218D01*
X47363Y-27251D01*
X47448Y-27251D01*
X47491Y-27218D01*
X47513Y-27185D01*
X47534Y-27118D01*
X47534Y-26551D01*
X47727Y-27218D02*
X47791Y-27251D01*
X47898Y-27251D01*
X47941Y-27218D01*
X47963Y-27185D01*
X47984Y-27118D01*
X47984Y-27051D01*
X47963Y-26985D01*
X47941Y-26951D01*
X47898Y-26918D01*
X47813Y-26885D01*
X47770Y-26851D01*
X47748Y-26818D01*
X47727Y-26751D01*
X47727Y-26685D01*
X47748Y-26618D01*
X47770Y-26585D01*
X47813Y-26551D01*
X47920Y-26551D01*
X47984Y-26585D01*
X48134Y-26551D02*
X48434Y-26551D01*
X48241Y-27251D01*
G54D15*
G54D26*
X62452Y-26650D02*
X62452Y-27216D01*
X62473Y-27283D01*
X62495Y-27316D01*
X62538Y-27350D01*
X62623Y-27350D01*
X62666Y-27316D01*
X62688Y-27283D01*
X62709Y-27216D01*
X62709Y-26650D01*
X62902Y-26716D02*
X62923Y-26683D01*
X62966Y-26650D01*
X63073Y-26650D01*
X63116Y-26683D01*
X63138Y-26716D01*
X63159Y-26783D01*
X63159Y-26850D01*
X63138Y-26950D01*
X62880Y-27350D01*
X63159Y-27350D01*
G54D15*
G54D26*
X57885Y-42730D02*
X57885Y-43196D01*
X57692Y-42730D02*
X57692Y-43096D01*
X57714Y-43163D01*
X57756Y-43196D01*
X57821Y-43196D01*
X57864Y-43163D01*
X57885Y-43130D01*
X58356Y-43130D02*
X58335Y-43163D01*
X58271Y-43196D01*
X58228Y-43196D01*
X58164Y-43163D01*
X58121Y-43096D01*
X58099Y-43030D01*
X58078Y-42896D01*
X58078Y-42796D01*
X58099Y-42663D01*
X58121Y-42596D01*
X58164Y-42530D01*
X58228Y-42496D01*
X58271Y-42496D01*
X58335Y-42530D01*
X58356Y-42563D01*
X58785Y-43196D02*
X58528Y-43196D01*
X58656Y-43196D02*
X58656Y-42496D01*
X58614Y-42596D01*
X58571Y-42663D01*
X58528Y-42696D01*
G54D15*
G54D26*
X50269Y-49249D02*
X50269Y-49734D01*
X50291Y-49792D01*
X50312Y-49820D01*
X50355Y-49849D01*
X50441Y-49849D01*
X50483Y-49820D01*
X50505Y-49792D01*
X50526Y-49734D01*
X50526Y-49249D01*
X50719Y-49820D02*
X50783Y-49849D01*
X50891Y-49849D01*
X50933Y-49820D01*
X50955Y-49792D01*
X50976Y-49734D01*
X50976Y-49677D01*
X50955Y-49620D01*
X50933Y-49592D01*
X50891Y-49563D01*
X50805Y-49534D01*
X50762Y-49506D01*
X50741Y-49477D01*
X50719Y-49420D01*
X50719Y-49363D01*
X50741Y-49306D01*
X50762Y-49277D01*
X50805Y-49249D01*
X50912Y-49249D01*
X50976Y-49277D01*
X51126Y-49249D02*
X51405Y-49249D01*
X51255Y-49477D01*
X51319Y-49477D01*
X51362Y-49506D01*
X51383Y-49534D01*
X51405Y-49592D01*
X51405Y-49734D01*
X51383Y-49792D01*
X51362Y-49820D01*
X51319Y-49849D01*
X51191Y-49849D01*
X51148Y-49820D01*
X51126Y-49792D01*
G54D15*
X44124Y-32486D02*
X44124Y-31886D01*
X44466Y-32486D02*
X44209Y-32144D01*
X44466Y-31886D02*
X44124Y-32229D01*
X45038Y-32486D02*
X44695Y-32486D01*
X44866Y-32486D02*
X44866Y-31886D01*
X44809Y-31972D01*
X44752Y-32029D01*
X44695Y-32058D01*
G54D10*
X61661Y-53414D02*
X61632Y-53442D01*
X61547Y-53471D01*
X61490Y-53471D01*
X61404Y-53442D01*
X61347Y-53385D01*
X61318Y-53328D01*
X61290Y-53214D01*
X61290Y-53128D01*
X61318Y-53014D01*
X61347Y-52956D01*
X61404Y-52899D01*
X61490Y-52871D01*
X61547Y-52871D01*
X61632Y-52899D01*
X61661Y-52928D01*
X61890Y-52928D02*
X61918Y-52899D01*
X61975Y-52871D01*
X62118Y-52871D01*
X62175Y-52899D01*
X62204Y-52928D01*
X62232Y-52985D01*
X62232Y-53042D01*
X62204Y-53128D01*
X61861Y-53471D01*
X62232Y-53471D01*
X62804Y-53471D02*
X62461Y-53471D01*
X62632Y-53471D02*
X62632Y-52871D01*
X62575Y-52956D01*
X62518Y-53014D01*
X62461Y-53042D01*
X66937Y-48965D02*
X66908Y-48993D01*
X66822Y-49022D01*
X66765Y-49022D01*
X66679Y-48993D01*
X66622Y-48936D01*
X66594Y-48879D01*
X66565Y-48765D01*
X66565Y-48679D01*
X66594Y-48565D01*
X66622Y-48508D01*
X66679Y-48450D01*
X66765Y-48422D01*
X66822Y-48422D01*
X66908Y-48450D01*
X66937Y-48479D01*
X67165Y-48479D02*
X67194Y-48450D01*
X67251Y-48422D01*
X67394Y-48422D01*
X67451Y-48450D01*
X67479Y-48479D01*
X67508Y-48536D01*
X67508Y-48593D01*
X67479Y-48679D01*
X67137Y-49022D01*
X67508Y-49022D01*
X68022Y-48622D02*
X68022Y-49022D01*
X67879Y-48393D02*
X67737Y-48822D01*
X68108Y-48822D01*
X54274Y-36972D02*
X54255Y-36991D01*
X54199Y-37009D01*
X54161Y-37009D01*
X54105Y-36991D01*
X54068Y-36953D01*
X54049Y-36916D01*
X54030Y-36841D01*
X54030Y-36784D01*
X54049Y-36709D01*
X54068Y-36672D01*
X54105Y-36634D01*
X54161Y-36616D01*
X54199Y-36616D01*
X54255Y-36634D01*
X54274Y-36653D01*
X54424Y-36653D02*
X54443Y-36634D01*
X54480Y-36616D01*
X54574Y-36616D01*
X54611Y-36634D01*
X54630Y-36653D01*
X54649Y-36691D01*
X54649Y-36728D01*
X54630Y-36784D01*
X54405Y-37009D01*
X54649Y-37009D01*
X54780Y-36616D02*
X55043Y-36616D01*
X54874Y-37009D01*
X45598Y-52390D02*
X45569Y-52419D01*
X45484Y-52447D01*
X45427Y-52447D01*
X45341Y-52419D01*
X45284Y-52361D01*
X45255Y-52304D01*
X45227Y-52190D01*
X45227Y-52104D01*
X45255Y-51990D01*
X45284Y-51933D01*
X45341Y-51876D01*
X45427Y-51847D01*
X45484Y-51847D01*
X45569Y-51876D01*
X45598Y-51904D01*
X46169Y-52447D02*
X45827Y-52447D01*
X45998Y-52447D02*
X45998Y-51847D01*
X45941Y-51933D01*
X45884Y-51990D01*
X45827Y-52019D01*
X46398Y-51904D02*
X46427Y-51876D01*
X46484Y-51847D01*
X46627Y-51847D01*
X46684Y-51876D01*
X46712Y-51904D01*
X46741Y-51961D01*
X46741Y-52019D01*
X46712Y-52104D01*
X46369Y-52447D01*
X46741Y-52447D01*
G54D27*
X50691Y-52247D02*
X50673Y-52266D01*
X50616Y-52285D01*
X50579Y-52285D01*
X50523Y-52266D01*
X50485Y-52229D01*
X50466Y-52191D01*
X50448Y-52116D01*
X50448Y-52060D01*
X50466Y-51985D01*
X50485Y-51947D01*
X50523Y-51910D01*
X50579Y-51891D01*
X50616Y-51891D01*
X50673Y-51910D01*
X50691Y-51929D01*
X51066Y-52285D02*
X50841Y-52285D01*
X50954Y-52285D02*
X50954Y-51891D01*
X50916Y-51947D01*
X50879Y-51985D01*
X50841Y-52004D01*
X51197Y-51891D02*
X51441Y-51891D01*
X51310Y-52041D01*
X51366Y-52041D01*
X51404Y-52060D01*
X51422Y-52079D01*
X51441Y-52116D01*
X51441Y-52210D01*
X51422Y-52247D01*
X51404Y-52266D01*
X51366Y-52285D01*
X51254Y-52285D01*
X51216Y-52266D01*
X51197Y-52247D01*
X48832Y-52247D02*
X48813Y-52266D01*
X48757Y-52285D01*
X48719Y-52285D01*
X48663Y-52266D01*
X48625Y-52229D01*
X48607Y-52191D01*
X48588Y-52116D01*
X48588Y-52060D01*
X48607Y-51985D01*
X48625Y-51947D01*
X48663Y-51910D01*
X48719Y-51891D01*
X48757Y-51891D01*
X48813Y-51910D01*
X48832Y-51929D01*
X49056Y-52060D02*
X49019Y-52041D01*
X49000Y-52022D01*
X48982Y-51985D01*
X48982Y-51966D01*
X49000Y-51929D01*
X49019Y-51910D01*
X49056Y-51891D01*
X49131Y-51891D01*
X49169Y-51910D01*
X49188Y-51929D01*
X49206Y-51966D01*
X49206Y-51985D01*
X49188Y-52022D01*
X49169Y-52041D01*
X49131Y-52060D01*
X49056Y-52060D01*
X49019Y-52079D01*
X49000Y-52097D01*
X48982Y-52135D01*
X48982Y-52210D01*
X49000Y-52247D01*
X49019Y-52266D01*
X49056Y-52285D01*
X49131Y-52285D01*
X49169Y-52266D01*
X49188Y-52247D01*
X49206Y-52210D01*
X49206Y-52135D01*
X49188Y-52097D01*
X49169Y-52079D01*
X49131Y-52060D01*
X53359Y-52247D02*
X53340Y-52266D01*
X53284Y-52285D01*
X53247Y-52285D01*
X53190Y-52266D01*
X53153Y-52229D01*
X53134Y-52191D01*
X53115Y-52116D01*
X53115Y-52060D01*
X53134Y-51985D01*
X53153Y-51947D01*
X53190Y-51910D01*
X53247Y-51891D01*
X53284Y-51891D01*
X53340Y-51910D01*
X53359Y-51929D01*
X53547Y-52285D02*
X53622Y-52285D01*
X53659Y-52266D01*
X53678Y-52247D01*
X53715Y-52191D01*
X53734Y-52116D01*
X53734Y-51966D01*
X53715Y-51929D01*
X53697Y-51910D01*
X53659Y-51891D01*
X53584Y-51891D01*
X53547Y-51910D01*
X53528Y-51929D01*
X53509Y-51966D01*
X53509Y-52060D01*
X53528Y-52097D01*
X53547Y-52116D01*
X53584Y-52135D01*
X53659Y-52135D01*
X53697Y-52116D01*
X53715Y-52097D01*
X53734Y-52060D01*
G54D25*
X50548Y-31305D02*
X50572Y-31329D01*
X50596Y-31400D01*
X50596Y-31448D01*
X50572Y-31519D01*
X50524Y-31567D01*
X50477Y-31591D01*
X50381Y-31615D01*
X50310Y-31615D01*
X50215Y-31591D01*
X50167Y-31567D01*
X50119Y-31519D01*
X50096Y-31448D01*
X50096Y-31400D01*
X50119Y-31329D01*
X50143Y-31305D01*
X50096Y-31139D02*
X50096Y-30829D01*
X50286Y-30996D01*
X50286Y-30924D01*
X50310Y-30877D01*
X50334Y-30853D01*
X50381Y-30829D01*
X50500Y-30829D01*
X50548Y-30853D01*
X50572Y-30877D01*
X50596Y-30924D01*
X50596Y-31067D01*
X50572Y-31115D01*
X50548Y-31139D01*
X50096Y-30519D02*
X50096Y-30472D01*
X50119Y-30424D01*
X50143Y-30400D01*
X50191Y-30377D01*
X50286Y-30353D01*
X50405Y-30353D01*
X50500Y-30377D01*
X50548Y-30400D01*
X50572Y-30424D01*
X50596Y-30472D01*
X50596Y-30519D01*
X50572Y-30567D01*
X50548Y-30591D01*
X50500Y-30615D01*
X50405Y-30639D01*
X50286Y-30639D01*
X50191Y-30615D01*
X50143Y-30591D01*
X50119Y-30567D01*
X50096Y-30519D01*
X44560Y-25942D02*
X44536Y-25965D01*
X44465Y-25989D01*
X44417Y-25989D01*
X44346Y-25965D01*
X44298Y-25918D01*
X44274Y-25870D01*
X44250Y-25775D01*
X44250Y-25704D01*
X44274Y-25608D01*
X44298Y-25561D01*
X44346Y-25513D01*
X44417Y-25489D01*
X44465Y-25489D01*
X44536Y-25513D01*
X44560Y-25537D01*
X44727Y-25489D02*
X45036Y-25489D01*
X44869Y-25680D01*
X44941Y-25680D01*
X44989Y-25704D01*
X45012Y-25727D01*
X45036Y-25775D01*
X45036Y-25894D01*
X45012Y-25942D01*
X44989Y-25965D01*
X44941Y-25989D01*
X44798Y-25989D01*
X44750Y-25965D01*
X44727Y-25942D01*
X45203Y-25489D02*
X45512Y-25489D01*
X45346Y-25680D01*
X45417Y-25680D01*
X45465Y-25704D01*
X45489Y-25727D01*
X45512Y-25775D01*
X45512Y-25894D01*
X45489Y-25942D01*
X45465Y-25965D01*
X45417Y-25989D01*
X45274Y-25989D01*
X45227Y-25965D01*
X45203Y-25942D01*
X50269Y-25450D02*
X50245Y-25473D01*
X50173Y-25497D01*
X50126Y-25497D01*
X50054Y-25473D01*
X50007Y-25426D01*
X49983Y-25378D01*
X49959Y-25283D01*
X49959Y-25211D01*
X49983Y-25116D01*
X50007Y-25069D01*
X50054Y-25021D01*
X50126Y-24997D01*
X50173Y-24997D01*
X50245Y-25021D01*
X50269Y-25045D01*
X50435Y-24997D02*
X50745Y-24997D01*
X50578Y-25188D01*
X50650Y-25188D01*
X50697Y-25211D01*
X50721Y-25235D01*
X50745Y-25283D01*
X50745Y-25402D01*
X50721Y-25450D01*
X50697Y-25473D01*
X50650Y-25497D01*
X50507Y-25497D01*
X50459Y-25473D01*
X50435Y-25450D01*
X51197Y-24997D02*
X50959Y-24997D01*
X50935Y-25235D01*
X50959Y-25211D01*
X51007Y-25188D01*
X51126Y-25188D01*
X51173Y-25211D01*
X51197Y-25235D01*
X51221Y-25283D01*
X51221Y-25402D01*
X51197Y-25450D01*
X51173Y-25473D01*
X51126Y-25497D01*
X51007Y-25497D01*
X50959Y-25473D01*
X50935Y-25450D01*
G54D10*
X62431Y-56975D02*
X62431Y-56375D01*
X62574Y-56375D01*
X62659Y-56403D01*
X62716Y-56460D01*
X62745Y-56517D01*
X62774Y-56632D01*
X62774Y-56717D01*
X62745Y-56832D01*
X62716Y-56889D01*
X62659Y-56946D01*
X62574Y-56975D01*
X62431Y-56975D01*
X62974Y-56375D02*
X63345Y-56375D01*
X63145Y-56603D01*
X63231Y-56603D01*
X63288Y-56632D01*
X63316Y-56660D01*
X63345Y-56717D01*
X63345Y-56860D01*
X63316Y-56917D01*
X63288Y-56946D01*
X63231Y-56975D01*
X63059Y-56975D01*
X63002Y-56946D01*
X62974Y-56917D01*
X48938Y-37407D02*
X48545Y-37407D01*
X48545Y-37313D01*
X48563Y-37257D01*
X48601Y-37219D01*
X48638Y-37200D01*
X48713Y-37182D01*
X48770Y-37182D01*
X48845Y-37200D01*
X48882Y-37219D01*
X48920Y-37257D01*
X48938Y-37313D01*
X48938Y-37407D01*
X48545Y-37050D02*
X48545Y-36788D01*
X48938Y-37050D01*
X48938Y-36788D01*
X48938Y-36432D02*
X48938Y-36657D01*
X48938Y-36544D02*
X48545Y-36544D01*
X48601Y-36582D01*
X48638Y-36619D01*
X48657Y-36657D01*
X66399Y-26865D02*
X66005Y-26865D01*
X66005Y-26771D01*
X66024Y-26715D01*
X66062Y-26677D01*
X66099Y-26659D01*
X66174Y-26640D01*
X66230Y-26640D01*
X66305Y-26659D01*
X66343Y-26677D01*
X66380Y-26715D01*
X66399Y-26771D01*
X66399Y-26865D01*
X66399Y-26265D02*
X66399Y-26490D01*
X66399Y-26377D02*
X66005Y-26377D01*
X66062Y-26415D01*
X66099Y-26452D01*
X66118Y-26490D01*
X67580Y-26668D02*
X67186Y-26668D01*
X67186Y-26574D01*
X67205Y-26518D01*
X67243Y-26481D01*
X67280Y-26462D01*
X67355Y-26443D01*
X67411Y-26443D01*
X67486Y-26462D01*
X67524Y-26481D01*
X67561Y-26518D01*
X67580Y-26574D01*
X67580Y-26668D01*
X67224Y-26293D02*
X67205Y-26274D01*
X67186Y-26237D01*
X67186Y-26143D01*
X67205Y-26106D01*
X67224Y-26087D01*
X67261Y-26068D01*
X67299Y-26068D01*
X67355Y-26087D01*
X67580Y-26312D01*
X67580Y-26068D01*
X70763Y-50154D02*
X70763Y-50640D01*
X70791Y-50697D01*
X70820Y-50726D01*
X70877Y-50754D01*
X70991Y-50754D01*
X71049Y-50726D01*
X71077Y-50697D01*
X71106Y-50640D01*
X71106Y-50154D01*
X71334Y-50154D02*
X71706Y-50154D01*
X71506Y-50383D01*
X71591Y-50383D01*
X71649Y-50411D01*
X71677Y-50440D01*
X71706Y-50497D01*
X71706Y-50640D01*
X71677Y-50697D01*
X71649Y-50726D01*
X71591Y-50754D01*
X71420Y-50754D01*
X71363Y-50726D01*
X71334Y-50697D01*
X71013Y-24357D02*
X71013Y-23757D01*
X71356Y-24357D02*
X71099Y-24014D01*
X71356Y-23757D02*
X71013Y-24099D01*
X71870Y-23957D02*
X71870Y-24357D01*
X71728Y-23728D02*
X71585Y-24157D01*
X71956Y-24157D01*
G54D14*
X59447Y-33510D02*
X59161Y-33510D01*
X59161Y-32910D01*
X59961Y-33510D02*
X59618Y-33510D01*
X59790Y-33510D02*
X59790Y-32910D01*
X59732Y-32996D01*
X59675Y-33053D01*
X59618Y-33082D01*
G54D10*
X48100Y-57801D02*
X48100Y-57201D01*
X48443Y-57801D02*
X48186Y-57459D01*
X48443Y-57201D02*
X48100Y-57544D01*
X48643Y-57201D02*
X49014Y-57201D01*
X48814Y-57430D01*
X48900Y-57430D01*
X48957Y-57459D01*
X48986Y-57487D01*
X49014Y-57544D01*
X49014Y-57687D01*
X48986Y-57744D01*
X48957Y-57773D01*
X48900Y-57801D01*
X48729Y-57801D01*
X48671Y-57773D01*
X48643Y-57744D01*
G54D27*
X66402Y-51537D02*
X66402Y-51856D01*
X66421Y-51893D01*
X66439Y-51912D01*
X66477Y-51931D01*
X66552Y-51931D01*
X66589Y-51912D01*
X66608Y-51893D01*
X66627Y-51856D01*
X66627Y-51537D01*
X66796Y-51912D02*
X66852Y-51931D01*
X66946Y-51931D01*
X66983Y-51912D01*
X67002Y-51893D01*
X67020Y-51856D01*
X67020Y-51818D01*
X67002Y-51781D01*
X66983Y-51762D01*
X66946Y-51743D01*
X66871Y-51724D01*
X66833Y-51706D01*
X66814Y-51687D01*
X66796Y-51649D01*
X66796Y-51612D01*
X66814Y-51574D01*
X66833Y-51556D01*
X66871Y-51537D01*
X66964Y-51537D01*
X67020Y-51556D01*
X67377Y-51537D02*
X67189Y-51537D01*
X67170Y-51724D01*
X67189Y-51706D01*
X67227Y-51687D01*
X67320Y-51687D01*
X67358Y-51706D01*
X67377Y-51724D01*
X67395Y-51762D01*
X67395Y-51856D01*
X67377Y-51893D01*
X67358Y-51912D01*
X67320Y-51931D01*
X67227Y-51931D01*
X67189Y-51912D01*
X67170Y-51893D01*
X48861Y-24137D02*
X48842Y-24156D01*
X48786Y-24175D01*
X48748Y-24175D01*
X48692Y-24156D01*
X48654Y-24118D01*
X48636Y-24081D01*
X48617Y-24006D01*
X48617Y-23950D01*
X48636Y-23875D01*
X48654Y-23837D01*
X48692Y-23800D01*
X48748Y-23781D01*
X48786Y-23781D01*
X48842Y-23800D01*
X48861Y-23818D01*
X48992Y-23781D02*
X49236Y-23781D01*
X49104Y-23931D01*
X49161Y-23931D01*
X49198Y-23950D01*
X49217Y-23968D01*
X49236Y-24006D01*
X49236Y-24100D01*
X49217Y-24137D01*
X49198Y-24156D01*
X49161Y-24175D01*
X49048Y-24175D01*
X49011Y-24156D01*
X48992Y-24137D01*
X49573Y-23912D02*
X49573Y-24175D01*
X49479Y-23762D02*
X49386Y-24043D01*
X49629Y-24043D01*
G54D14*
X49990Y-20431D02*
X50219Y-20431D01*
X50104Y-20831D02*
X50104Y-20431D01*
X50333Y-20469D02*
X50352Y-20450D01*
X50390Y-20431D01*
X50485Y-20431D01*
X50523Y-20450D01*
X50542Y-20469D01*
X50561Y-20507D01*
X50561Y-20545D01*
X50542Y-20602D01*
X50314Y-20831D01*
X50561Y-20831D01*
X68396Y-22498D02*
X68624Y-22498D01*
X68510Y-22898D02*
X68510Y-22498D01*
X68967Y-22898D02*
X68738Y-22898D01*
X68853Y-22898D02*
X68853Y-22498D01*
X68815Y-22555D01*
X68776Y-22593D01*
X68738Y-22612D01*
G54D27*
X52226Y-21747D02*
X51832Y-21747D01*
X51832Y-21653D01*
X51851Y-21597D01*
X51888Y-21559D01*
X51926Y-21541D01*
X52001Y-21522D01*
X52057Y-21522D01*
X52132Y-21541D01*
X52170Y-21559D01*
X52207Y-21597D01*
X52226Y-21653D01*
X52226Y-21747D01*
X51963Y-21184D02*
X52226Y-21184D01*
X51813Y-21278D02*
X52095Y-21372D01*
X52095Y-21128D01*
X65218Y-21747D02*
X64824Y-21747D01*
X64824Y-21653D01*
X64843Y-21597D01*
X64880Y-21559D01*
X64918Y-21541D01*
X64993Y-21522D01*
X65049Y-21522D01*
X65124Y-21541D01*
X65162Y-21559D01*
X65199Y-21597D01*
X65218Y-21653D01*
X65218Y-21747D01*
X64824Y-21184D02*
X64824Y-21259D01*
X64843Y-21297D01*
X64862Y-21316D01*
X64918Y-21353D01*
X64993Y-21372D01*
X65143Y-21372D01*
X65180Y-21353D01*
X65199Y-21334D01*
X65218Y-21297D01*
X65218Y-21222D01*
X65199Y-21184D01*
X65180Y-21166D01*
X65143Y-21147D01*
X65049Y-21147D01*
X65012Y-21166D01*
X64993Y-21184D01*
X64974Y-21222D01*
X64974Y-21297D01*
X64993Y-21334D01*
X65012Y-21353D01*
X65049Y-21372D01*
G54D10*
X66146Y-29096D02*
X66146Y-28702D01*
X66240Y-28702D01*
X66296Y-28721D01*
X66333Y-28758D01*
X66352Y-28796D01*
X66371Y-28871D01*
X66371Y-28927D01*
X66352Y-29002D01*
X66333Y-29040D01*
X66296Y-29077D01*
X66240Y-29096D01*
X66146Y-29096D01*
X66727Y-28702D02*
X66540Y-28702D01*
X66521Y-28890D01*
X66540Y-28871D01*
X66577Y-28852D01*
X66671Y-28852D01*
X66708Y-28871D01*
X66727Y-28890D01*
X66746Y-28927D01*
X66746Y-29021D01*
X66727Y-29058D01*
X66708Y-29077D01*
X66671Y-29096D01*
X66577Y-29096D01*
X66540Y-29077D01*
X66521Y-29058D01*
M02*
