G04 (created by PCBNEW (2013-mar-13)-testing) date wto, 19 mar 2013, 20:20:01*
%MOIN*%
G04 Gerber Fmt 3.4, Leading zero omitted, Abs format*
%FSLAX34Y34*%
G01*
G70*
G90*
G04 APERTURE LIST*
%ADD10C,0.006*%
%ADD11C,0.0984252*%
%ADD12O,0.0984252X0.137795*%
%ADD13O,0.0708661X0.0787402*%
%ADD14C,0.0787*%
%ADD15R,0.0787402X0.0787402*%
%ADD16C,0.0787402*%
%ADD17C,0.0984*%
%ADD18O,0.0787402X0.1187*%
%ADD19R,0.0826772X0.0826772*%
%ADD20C,0.0826772*%
%ADD21R,0.062X0.09*%
%ADD22O,0.062X0.09*%
%ADD23R,0.0669291X0.0984252*%
%ADD24O,0.0669291X0.0984252*%
%ADD25R,0.19685X0.19685*%
%ADD26R,0.0984X0.0984*%
%ADD27R,0.0984X0.0709*%
%ADD28O,0.0984X0.0709*%
%ADD29R,0.0709X0.0984*%
%ADD30O,0.0709X0.0984*%
%ADD31R,0.0787X0.1181*%
%ADD32O,0.0787X0.1181*%
%ADD33O,0.0787402X0.0708661*%
%ADD34R,0.0984252X0.0984252*%
%ADD35C,0.07*%
%ADD36R,0.07X0.07*%
%ADD37R,0.055X0.055*%
%ADD38C,0.055*%
%ADD39C,0.216535*%
%ADD40C,0.0472441*%
G04 APERTURE END LIST*
G54D10*
G54D11*
X54015Y-19822D03*
X54015Y-22775D03*
G54D12*
X61889Y-19822D03*
X61889Y-22775D03*
X59921Y-19822D03*
X59921Y-22775D03*
X63858Y-19822D03*
X63858Y-22775D03*
G54D13*
X68031Y-33889D03*
X68031Y-29889D03*
G54D14*
X61264Y-48110D03*
X59364Y-48110D03*
G54D15*
X55602Y-34972D03*
G54D16*
X55602Y-35972D03*
X56602Y-35972D03*
G54D17*
X70299Y-34188D03*
X71299Y-32188D03*
X72299Y-34188D03*
X50842Y-33173D03*
X49842Y-35173D03*
X48842Y-33173D03*
X51755Y-35094D03*
X52755Y-33094D03*
X53755Y-35094D03*
G54D18*
X70299Y-42559D03*
X71299Y-42559D03*
X72299Y-42559D03*
X70279Y-38681D03*
X71279Y-38681D03*
X72279Y-38681D03*
X70299Y-46417D03*
X71299Y-46417D03*
X72299Y-46417D03*
G54D19*
X63314Y-36917D03*
G54D20*
X63314Y-35917D03*
X64314Y-36917D03*
X64314Y-35917D03*
X65314Y-36917D03*
X65314Y-35917D03*
X66314Y-36917D03*
X66314Y-35917D03*
X67314Y-36917D03*
X67314Y-35917D03*
G54D21*
X54964Y-25507D03*
G54D22*
X53964Y-25507D03*
X52964Y-25507D03*
X51964Y-25507D03*
X51964Y-28507D03*
X52964Y-28507D03*
X53964Y-28507D03*
X54964Y-28507D03*
G54D21*
X46334Y-28507D03*
G54D22*
X47334Y-28507D03*
X48334Y-28507D03*
X49334Y-28507D03*
X49334Y-25507D03*
X48334Y-25507D03*
X47334Y-25507D03*
X46334Y-25507D03*
G54D21*
X63862Y-25507D03*
G54D22*
X62862Y-25507D03*
X61862Y-25507D03*
X60862Y-25507D03*
X60862Y-28507D03*
X61862Y-28507D03*
X62862Y-28507D03*
X63862Y-28507D03*
G54D23*
X48846Y-45913D03*
G54D24*
X49846Y-45913D03*
X50846Y-45913D03*
X51846Y-45913D03*
X52846Y-45913D03*
X53846Y-45913D03*
X54846Y-45913D03*
X55846Y-45913D03*
X56846Y-45913D03*
X57846Y-45913D03*
X58846Y-45913D03*
X59846Y-45913D03*
X60846Y-45913D03*
X61846Y-45913D03*
X62846Y-45913D03*
X63846Y-45913D03*
X64846Y-45913D03*
X65846Y-45913D03*
X66846Y-45913D03*
X67846Y-45913D03*
X67846Y-39913D03*
X66846Y-39913D03*
X65846Y-39913D03*
X64846Y-39913D03*
X63846Y-39913D03*
X62846Y-39913D03*
X61846Y-39913D03*
X60846Y-39913D03*
X59846Y-39913D03*
X58846Y-39913D03*
X57846Y-39913D03*
X56846Y-39913D03*
X55846Y-39913D03*
X54846Y-39913D03*
X53846Y-39913D03*
X52846Y-39913D03*
X51846Y-39913D03*
X50846Y-39913D03*
X49846Y-39913D03*
X48846Y-39913D03*
G54D21*
X47366Y-51106D03*
G54D24*
X48366Y-51106D03*
X49366Y-51106D03*
X50366Y-51106D03*
X51366Y-51106D03*
X52366Y-51106D03*
X53366Y-51106D03*
X54366Y-51106D03*
X54366Y-48106D03*
X53366Y-48106D03*
X52366Y-48106D03*
X51366Y-48106D03*
X50366Y-48106D03*
X49366Y-48106D03*
X48366Y-48106D03*
X47366Y-48106D03*
G54D25*
X45011Y-34162D03*
X45011Y-44162D03*
G54D15*
X46011Y-41362D03*
X46011Y-40262D03*
X46011Y-39212D03*
X46011Y-38112D03*
X46011Y-37012D03*
X45011Y-40812D03*
X45011Y-39712D03*
X45011Y-38662D03*
X45011Y-37562D03*
G54D17*
X62047Y-52165D03*
G54D26*
X62047Y-54133D03*
X67322Y-49700D03*
G54D17*
X67322Y-47700D03*
G54D27*
X55078Y-38570D03*
G54D28*
X55078Y-37570D03*
G54D29*
X47137Y-53149D03*
G54D30*
X48137Y-53149D03*
G54D29*
X51547Y-53149D03*
G54D30*
X52547Y-53149D03*
G54D29*
X50342Y-53149D03*
G54D30*
X49342Y-53149D03*
G54D29*
X53751Y-53228D03*
G54D30*
X54751Y-53228D03*
G54D16*
X52795Y-36401D03*
X52795Y-38401D03*
X58700Y-38519D03*
X58700Y-36519D03*
X58582Y-31944D03*
X58582Y-29944D03*
X52992Y-29944D03*
X52992Y-31944D03*
X60787Y-29944D03*
X60787Y-31944D03*
X50551Y-36401D03*
X50551Y-38401D03*
X66377Y-31866D03*
X66377Y-29866D03*
X50944Y-31944D03*
X50944Y-29944D03*
X62023Y-49645D03*
X60023Y-49645D03*
X68543Y-56629D03*
X68543Y-54629D03*
X63070Y-47267D03*
X63070Y-49267D03*
X60551Y-38519D03*
X60551Y-36519D03*
X57559Y-47661D03*
X57559Y-49661D03*
X70299Y-44488D03*
X72299Y-44488D03*
X65196Y-27842D03*
X65196Y-25842D03*
X45275Y-48606D03*
X45275Y-50606D03*
X56574Y-28125D03*
X56574Y-26125D03*
X44881Y-28519D03*
X44881Y-26519D03*
X68503Y-51677D03*
X68503Y-53677D03*
X50629Y-25968D03*
X50629Y-27968D03*
X70299Y-40629D03*
X72299Y-40629D03*
X70299Y-36732D03*
X72299Y-36732D03*
G54D31*
X64381Y-56653D03*
G54D32*
X65381Y-56653D03*
G54D16*
X56889Y-37374D03*
X56889Y-38374D03*
G54D14*
X48740Y-35765D03*
X48740Y-38565D03*
X66181Y-27856D03*
X66181Y-25056D03*
X67401Y-25056D03*
X67401Y-27856D03*
G54D13*
X63622Y-33929D03*
X63622Y-29929D03*
X55826Y-33968D03*
X55826Y-29968D03*
X57519Y-24496D03*
X57519Y-28496D03*
G54D33*
X45401Y-30866D03*
X49401Y-30866D03*
X49401Y-29842D03*
X45401Y-29842D03*
G54D13*
X69055Y-33889D03*
X69055Y-29889D03*
X59566Y-28496D03*
X59566Y-24496D03*
X62559Y-29929D03*
X62559Y-33929D03*
X56377Y-51645D03*
X56377Y-47645D03*
X47795Y-38614D03*
X47795Y-34614D03*
X58543Y-28496D03*
X58543Y-24496D03*
X65393Y-50834D03*
X65393Y-54834D03*
X54724Y-29968D03*
X54724Y-33968D03*
X56929Y-29968D03*
X56929Y-33968D03*
X64665Y-29909D03*
X64665Y-33909D03*
X58740Y-53732D03*
X58740Y-49732D03*
G54D16*
X70279Y-35688D03*
X72279Y-35688D03*
G54D19*
X72259Y-48397D03*
G54D20*
X72259Y-49397D03*
X71259Y-48397D03*
X71259Y-49397D03*
X70259Y-48397D03*
X70259Y-49397D03*
G54D16*
X68582Y-27877D03*
X68582Y-24877D03*
G54D19*
X71917Y-29401D03*
G54D20*
X70917Y-29401D03*
X71917Y-28401D03*
X70917Y-28401D03*
X71917Y-27401D03*
X70917Y-27401D03*
X71917Y-26401D03*
X70917Y-26401D03*
X71917Y-25401D03*
X70917Y-25401D03*
G54D34*
X60488Y-34173D03*
G54D11*
X58488Y-34173D03*
G54D15*
X58751Y-55346D03*
X58751Y-56346D03*
X57751Y-55346D03*
X57751Y-56346D03*
X56751Y-55346D03*
X56751Y-56346D03*
X55751Y-55346D03*
X55751Y-56346D03*
X54751Y-55346D03*
X54751Y-56346D03*
X53751Y-55346D03*
X53751Y-56346D03*
X52751Y-55346D03*
X52751Y-56346D03*
X51751Y-55346D03*
X51751Y-56346D03*
X50751Y-55346D03*
X50751Y-56346D03*
X49751Y-55346D03*
X49751Y-56346D03*
G54D35*
X66850Y-52425D03*
X66850Y-53425D03*
G54D36*
X66850Y-54425D03*
G54D29*
X50169Y-23858D03*
G54D30*
X51169Y-23858D03*
G54D37*
X49775Y-22192D03*
G54D38*
X49775Y-21192D03*
X50775Y-21192D03*
G54D37*
X67098Y-22177D03*
G54D38*
X68098Y-22177D03*
X68098Y-23177D03*
G54D13*
X47913Y-23692D03*
X47913Y-19692D03*
X66023Y-23574D03*
X66023Y-19574D03*
G54D14*
X52047Y-22699D03*
X52047Y-19899D03*
X65039Y-22699D03*
X65039Y-19899D03*
X67695Y-28854D03*
X64895Y-28854D03*
G54D39*
X46161Y-55807D03*
X71653Y-56299D03*
X70866Y-20866D03*
X45669Y-20866D03*
G54D40*
X68188Y-37795D03*
X68779Y-50669D03*
X56978Y-50403D03*
X57706Y-52440D03*
X45971Y-46164D03*
X45705Y-46877D03*
X54489Y-54480D03*
X59707Y-55370D03*
X47176Y-44988D03*
X69596Y-47834D03*
X46614Y-29724D03*
X69133Y-35039D03*
X67322Y-34133D03*
X47637Y-44094D03*
X46780Y-45945D03*
X55694Y-47209D03*
X60984Y-56023D03*
X64271Y-39094D03*
X61850Y-27047D03*
X61240Y-33307D03*
M02*
