M48
INCH,TZ
T1C0.025
T2C0.032
T3C0.032
T4C0.039
T5C0.039
T6C0.040
T7C0.047
T8C0.130
%
G90
G05
T1
X4.5706Y-4.6877
X4.5971Y-4.6164
X4.6614Y-2.9724
X4.6781Y-4.5945
X4.7176Y-4.4988
X4.7638Y-4.4094
X5.449Y-5.4481
X5.5695Y-4.7209
X5.6978Y-5.0404
X5.7707Y-5.2441
X5.9708Y-5.537
X6.0984Y-5.6024
X6.124Y-3.3307
X6.185Y-2.7047
X6.4272Y-3.9094
X6.7323Y-3.4134
X6.8189Y-3.7795
X6.878Y-5.0669
X6.9134Y-3.5039
X6.9596Y-4.7835
T2
X4.874Y-3.5765
X4.874Y-3.8565
X5.2047Y-1.9899
X5.2047Y-2.2699
X6.2047Y-5.2166
X6.2047Y-5.4134
X6.4895Y-2.8854
X6.5039Y-1.9899
X6.5039Y-2.2699
X6.6181Y-2.5057
X6.6181Y-2.7857
X6.7402Y-2.5057
X6.7402Y-2.7857
X6.7695Y-2.8854
T3
X4.4882Y-2.652
X4.4882Y-2.852
X4.5276Y-4.8606
X4.5276Y-5.0606
X4.5402Y-2.9843
X4.5402Y-3.0866
X4.6335Y-2.5508
X4.6335Y-2.8508
X4.7138Y-5.315
X4.7335Y-2.5508
X4.7335Y-2.8508
X4.7366Y-4.8106
X4.7366Y-5.1106
X4.7795Y-3.4614
X4.7795Y-3.8614
X4.7913Y-1.9693
X4.7913Y-2.3693
X4.8138Y-5.315
X4.8335Y-2.5508
X4.8335Y-2.8508
X4.8366Y-4.8106
X4.8366Y-5.1106
X4.8846Y-3.9913
X4.8846Y-4.5913
X4.9335Y-2.5508
X4.9335Y-2.8508
X4.9343Y-5.315
X4.9366Y-4.8106
X4.9366Y-5.1106
X4.9402Y-2.9843
X4.9402Y-3.0866
X4.9776Y-2.1193
X4.9776Y-2.2193
X4.9846Y-3.9913
X4.9846Y-4.5913
X5.0169Y-2.3858
X5.0343Y-5.315
X5.0366Y-4.8106
X5.0366Y-5.1106
X5.0551Y-3.6402
X5.0551Y-3.8402
X5.063Y-2.5969
X5.063Y-2.7969
X5.0776Y-2.1193
X5.0846Y-3.9913
X5.0846Y-4.5913
X5.0945Y-2.9945
X5.0945Y-3.1945
X5.1169Y-2.3858
X5.1366Y-4.8106
X5.1366Y-5.1106
X5.1547Y-5.315
X5.1846Y-3.9913
X5.1846Y-4.5913
X5.1965Y-2.5508
X5.1965Y-2.8508
X5.2366Y-4.8106
X5.2366Y-5.1106
X5.2547Y-5.315
X5.2795Y-3.6402
X5.2795Y-3.8402
X5.2846Y-3.9913
X5.2846Y-4.5913
X5.2965Y-2.5508
X5.2965Y-2.8508
X5.2992Y-2.9945
X5.2992Y-3.1945
X5.3366Y-4.8106
X5.3366Y-5.1106
X5.3752Y-5.3228
X5.3846Y-3.9913
X5.3846Y-4.5913
X5.3965Y-2.5508
X5.3965Y-2.8508
X5.4366Y-4.8106
X5.4366Y-5.1106
X5.4724Y-2.9969
X5.4724Y-3.3969
X5.4752Y-5.3228
X5.4846Y-3.9913
X5.4846Y-4.5913
X5.4965Y-2.5508
X5.4965Y-2.8508
X5.5079Y-3.7571
X5.5079Y-3.8571
X5.5602Y-3.4972
X5.5602Y-3.5972
X5.5827Y-2.9969
X5.5827Y-3.3969
X5.5846Y-3.9913
X5.5846Y-4.5913
X5.6378Y-4.7646
X5.6378Y-5.1646
X5.6575Y-2.6126
X5.6575Y-2.8126
X5.6602Y-3.5972
X5.6846Y-3.9913
X5.6846Y-4.5913
X5.689Y-3.7374
X5.689Y-3.8374
X5.6929Y-2.9969
X5.6929Y-3.3969
X5.752Y-2.4496
X5.752Y-2.8496
X5.7559Y-4.7661
X5.7559Y-4.9661
X5.7846Y-3.9913
X5.7846Y-4.5913
X5.8543Y-2.4496
X5.8543Y-2.8496
X5.8583Y-2.9945
X5.8583Y-3.1945
X5.8701Y-3.652
X5.8701Y-3.852
X5.874Y-4.9732
X5.874Y-5.3732
X5.8846Y-3.9913
X5.8846Y-4.5913
X5.9365Y-4.811
X5.9567Y-2.4496
X5.9567Y-2.8496
X5.9846Y-3.9913
X5.9846Y-4.5913
X6.0024Y-4.9646
X6.0551Y-3.652
X6.0551Y-3.852
X6.0787Y-2.9945
X6.0787Y-3.1945
X6.0846Y-3.9913
X6.0846Y-4.5913
X6.0862Y-2.5508
X6.0862Y-2.8508
X6.1265Y-4.811
X6.1846Y-3.9913
X6.1846Y-4.5913
X6.1862Y-2.5508
X6.1862Y-2.8508
X6.2024Y-4.9646
X6.2559Y-2.9929
X6.2559Y-3.3929
X6.2846Y-3.9913
X6.2846Y-4.5913
X6.2862Y-2.5508
X6.2862Y-2.8508
X6.3071Y-4.7268
X6.3071Y-4.9268
X6.3622Y-2.9929
X6.3622Y-3.3929
X6.3846Y-3.9913
X6.3846Y-4.5913
X6.3862Y-2.5508
X6.3862Y-2.8508
X6.4382Y-5.6654
X6.4665Y-2.9909
X6.4665Y-3.3909
X6.4846Y-3.9913
X6.4846Y-4.5913
X6.5197Y-2.5843
X6.5197Y-2.7843
X6.5382Y-5.6654
X6.5394Y-5.0835
X6.5394Y-5.4835
X6.5846Y-3.9913
X6.5846Y-4.5913
X6.6024Y-1.9575
X6.6024Y-2.3575
X6.6378Y-2.9866
X6.6378Y-3.1866
X6.6846Y-3.9913
X6.6846Y-4.5913
X6.7098Y-2.2177
X6.7846Y-3.9913
X6.7846Y-4.5913
X6.8031Y-2.989
X6.8031Y-3.389
X6.8098Y-2.2177
X6.8098Y-2.3177
X6.8504Y-5.1677
X6.8504Y-5.3677
X6.8543Y-5.463
X6.8543Y-5.663
X6.8583Y-2.4878
X6.8583Y-2.7878
X6.9055Y-2.989
X6.9055Y-3.389
X7.028Y-3.5689
X7.0299Y-3.6732
X7.0299Y-4.063
X7.0299Y-4.4488
X7.228Y-3.5689
X7.2299Y-3.6732
X7.2299Y-4.063
X7.2299Y-4.4488
T4
X4.9752Y-5.5346
X4.9752Y-5.6346
X5.0752Y-5.5346
X5.0752Y-5.6346
X5.1752Y-5.5346
X5.1752Y-5.6346
X5.2752Y-5.5346
X5.2752Y-5.6346
X5.3752Y-5.5346
X5.3752Y-5.6346
X5.4752Y-5.5346
X5.4752Y-5.6346
X5.5752Y-5.5346
X5.5752Y-5.6346
X5.6752Y-5.5346
X5.6752Y-5.6346
X5.7752Y-5.5346
X5.7752Y-5.6346
X5.8752Y-5.5346
X5.8752Y-5.6346
X7.028Y-3.8681
X7.0299Y-4.2559
X7.0299Y-4.6417
X7.128Y-3.8681
X7.1299Y-4.2559
X7.1299Y-4.6417
X7.228Y-3.8681
X7.2299Y-4.2559
X7.2299Y-4.6417
T5
X4.8843Y-3.3173
X4.9843Y-3.5173
X5.0843Y-3.3173
X5.1756Y-3.5094
X5.2756Y-3.3094
X5.3756Y-3.5094
X7.0299Y-3.4189
X7.1299Y-3.2189
X7.2299Y-3.4189
T6
X4.5012Y-3.4163
X4.5012Y-3.7563
X4.5012Y-3.8663
X4.5012Y-3.9713
X4.5012Y-4.0813
X4.5012Y-4.4163
X4.6012Y-3.7013
X4.6012Y-3.8113
X4.6012Y-3.9213
X4.6012Y-4.0263
X4.6012Y-4.1363
X6.3315Y-3.5917
X6.3315Y-3.6917
X6.4315Y-3.5917
X6.4315Y-3.6917
X6.5315Y-3.5917
X6.5315Y-3.6917
X6.6315Y-3.5917
X6.6315Y-3.6917
X6.685Y-5.2425
X6.685Y-5.3425
X6.685Y-5.4425
X6.7315Y-3.5917
X6.7315Y-3.6917
X6.7323Y-4.7701
X6.7323Y-4.9701
X7.026Y-4.8398
X7.026Y-4.9398
X7.0917Y-2.5402
X7.0917Y-2.6402
X7.0917Y-2.7402
X7.0917Y-2.8402
X7.0917Y-2.9402
X7.126Y-4.8398
X7.126Y-4.9398
X7.1917Y-2.5402
X7.1917Y-2.6402
X7.1917Y-2.7402
X7.1917Y-2.8402
X7.1917Y-2.9402
X7.226Y-4.8398
X7.226Y-4.9398
T7
X5.4016Y-1.9823
X5.4016Y-2.2776
X5.8488Y-3.4173
X5.9921Y-1.9823
X5.9921Y-2.2776
X6.0488Y-3.4173
X6.189Y-1.9823
X6.189Y-2.2776
X6.3858Y-1.9823
X6.3858Y-2.2776
T8
X4.5669Y-2.0866
X4.6161Y-5.5807
X7.0866Y-2.0866
X7.1654Y-5.6299
T0
M30
