G04 (created by PCBNEW (2013-mar-13)-testing) date wto, 19 mar 2013, 20:20:01*
%MOIN*%
G04 Gerber Fmt 3.4, Leading zero omitted, Abs format*
%FSLAX34Y34*%
G01*
G70*
G90*
G04 APERTURE LIST*
%ADD10C,0.006*%
%ADD11C,0.0984252*%
%ADD12O,0.0984252X0.137795*%
%ADD13O,0.0708661X0.0787402*%
%ADD14C,0.0787*%
%ADD15R,0.0787402X0.0787402*%
%ADD16C,0.0787402*%
%ADD17C,0.0984*%
%ADD18O,0.0787402X0.1187*%
%ADD19R,0.0826772X0.0826772*%
%ADD20C,0.0826772*%
%ADD21R,0.062X0.09*%
%ADD22O,0.062X0.09*%
%ADD23R,0.0669291X0.0984252*%
%ADD24O,0.0669291X0.0984252*%
%ADD25R,0.19685X0.19685*%
%ADD26R,0.0984X0.0984*%
%ADD27R,0.0984X0.0709*%
%ADD28O,0.0984X0.0709*%
%ADD29R,0.0709X0.0984*%
%ADD30O,0.0709X0.0984*%
%ADD31R,0.0787X0.1181*%
%ADD32O,0.0787X0.1181*%
%ADD33O,0.0787402X0.0708661*%
%ADD34R,0.0984252X0.0984252*%
%ADD35C,0.07*%
%ADD36R,0.07X0.07*%
%ADD37R,0.055X0.055*%
%ADD38C,0.055*%
%ADD39C,0.216535*%
%ADD40C,0.0472441*%
%ADD41C,0.019685*%
%ADD42C,0.0314961*%
%ADD43C,0.011811*%
%ADD44C,0.01*%
G04 APERTURE END LIST*
G54D10*
G54D11*
X54015Y-19822D03*
X54015Y-22775D03*
G54D12*
X61889Y-19822D03*
X61889Y-22775D03*
X59921Y-19822D03*
X59921Y-22775D03*
X63858Y-19822D03*
X63858Y-22775D03*
G54D13*
X68031Y-33889D03*
X68031Y-29889D03*
G54D14*
X61264Y-48110D03*
X59364Y-48110D03*
G54D15*
X55602Y-34972D03*
G54D16*
X55602Y-35972D03*
X56602Y-35972D03*
G54D17*
X70299Y-34188D03*
X71299Y-32188D03*
X72299Y-34188D03*
X50842Y-33173D03*
X49842Y-35173D03*
X48842Y-33173D03*
X51755Y-35094D03*
X52755Y-33094D03*
X53755Y-35094D03*
G54D18*
X70299Y-42559D03*
X71299Y-42559D03*
X72299Y-42559D03*
X70279Y-38681D03*
X71279Y-38681D03*
X72279Y-38681D03*
X70299Y-46417D03*
X71299Y-46417D03*
X72299Y-46417D03*
G54D19*
X63314Y-36917D03*
G54D20*
X63314Y-35917D03*
X64314Y-36917D03*
X64314Y-35917D03*
X65314Y-36917D03*
X65314Y-35917D03*
X66314Y-36917D03*
X66314Y-35917D03*
X67314Y-36917D03*
X67314Y-35917D03*
G54D21*
X54964Y-25507D03*
G54D22*
X53964Y-25507D03*
X52964Y-25507D03*
X51964Y-25507D03*
X51964Y-28507D03*
X52964Y-28507D03*
X53964Y-28507D03*
X54964Y-28507D03*
G54D21*
X46334Y-28507D03*
G54D22*
X47334Y-28507D03*
X48334Y-28507D03*
X49334Y-28507D03*
X49334Y-25507D03*
X48334Y-25507D03*
X47334Y-25507D03*
X46334Y-25507D03*
G54D21*
X63862Y-25507D03*
G54D22*
X62862Y-25507D03*
X61862Y-25507D03*
X60862Y-25507D03*
X60862Y-28507D03*
X61862Y-28507D03*
X62862Y-28507D03*
X63862Y-28507D03*
G54D23*
X48846Y-45913D03*
G54D24*
X49846Y-45913D03*
X50846Y-45913D03*
X51846Y-45913D03*
X52846Y-45913D03*
X53846Y-45913D03*
X54846Y-45913D03*
X55846Y-45913D03*
X56846Y-45913D03*
X57846Y-45913D03*
X58846Y-45913D03*
X59846Y-45913D03*
X60846Y-45913D03*
X61846Y-45913D03*
X62846Y-45913D03*
X63846Y-45913D03*
X64846Y-45913D03*
X65846Y-45913D03*
X66846Y-45913D03*
X67846Y-45913D03*
X67846Y-39913D03*
X66846Y-39913D03*
X65846Y-39913D03*
X64846Y-39913D03*
X63846Y-39913D03*
X62846Y-39913D03*
X61846Y-39913D03*
X60846Y-39913D03*
X59846Y-39913D03*
X58846Y-39913D03*
X57846Y-39913D03*
X56846Y-39913D03*
X55846Y-39913D03*
X54846Y-39913D03*
X53846Y-39913D03*
X52846Y-39913D03*
X51846Y-39913D03*
X50846Y-39913D03*
X49846Y-39913D03*
X48846Y-39913D03*
G54D21*
X47366Y-51106D03*
G54D24*
X48366Y-51106D03*
X49366Y-51106D03*
X50366Y-51106D03*
X51366Y-51106D03*
X52366Y-51106D03*
X53366Y-51106D03*
X54366Y-51106D03*
X54366Y-48106D03*
X53366Y-48106D03*
X52366Y-48106D03*
X51366Y-48106D03*
X50366Y-48106D03*
X49366Y-48106D03*
X48366Y-48106D03*
X47366Y-48106D03*
G54D25*
X45011Y-34162D03*
X45011Y-44162D03*
G54D15*
X46011Y-41362D03*
X46011Y-40262D03*
X46011Y-39212D03*
X46011Y-38112D03*
X46011Y-37012D03*
X45011Y-40812D03*
X45011Y-39712D03*
X45011Y-38662D03*
X45011Y-37562D03*
G54D17*
X62047Y-52165D03*
G54D26*
X62047Y-54133D03*
X67322Y-49700D03*
G54D17*
X67322Y-47700D03*
G54D27*
X55078Y-38570D03*
G54D28*
X55078Y-37570D03*
G54D29*
X47137Y-53149D03*
G54D30*
X48137Y-53149D03*
G54D29*
X51547Y-53149D03*
G54D30*
X52547Y-53149D03*
G54D29*
X50342Y-53149D03*
G54D30*
X49342Y-53149D03*
G54D29*
X53751Y-53228D03*
G54D30*
X54751Y-53228D03*
G54D16*
X52795Y-36401D03*
X52795Y-38401D03*
X58700Y-38519D03*
X58700Y-36519D03*
X58582Y-31944D03*
X58582Y-29944D03*
X52992Y-29944D03*
X52992Y-31944D03*
X60787Y-29944D03*
X60787Y-31944D03*
X50551Y-36401D03*
X50551Y-38401D03*
X66377Y-31866D03*
X66377Y-29866D03*
X50944Y-31944D03*
X50944Y-29944D03*
X62023Y-49645D03*
X60023Y-49645D03*
X68543Y-56629D03*
X68543Y-54629D03*
X63070Y-47267D03*
X63070Y-49267D03*
X60551Y-38519D03*
X60551Y-36519D03*
X57559Y-47661D03*
X57559Y-49661D03*
X70299Y-44488D03*
X72299Y-44488D03*
X65196Y-27842D03*
X65196Y-25842D03*
X45275Y-48606D03*
X45275Y-50606D03*
X56574Y-28125D03*
X56574Y-26125D03*
X44881Y-28519D03*
X44881Y-26519D03*
X68503Y-51677D03*
X68503Y-53677D03*
X50629Y-25968D03*
X50629Y-27968D03*
X70299Y-40629D03*
X72299Y-40629D03*
X70299Y-36732D03*
X72299Y-36732D03*
G54D31*
X64381Y-56653D03*
G54D32*
X65381Y-56653D03*
G54D16*
X56889Y-37374D03*
X56889Y-38374D03*
G54D14*
X48740Y-35765D03*
X48740Y-38565D03*
X66181Y-27856D03*
X66181Y-25056D03*
X67401Y-25056D03*
X67401Y-27856D03*
G54D13*
X63622Y-33929D03*
X63622Y-29929D03*
X55826Y-33968D03*
X55826Y-29968D03*
X57519Y-24496D03*
X57519Y-28496D03*
G54D33*
X45401Y-30866D03*
X49401Y-30866D03*
X49401Y-29842D03*
X45401Y-29842D03*
G54D13*
X69055Y-33889D03*
X69055Y-29889D03*
X59566Y-28496D03*
X59566Y-24496D03*
X62559Y-29929D03*
X62559Y-33929D03*
X56377Y-51645D03*
X56377Y-47645D03*
X47795Y-38614D03*
X47795Y-34614D03*
X58543Y-28496D03*
X58543Y-24496D03*
X65393Y-50834D03*
X65393Y-54834D03*
X54724Y-29968D03*
X54724Y-33968D03*
X56929Y-29968D03*
X56929Y-33968D03*
X64665Y-29909D03*
X64665Y-33909D03*
X58740Y-53732D03*
X58740Y-49732D03*
G54D16*
X70279Y-35688D03*
X72279Y-35688D03*
G54D19*
X72259Y-48397D03*
G54D20*
X72259Y-49397D03*
X71259Y-48397D03*
X71259Y-49397D03*
X70259Y-48397D03*
X70259Y-49397D03*
G54D16*
X68582Y-27877D03*
X68582Y-24877D03*
G54D19*
X71917Y-29401D03*
G54D20*
X70917Y-29401D03*
X71917Y-28401D03*
X70917Y-28401D03*
X71917Y-27401D03*
X70917Y-27401D03*
X71917Y-26401D03*
X70917Y-26401D03*
X71917Y-25401D03*
X70917Y-25401D03*
G54D34*
X60488Y-34173D03*
G54D11*
X58488Y-34173D03*
G54D15*
X58751Y-55346D03*
X58751Y-56346D03*
X57751Y-55346D03*
X57751Y-56346D03*
X56751Y-55346D03*
X56751Y-56346D03*
X55751Y-55346D03*
X55751Y-56346D03*
X54751Y-55346D03*
X54751Y-56346D03*
X53751Y-55346D03*
X53751Y-56346D03*
X52751Y-55346D03*
X52751Y-56346D03*
X51751Y-55346D03*
X51751Y-56346D03*
X50751Y-55346D03*
X50751Y-56346D03*
X49751Y-55346D03*
X49751Y-56346D03*
G54D35*
X66850Y-52425D03*
X66850Y-53425D03*
G54D36*
X66850Y-54425D03*
G54D29*
X50169Y-23858D03*
G54D30*
X51169Y-23858D03*
G54D37*
X49775Y-22192D03*
G54D38*
X49775Y-21192D03*
X50775Y-21192D03*
G54D37*
X67098Y-22177D03*
G54D38*
X68098Y-22177D03*
X68098Y-23177D03*
G54D13*
X47913Y-23692D03*
X47913Y-19692D03*
X66023Y-23574D03*
X66023Y-19574D03*
G54D14*
X52047Y-22699D03*
X52047Y-19899D03*
X65039Y-22699D03*
X65039Y-19899D03*
X67695Y-28854D03*
X64895Y-28854D03*
G54D39*
X46161Y-55807D03*
X71653Y-56299D03*
X70866Y-20866D03*
X45669Y-20866D03*
G54D40*
X68188Y-37795D03*
X68779Y-50669D03*
X56978Y-50403D03*
X57706Y-52440D03*
X45971Y-46164D03*
X45705Y-46877D03*
X54489Y-54480D03*
X59707Y-55370D03*
X47176Y-44988D03*
X69596Y-47834D03*
X46614Y-29724D03*
X69133Y-35039D03*
X67322Y-34133D03*
X47637Y-44094D03*
X46780Y-45945D03*
X55694Y-47209D03*
X60984Y-56023D03*
X64271Y-39094D03*
X61850Y-27047D03*
X61240Y-33307D03*
G54D41*
X65196Y-27842D02*
X65196Y-28031D01*
X68740Y-55708D02*
X67598Y-55708D01*
X69291Y-55157D02*
X68740Y-55708D01*
X69291Y-51299D02*
X69291Y-55157D01*
X69753Y-50836D02*
X69291Y-51299D01*
X72706Y-50836D02*
X69753Y-50836D01*
X73070Y-50472D02*
X72706Y-50836D01*
X73070Y-33779D02*
X73070Y-50472D01*
X72637Y-33346D02*
X73070Y-33779D01*
X72637Y-31535D02*
X72637Y-33346D01*
X72322Y-31220D02*
X72637Y-31535D01*
X68267Y-31220D02*
X72322Y-31220D01*
X67283Y-30236D02*
X68267Y-31220D01*
X67283Y-29606D02*
X67283Y-30236D01*
X66574Y-28897D02*
X67283Y-29606D01*
X66062Y-28897D02*
X66574Y-28897D01*
X65196Y-28031D02*
X66062Y-28897D01*
G54D42*
X62047Y-54133D02*
X64055Y-54133D01*
X66275Y-54425D02*
X66850Y-54425D01*
X65866Y-54015D02*
X66275Y-54425D01*
X64173Y-54015D02*
X65866Y-54015D01*
X64055Y-54133D02*
X64173Y-54015D01*
X58740Y-53732D02*
X60346Y-53732D01*
X60747Y-54133D02*
X62047Y-54133D01*
X60346Y-53732D02*
X60747Y-54133D01*
G54D41*
X68519Y-56629D02*
X68543Y-56629D01*
X67598Y-55708D02*
X68519Y-56629D01*
X66850Y-54425D02*
X66850Y-54960D01*
X66850Y-54960D02*
X67598Y-55708D01*
X62047Y-54133D02*
X62047Y-54133D01*
X62047Y-54133D02*
X62047Y-54133D01*
X52047Y-19899D02*
X53289Y-19899D01*
X53289Y-19899D02*
X53366Y-19822D01*
X53366Y-19822D02*
X54015Y-19822D01*
X61574Y-35196D02*
X64488Y-35196D01*
X58488Y-34972D02*
X61350Y-34972D01*
X61350Y-34972D02*
X61574Y-35196D01*
X58488Y-34173D02*
X58488Y-34972D01*
X58464Y-34960D02*
X58464Y-34972D01*
X58476Y-34960D02*
X58464Y-34960D01*
X58488Y-34972D02*
X58476Y-34960D01*
X68188Y-38897D02*
X68188Y-37795D01*
X68503Y-39212D02*
X68188Y-38897D01*
X68503Y-40511D02*
X68503Y-39212D01*
X65629Y-43385D02*
X68503Y-40511D01*
X59724Y-43385D02*
X65629Y-43385D01*
X57846Y-45263D02*
X59724Y-43385D01*
X57846Y-45913D02*
X57846Y-45263D01*
X45574Y-48606D02*
X46948Y-49980D01*
X45275Y-48606D02*
X45574Y-48606D01*
X72259Y-50131D02*
X72259Y-49397D01*
X71909Y-50482D02*
X72259Y-50131D01*
X69547Y-50482D02*
X71909Y-50482D01*
X68765Y-49700D02*
X69547Y-50482D01*
X67322Y-49700D02*
X68765Y-49700D01*
X68503Y-52145D02*
X68503Y-51677D01*
X66850Y-52425D02*
X68224Y-52425D01*
X68224Y-52425D02*
X68503Y-52145D01*
X57846Y-46818D02*
X57846Y-45913D01*
X57559Y-47106D02*
X57846Y-46818D01*
X57559Y-47661D02*
X57559Y-47106D01*
X46334Y-26185D02*
X46334Y-25507D01*
X46000Y-26519D02*
X46334Y-26185D01*
X44881Y-26519D02*
X46000Y-26519D01*
X72279Y-40610D02*
X72299Y-40629D01*
X72279Y-38681D02*
X72279Y-40610D01*
X66527Y-49700D02*
X65393Y-50834D01*
X67322Y-49700D02*
X66527Y-49700D01*
X64314Y-35370D02*
X64488Y-35196D01*
X64314Y-35917D02*
X64314Y-35370D01*
X68425Y-37559D02*
X68188Y-37795D01*
X68425Y-35511D02*
X68425Y-37559D01*
X67795Y-34881D02*
X68425Y-35511D01*
X65590Y-34881D02*
X67795Y-34881D01*
X65275Y-35196D02*
X65590Y-34881D01*
X64488Y-35196D02*
X65275Y-35196D01*
X55602Y-34972D02*
X58464Y-34972D01*
X58464Y-34972D02*
X58488Y-34972D01*
X72299Y-44488D02*
X72299Y-46417D01*
X72299Y-40629D02*
X72299Y-42559D01*
X72299Y-42559D02*
X72299Y-44488D01*
X72299Y-36732D02*
X72279Y-36732D01*
X72279Y-38681D02*
X72279Y-36732D01*
X72279Y-36732D02*
X72279Y-35688D01*
X47366Y-49562D02*
X47366Y-49555D01*
X46948Y-49980D02*
X47366Y-49562D01*
X47366Y-49555D02*
X47366Y-48106D01*
X56377Y-51645D02*
X55767Y-51645D01*
X55767Y-51490D02*
X55767Y-51645D01*
X53832Y-49555D02*
X55767Y-51490D01*
X47366Y-49555D02*
X53832Y-49555D01*
X48602Y-54055D02*
X47559Y-54055D01*
X49342Y-53314D02*
X48602Y-54055D01*
X49342Y-53149D02*
X49342Y-53314D01*
X46200Y-50728D02*
X46948Y-49980D01*
X46200Y-53740D02*
X46200Y-50728D01*
X46515Y-54055D02*
X46200Y-53740D01*
X47559Y-54055D02*
X46515Y-54055D01*
X47559Y-54803D02*
X49102Y-56346D01*
X47559Y-54055D02*
X47559Y-54803D01*
X49751Y-56346D02*
X49102Y-56346D01*
X51964Y-25035D02*
X51964Y-24846D01*
X55929Y-26125D02*
X56574Y-26125D01*
X55748Y-25944D02*
X55929Y-26125D01*
X55748Y-24960D02*
X55748Y-25944D01*
X55472Y-24685D02*
X55748Y-24960D01*
X52125Y-24685D02*
X55472Y-24685D01*
X51964Y-24846D02*
X52125Y-24685D01*
X50629Y-25968D02*
X50629Y-24960D01*
X50629Y-24960D02*
X50708Y-24960D01*
X61338Y-24488D02*
X60862Y-24964D01*
X60862Y-24964D02*
X60862Y-25507D01*
X65196Y-25842D02*
X65196Y-25039D01*
X65196Y-25039D02*
X64645Y-24488D01*
X64645Y-24488D02*
X61338Y-24488D01*
X51964Y-25035D02*
X51964Y-25507D01*
X51889Y-24960D02*
X51964Y-25035D01*
X51811Y-24960D02*
X51889Y-24960D01*
X49334Y-25074D02*
X49334Y-25507D01*
X49448Y-24960D02*
X49334Y-25074D01*
X50708Y-24960D02*
X49448Y-24960D01*
X51169Y-23858D02*
X51169Y-24960D01*
X51169Y-24960D02*
X51151Y-24960D01*
X51811Y-24960D02*
X51169Y-24960D01*
X51169Y-24960D02*
X51151Y-24960D01*
X51151Y-24960D02*
X50708Y-24960D01*
G54D42*
X66220Y-51456D02*
X65866Y-51811D01*
X66220Y-51062D02*
X66220Y-51456D01*
X66614Y-50669D02*
X66220Y-51062D01*
X68779Y-50669D02*
X66614Y-50669D01*
X58740Y-50354D02*
X58740Y-49732D01*
X59606Y-51220D02*
X58740Y-50354D01*
X63031Y-51220D02*
X59606Y-51220D01*
X63622Y-51811D02*
X63031Y-51220D01*
X65866Y-51811D02*
X63622Y-51811D01*
G54D43*
X51746Y-27889D02*
X53606Y-27889D01*
X52755Y-33094D02*
X52755Y-32775D01*
X52755Y-32775D02*
X52175Y-32194D01*
X52175Y-32194D02*
X52175Y-29527D01*
X52175Y-29527D02*
X51486Y-28838D01*
X51486Y-28838D02*
X51486Y-28149D01*
X51486Y-28149D02*
X51746Y-27889D01*
X54964Y-26531D02*
X54964Y-25507D01*
X53606Y-27889D02*
X54964Y-26531D01*
X53086Y-35094D02*
X53755Y-35094D01*
X52755Y-34763D02*
X53086Y-35094D01*
X52755Y-33094D02*
X52755Y-34763D01*
X52795Y-39862D02*
X52846Y-39913D01*
X52795Y-38401D02*
X52795Y-39862D01*
X48740Y-39807D02*
X48846Y-39913D01*
X48740Y-38565D02*
X48740Y-39807D01*
X48903Y-38401D02*
X48740Y-38565D01*
X50551Y-38401D02*
X48903Y-38401D01*
X48691Y-38614D02*
X47795Y-38614D01*
X48740Y-38565D02*
X48691Y-38614D01*
X55751Y-55346D02*
X55751Y-54395D01*
X56082Y-49507D02*
X56978Y-50403D01*
X54846Y-44649D02*
X54846Y-39913D01*
X55177Y-47608D02*
X56082Y-48513D01*
X55177Y-46978D02*
X55177Y-47608D01*
X55344Y-46811D02*
X55177Y-46978D01*
X55344Y-45147D02*
X55344Y-46811D01*
X54846Y-44649D02*
X55344Y-45147D01*
X56082Y-48513D02*
X56082Y-49507D01*
X55751Y-54395D02*
X57706Y-52440D01*
X70917Y-28401D02*
X70692Y-28401D01*
X72025Y-23167D02*
X68098Y-23177D01*
X72667Y-23809D02*
X72025Y-23167D01*
X72667Y-30049D02*
X72667Y-23809D01*
X72312Y-30403D02*
X72667Y-30049D01*
X70649Y-30393D02*
X72312Y-30403D01*
X70157Y-29901D02*
X70649Y-30393D01*
X70157Y-28937D02*
X70157Y-29901D01*
X70692Y-28401D02*
X70157Y-28937D01*
X49846Y-46564D02*
X46371Y-46564D01*
X46371Y-46564D02*
X45971Y-46164D01*
X49846Y-45913D02*
X49846Y-46564D01*
X51352Y-45913D02*
X51846Y-45913D01*
X50750Y-46877D02*
X45705Y-46877D01*
X51352Y-46275D02*
X50750Y-46877D01*
X51352Y-45913D02*
X51352Y-46275D01*
X55086Y-54480D02*
X55086Y-54431D01*
X54489Y-54480D02*
X55086Y-54480D01*
X58129Y-54222D02*
X58385Y-54478D01*
X58129Y-52194D02*
X58129Y-54222D01*
X57923Y-51988D02*
X58129Y-52194D01*
X57529Y-51988D02*
X57923Y-51988D01*
X55086Y-54431D02*
X57529Y-51988D01*
X58457Y-54480D02*
X58388Y-54480D01*
X58457Y-54480D02*
X59835Y-54480D01*
X54751Y-56346D02*
X54751Y-56956D01*
X54921Y-57125D02*
X54751Y-56956D01*
X60551Y-57125D02*
X54921Y-57125D01*
X61496Y-56181D02*
X60551Y-57125D01*
X61496Y-55748D02*
X61496Y-56181D01*
X61259Y-55511D02*
X61496Y-55748D01*
X60866Y-55511D02*
X61259Y-55511D01*
X59835Y-54480D02*
X60866Y-55511D01*
X58388Y-54480D02*
X58385Y-54478D01*
X55751Y-56736D02*
X55915Y-56899D01*
X55915Y-56899D02*
X59215Y-56899D01*
X59707Y-56407D02*
X59707Y-55370D01*
X59215Y-56899D02*
X59707Y-56407D01*
X55751Y-56736D02*
X55751Y-56346D01*
X72362Y-30708D02*
X70472Y-30708D01*
X65039Y-20590D02*
X66417Y-21968D01*
X66417Y-21968D02*
X66417Y-22578D01*
X66417Y-22578D02*
X66673Y-22834D01*
X66673Y-22834D02*
X67578Y-22834D01*
X67578Y-22834D02*
X67716Y-22696D01*
X67716Y-22696D02*
X71948Y-22696D01*
X71948Y-22696D02*
X72972Y-23720D01*
X72972Y-23720D02*
X72972Y-30216D01*
X72972Y-30216D02*
X72480Y-30708D01*
X72480Y-30708D02*
X72362Y-30708D01*
X65039Y-19899D02*
X65039Y-20590D01*
X70295Y-27401D02*
X70917Y-27401D01*
X69921Y-27775D02*
X70295Y-27401D01*
X69921Y-30157D02*
X69921Y-27775D01*
X70472Y-30708D02*
X69921Y-30157D01*
X63858Y-19822D02*
X64962Y-19822D01*
X64962Y-19822D02*
X65039Y-19899D01*
X47176Y-44988D02*
X47422Y-44988D01*
X47422Y-44988D02*
X51846Y-40564D01*
X51846Y-39913D02*
X51846Y-40564D01*
X59566Y-24496D02*
X60700Y-24496D01*
X69566Y-24566D02*
X69566Y-25590D01*
X69212Y-24212D02*
X69566Y-24566D01*
X68188Y-24212D02*
X69212Y-24212D01*
X68031Y-24370D02*
X68188Y-24212D01*
X65236Y-24370D02*
X68031Y-24370D01*
X65000Y-24133D02*
X65236Y-24370D01*
X61062Y-24133D02*
X65000Y-24133D01*
X60700Y-24496D02*
X61062Y-24133D01*
X69566Y-25590D02*
X70118Y-25590D01*
X70307Y-25401D02*
X70917Y-25401D01*
X70118Y-25590D02*
X70307Y-25401D01*
X69566Y-25590D02*
X69566Y-25905D01*
X69566Y-29094D02*
X69566Y-25905D01*
X69055Y-29606D02*
X69566Y-29094D01*
X69055Y-29889D02*
X69055Y-29606D01*
X57519Y-24496D02*
X58543Y-24496D01*
X58543Y-24496D02*
X59566Y-24496D01*
X69862Y-47568D02*
X69596Y-47834D01*
X71811Y-47568D02*
X69862Y-47568D01*
X72259Y-48017D02*
X71811Y-47568D01*
X72259Y-48397D02*
X72259Y-48017D01*
X46653Y-29842D02*
X46653Y-29763D01*
X53846Y-38255D02*
X52952Y-37362D01*
X52952Y-37362D02*
X52677Y-37362D01*
X52677Y-37362D02*
X50826Y-35511D01*
X50826Y-35511D02*
X50826Y-34566D01*
X50826Y-34566D02*
X50354Y-34094D01*
X50354Y-34094D02*
X48464Y-34094D01*
X48464Y-34094D02*
X47952Y-33582D01*
X47952Y-33582D02*
X47952Y-31141D01*
X47952Y-31141D02*
X46653Y-29842D01*
X53846Y-39913D02*
X53846Y-38255D01*
X46653Y-29763D02*
X46614Y-29724D01*
X71279Y-42539D02*
X71299Y-42559D01*
X71279Y-38681D02*
X71279Y-42539D01*
X70964Y-35688D02*
X70279Y-35688D01*
X71279Y-36003D02*
X70964Y-35688D01*
X71279Y-38681D02*
X71279Y-36003D01*
X71299Y-46417D02*
X71299Y-42559D01*
X59625Y-31614D02*
X59625Y-31594D01*
X57500Y-29074D02*
X57952Y-29527D01*
X57952Y-29527D02*
X57952Y-30551D01*
X56988Y-22480D02*
X57913Y-21555D01*
X57913Y-21555D02*
X61555Y-21555D01*
X61555Y-21555D02*
X61889Y-21889D01*
X61889Y-22775D02*
X61889Y-21889D01*
X56988Y-24921D02*
X56988Y-23897D01*
X57736Y-25669D02*
X56988Y-24921D01*
X57736Y-26653D02*
X57736Y-25669D01*
X57145Y-27244D02*
X57736Y-26653D01*
X56023Y-27244D02*
X57145Y-27244D01*
X55787Y-27480D02*
X56023Y-27244D01*
X55787Y-28562D02*
X55787Y-27480D01*
X56299Y-29074D02*
X55787Y-28562D01*
X56988Y-23897D02*
X56988Y-22480D01*
X58375Y-30974D02*
X57952Y-30551D01*
X56299Y-29074D02*
X57500Y-29074D01*
X59940Y-32559D02*
X59625Y-32244D01*
X59625Y-32244D02*
X59625Y-31614D01*
X61929Y-32559D02*
X61968Y-32519D01*
X61929Y-32559D02*
X59940Y-32559D01*
X59005Y-30974D02*
X58375Y-30974D01*
X59625Y-31594D02*
X59005Y-30974D01*
X61968Y-32500D02*
X61968Y-32519D01*
X66846Y-43035D02*
X66846Y-45913D01*
X69133Y-40748D02*
X66846Y-43035D01*
X69133Y-35039D02*
X69133Y-40748D01*
X69133Y-35039D02*
X69055Y-35118D01*
X67125Y-34330D02*
X67322Y-34133D01*
X65236Y-34330D02*
X67125Y-34330D01*
X65000Y-34566D02*
X65236Y-34330D01*
X62283Y-34566D02*
X65000Y-34566D01*
X61968Y-34251D02*
X62283Y-34566D01*
X61968Y-31102D02*
X61968Y-32500D01*
X61968Y-32519D02*
X61968Y-34251D01*
X62559Y-30511D02*
X61968Y-31102D01*
X62559Y-29929D02*
X62559Y-30511D01*
X55826Y-29968D02*
X55826Y-29645D01*
X55826Y-29645D02*
X56141Y-29330D01*
X57401Y-29330D02*
X56141Y-29330D01*
X55531Y-27362D02*
X55885Y-27007D01*
X55885Y-27007D02*
X56988Y-27007D01*
X56988Y-27007D02*
X57460Y-26535D01*
X57460Y-26535D02*
X57460Y-25767D01*
X57460Y-25767D02*
X56751Y-25059D01*
X56751Y-23562D02*
X56751Y-25059D01*
X58267Y-31299D02*
X57716Y-30748D01*
X57716Y-30748D02*
X57716Y-29645D01*
X57716Y-29645D02*
X57401Y-29330D01*
X61377Y-32795D02*
X59783Y-32795D01*
X68110Y-34566D02*
X68661Y-35118D01*
X68661Y-35118D02*
X68661Y-35236D01*
X68661Y-35236D02*
X68897Y-35472D01*
X68897Y-35472D02*
X68897Y-40629D01*
X68897Y-40629D02*
X68858Y-40669D01*
X61377Y-32795D02*
X61417Y-32795D01*
X65846Y-43681D02*
X65846Y-45913D01*
X65846Y-43681D02*
X68858Y-40669D01*
X65078Y-34803D02*
X65314Y-34566D01*
X62086Y-34803D02*
X65078Y-34803D01*
X61653Y-34370D02*
X62086Y-34803D01*
X61653Y-33031D02*
X61653Y-34370D01*
X61417Y-32795D02*
X61653Y-33031D01*
X65314Y-34566D02*
X68110Y-34566D01*
X59291Y-31712D02*
X58877Y-31299D01*
X59291Y-32303D02*
X59291Y-31712D01*
X59783Y-32795D02*
X59291Y-32303D01*
X58877Y-31299D02*
X58267Y-31299D01*
X55531Y-28720D02*
X55531Y-27362D01*
X56141Y-29330D02*
X55531Y-28720D01*
X56751Y-23562D02*
X56751Y-22204D01*
X61889Y-20885D02*
X61889Y-19822D01*
X61456Y-21318D02*
X61889Y-20885D01*
X57637Y-21318D02*
X61456Y-21318D01*
X56751Y-22204D02*
X57637Y-21318D01*
X56751Y-23562D02*
X56751Y-23543D01*
X47637Y-44094D02*
X48008Y-44094D01*
X50846Y-39913D02*
X50846Y-40885D01*
X50846Y-41256D02*
X50846Y-40885D01*
X48008Y-44094D02*
X50846Y-41256D01*
X56846Y-45913D02*
X56846Y-45771D01*
X65968Y-35263D02*
X65314Y-35917D01*
X65968Y-35263D02*
X67585Y-35263D01*
X67585Y-35263D02*
X67968Y-35647D01*
X67968Y-35647D02*
X67968Y-37127D01*
X67968Y-37127D02*
X67201Y-37895D01*
X67201Y-37895D02*
X67003Y-37895D01*
X67003Y-37895D02*
X65346Y-39552D01*
X65346Y-39552D02*
X65346Y-40280D01*
X65346Y-42094D02*
X65346Y-40280D01*
X64370Y-43070D02*
X65346Y-42094D01*
X59547Y-43070D02*
X64370Y-43070D01*
X56846Y-45771D02*
X59547Y-43070D01*
X56846Y-46677D02*
X56846Y-45913D01*
X56377Y-47145D02*
X56846Y-46677D01*
X56377Y-47645D02*
X56377Y-47145D01*
X47677Y-43661D02*
X48070Y-43661D01*
X49846Y-39913D02*
X49846Y-41492D01*
X47362Y-43661D02*
X47165Y-43858D01*
X47362Y-43661D02*
X47677Y-43661D01*
X49846Y-41885D02*
X49846Y-41492D01*
X48070Y-43661D02*
X49846Y-41885D01*
X46780Y-45945D02*
X46780Y-44243D01*
X46780Y-44243D02*
X47165Y-43858D01*
X47165Y-43858D02*
X47165Y-43858D01*
X57874Y-44389D02*
X57401Y-44862D01*
X56346Y-46557D02*
X55694Y-47209D01*
X60846Y-42244D02*
X60255Y-42834D01*
X60255Y-42834D02*
X59429Y-42834D01*
X59429Y-42834D02*
X57874Y-44389D01*
X60846Y-42244D02*
X60846Y-39913D01*
X56346Y-45188D02*
X56346Y-46557D01*
X56673Y-44862D02*
X56346Y-45188D01*
X57401Y-44862D02*
X56673Y-44862D01*
X57751Y-55346D02*
X57751Y-54964D01*
X60970Y-56009D02*
X60984Y-56023D01*
X59690Y-54793D02*
X60906Y-56009D01*
X60906Y-56009D02*
X60970Y-56009D01*
X59660Y-54763D02*
X59690Y-54793D01*
X57952Y-54763D02*
X59660Y-54763D01*
X57751Y-54964D02*
X57952Y-54763D01*
X64271Y-38503D02*
X64271Y-39094D01*
X65098Y-37677D02*
X64271Y-38503D01*
X66811Y-37677D02*
X65098Y-37677D01*
X67314Y-37173D02*
X66811Y-37677D01*
X67314Y-36917D02*
X67314Y-37173D01*
X64314Y-37771D02*
X64314Y-36917D01*
X62846Y-39240D02*
X64314Y-37771D01*
X62846Y-39913D02*
X62846Y-39240D01*
X65314Y-37106D02*
X65314Y-36917D01*
X63846Y-38574D02*
X65314Y-37106D01*
X63846Y-39913D02*
X63846Y-38574D01*
X57035Y-38519D02*
X56889Y-38374D01*
X58700Y-38519D02*
X57035Y-38519D01*
G54D42*
X56846Y-38417D02*
X56889Y-38374D01*
X56846Y-39913D02*
X56846Y-38417D01*
G54D41*
X61862Y-25507D02*
X61862Y-27035D01*
X61862Y-27035D02*
X61850Y-27047D01*
X57116Y-50964D02*
X57116Y-51872D01*
X56823Y-52165D02*
X55839Y-53149D01*
X55012Y-53976D02*
X53751Y-53976D01*
X55839Y-53149D02*
X55012Y-53976D01*
X57116Y-51872D02*
X56823Y-52165D01*
X62047Y-52165D02*
X61634Y-52165D01*
X58533Y-50964D02*
X57559Y-50964D01*
X59320Y-51751D02*
X58533Y-50964D01*
X61220Y-51751D02*
X59320Y-51751D01*
X61634Y-52165D02*
X61220Y-51751D01*
X57559Y-50964D02*
X57116Y-50964D01*
X57116Y-50964D02*
X55915Y-50964D01*
X54025Y-49074D02*
X49334Y-49074D01*
X49334Y-49074D02*
X48366Y-48106D01*
X55915Y-50964D02*
X54025Y-49074D01*
X49330Y-23858D02*
X49330Y-23149D01*
X49775Y-22704D02*
X49775Y-22192D01*
X49330Y-23149D02*
X49775Y-22704D01*
X44192Y-26122D02*
X44192Y-25177D01*
X44192Y-28858D02*
X44192Y-26122D01*
X49291Y-23858D02*
X49330Y-23858D01*
X49330Y-23858D02*
X50169Y-23858D01*
X48543Y-24606D02*
X49291Y-23858D01*
X44763Y-24606D02*
X48543Y-24606D01*
X44192Y-25177D02*
X44763Y-24606D01*
X63314Y-35917D02*
X63019Y-35917D01*
X61500Y-38519D02*
X60551Y-38519D01*
X62578Y-37440D02*
X61500Y-38519D01*
X62578Y-36358D02*
X62578Y-37440D01*
X63019Y-35917D02*
X62578Y-36358D01*
X46011Y-37012D02*
X46011Y-36169D01*
X46011Y-36169D02*
X45590Y-35748D01*
X44192Y-28858D02*
X44192Y-31535D01*
X44192Y-28858D02*
X44531Y-28519D01*
X44881Y-28519D02*
X44531Y-28519D01*
X44192Y-47086D02*
X44192Y-47369D01*
X45728Y-45551D02*
X44192Y-47086D01*
X46062Y-45551D02*
X45728Y-45551D01*
X46437Y-45177D02*
X46062Y-45551D01*
X46437Y-42874D02*
X46437Y-45177D01*
X45964Y-42401D02*
X46437Y-42874D01*
X44960Y-42401D02*
X45964Y-42401D01*
X44291Y-41732D02*
X44960Y-42401D01*
X44291Y-36771D02*
X44291Y-41732D01*
X45314Y-35748D02*
X44291Y-36771D01*
X45964Y-35748D02*
X45590Y-35748D01*
X45590Y-35748D02*
X45314Y-35748D01*
X46397Y-35314D02*
X45964Y-35748D01*
X46397Y-32992D02*
X46397Y-35314D01*
X45905Y-32500D02*
X46397Y-32992D01*
X45157Y-32500D02*
X45905Y-32500D01*
X44192Y-31535D02*
X45157Y-32500D01*
X49751Y-55346D02*
X49751Y-55090D01*
X49751Y-55090D02*
X50145Y-54696D01*
X50145Y-54696D02*
X53031Y-54696D01*
X53031Y-54696D02*
X53751Y-53976D01*
X64527Y-48897D02*
X63858Y-48897D01*
X65724Y-47700D02*
X64527Y-48897D01*
X67322Y-47700D02*
X65724Y-47700D01*
X63897Y-48937D02*
X63858Y-48897D01*
X62047Y-50314D02*
X62047Y-49669D01*
X62047Y-49669D02*
X62023Y-49645D01*
X62047Y-50314D02*
X63228Y-50314D01*
X63228Y-50314D02*
X63897Y-49645D01*
X63897Y-49645D02*
X63897Y-48937D01*
X63070Y-48110D02*
X63070Y-47267D01*
X63858Y-48897D02*
X63070Y-48110D01*
X48334Y-28507D02*
X48334Y-27775D01*
X48385Y-27814D02*
X48385Y-27775D01*
X48374Y-27814D02*
X48385Y-27814D01*
X48334Y-27775D02*
X48374Y-27814D01*
X68251Y-53425D02*
X68503Y-53677D01*
X66850Y-53425D02*
X68251Y-53425D01*
X68543Y-53716D02*
X68543Y-54629D01*
X68503Y-53677D02*
X68543Y-53716D01*
X45625Y-27775D02*
X44881Y-28519D01*
X48334Y-27775D02*
X45625Y-27775D01*
X49724Y-27775D02*
X48385Y-27775D01*
X49937Y-27988D02*
X49724Y-27775D01*
X50629Y-27968D02*
X49937Y-27988D01*
X48385Y-27775D02*
X48334Y-27775D01*
X70299Y-44488D02*
X70299Y-46417D01*
X70299Y-40629D02*
X70299Y-42559D01*
X70299Y-42559D02*
X70299Y-44488D01*
X70299Y-38681D02*
X70279Y-38681D01*
X70299Y-36732D02*
X70299Y-38681D01*
X70299Y-38681D02*
X70299Y-40629D01*
X69035Y-49419D02*
X69035Y-47736D01*
X69724Y-50108D02*
X69035Y-49419D01*
X70964Y-50108D02*
X69724Y-50108D01*
X71259Y-49812D02*
X70964Y-50108D01*
X71259Y-49397D02*
X71259Y-49812D01*
X70299Y-46417D02*
X69035Y-47681D01*
X69015Y-47700D02*
X67322Y-47700D01*
X69035Y-47681D02*
X69015Y-47700D01*
X69035Y-47681D02*
X69035Y-47736D01*
X58228Y-48405D02*
X57559Y-49074D01*
X58228Y-47125D02*
X58228Y-48405D01*
X58846Y-46507D02*
X58228Y-47125D01*
X58846Y-45913D02*
X58846Y-46507D01*
X57559Y-49074D02*
X57559Y-49661D01*
X57559Y-49661D02*
X57559Y-50964D01*
X53751Y-53228D02*
X53751Y-53976D01*
X44192Y-49350D02*
X44192Y-47369D01*
X45275Y-50606D02*
X45275Y-50433D01*
X45275Y-50433D02*
X44192Y-49350D01*
X47608Y-47348D02*
X48366Y-48106D01*
X44192Y-47369D02*
X46338Y-47369D01*
X46338Y-47369D02*
X46359Y-47348D01*
X46359Y-47348D02*
X47608Y-47348D01*
G54D43*
X49366Y-50586D02*
X49366Y-51106D01*
X49173Y-50393D02*
X49366Y-50586D01*
X48051Y-50393D02*
X49173Y-50393D01*
X47854Y-50590D02*
X48051Y-50393D01*
X47854Y-51712D02*
X47854Y-50590D01*
X48137Y-51996D02*
X47854Y-51712D01*
X48137Y-53149D02*
X48137Y-51996D01*
X48366Y-51653D02*
X48366Y-51106D01*
X48700Y-51988D02*
X48366Y-51653D01*
X49665Y-51988D02*
X48700Y-51988D01*
X50342Y-52665D02*
X49665Y-51988D01*
X50342Y-53149D02*
X50342Y-52665D01*
X54751Y-52685D02*
X54751Y-53228D01*
X54251Y-52185D02*
X54751Y-52685D01*
X53031Y-52185D02*
X54251Y-52185D01*
X52366Y-51519D02*
X53031Y-52185D01*
X52366Y-51106D02*
X52366Y-51519D01*
X70000Y-33889D02*
X70299Y-34188D01*
X69055Y-33889D02*
X70000Y-33889D01*
X55826Y-33968D02*
X54724Y-33968D01*
X56929Y-33968D02*
X55826Y-33968D01*
X65393Y-54834D02*
X65007Y-54834D01*
X64381Y-55460D02*
X64381Y-56653D01*
X65007Y-54834D02*
X64381Y-55460D01*
X49318Y-34614D02*
X47795Y-34614D01*
X49842Y-35137D02*
X49318Y-34614D01*
X49842Y-35173D02*
X49842Y-35137D01*
X50944Y-31003D02*
X50944Y-31944D01*
X50216Y-30275D02*
X50944Y-31003D01*
X50216Y-29625D02*
X50216Y-30275D01*
X49842Y-29251D02*
X50216Y-29625D01*
X47755Y-29251D02*
X49842Y-29251D01*
X47334Y-28830D02*
X47755Y-29251D01*
X47334Y-28507D02*
X47334Y-28830D01*
X56015Y-38196D02*
X56015Y-37374D01*
X55641Y-38570D02*
X56015Y-38196D01*
X55078Y-38570D02*
X55641Y-38570D01*
X56015Y-37374D02*
X56889Y-37374D01*
X55602Y-36960D02*
X56015Y-37374D01*
X55602Y-35972D02*
X55602Y-36960D01*
X46564Y-38665D02*
X46011Y-38112D01*
X46564Y-41822D02*
X46564Y-38665D01*
X46471Y-41915D02*
X46564Y-41822D01*
X45552Y-41915D02*
X46471Y-41915D01*
X45011Y-41375D02*
X45552Y-41915D01*
X45011Y-40812D02*
X45011Y-41375D01*
X61913Y-48110D02*
X63070Y-49267D01*
X61264Y-48110D02*
X61913Y-48110D01*
X61264Y-46934D02*
X61264Y-48110D01*
X60846Y-46515D02*
X61264Y-46934D01*
X60846Y-45913D02*
X60846Y-46515D01*
X59364Y-46934D02*
X59364Y-48110D01*
X59846Y-46452D02*
X59364Y-46934D01*
X59846Y-45913D02*
X59846Y-46452D01*
X59364Y-48971D02*
X59364Y-48110D01*
X60023Y-49629D02*
X59364Y-48971D01*
X60023Y-49645D02*
X60023Y-49629D01*
X52547Y-52311D02*
X52547Y-53149D01*
X51366Y-51129D02*
X52547Y-52311D01*
X51366Y-51106D02*
X51366Y-51129D01*
X50944Y-29409D02*
X50944Y-29944D01*
X50043Y-28507D02*
X50944Y-29409D01*
X49334Y-28507D02*
X50043Y-28507D01*
X49401Y-32614D02*
X48842Y-33173D01*
X49401Y-30866D02*
X49401Y-32614D01*
X50775Y-21192D02*
X50775Y-22074D01*
X51400Y-22699D02*
X52047Y-22699D01*
X50775Y-22074D02*
X51400Y-22699D01*
X52047Y-22699D02*
X53939Y-22699D01*
X53939Y-22699D02*
X54015Y-22775D01*
X66023Y-19574D02*
X66023Y-20708D01*
X68098Y-21681D02*
X68098Y-22177D01*
X67795Y-21377D02*
X68098Y-21681D01*
X66692Y-21377D02*
X67795Y-21377D01*
X66023Y-20708D02*
X66692Y-21377D01*
X63858Y-22775D02*
X63858Y-22401D01*
X66023Y-22362D02*
X66023Y-23574D01*
X65669Y-22007D02*
X66023Y-22362D01*
X64251Y-22007D02*
X65669Y-22007D01*
X63858Y-22401D02*
X64251Y-22007D01*
X49775Y-21192D02*
X49775Y-20405D01*
X49062Y-19692D02*
X47913Y-19692D01*
X49775Y-20405D02*
X49062Y-19692D01*
X53964Y-28507D02*
X53964Y-27925D01*
X56515Y-22007D02*
X57480Y-21043D01*
X57480Y-21043D02*
X60354Y-21043D01*
X60354Y-21043D02*
X60807Y-20590D01*
X60807Y-20590D02*
X60807Y-19566D01*
X60807Y-19566D02*
X61496Y-18877D01*
X61496Y-18877D02*
X62460Y-18877D01*
X62460Y-18877D02*
X62893Y-19311D01*
X62893Y-19311D02*
X62893Y-23287D01*
X62893Y-23287D02*
X63366Y-23759D01*
X63366Y-23759D02*
X64566Y-23759D01*
X64566Y-23759D02*
X65039Y-23287D01*
X65039Y-23287D02*
X65039Y-22699D01*
X56515Y-25157D02*
X56515Y-23444D01*
X57224Y-25866D02*
X56515Y-25157D01*
X57224Y-26417D02*
X57224Y-25866D01*
X56870Y-26771D02*
X57224Y-26417D01*
X56515Y-23444D02*
X56515Y-22007D01*
X55787Y-26771D02*
X56870Y-26771D01*
X54921Y-27637D02*
X55787Y-26771D01*
X54251Y-27637D02*
X54921Y-27637D01*
X53964Y-27925D02*
X54251Y-27637D01*
X53964Y-29814D02*
X53964Y-28507D01*
X52992Y-31944D02*
X52992Y-30787D01*
X52992Y-30787D02*
X53964Y-29814D01*
X60862Y-28921D02*
X60862Y-28507D01*
X60688Y-29094D02*
X60862Y-28921D01*
X58996Y-29094D02*
X60688Y-29094D01*
X58543Y-28641D02*
X58996Y-29094D01*
X58543Y-28496D02*
X58543Y-28641D01*
X47366Y-52082D02*
X47366Y-51106D01*
X47137Y-52311D02*
X47366Y-52082D01*
X47137Y-53149D02*
X47137Y-52311D01*
X63862Y-26535D02*
X63862Y-26657D01*
X66181Y-27244D02*
X66181Y-27856D01*
X65984Y-27047D02*
X66181Y-27244D01*
X64251Y-27047D02*
X65984Y-27047D01*
X63862Y-26657D02*
X64251Y-27047D01*
X67401Y-27856D02*
X66181Y-27856D01*
X63862Y-25507D02*
X63862Y-26535D01*
X63862Y-26535D02*
X63862Y-26539D01*
X71559Y-34188D02*
X72299Y-34188D01*
X70846Y-34901D02*
X71559Y-34188D01*
X69763Y-34901D02*
X70846Y-34901D01*
X69370Y-34507D02*
X69763Y-34901D01*
X68435Y-34507D02*
X69370Y-34507D01*
X68031Y-34104D02*
X68435Y-34507D01*
X68031Y-33889D02*
X68031Y-34104D01*
X50366Y-51507D02*
X50366Y-51106D01*
X51547Y-52688D02*
X50366Y-51507D01*
X51547Y-53149D02*
X51547Y-52688D01*
X61862Y-28003D02*
X61862Y-28507D01*
X62035Y-27830D02*
X61862Y-28003D01*
X63031Y-27830D02*
X62035Y-27830D01*
X63334Y-28133D02*
X63031Y-27830D01*
X63334Y-28917D02*
X63334Y-28133D01*
X63622Y-29204D02*
X63334Y-28917D01*
X63622Y-29929D02*
X63622Y-29204D01*
X52992Y-29944D02*
X52992Y-28535D01*
X52992Y-28535D02*
X52964Y-28507D01*
X50216Y-32547D02*
X50842Y-33173D01*
X50216Y-30669D02*
X50216Y-32547D01*
X49401Y-29854D02*
X50216Y-30669D01*
X49401Y-29842D02*
X49401Y-29854D01*
X60787Y-31944D02*
X60787Y-31338D01*
X62862Y-28948D02*
X62862Y-28507D01*
X62716Y-29094D02*
X62862Y-28948D01*
X62401Y-29094D02*
X62716Y-29094D01*
X61850Y-29645D02*
X62401Y-29094D01*
X61850Y-30275D02*
X61850Y-29645D01*
X60787Y-31338D02*
X61850Y-30275D01*
X67401Y-25056D02*
X67817Y-25056D01*
X67996Y-24877D02*
X68582Y-24877D01*
X67817Y-25056D02*
X67996Y-24877D01*
X68031Y-29889D02*
X68102Y-29889D01*
X69011Y-24877D02*
X68582Y-24877D01*
X69251Y-25118D02*
X69011Y-24877D01*
X69251Y-28740D02*
X69251Y-25118D01*
X68102Y-29889D02*
X69251Y-28740D01*
X64645Y-33929D02*
X64665Y-33909D01*
X63622Y-33929D02*
X64645Y-33929D01*
X66377Y-32196D02*
X66377Y-31866D01*
X64665Y-33909D02*
X66377Y-32196D01*
X62559Y-33929D02*
X63622Y-33929D01*
X66181Y-25056D02*
X66181Y-26496D01*
X62862Y-25507D02*
X62862Y-24893D01*
X68582Y-26889D02*
X68582Y-27877D01*
X68188Y-26496D02*
X68582Y-26889D01*
X64724Y-26496D02*
X66181Y-26496D01*
X66181Y-26496D02*
X68188Y-26496D01*
X64448Y-26220D02*
X64724Y-26496D01*
X64448Y-24921D02*
X64448Y-26220D01*
X64370Y-24842D02*
X64448Y-24921D01*
X62913Y-24842D02*
X64370Y-24842D01*
X62862Y-24893D02*
X62913Y-24842D01*
X62862Y-26822D02*
X62862Y-25507D01*
X62125Y-27559D02*
X62862Y-26822D01*
X60629Y-27559D02*
X62125Y-27559D01*
X59692Y-28496D02*
X60629Y-27559D01*
X59566Y-28496D02*
X59692Y-28496D01*
X51496Y-27795D02*
X51614Y-27677D01*
X51259Y-28031D02*
X51496Y-27795D01*
X51259Y-28107D02*
X51259Y-29005D01*
X51259Y-29005D02*
X51791Y-29498D01*
X51791Y-29498D02*
X51791Y-35059D01*
X51755Y-35094D02*
X51791Y-35059D01*
X51259Y-28107D02*
X51259Y-28031D01*
X53964Y-26547D02*
X53964Y-25507D01*
X52913Y-27598D02*
X53964Y-26547D01*
X51692Y-27598D02*
X52913Y-27598D01*
X51614Y-27677D02*
X51692Y-27598D01*
X52795Y-36401D02*
X53874Y-36401D01*
X54507Y-33307D02*
X61240Y-33307D01*
X54074Y-33740D02*
X54507Y-33307D01*
X54074Y-34350D02*
X54074Y-33740D01*
X54645Y-34921D02*
X54074Y-34350D01*
X54645Y-35629D02*
X54645Y-34921D01*
X53874Y-36401D02*
X54645Y-35629D01*
X52228Y-36401D02*
X52795Y-36401D01*
X51755Y-35929D02*
X52228Y-36401D01*
X51755Y-35094D02*
X51755Y-35929D01*
G54D10*
G36*
X65137Y-42007D02*
X64283Y-42861D01*
X62331Y-42861D01*
X62331Y-40083D01*
X62331Y-39743D01*
X62294Y-39557D01*
X62189Y-39400D01*
X62031Y-39295D01*
X61846Y-39258D01*
X61660Y-39295D01*
X61503Y-39400D01*
X61398Y-39557D01*
X61361Y-39743D01*
X61361Y-40083D01*
X61398Y-40268D01*
X61503Y-40426D01*
X61660Y-40531D01*
X61846Y-40568D01*
X62031Y-40531D01*
X62189Y-40426D01*
X62294Y-40268D01*
X62331Y-40083D01*
X62331Y-42861D01*
X60524Y-42861D01*
X60994Y-42391D01*
X60994Y-42391D01*
X60994Y-42391D01*
X61039Y-42324D01*
X61055Y-42244D01*
X61055Y-40515D01*
X61189Y-40426D01*
X61294Y-40268D01*
X61331Y-40083D01*
X61331Y-39743D01*
X61294Y-39557D01*
X61189Y-39400D01*
X61099Y-39340D01*
X61099Y-38432D01*
X61024Y-38229D01*
X61000Y-38193D01*
X60917Y-38154D01*
X60916Y-38154D01*
X60916Y-38153D01*
X60877Y-38070D01*
X60680Y-37980D01*
X60464Y-37971D01*
X60261Y-38046D01*
X60225Y-38070D01*
X60185Y-38153D01*
X60551Y-38519D01*
X60916Y-38153D01*
X60916Y-38154D01*
X60551Y-38519D01*
X60917Y-38885D01*
X61000Y-38845D01*
X61090Y-38648D01*
X61099Y-38432D01*
X61099Y-39340D01*
X61031Y-39295D01*
X60916Y-39272D01*
X60916Y-38885D01*
X60551Y-38519D01*
X60550Y-38520D01*
X60550Y-38519D01*
X60185Y-38154D01*
X60102Y-38193D01*
X60011Y-38390D01*
X60003Y-38606D01*
X60078Y-38809D01*
X60102Y-38845D01*
X60185Y-38885D01*
X60550Y-38519D01*
X60550Y-38520D01*
X60185Y-38885D01*
X60225Y-38968D01*
X60421Y-39059D01*
X60638Y-39067D01*
X60841Y-38992D01*
X60877Y-38968D01*
X60916Y-38885D01*
X60916Y-39272D01*
X60846Y-39258D01*
X60660Y-39295D01*
X60503Y-39400D01*
X60398Y-39557D01*
X60361Y-39743D01*
X60361Y-40083D01*
X60398Y-40268D01*
X60503Y-40426D01*
X60637Y-40515D01*
X60637Y-42157D01*
X60169Y-42625D01*
X59429Y-42625D01*
X59349Y-42641D01*
X59281Y-42686D01*
X59281Y-42686D01*
X57726Y-44241D01*
X57314Y-44653D01*
X56673Y-44653D01*
X56593Y-44669D01*
X56525Y-44714D01*
X56198Y-45041D01*
X56153Y-45108D01*
X56137Y-45188D01*
X56137Y-45366D01*
X56031Y-45295D01*
X55846Y-45258D01*
X55660Y-45295D01*
X55553Y-45367D01*
X55553Y-45147D01*
X55537Y-45067D01*
X55492Y-44999D01*
X55055Y-44563D01*
X55055Y-41624D01*
X57973Y-41624D01*
X59137Y-40460D01*
X59189Y-40426D01*
X59223Y-40374D01*
X59387Y-40211D01*
X59398Y-40268D01*
X59503Y-40426D01*
X59660Y-40531D01*
X59846Y-40568D01*
X60031Y-40531D01*
X60189Y-40426D01*
X60294Y-40268D01*
X60331Y-40083D01*
X60331Y-39743D01*
X60294Y-39557D01*
X60189Y-39400D01*
X60031Y-39295D01*
X59971Y-39283D01*
X59971Y-38052D01*
X60335Y-37687D01*
X61516Y-37687D01*
X62333Y-36871D01*
X62333Y-35690D01*
X62520Y-35502D01*
X62952Y-35502D01*
X62935Y-35537D01*
X63314Y-35917D01*
X63694Y-35537D01*
X63677Y-35502D01*
X63851Y-35502D01*
X63788Y-35565D01*
X63781Y-35582D01*
X63780Y-35579D01*
X63694Y-35537D01*
X63315Y-35917D01*
X63694Y-36297D01*
X63780Y-36255D01*
X63781Y-36252D01*
X63788Y-36268D01*
X63962Y-36443D01*
X63983Y-36452D01*
X63878Y-36557D01*
X63878Y-36474D01*
X63855Y-36419D01*
X63813Y-36376D01*
X63758Y-36353D01*
X63698Y-36353D01*
X63666Y-36353D01*
X63694Y-36297D01*
X63314Y-35917D01*
X63314Y-35917D01*
X63314Y-35917D01*
X62934Y-35537D01*
X62849Y-35579D01*
X62755Y-35783D01*
X62747Y-36007D01*
X62824Y-36217D01*
X62849Y-36255D01*
X62934Y-36297D01*
X63314Y-35917D01*
X63314Y-35917D01*
X62935Y-36297D01*
X62963Y-36353D01*
X62871Y-36353D01*
X62816Y-36376D01*
X62774Y-36418D01*
X62751Y-36473D01*
X62751Y-36533D01*
X62751Y-37360D01*
X62774Y-37415D01*
X62816Y-37457D01*
X62871Y-37480D01*
X62931Y-37480D01*
X63758Y-37480D01*
X63813Y-37457D01*
X63855Y-37415D01*
X63878Y-37360D01*
X63878Y-37301D01*
X63878Y-37277D01*
X63995Y-37394D01*
X64105Y-37440D01*
X64105Y-37685D01*
X62698Y-39092D01*
X62653Y-39160D01*
X62637Y-39240D01*
X62637Y-39311D01*
X62503Y-39400D01*
X62398Y-39557D01*
X62361Y-39743D01*
X62361Y-40083D01*
X62398Y-40268D01*
X62503Y-40426D01*
X62660Y-40531D01*
X62846Y-40568D01*
X63031Y-40531D01*
X63189Y-40426D01*
X63294Y-40268D01*
X63331Y-40083D01*
X63331Y-39743D01*
X63294Y-39557D01*
X63189Y-39400D01*
X63064Y-39317D01*
X63637Y-38744D01*
X63637Y-39311D01*
X63503Y-39400D01*
X63398Y-39557D01*
X63361Y-39743D01*
X63361Y-40083D01*
X63398Y-40268D01*
X63503Y-40426D01*
X63660Y-40531D01*
X63846Y-40568D01*
X64031Y-40531D01*
X64189Y-40426D01*
X64294Y-40268D01*
X64331Y-40083D01*
X64331Y-39743D01*
X64294Y-39557D01*
X64242Y-39480D01*
X64348Y-39480D01*
X64489Y-39422D01*
X64398Y-39557D01*
X64361Y-39743D01*
X64361Y-40083D01*
X64398Y-40268D01*
X64503Y-40426D01*
X64660Y-40531D01*
X64846Y-40568D01*
X65031Y-40531D01*
X65137Y-40460D01*
X65137Y-42007D01*
X65137Y-42007D01*
G37*
G54D44*
X65137Y-42007D02*
X64283Y-42861D01*
X62331Y-42861D01*
X62331Y-40083D01*
X62331Y-39743D01*
X62294Y-39557D01*
X62189Y-39400D01*
X62031Y-39295D01*
X61846Y-39258D01*
X61660Y-39295D01*
X61503Y-39400D01*
X61398Y-39557D01*
X61361Y-39743D01*
X61361Y-40083D01*
X61398Y-40268D01*
X61503Y-40426D01*
X61660Y-40531D01*
X61846Y-40568D01*
X62031Y-40531D01*
X62189Y-40426D01*
X62294Y-40268D01*
X62331Y-40083D01*
X62331Y-42861D01*
X60524Y-42861D01*
X60994Y-42391D01*
X60994Y-42391D01*
X60994Y-42391D01*
X61039Y-42324D01*
X61055Y-42244D01*
X61055Y-40515D01*
X61189Y-40426D01*
X61294Y-40268D01*
X61331Y-40083D01*
X61331Y-39743D01*
X61294Y-39557D01*
X61189Y-39400D01*
X61099Y-39340D01*
X61099Y-38432D01*
X61024Y-38229D01*
X61000Y-38193D01*
X60917Y-38154D01*
X60916Y-38154D01*
X60916Y-38153D01*
X60877Y-38070D01*
X60680Y-37980D01*
X60464Y-37971D01*
X60261Y-38046D01*
X60225Y-38070D01*
X60185Y-38153D01*
X60551Y-38519D01*
X60916Y-38153D01*
X60916Y-38154D01*
X60551Y-38519D01*
X60917Y-38885D01*
X61000Y-38845D01*
X61090Y-38648D01*
X61099Y-38432D01*
X61099Y-39340D01*
X61031Y-39295D01*
X60916Y-39272D01*
X60916Y-38885D01*
X60551Y-38519D01*
X60550Y-38520D01*
X60550Y-38519D01*
X60185Y-38154D01*
X60102Y-38193D01*
X60011Y-38390D01*
X60003Y-38606D01*
X60078Y-38809D01*
X60102Y-38845D01*
X60185Y-38885D01*
X60550Y-38519D01*
X60550Y-38520D01*
X60185Y-38885D01*
X60225Y-38968D01*
X60421Y-39059D01*
X60638Y-39067D01*
X60841Y-38992D01*
X60877Y-38968D01*
X60916Y-38885D01*
X60916Y-39272D01*
X60846Y-39258D01*
X60660Y-39295D01*
X60503Y-39400D01*
X60398Y-39557D01*
X60361Y-39743D01*
X60361Y-40083D01*
X60398Y-40268D01*
X60503Y-40426D01*
X60637Y-40515D01*
X60637Y-42157D01*
X60169Y-42625D01*
X59429Y-42625D01*
X59349Y-42641D01*
X59281Y-42686D01*
X59281Y-42686D01*
X57726Y-44241D01*
X57314Y-44653D01*
X56673Y-44653D01*
X56593Y-44669D01*
X56525Y-44714D01*
X56198Y-45041D01*
X56153Y-45108D01*
X56137Y-45188D01*
X56137Y-45366D01*
X56031Y-45295D01*
X55846Y-45258D01*
X55660Y-45295D01*
X55553Y-45367D01*
X55553Y-45147D01*
X55537Y-45067D01*
X55492Y-44999D01*
X55055Y-44563D01*
X55055Y-41624D01*
X57973Y-41624D01*
X59137Y-40460D01*
X59189Y-40426D01*
X59223Y-40374D01*
X59387Y-40211D01*
X59398Y-40268D01*
X59503Y-40426D01*
X59660Y-40531D01*
X59846Y-40568D01*
X60031Y-40531D01*
X60189Y-40426D01*
X60294Y-40268D01*
X60331Y-40083D01*
X60331Y-39743D01*
X60294Y-39557D01*
X60189Y-39400D01*
X60031Y-39295D01*
X59971Y-39283D01*
X59971Y-38052D01*
X60335Y-37687D01*
X61516Y-37687D01*
X62333Y-36871D01*
X62333Y-35690D01*
X62520Y-35502D01*
X62952Y-35502D01*
X62935Y-35537D01*
X63314Y-35917D01*
X63694Y-35537D01*
X63677Y-35502D01*
X63851Y-35502D01*
X63788Y-35565D01*
X63781Y-35582D01*
X63780Y-35579D01*
X63694Y-35537D01*
X63315Y-35917D01*
X63694Y-36297D01*
X63780Y-36255D01*
X63781Y-36252D01*
X63788Y-36268D01*
X63962Y-36443D01*
X63983Y-36452D01*
X63878Y-36557D01*
X63878Y-36474D01*
X63855Y-36419D01*
X63813Y-36376D01*
X63758Y-36353D01*
X63698Y-36353D01*
X63666Y-36353D01*
X63694Y-36297D01*
X63314Y-35917D01*
X63314Y-35917D01*
X63314Y-35917D01*
X62934Y-35537D01*
X62849Y-35579D01*
X62755Y-35783D01*
X62747Y-36007D01*
X62824Y-36217D01*
X62849Y-36255D01*
X62934Y-36297D01*
X63314Y-35917D01*
X63314Y-35917D01*
X62935Y-36297D01*
X62963Y-36353D01*
X62871Y-36353D01*
X62816Y-36376D01*
X62774Y-36418D01*
X62751Y-36473D01*
X62751Y-36533D01*
X62751Y-37360D01*
X62774Y-37415D01*
X62816Y-37457D01*
X62871Y-37480D01*
X62931Y-37480D01*
X63758Y-37480D01*
X63813Y-37457D01*
X63855Y-37415D01*
X63878Y-37360D01*
X63878Y-37301D01*
X63878Y-37277D01*
X63995Y-37394D01*
X64105Y-37440D01*
X64105Y-37685D01*
X62698Y-39092D01*
X62653Y-39160D01*
X62637Y-39240D01*
X62637Y-39311D01*
X62503Y-39400D01*
X62398Y-39557D01*
X62361Y-39743D01*
X62361Y-40083D01*
X62398Y-40268D01*
X62503Y-40426D01*
X62660Y-40531D01*
X62846Y-40568D01*
X63031Y-40531D01*
X63189Y-40426D01*
X63294Y-40268D01*
X63331Y-40083D01*
X63331Y-39743D01*
X63294Y-39557D01*
X63189Y-39400D01*
X63064Y-39317D01*
X63637Y-38744D01*
X63637Y-39311D01*
X63503Y-39400D01*
X63398Y-39557D01*
X63361Y-39743D01*
X63361Y-40083D01*
X63398Y-40268D01*
X63503Y-40426D01*
X63660Y-40531D01*
X63846Y-40568D01*
X64031Y-40531D01*
X64189Y-40426D01*
X64294Y-40268D01*
X64331Y-40083D01*
X64331Y-39743D01*
X64294Y-39557D01*
X64242Y-39480D01*
X64348Y-39480D01*
X64489Y-39422D01*
X64398Y-39557D01*
X64361Y-39743D01*
X64361Y-40083D01*
X64398Y-40268D01*
X64503Y-40426D01*
X64660Y-40531D01*
X64846Y-40568D01*
X65031Y-40531D01*
X65137Y-40460D01*
X65137Y-42007D01*
G54D10*
G36*
X67759Y-36565D02*
X67634Y-36439D01*
X67583Y-36418D01*
X67615Y-36407D01*
X67652Y-36382D01*
X67694Y-36297D01*
X67314Y-35917D01*
X66935Y-36297D01*
X66977Y-36382D01*
X67051Y-36416D01*
X66996Y-36439D01*
X66849Y-36585D01*
X66841Y-36566D01*
X66667Y-36391D01*
X66646Y-36382D01*
X66792Y-36236D01*
X66813Y-36186D01*
X66824Y-36217D01*
X66849Y-36255D01*
X66934Y-36297D01*
X67314Y-35917D01*
X66934Y-35537D01*
X66849Y-35579D01*
X66815Y-35653D01*
X66792Y-35598D01*
X66667Y-35472D01*
X66967Y-35472D01*
X66935Y-35537D01*
X67314Y-35917D01*
X67320Y-35911D01*
X67320Y-35911D01*
X67315Y-35917D01*
X67694Y-36297D01*
X67759Y-36265D01*
X67759Y-36565D01*
X67759Y-36565D01*
G37*
G54D44*
X67759Y-36565D02*
X67634Y-36439D01*
X67583Y-36418D01*
X67615Y-36407D01*
X67652Y-36382D01*
X67694Y-36297D01*
X67314Y-35917D01*
X66935Y-36297D01*
X66977Y-36382D01*
X67051Y-36416D01*
X66996Y-36439D01*
X66849Y-36585D01*
X66841Y-36566D01*
X66667Y-36391D01*
X66646Y-36382D01*
X66792Y-36236D01*
X66813Y-36186D01*
X66824Y-36217D01*
X66849Y-36255D01*
X66934Y-36297D01*
X67314Y-35917D01*
X66934Y-35537D01*
X66849Y-35579D01*
X66815Y-35653D01*
X66792Y-35598D01*
X66667Y-35472D01*
X66967Y-35472D01*
X66935Y-35537D01*
X67314Y-35917D01*
X67320Y-35911D01*
X67320Y-35911D01*
X67315Y-35917D01*
X67694Y-36297D01*
X67759Y-36265D01*
X67759Y-36565D01*
G54D10*
G36*
X72417Y-30003D02*
X72227Y-30192D01*
X70736Y-30185D01*
X70366Y-29814D01*
X70366Y-29537D01*
X70427Y-29702D01*
X70452Y-29739D01*
X70537Y-29781D01*
X70917Y-29401D01*
X70537Y-29021D01*
X70452Y-29063D01*
X70366Y-29249D01*
X70366Y-29023D01*
X70554Y-28835D01*
X70597Y-28878D01*
X70648Y-28899D01*
X70616Y-28911D01*
X70579Y-28936D01*
X70537Y-29021D01*
X70917Y-29401D01*
X70922Y-29395D01*
X70923Y-29396D01*
X70917Y-29401D01*
X70923Y-29407D01*
X70922Y-29407D01*
X70917Y-29401D01*
X70537Y-29781D01*
X70579Y-29866D01*
X70783Y-29960D01*
X71007Y-29969D01*
X71217Y-29891D01*
X71255Y-29866D01*
X71296Y-29782D01*
X71296Y-29856D01*
X71327Y-29932D01*
X71386Y-29990D01*
X71462Y-30022D01*
X71545Y-30022D01*
X72371Y-30022D01*
X72417Y-30003D01*
X72417Y-30003D01*
G37*
G54D44*
X72417Y-30003D02*
X72227Y-30192D01*
X70736Y-30185D01*
X70366Y-29814D01*
X70366Y-29537D01*
X70427Y-29702D01*
X70452Y-29739D01*
X70537Y-29781D01*
X70917Y-29401D01*
X70537Y-29021D01*
X70452Y-29063D01*
X70366Y-29249D01*
X70366Y-29023D01*
X70554Y-28835D01*
X70597Y-28878D01*
X70648Y-28899D01*
X70616Y-28911D01*
X70579Y-28936D01*
X70537Y-29021D01*
X70917Y-29401D01*
X70922Y-29395D01*
X70923Y-29396D01*
X70917Y-29401D01*
X70923Y-29407D01*
X70922Y-29407D01*
X70917Y-29401D01*
X70537Y-29781D01*
X70579Y-29866D01*
X70783Y-29960D01*
X71007Y-29969D01*
X71217Y-29891D01*
X71255Y-29866D01*
X71296Y-29782D01*
X71296Y-29856D01*
X71327Y-29932D01*
X71386Y-29990D01*
X71462Y-30022D01*
X71545Y-30022D01*
X72371Y-30022D01*
X72417Y-30003D01*
G54D10*
G36*
X72863Y-57666D02*
X65925Y-57666D01*
X65925Y-56850D01*
X65925Y-56653D01*
X65925Y-56653D01*
X65925Y-56456D01*
X65884Y-56248D01*
X65766Y-56071D01*
X65589Y-55953D01*
X65467Y-55919D01*
X65382Y-55950D01*
X65382Y-56653D01*
X65925Y-56653D01*
X65925Y-56653D01*
X65382Y-56653D01*
X65382Y-57356D01*
X65467Y-57387D01*
X65589Y-57353D01*
X65766Y-57235D01*
X65884Y-57058D01*
X65925Y-56850D01*
X65925Y-57666D01*
X47394Y-57666D01*
X47394Y-55562D01*
X47207Y-55109D01*
X46860Y-54762D01*
X46407Y-54574D01*
X45917Y-54574D01*
X45823Y-54612D01*
X45823Y-50519D01*
X45748Y-50316D01*
X45724Y-50280D01*
X45641Y-50240D01*
X45641Y-50241D01*
X45641Y-50240D01*
X45601Y-50157D01*
X45404Y-50066D01*
X45188Y-50058D01*
X44985Y-50133D01*
X44949Y-50157D01*
X44910Y-50240D01*
X45275Y-50606D01*
X45641Y-50240D01*
X45641Y-50241D01*
X45275Y-50606D01*
X45641Y-50971D01*
X45724Y-50932D01*
X45815Y-50735D01*
X45823Y-50519D01*
X45823Y-54612D01*
X45641Y-54688D01*
X45641Y-50972D01*
X45275Y-50606D01*
X45275Y-50606D01*
X45275Y-50606D01*
X44909Y-50240D01*
X44826Y-50280D01*
X44736Y-50476D01*
X44727Y-50693D01*
X44802Y-50896D01*
X44826Y-50932D01*
X44909Y-50971D01*
X45275Y-50606D01*
X45275Y-50606D01*
X44910Y-50972D01*
X44949Y-51055D01*
X45146Y-51145D01*
X45362Y-51154D01*
X45565Y-51079D01*
X45601Y-51055D01*
X45641Y-50972D01*
X45641Y-54688D01*
X45464Y-54761D01*
X45117Y-55107D01*
X44928Y-55560D01*
X44928Y-56051D01*
X45115Y-56504D01*
X45462Y-56851D01*
X45915Y-57039D01*
X46405Y-57039D01*
X46858Y-56852D01*
X47205Y-56506D01*
X47393Y-56053D01*
X47394Y-55562D01*
X47394Y-57666D01*
X44223Y-57666D01*
X44223Y-47107D01*
X45768Y-45561D01*
X46162Y-45561D01*
X46571Y-45152D01*
X46571Y-45613D01*
X46562Y-45617D01*
X46453Y-45726D01*
X46394Y-45868D01*
X46394Y-46021D01*
X46452Y-46163D01*
X46561Y-46272D01*
X46703Y-46331D01*
X46857Y-46331D01*
X46999Y-46273D01*
X47107Y-46164D01*
X47166Y-46022D01*
X47166Y-45868D01*
X47108Y-45726D01*
X46999Y-45618D01*
X46989Y-45614D01*
X46989Y-45329D01*
X47098Y-45374D01*
X47252Y-45374D01*
X47394Y-45315D01*
X47503Y-45207D01*
X47518Y-45171D01*
X47570Y-45136D01*
X51081Y-41624D01*
X54637Y-41624D01*
X54637Y-44649D01*
X54653Y-44729D01*
X54698Y-44797D01*
X55135Y-45234D01*
X55135Y-45364D01*
X55031Y-45295D01*
X54846Y-45258D01*
X54660Y-45295D01*
X54503Y-45400D01*
X54398Y-45557D01*
X54361Y-45743D01*
X54361Y-46083D01*
X54398Y-46268D01*
X54503Y-46426D01*
X54660Y-46531D01*
X54846Y-46568D01*
X55031Y-46531D01*
X55135Y-46462D01*
X55135Y-46724D01*
X55029Y-46830D01*
X54984Y-46898D01*
X54968Y-46978D01*
X54968Y-47608D01*
X54984Y-47688D01*
X55029Y-47756D01*
X55873Y-48600D01*
X55873Y-49507D01*
X55889Y-49587D01*
X55934Y-49655D01*
X56596Y-50316D01*
X56592Y-50326D01*
X56592Y-50480D01*
X56650Y-50622D01*
X56759Y-50730D01*
X56901Y-50789D01*
X57054Y-50789D01*
X57196Y-50731D01*
X57305Y-50622D01*
X57364Y-50480D01*
X57364Y-50327D01*
X57305Y-50185D01*
X57197Y-50076D01*
X57055Y-50017D01*
X56901Y-50017D01*
X56891Y-50021D01*
X56291Y-49421D01*
X56291Y-48513D01*
X56275Y-48433D01*
X56230Y-48365D01*
X55386Y-47521D01*
X55386Y-47446D01*
X55475Y-47536D01*
X55617Y-47595D01*
X55771Y-47595D01*
X55882Y-47549D01*
X55873Y-47595D01*
X55873Y-47695D01*
X55912Y-47888D01*
X56021Y-48052D01*
X56184Y-48161D01*
X56377Y-48200D01*
X56570Y-48161D01*
X56734Y-48052D01*
X56843Y-47888D01*
X56882Y-47695D01*
X56882Y-47595D01*
X56843Y-47402D01*
X56734Y-47239D01*
X56642Y-47177D01*
X56994Y-46824D01*
X57039Y-46757D01*
X57055Y-46677D01*
X57055Y-46515D01*
X57189Y-46426D01*
X57294Y-46268D01*
X57317Y-46151D01*
X57345Y-46292D01*
X57463Y-46467D01*
X57540Y-46519D01*
X57540Y-46692D01*
X57342Y-46889D01*
X57276Y-46989D01*
X57253Y-47106D01*
X57253Y-47137D01*
X57218Y-47151D01*
X57049Y-47320D01*
X56957Y-47541D01*
X56957Y-47780D01*
X57049Y-48001D01*
X57218Y-48170D01*
X57438Y-48262D01*
X57678Y-48262D01*
X57899Y-48171D01*
X58068Y-48002D01*
X58160Y-47781D01*
X58160Y-47542D01*
X58069Y-47321D01*
X57922Y-47175D01*
X58062Y-47035D01*
X58062Y-47035D01*
X58062Y-47035D01*
X58129Y-46935D01*
X58129Y-46935D01*
X58152Y-46818D01*
X58152Y-46818D01*
X58152Y-46519D01*
X58229Y-46467D01*
X58347Y-46292D01*
X58376Y-46146D01*
X58398Y-46256D01*
X58503Y-46413D01*
X58661Y-46519D01*
X58770Y-46549D01*
X58846Y-46518D01*
X58846Y-45913D01*
X58838Y-45913D01*
X58838Y-45913D01*
X58846Y-45913D01*
X58846Y-45308D01*
X58770Y-45276D01*
X58661Y-45307D01*
X58503Y-45412D01*
X58398Y-45570D01*
X58376Y-45680D01*
X58347Y-45534D01*
X58229Y-45358D01*
X58202Y-45340D01*
X59851Y-43691D01*
X65629Y-43691D01*
X65637Y-43690D01*
X65637Y-45311D01*
X65503Y-45400D01*
X65398Y-45557D01*
X65361Y-45743D01*
X65361Y-46083D01*
X65398Y-46268D01*
X65503Y-46426D01*
X65660Y-46531D01*
X65846Y-46568D01*
X66031Y-46531D01*
X66189Y-46426D01*
X66294Y-46268D01*
X66331Y-46083D01*
X66331Y-45743D01*
X66294Y-45557D01*
X66189Y-45400D01*
X66055Y-45311D01*
X66055Y-43767D01*
X66637Y-43185D01*
X66637Y-45311D01*
X66503Y-45400D01*
X66398Y-45557D01*
X66361Y-45743D01*
X66361Y-46083D01*
X66398Y-46268D01*
X66503Y-46426D01*
X66660Y-46531D01*
X66846Y-46568D01*
X67031Y-46531D01*
X67189Y-46426D01*
X67294Y-46268D01*
X67331Y-46083D01*
X67331Y-45743D01*
X67294Y-45557D01*
X67189Y-45400D01*
X67055Y-45311D01*
X67055Y-43122D01*
X69281Y-40895D01*
X69281Y-40895D01*
X69281Y-40895D01*
X69327Y-40828D01*
X69342Y-40748D01*
X69342Y-40748D01*
X69342Y-40748D01*
X69342Y-35370D01*
X69352Y-35366D01*
X69461Y-35258D01*
X69520Y-35116D01*
X69520Y-34962D01*
X69513Y-34947D01*
X69615Y-35049D01*
X69615Y-35049D01*
X69683Y-35094D01*
X69763Y-35110D01*
X70846Y-35110D01*
X70926Y-35094D01*
X70994Y-35049D01*
X71645Y-34398D01*
X71690Y-34398D01*
X71754Y-34552D01*
X71935Y-34732D01*
X72170Y-34830D01*
X72426Y-34831D01*
X72662Y-34733D01*
X72764Y-34631D01*
X72764Y-35324D01*
X72620Y-35179D01*
X72399Y-35087D01*
X72160Y-35087D01*
X71939Y-35179D01*
X71770Y-35347D01*
X71678Y-35568D01*
X71678Y-35808D01*
X71769Y-36029D01*
X71938Y-36198D01*
X71973Y-36212D01*
X71973Y-36216D01*
X71959Y-36222D01*
X71789Y-36391D01*
X71698Y-36612D01*
X71697Y-36851D01*
X71789Y-37072D01*
X71958Y-37241D01*
X71973Y-37248D01*
X71973Y-37960D01*
X71854Y-38040D01*
X71745Y-38203D01*
X71663Y-38082D01*
X71488Y-37965D01*
X71488Y-36003D01*
X71488Y-36003D01*
X71488Y-36003D01*
X71485Y-35990D01*
X71472Y-35923D01*
X71427Y-35856D01*
X71427Y-35856D01*
X71112Y-35541D01*
X71044Y-35495D01*
X70964Y-35479D01*
X70781Y-35479D01*
X70740Y-35381D01*
X70587Y-35228D01*
X70388Y-35145D01*
X70171Y-35145D01*
X69971Y-35227D01*
X69818Y-35380D01*
X69735Y-35580D01*
X69735Y-35796D01*
X69818Y-35996D01*
X69971Y-36149D01*
X70128Y-36215D01*
X70009Y-36259D01*
X69973Y-36283D01*
X69933Y-36366D01*
X70299Y-36732D01*
X70664Y-36366D01*
X70625Y-36283D01*
X70454Y-36204D01*
X70587Y-36150D01*
X70740Y-35997D01*
X70781Y-35898D01*
X70877Y-35898D01*
X71070Y-36090D01*
X71070Y-37965D01*
X70895Y-38082D01*
X70847Y-38154D01*
X70847Y-36645D01*
X70772Y-36442D01*
X70748Y-36406D01*
X70665Y-36366D01*
X70299Y-36732D01*
X70665Y-37097D01*
X70748Y-37058D01*
X70838Y-36861D01*
X70847Y-36645D01*
X70847Y-38154D01*
X70777Y-38258D01*
X70776Y-38263D01*
X70664Y-38097D01*
X70664Y-37098D01*
X70299Y-36732D01*
X70298Y-36732D01*
X70298Y-36732D01*
X69933Y-36366D01*
X69850Y-36406D01*
X69759Y-36602D01*
X69751Y-36819D01*
X69826Y-37022D01*
X69850Y-37058D01*
X69933Y-37097D01*
X70298Y-36732D01*
X70298Y-36732D01*
X69933Y-37098D01*
X69973Y-37181D01*
X70169Y-37271D01*
X70386Y-37280D01*
X70589Y-37205D01*
X70625Y-37181D01*
X70664Y-37098D01*
X70664Y-38097D01*
X70664Y-38096D01*
X70487Y-37978D01*
X70364Y-37943D01*
X70279Y-37974D01*
X70279Y-38680D01*
X70287Y-38680D01*
X70287Y-38681D01*
X70279Y-38681D01*
X70279Y-39387D01*
X70364Y-39418D01*
X70487Y-39383D01*
X70664Y-39265D01*
X70776Y-39098D01*
X70777Y-39103D01*
X70895Y-39279D01*
X71070Y-39397D01*
X71070Y-41856D01*
X70914Y-41960D01*
X70847Y-42061D01*
X70847Y-40542D01*
X70772Y-40339D01*
X70748Y-40304D01*
X70665Y-40264D01*
X70664Y-40264D01*
X70664Y-40264D01*
X70625Y-40181D01*
X70428Y-40090D01*
X70279Y-40084D01*
X70279Y-39387D01*
X70279Y-38681D01*
X70279Y-38680D01*
X70279Y-37974D01*
X70194Y-37943D01*
X70071Y-37978D01*
X69894Y-38096D01*
X69776Y-38272D01*
X69735Y-38481D01*
X69735Y-38680D01*
X70279Y-38680D01*
X70279Y-38681D01*
X69735Y-38681D01*
X69735Y-38881D01*
X69776Y-39089D01*
X69894Y-39265D01*
X70071Y-39383D01*
X70194Y-39418D01*
X70279Y-39387D01*
X70279Y-40084D01*
X70212Y-40082D01*
X70009Y-40157D01*
X69973Y-40181D01*
X69933Y-40264D01*
X70299Y-40629D01*
X70664Y-40264D01*
X70664Y-40264D01*
X70299Y-40629D01*
X70665Y-40995D01*
X70748Y-40955D01*
X70838Y-40759D01*
X70847Y-40542D01*
X70847Y-42061D01*
X70796Y-42136D01*
X70795Y-42141D01*
X70683Y-41974D01*
X70664Y-41961D01*
X70664Y-40995D01*
X70299Y-40630D01*
X70298Y-40630D01*
X70298Y-40629D01*
X69933Y-40264D01*
X69850Y-40304D01*
X69759Y-40500D01*
X69751Y-40716D01*
X69826Y-40919D01*
X69850Y-40955D01*
X69933Y-40995D01*
X70298Y-40629D01*
X70298Y-40630D01*
X69933Y-40995D01*
X69973Y-41078D01*
X70169Y-41169D01*
X70386Y-41177D01*
X70589Y-41102D01*
X70625Y-41078D01*
X70664Y-40995D01*
X70664Y-41961D01*
X70507Y-41856D01*
X70384Y-41821D01*
X70299Y-41852D01*
X70299Y-42558D01*
X70307Y-42558D01*
X70307Y-42559D01*
X70299Y-42559D01*
X70299Y-43265D01*
X70384Y-43296D01*
X70507Y-43261D01*
X70683Y-43143D01*
X70795Y-42976D01*
X70796Y-42981D01*
X70914Y-43157D01*
X71090Y-43275D01*
X71090Y-45701D01*
X70914Y-45818D01*
X70847Y-45919D01*
X70847Y-44401D01*
X70772Y-44198D01*
X70748Y-44162D01*
X70665Y-44122D01*
X70664Y-44122D01*
X70664Y-44122D01*
X70625Y-44039D01*
X70428Y-43948D01*
X70299Y-43943D01*
X70299Y-43265D01*
X70299Y-42559D01*
X70299Y-42558D01*
X70299Y-41852D01*
X70213Y-41821D01*
X70091Y-41856D01*
X69914Y-41974D01*
X69796Y-42150D01*
X69755Y-42359D01*
X69755Y-42558D01*
X70299Y-42558D01*
X70299Y-42559D01*
X69755Y-42559D01*
X69755Y-42759D01*
X69796Y-42967D01*
X69914Y-43143D01*
X70091Y-43261D01*
X70213Y-43296D01*
X70299Y-43265D01*
X70299Y-43943D01*
X70212Y-43940D01*
X70009Y-44015D01*
X69973Y-44039D01*
X69933Y-44122D01*
X70299Y-44487D01*
X70664Y-44122D01*
X70664Y-44122D01*
X70299Y-44488D01*
X70665Y-44853D01*
X70748Y-44814D01*
X70838Y-44617D01*
X70847Y-44401D01*
X70847Y-45919D01*
X70796Y-45994D01*
X70795Y-46000D01*
X70683Y-45832D01*
X70664Y-45819D01*
X70664Y-44854D01*
X70299Y-44488D01*
X70298Y-44488D01*
X70298Y-44488D01*
X69933Y-44122D01*
X69850Y-44162D01*
X69759Y-44358D01*
X69751Y-44575D01*
X69826Y-44778D01*
X69850Y-44814D01*
X69933Y-44853D01*
X70298Y-44488D01*
X70298Y-44488D01*
X69933Y-44854D01*
X69973Y-44937D01*
X70169Y-45027D01*
X70386Y-45036D01*
X70589Y-44961D01*
X70625Y-44937D01*
X70664Y-44854D01*
X70664Y-45819D01*
X70507Y-45714D01*
X70384Y-45680D01*
X70299Y-45711D01*
X70299Y-46417D01*
X70307Y-46417D01*
X70307Y-46417D01*
X70299Y-46417D01*
X70299Y-47123D01*
X70384Y-47154D01*
X70507Y-47119D01*
X70683Y-47001D01*
X70795Y-46834D01*
X70796Y-46839D01*
X70914Y-47016D01*
X71091Y-47134D01*
X71299Y-47175D01*
X71507Y-47134D01*
X71683Y-47016D01*
X71764Y-46894D01*
X71874Y-47057D01*
X72069Y-47188D01*
X72299Y-47233D01*
X72529Y-47188D01*
X72724Y-47057D01*
X72764Y-46997D01*
X72764Y-47863D01*
X72758Y-47857D01*
X72703Y-47834D01*
X72643Y-47834D01*
X72372Y-47834D01*
X71958Y-47421D01*
X71891Y-47375D01*
X71811Y-47359D01*
X70299Y-47359D01*
X70299Y-47123D01*
X70299Y-46417D01*
X70299Y-46417D01*
X70299Y-45711D01*
X70213Y-45680D01*
X70091Y-45714D01*
X69914Y-45832D01*
X69796Y-46009D01*
X69755Y-46217D01*
X69755Y-46417D01*
X70299Y-46417D01*
X70299Y-46417D01*
X69755Y-46417D01*
X69755Y-46617D01*
X69796Y-46825D01*
X69914Y-47001D01*
X70091Y-47119D01*
X70213Y-47154D01*
X70299Y-47123D01*
X70299Y-47359D01*
X69862Y-47359D01*
X69782Y-47375D01*
X69714Y-47421D01*
X69683Y-47452D01*
X69673Y-47448D01*
X69519Y-47448D01*
X69377Y-47507D01*
X69269Y-47615D01*
X69210Y-47757D01*
X69210Y-47911D01*
X69268Y-48053D01*
X69377Y-48161D01*
X69519Y-48220D01*
X69672Y-48220D01*
X69733Y-48195D01*
X69696Y-48285D01*
X69696Y-48509D01*
X69781Y-48716D01*
X69940Y-48874D01*
X69994Y-48897D01*
X69941Y-48919D01*
X69782Y-49078D01*
X69696Y-49285D01*
X69696Y-49509D01*
X69781Y-49716D01*
X69940Y-49874D01*
X70147Y-49960D01*
X70371Y-49961D01*
X70578Y-49875D01*
X70737Y-49717D01*
X70758Y-49666D01*
X70769Y-49698D01*
X70794Y-49735D01*
X70879Y-49777D01*
X71259Y-49397D01*
X70879Y-49017D01*
X70794Y-49059D01*
X70760Y-49134D01*
X70737Y-49078D01*
X70579Y-48920D01*
X70524Y-48897D01*
X70578Y-48875D01*
X70737Y-48717D01*
X70759Y-48662D01*
X70781Y-48716D01*
X70940Y-48874D01*
X70990Y-48895D01*
X70959Y-48907D01*
X70922Y-48932D01*
X70880Y-49017D01*
X71259Y-49397D01*
X71639Y-49017D01*
X71597Y-48932D01*
X71523Y-48898D01*
X71578Y-48875D01*
X71696Y-48757D01*
X71696Y-48840D01*
X71719Y-48895D01*
X71761Y-48938D01*
X71816Y-48960D01*
X71818Y-48960D01*
X71733Y-49045D01*
X71726Y-49062D01*
X71725Y-49059D01*
X71639Y-49017D01*
X71260Y-49397D01*
X71639Y-49777D01*
X71725Y-49735D01*
X71726Y-49732D01*
X71733Y-49748D01*
X71907Y-49923D01*
X71953Y-49942D01*
X71953Y-50005D01*
X71782Y-50176D01*
X71639Y-50176D01*
X71639Y-49777D01*
X71259Y-49397D01*
X70880Y-49777D01*
X70922Y-49862D01*
X71125Y-49956D01*
X71349Y-49965D01*
X71560Y-49887D01*
X71597Y-49862D01*
X71639Y-49777D01*
X71639Y-50176D01*
X69673Y-50176D01*
X68982Y-49484D01*
X68882Y-49418D01*
X68765Y-49394D01*
X68331Y-49394D01*
X68331Y-46083D01*
X68331Y-45743D01*
X68294Y-45557D01*
X68189Y-45400D01*
X68031Y-45295D01*
X67846Y-45258D01*
X67660Y-45295D01*
X67503Y-45400D01*
X67398Y-45557D01*
X67361Y-45743D01*
X67361Y-46083D01*
X67398Y-46268D01*
X67503Y-46426D01*
X67660Y-46531D01*
X67846Y-46568D01*
X68031Y-46531D01*
X68189Y-46426D01*
X68294Y-46268D01*
X68331Y-46083D01*
X68331Y-49394D01*
X68022Y-49394D01*
X68022Y-49167D01*
X67990Y-49091D01*
X67969Y-49070D01*
X67969Y-47598D01*
X67881Y-47358D01*
X67852Y-47315D01*
X67759Y-47264D01*
X67759Y-47264D01*
X67759Y-47264D01*
X67707Y-47170D01*
X67475Y-47063D01*
X67220Y-47053D01*
X66980Y-47142D01*
X66938Y-47170D01*
X66886Y-47264D01*
X67322Y-47700D01*
X67759Y-47264D01*
X67759Y-47264D01*
X67323Y-47700D01*
X67759Y-48137D01*
X67852Y-48085D01*
X67959Y-47853D01*
X67969Y-47598D01*
X67969Y-49070D01*
X67932Y-49032D01*
X67856Y-49001D01*
X67773Y-49001D01*
X67759Y-49001D01*
X67759Y-48137D01*
X67322Y-47701D01*
X67322Y-47701D01*
X67322Y-47700D01*
X66886Y-47264D01*
X66792Y-47315D01*
X66685Y-47548D01*
X66675Y-47803D01*
X66764Y-48043D01*
X66792Y-48085D01*
X66886Y-48137D01*
X67322Y-47700D01*
X67322Y-47701D01*
X66886Y-48137D01*
X66938Y-48230D01*
X67170Y-48337D01*
X67425Y-48347D01*
X67665Y-48259D01*
X67707Y-48230D01*
X67759Y-48137D01*
X67759Y-49001D01*
X66789Y-49001D01*
X66713Y-49032D01*
X66655Y-49091D01*
X66623Y-49167D01*
X66623Y-49249D01*
X66623Y-49394D01*
X66527Y-49394D01*
X66410Y-49418D01*
X66311Y-49484D01*
X65544Y-50251D01*
X65393Y-50221D01*
X65331Y-50234D01*
X65331Y-46083D01*
X65331Y-45743D01*
X65294Y-45557D01*
X65189Y-45400D01*
X65031Y-45295D01*
X64846Y-45258D01*
X64660Y-45295D01*
X64503Y-45400D01*
X64398Y-45557D01*
X64361Y-45743D01*
X64361Y-46083D01*
X64398Y-46268D01*
X64503Y-46426D01*
X64660Y-46531D01*
X64846Y-46568D01*
X65031Y-46531D01*
X65189Y-46426D01*
X65294Y-46268D01*
X65331Y-46083D01*
X65331Y-50234D01*
X65178Y-50264D01*
X64996Y-50386D01*
X64874Y-50568D01*
X64831Y-50783D01*
X64831Y-50885D01*
X64874Y-51100D01*
X64996Y-51283D01*
X65178Y-51404D01*
X65385Y-51446D01*
X64331Y-51446D01*
X64331Y-46083D01*
X64331Y-45743D01*
X64294Y-45557D01*
X64189Y-45400D01*
X64031Y-45295D01*
X63846Y-45258D01*
X63660Y-45295D01*
X63503Y-45400D01*
X63398Y-45557D01*
X63361Y-45743D01*
X63361Y-46083D01*
X63398Y-46268D01*
X63503Y-46426D01*
X63660Y-46531D01*
X63846Y-46568D01*
X64031Y-46531D01*
X64189Y-46426D01*
X64294Y-46268D01*
X64331Y-46083D01*
X64331Y-51446D01*
X63773Y-51446D01*
X63618Y-51291D01*
X63618Y-47180D01*
X63543Y-46977D01*
X63519Y-46941D01*
X63436Y-46902D01*
X63436Y-46902D01*
X63436Y-46901D01*
X63396Y-46818D01*
X63331Y-46788D01*
X63331Y-46083D01*
X63331Y-45743D01*
X63294Y-45557D01*
X63189Y-45400D01*
X63031Y-45295D01*
X62846Y-45258D01*
X62660Y-45295D01*
X62503Y-45400D01*
X62398Y-45557D01*
X62361Y-45743D01*
X62361Y-46083D01*
X62398Y-46268D01*
X62503Y-46426D01*
X62660Y-46531D01*
X62846Y-46568D01*
X63031Y-46531D01*
X63189Y-46426D01*
X63294Y-46268D01*
X63331Y-46083D01*
X63331Y-46788D01*
X63200Y-46728D01*
X62983Y-46719D01*
X62780Y-46794D01*
X62744Y-46818D01*
X62705Y-46901D01*
X63070Y-47267D01*
X63436Y-46901D01*
X63436Y-46902D01*
X63071Y-47267D01*
X63436Y-47633D01*
X63519Y-47593D01*
X63610Y-47397D01*
X63618Y-47180D01*
X63618Y-51291D01*
X63614Y-51287D01*
X63614Y-49160D01*
X63532Y-48960D01*
X63436Y-48864D01*
X63436Y-47633D01*
X63070Y-47267D01*
X63070Y-47268D01*
X63070Y-47267D01*
X62705Y-46902D01*
X62621Y-46941D01*
X62531Y-47138D01*
X62522Y-47354D01*
X62597Y-47557D01*
X62621Y-47593D01*
X62705Y-47633D01*
X63070Y-47267D01*
X63070Y-47268D01*
X62705Y-47633D01*
X62744Y-47716D01*
X62941Y-47807D01*
X63157Y-47815D01*
X63360Y-47740D01*
X63396Y-47716D01*
X63436Y-47633D01*
X63436Y-48864D01*
X63379Y-48807D01*
X63179Y-48724D01*
X62963Y-48723D01*
X62863Y-48764D01*
X62331Y-48232D01*
X62331Y-46083D01*
X62331Y-45743D01*
X62294Y-45557D01*
X62189Y-45400D01*
X62031Y-45295D01*
X61846Y-45258D01*
X61660Y-45295D01*
X61503Y-45400D01*
X61398Y-45557D01*
X61361Y-45743D01*
X61361Y-46083D01*
X61398Y-46268D01*
X61503Y-46426D01*
X61660Y-46531D01*
X61846Y-46568D01*
X62031Y-46531D01*
X62189Y-46426D01*
X62294Y-46268D01*
X62331Y-46083D01*
X62331Y-48232D01*
X62061Y-47962D01*
X61993Y-47917D01*
X61913Y-47901D01*
X61766Y-47901D01*
X61725Y-47802D01*
X61573Y-47649D01*
X61474Y-47608D01*
X61474Y-46934D01*
X61458Y-46854D01*
X61412Y-46786D01*
X61107Y-46480D01*
X61189Y-46426D01*
X61294Y-46268D01*
X61331Y-46083D01*
X61331Y-45743D01*
X61294Y-45557D01*
X61189Y-45400D01*
X61031Y-45295D01*
X60846Y-45258D01*
X60660Y-45295D01*
X60503Y-45400D01*
X60398Y-45557D01*
X60361Y-45743D01*
X60361Y-46083D01*
X60398Y-46268D01*
X60503Y-46426D01*
X60637Y-46515D01*
X60637Y-46515D01*
X60653Y-46595D01*
X60698Y-46663D01*
X61055Y-47020D01*
X61055Y-47608D01*
X60957Y-47649D01*
X60804Y-47801D01*
X60721Y-48001D01*
X60721Y-48217D01*
X60803Y-48417D01*
X60956Y-48570D01*
X61156Y-48653D01*
X61372Y-48653D01*
X61572Y-48571D01*
X61725Y-48418D01*
X61766Y-48319D01*
X61826Y-48319D01*
X62568Y-49060D01*
X62527Y-49159D01*
X62527Y-49375D01*
X62609Y-49575D01*
X62762Y-49728D01*
X62962Y-49811D01*
X63178Y-49811D01*
X63378Y-49728D01*
X63531Y-49576D01*
X63614Y-49376D01*
X63614Y-49160D01*
X63614Y-51287D01*
X63289Y-50962D01*
X63171Y-50883D01*
X63031Y-50855D01*
X62571Y-50855D01*
X62571Y-49558D01*
X62496Y-49355D01*
X62472Y-49319D01*
X62389Y-49280D01*
X62389Y-49280D01*
X62389Y-49279D01*
X62349Y-49196D01*
X62152Y-49106D01*
X61936Y-49097D01*
X61733Y-49172D01*
X61697Y-49196D01*
X61658Y-49279D01*
X62023Y-49645D01*
X62389Y-49279D01*
X62389Y-49280D01*
X62023Y-49645D01*
X62389Y-50011D01*
X62472Y-49971D01*
X62563Y-49774D01*
X62571Y-49558D01*
X62571Y-50855D01*
X62389Y-50855D01*
X62389Y-50011D01*
X62023Y-49645D01*
X62023Y-49646D01*
X62023Y-49645D01*
X61657Y-49280D01*
X61574Y-49319D01*
X61484Y-49516D01*
X61475Y-49732D01*
X61550Y-49935D01*
X61574Y-49971D01*
X61657Y-50011D01*
X62023Y-49645D01*
X62023Y-49646D01*
X61658Y-50011D01*
X61697Y-50094D01*
X61894Y-50185D01*
X62110Y-50193D01*
X62313Y-50118D01*
X62349Y-50094D01*
X62389Y-50011D01*
X62389Y-50855D01*
X60567Y-50855D01*
X60567Y-49537D01*
X60484Y-49338D01*
X60332Y-49185D01*
X60132Y-49102D01*
X59915Y-49101D01*
X59827Y-49138D01*
X59574Y-48884D01*
X59574Y-48611D01*
X59672Y-48571D01*
X59825Y-48418D01*
X59908Y-48218D01*
X59908Y-48002D01*
X59825Y-47802D01*
X59673Y-47649D01*
X59574Y-47608D01*
X59574Y-47020D01*
X59994Y-46600D01*
X60039Y-46532D01*
X60041Y-46525D01*
X60189Y-46426D01*
X60294Y-46268D01*
X60331Y-46083D01*
X60331Y-45743D01*
X60294Y-45557D01*
X60189Y-45400D01*
X60031Y-45295D01*
X59846Y-45258D01*
X59660Y-45295D01*
X59503Y-45400D01*
X59398Y-45557D01*
X59361Y-45743D01*
X59361Y-46083D01*
X59398Y-46268D01*
X59503Y-46426D01*
X59547Y-46455D01*
X59331Y-46672D01*
X59331Y-46071D01*
X59331Y-45913D01*
X59331Y-45913D01*
X59331Y-45755D01*
X59294Y-45570D01*
X59189Y-45412D01*
X59031Y-45307D01*
X58922Y-45276D01*
X58846Y-45308D01*
X58846Y-45913D01*
X59331Y-45913D01*
X59331Y-45913D01*
X58846Y-45913D01*
X58846Y-46518D01*
X58922Y-46549D01*
X59031Y-46519D01*
X59189Y-46413D01*
X59294Y-46256D01*
X59331Y-46071D01*
X59331Y-46672D01*
X59217Y-46786D01*
X59171Y-46854D01*
X59155Y-46934D01*
X59155Y-47608D01*
X59057Y-47649D01*
X58904Y-47801D01*
X58821Y-48001D01*
X58821Y-48217D01*
X58903Y-48417D01*
X59056Y-48570D01*
X59155Y-48611D01*
X59155Y-48971D01*
X59171Y-49051D01*
X59217Y-49119D01*
X59525Y-49427D01*
X59480Y-49537D01*
X59479Y-49753D01*
X59562Y-49953D01*
X59715Y-50106D01*
X59914Y-50189D01*
X60131Y-50189D01*
X60331Y-50106D01*
X60484Y-49954D01*
X60567Y-49754D01*
X60567Y-49537D01*
X60567Y-50855D01*
X59757Y-50855D01*
X59105Y-50203D01*
X59105Y-50202D01*
X59137Y-50180D01*
X59259Y-49998D01*
X59301Y-49783D01*
X59301Y-49681D01*
X59259Y-49466D01*
X59137Y-49283D01*
X58955Y-49162D01*
X58740Y-49119D01*
X58525Y-49162D01*
X58342Y-49283D01*
X58221Y-49466D01*
X58178Y-49681D01*
X58178Y-49783D01*
X58221Y-49998D01*
X58342Y-50180D01*
X58375Y-50202D01*
X58375Y-50354D01*
X58402Y-50493D01*
X58482Y-50612D01*
X59348Y-51478D01*
X59348Y-51478D01*
X59466Y-51557D01*
X59606Y-51585D01*
X59606Y-51585D01*
X61763Y-51585D01*
X61704Y-51607D01*
X61662Y-51635D01*
X61610Y-51728D01*
X62047Y-52165D01*
X62483Y-51728D01*
X62432Y-51635D01*
X62323Y-51585D01*
X62880Y-51585D01*
X63363Y-52069D01*
X63482Y-52148D01*
X63482Y-52148D01*
X63622Y-52175D01*
X65866Y-52175D01*
X66005Y-52148D01*
X66005Y-52148D01*
X66124Y-52069D01*
X66478Y-51714D01*
X66557Y-51596D01*
X66557Y-51596D01*
X66585Y-51456D01*
X66585Y-51214D01*
X66765Y-51034D01*
X68516Y-51034D01*
X68527Y-51045D01*
X68602Y-51076D01*
X68384Y-51075D01*
X68163Y-51167D01*
X67994Y-51336D01*
X67902Y-51557D01*
X67902Y-51796D01*
X67993Y-52017D01*
X68095Y-52119D01*
X67327Y-52119D01*
X67323Y-52109D01*
X67166Y-51952D01*
X66961Y-51867D01*
X66739Y-51867D01*
X66535Y-51952D01*
X66378Y-52108D01*
X66293Y-52313D01*
X66292Y-52535D01*
X66377Y-52740D01*
X66534Y-52897D01*
X66675Y-52956D01*
X66583Y-52990D01*
X66550Y-53012D01*
X66516Y-53090D01*
X66850Y-53424D01*
X67184Y-53090D01*
X67150Y-53012D01*
X67026Y-52955D01*
X67165Y-52898D01*
X67322Y-52741D01*
X67327Y-52731D01*
X68224Y-52731D01*
X68341Y-52707D01*
X68440Y-52641D01*
X68720Y-52361D01*
X68786Y-52262D01*
X68797Y-52206D01*
X68844Y-52187D01*
X68985Y-52045D01*
X68985Y-53410D01*
X68976Y-53387D01*
X68952Y-53351D01*
X68869Y-53311D01*
X68869Y-53311D01*
X68869Y-53311D01*
X68829Y-53228D01*
X68633Y-53137D01*
X68416Y-53129D01*
X68213Y-53204D01*
X68178Y-53228D01*
X68138Y-53311D01*
X68503Y-53676D01*
X68869Y-53311D01*
X68869Y-53311D01*
X68504Y-53677D01*
X68869Y-54042D01*
X68952Y-54003D01*
X68985Y-53932D01*
X68985Y-54300D01*
X68909Y-54264D01*
X68908Y-54264D01*
X68908Y-54264D01*
X68869Y-54181D01*
X68797Y-54147D01*
X68829Y-54126D01*
X68869Y-54042D01*
X68503Y-53677D01*
X68503Y-53677D01*
X68503Y-53677D01*
X68138Y-53311D01*
X68055Y-53351D01*
X67964Y-53547D01*
X67956Y-53764D01*
X68031Y-53967D01*
X68055Y-54003D01*
X68138Y-54042D01*
X68503Y-53677D01*
X68503Y-53677D01*
X68138Y-54042D01*
X68178Y-54126D01*
X68249Y-54159D01*
X68217Y-54181D01*
X68177Y-54264D01*
X68543Y-54629D01*
X68908Y-54264D01*
X68908Y-54264D01*
X68543Y-54629D01*
X68909Y-54995D01*
X68985Y-54959D01*
X68985Y-55030D01*
X68908Y-55107D01*
X68908Y-54995D01*
X68543Y-54630D01*
X68543Y-54630D01*
X68543Y-54629D01*
X68177Y-54264D01*
X68094Y-54304D01*
X68003Y-54500D01*
X67995Y-54716D01*
X68070Y-54919D01*
X68094Y-54955D01*
X68177Y-54995D01*
X68543Y-54629D01*
X68543Y-54630D01*
X68177Y-54995D01*
X68217Y-55078D01*
X68413Y-55169D01*
X68630Y-55177D01*
X68833Y-55102D01*
X68869Y-55078D01*
X68908Y-54995D01*
X68908Y-55107D01*
X68613Y-55402D01*
X67725Y-55402D01*
X67286Y-54964D01*
X67317Y-54951D01*
X67376Y-54892D01*
X67407Y-54816D01*
X67407Y-54734D01*
X67407Y-54034D01*
X67376Y-53957D01*
X67354Y-53935D01*
X67354Y-53345D01*
X67285Y-53158D01*
X67263Y-53125D01*
X67184Y-53091D01*
X66850Y-53425D01*
X67184Y-53759D01*
X67263Y-53724D01*
X67346Y-53544D01*
X67354Y-53345D01*
X67354Y-53935D01*
X67318Y-53899D01*
X67241Y-53867D01*
X67159Y-53867D01*
X67096Y-53867D01*
X67117Y-53860D01*
X67150Y-53838D01*
X67184Y-53759D01*
X66850Y-53425D01*
X66850Y-53425D01*
X66850Y-53425D01*
X66516Y-53091D01*
X66437Y-53125D01*
X66354Y-53306D01*
X66346Y-53505D01*
X66415Y-53691D01*
X66437Y-53724D01*
X66516Y-53759D01*
X66850Y-53425D01*
X66850Y-53425D01*
X66516Y-53759D01*
X66550Y-53838D01*
X66614Y-53867D01*
X66459Y-53867D01*
X66383Y-53899D01*
X66324Y-53957D01*
X66324Y-53957D01*
X66124Y-53757D01*
X66005Y-53678D01*
X65866Y-53650D01*
X64173Y-53650D01*
X64033Y-53678D01*
X63915Y-53757D01*
X63915Y-53757D01*
X63915Y-53757D01*
X63904Y-53768D01*
X62746Y-53768D01*
X62746Y-53600D01*
X62715Y-53524D01*
X62694Y-53503D01*
X62694Y-52062D01*
X62605Y-51823D01*
X62577Y-51780D01*
X62483Y-51729D01*
X62047Y-52165D01*
X62483Y-52602D01*
X62577Y-52550D01*
X62684Y-52318D01*
X62694Y-52062D01*
X62694Y-53503D01*
X62656Y-53465D01*
X62580Y-53434D01*
X62498Y-53434D01*
X62483Y-53434D01*
X62483Y-52602D01*
X62047Y-52165D01*
X62046Y-52166D01*
X62046Y-52165D01*
X61610Y-51729D01*
X61517Y-51780D01*
X61410Y-52012D01*
X61400Y-52268D01*
X61488Y-52507D01*
X61517Y-52550D01*
X61610Y-52602D01*
X62046Y-52165D01*
X62046Y-52166D01*
X61610Y-52602D01*
X61662Y-52695D01*
X61894Y-52802D01*
X62149Y-52812D01*
X62389Y-52723D01*
X62432Y-52695D01*
X62483Y-52602D01*
X62483Y-53434D01*
X61514Y-53434D01*
X61437Y-53465D01*
X61379Y-53523D01*
X61347Y-53600D01*
X61347Y-53682D01*
X61347Y-53768D01*
X60898Y-53768D01*
X60604Y-53474D01*
X60486Y-53395D01*
X60346Y-53367D01*
X59193Y-53367D01*
X59137Y-53283D01*
X58955Y-53162D01*
X58740Y-53119D01*
X58525Y-53162D01*
X58342Y-53283D01*
X58338Y-53289D01*
X58338Y-52194D01*
X58323Y-52114D01*
X58277Y-52047D01*
X58106Y-51876D01*
X58106Y-49574D01*
X58031Y-49371D01*
X58007Y-49335D01*
X57924Y-49295D01*
X57924Y-49296D01*
X57924Y-49295D01*
X57884Y-49212D01*
X57688Y-49121D01*
X57472Y-49113D01*
X57269Y-49188D01*
X57233Y-49212D01*
X57193Y-49295D01*
X57559Y-49661D01*
X57924Y-49295D01*
X57924Y-49296D01*
X57559Y-49661D01*
X57924Y-50026D01*
X58007Y-49987D01*
X58098Y-49790D01*
X58106Y-49574D01*
X58106Y-51876D01*
X58071Y-51840D01*
X58003Y-51795D01*
X57924Y-51779D01*
X57924Y-50027D01*
X57559Y-49661D01*
X57558Y-49661D01*
X57558Y-49661D01*
X57193Y-49295D01*
X57110Y-49335D01*
X57019Y-49532D01*
X57011Y-49748D01*
X57086Y-49951D01*
X57110Y-49987D01*
X57193Y-50026D01*
X57558Y-49661D01*
X57558Y-49661D01*
X57193Y-50027D01*
X57233Y-50110D01*
X57429Y-50200D01*
X57646Y-50209D01*
X57849Y-50134D01*
X57884Y-50110D01*
X57924Y-50027D01*
X57924Y-51779D01*
X57923Y-51779D01*
X57529Y-51779D01*
X57529Y-51779D01*
X57516Y-51781D01*
X57449Y-51795D01*
X57381Y-51840D01*
X57381Y-51840D01*
X55256Y-53965D01*
X55256Y-53378D01*
X55256Y-53078D01*
X55218Y-52885D01*
X55108Y-52721D01*
X54946Y-52613D01*
X54945Y-52605D01*
X54899Y-52537D01*
X54399Y-52037D01*
X54331Y-51991D01*
X54251Y-51975D01*
X53850Y-51975D01*
X53850Y-51276D01*
X53850Y-50936D01*
X53813Y-50750D01*
X53708Y-50593D01*
X53551Y-50488D01*
X53366Y-50451D01*
X53180Y-50488D01*
X53023Y-50593D01*
X52918Y-50750D01*
X52881Y-50936D01*
X52881Y-51276D01*
X52918Y-51461D01*
X53023Y-51619D01*
X53180Y-51724D01*
X53366Y-51761D01*
X53551Y-51724D01*
X53708Y-51619D01*
X53813Y-51461D01*
X53850Y-51276D01*
X53850Y-51975D01*
X53118Y-51975D01*
X52729Y-51587D01*
X52813Y-51461D01*
X52850Y-51276D01*
X52850Y-50936D01*
X52813Y-50750D01*
X52708Y-50593D01*
X52551Y-50488D01*
X52366Y-50451D01*
X52180Y-50488D01*
X52023Y-50593D01*
X51918Y-50750D01*
X51881Y-50936D01*
X51881Y-51276D01*
X51899Y-51367D01*
X51843Y-51311D01*
X51850Y-51276D01*
X51850Y-50936D01*
X51813Y-50750D01*
X51708Y-50593D01*
X51551Y-50488D01*
X51366Y-50451D01*
X51180Y-50488D01*
X51023Y-50593D01*
X50918Y-50750D01*
X50881Y-50936D01*
X50881Y-51276D01*
X50918Y-51461D01*
X51023Y-51619D01*
X51180Y-51724D01*
X51366Y-51761D01*
X51551Y-51724D01*
X51619Y-51678D01*
X52338Y-52397D01*
X52338Y-52544D01*
X52190Y-52642D01*
X52081Y-52806D01*
X52051Y-52954D01*
X52051Y-52627D01*
X52028Y-52572D01*
X51986Y-52530D01*
X51931Y-52507D01*
X51872Y-52507D01*
X51661Y-52507D01*
X50734Y-51580D01*
X50813Y-51461D01*
X50850Y-51276D01*
X50850Y-50936D01*
X50813Y-50750D01*
X50708Y-50593D01*
X50551Y-50488D01*
X50366Y-50451D01*
X50180Y-50488D01*
X50023Y-50593D01*
X49918Y-50750D01*
X49881Y-50936D01*
X49881Y-51276D01*
X49918Y-51461D01*
X50023Y-51619D01*
X50180Y-51724D01*
X50313Y-51750D01*
X51100Y-52537D01*
X51065Y-52572D01*
X51042Y-52627D01*
X51042Y-52687D01*
X51042Y-53671D01*
X51065Y-53726D01*
X51107Y-53768D01*
X51162Y-53791D01*
X51222Y-53791D01*
X51931Y-53791D01*
X51986Y-53768D01*
X52028Y-53726D01*
X52051Y-53671D01*
X52051Y-53611D01*
X52051Y-53345D01*
X52081Y-53492D01*
X52190Y-53656D01*
X52354Y-53765D01*
X52547Y-53804D01*
X52740Y-53765D01*
X52903Y-53656D01*
X53013Y-53492D01*
X53051Y-53299D01*
X53051Y-52999D01*
X53013Y-52806D01*
X52903Y-52642D01*
X52756Y-52544D01*
X52756Y-52311D01*
X52740Y-52231D01*
X52695Y-52163D01*
X52695Y-52163D01*
X52274Y-51742D01*
X52298Y-51747D01*
X52883Y-52332D01*
X52883Y-52332D01*
X52951Y-52378D01*
X53018Y-52391D01*
X53031Y-52394D01*
X53031Y-52394D01*
X53031Y-52394D01*
X54165Y-52394D01*
X54453Y-52682D01*
X54395Y-52721D01*
X54285Y-52885D01*
X54256Y-53030D01*
X54256Y-52766D01*
X54256Y-52706D01*
X54233Y-52651D01*
X54191Y-52608D01*
X54136Y-52585D01*
X53789Y-52585D01*
X53752Y-52623D01*
X53752Y-53228D01*
X53760Y-53228D01*
X53760Y-53228D01*
X53752Y-53228D01*
X53752Y-53833D01*
X53789Y-53870D01*
X54136Y-53870D01*
X54191Y-53847D01*
X54233Y-53805D01*
X54256Y-53750D01*
X54256Y-53690D01*
X54256Y-53425D01*
X54285Y-53571D01*
X54395Y-53735D01*
X54558Y-53844D01*
X54751Y-53882D01*
X54945Y-53844D01*
X55108Y-53735D01*
X55218Y-53571D01*
X55256Y-53378D01*
X55256Y-53965D01*
X54950Y-54271D01*
X54821Y-54271D01*
X54817Y-54262D01*
X54708Y-54153D01*
X54566Y-54094D01*
X54413Y-54094D01*
X54271Y-54153D01*
X54162Y-54261D01*
X54103Y-54403D01*
X54103Y-54557D01*
X54161Y-54699D01*
X54270Y-54807D01*
X54293Y-54817D01*
X54273Y-54825D01*
X54251Y-54846D01*
X54230Y-54825D01*
X54175Y-54802D01*
X54115Y-54802D01*
X53751Y-54802D01*
X53751Y-53833D01*
X53751Y-53228D01*
X53751Y-53228D01*
X53751Y-52623D01*
X53714Y-52585D01*
X53367Y-52585D01*
X53312Y-52608D01*
X53270Y-52651D01*
X53247Y-52706D01*
X53247Y-52766D01*
X53247Y-53190D01*
X53284Y-53228D01*
X53751Y-53228D01*
X53751Y-53228D01*
X53284Y-53228D01*
X53247Y-53266D01*
X53247Y-53690D01*
X53247Y-53750D01*
X53270Y-53805D01*
X53312Y-53847D01*
X53367Y-53870D01*
X53714Y-53870D01*
X53751Y-53833D01*
X53751Y-54802D01*
X53328Y-54802D01*
X53273Y-54825D01*
X53251Y-54846D01*
X53230Y-54825D01*
X53175Y-54802D01*
X53115Y-54802D01*
X52328Y-54802D01*
X52273Y-54825D01*
X52251Y-54846D01*
X52230Y-54825D01*
X52175Y-54802D01*
X52115Y-54802D01*
X51328Y-54802D01*
X51273Y-54825D01*
X51251Y-54846D01*
X51230Y-54825D01*
X51175Y-54802D01*
X51115Y-54802D01*
X50328Y-54802D01*
X50273Y-54825D01*
X50252Y-54846D01*
X50230Y-54825D01*
X50175Y-54802D01*
X49789Y-54802D01*
X49752Y-54839D01*
X49752Y-55346D01*
X49760Y-55346D01*
X49760Y-55346D01*
X49752Y-55346D01*
X49752Y-55354D01*
X49751Y-55354D01*
X49751Y-55346D01*
X49751Y-55346D01*
X49751Y-54839D01*
X49714Y-54802D01*
X49328Y-54802D01*
X49273Y-54825D01*
X49230Y-54867D01*
X49207Y-54922D01*
X49207Y-54982D01*
X49207Y-55308D01*
X49245Y-55346D01*
X49751Y-55346D01*
X49751Y-55346D01*
X49245Y-55346D01*
X49207Y-55384D01*
X49207Y-55710D01*
X49207Y-55770D01*
X49219Y-55798D01*
X49182Y-55835D01*
X49150Y-55911D01*
X49150Y-55962D01*
X47864Y-54676D01*
X47864Y-54361D01*
X48602Y-54361D01*
X48719Y-54337D01*
X48818Y-54271D01*
X49246Y-53843D01*
X49342Y-53862D01*
X49557Y-53820D01*
X49739Y-53698D01*
X49837Y-53551D01*
X49837Y-53671D01*
X49860Y-53726D01*
X49902Y-53768D01*
X49958Y-53791D01*
X50017Y-53791D01*
X50726Y-53791D01*
X50781Y-53768D01*
X50824Y-53726D01*
X50846Y-53671D01*
X50847Y-53611D01*
X50847Y-52627D01*
X50824Y-52572D01*
X50782Y-52530D01*
X50726Y-52507D01*
X50667Y-52507D01*
X50480Y-52507D01*
X49813Y-51840D01*
X49745Y-51795D01*
X49665Y-51779D01*
X48787Y-51779D01*
X48659Y-51651D01*
X48708Y-51619D01*
X48813Y-51461D01*
X48850Y-51276D01*
X48850Y-50936D01*
X48813Y-50750D01*
X48714Y-50602D01*
X49017Y-50602D01*
X48918Y-50750D01*
X48881Y-50936D01*
X48881Y-51276D01*
X48918Y-51461D01*
X49023Y-51619D01*
X49180Y-51724D01*
X49366Y-51761D01*
X49551Y-51724D01*
X49708Y-51619D01*
X49813Y-51461D01*
X49850Y-51276D01*
X49850Y-50936D01*
X49813Y-50750D01*
X49708Y-50593D01*
X49551Y-50488D01*
X49546Y-50487D01*
X49546Y-50487D01*
X49513Y-50438D01*
X49513Y-50438D01*
X49321Y-50245D01*
X49253Y-50200D01*
X49173Y-50184D01*
X48051Y-50184D01*
X48051Y-50184D01*
X47971Y-50200D01*
X47903Y-50245D01*
X47903Y-50245D01*
X47706Y-50442D01*
X47664Y-50506D01*
X47646Y-50506D01*
X47026Y-50506D01*
X46971Y-50529D01*
X46929Y-50571D01*
X46906Y-50626D01*
X46906Y-50686D01*
X46906Y-51586D01*
X46928Y-51641D01*
X46971Y-51683D01*
X47026Y-51706D01*
X47085Y-51706D01*
X47157Y-51706D01*
X47157Y-51996D01*
X46989Y-52163D01*
X46944Y-52231D01*
X46928Y-52311D01*
X46928Y-52507D01*
X46753Y-52507D01*
X46698Y-52530D01*
X46656Y-52572D01*
X46633Y-52627D01*
X46633Y-52687D01*
X46633Y-53671D01*
X46656Y-53726D01*
X46678Y-53749D01*
X46642Y-53749D01*
X46506Y-53613D01*
X46506Y-50855D01*
X47165Y-50196D01*
X47165Y-50196D01*
X47165Y-50196D01*
X47499Y-49861D01*
X53705Y-49861D01*
X54307Y-50463D01*
X54180Y-50488D01*
X54023Y-50593D01*
X53918Y-50750D01*
X53881Y-50936D01*
X53881Y-51276D01*
X53918Y-51461D01*
X54023Y-51619D01*
X54180Y-51724D01*
X54366Y-51761D01*
X54551Y-51724D01*
X54708Y-51619D01*
X54813Y-51461D01*
X54850Y-51276D01*
X54850Y-51006D01*
X55461Y-51617D01*
X55461Y-51645D01*
X55484Y-51762D01*
X55551Y-51861D01*
X55650Y-51928D01*
X55767Y-51951D01*
X55885Y-51951D01*
X55980Y-52094D01*
X56162Y-52215D01*
X56377Y-52258D01*
X56592Y-52215D01*
X56775Y-52094D01*
X56896Y-51911D01*
X56939Y-51696D01*
X56939Y-51594D01*
X56896Y-51379D01*
X56775Y-51197D01*
X56592Y-51075D01*
X56377Y-51032D01*
X56162Y-51075D01*
X55980Y-51197D01*
X55951Y-51241D01*
X54850Y-50141D01*
X54850Y-48276D01*
X54850Y-47936D01*
X54813Y-47750D01*
X54708Y-47593D01*
X54551Y-47488D01*
X54366Y-47451D01*
X54331Y-47458D01*
X54331Y-46083D01*
X54331Y-45743D01*
X54294Y-45557D01*
X54189Y-45400D01*
X54031Y-45295D01*
X53846Y-45258D01*
X53660Y-45295D01*
X53503Y-45400D01*
X53398Y-45557D01*
X53361Y-45743D01*
X53361Y-46083D01*
X53398Y-46268D01*
X53503Y-46426D01*
X53660Y-46531D01*
X53846Y-46568D01*
X54031Y-46531D01*
X54189Y-46426D01*
X54294Y-46268D01*
X54331Y-46083D01*
X54331Y-47458D01*
X54180Y-47488D01*
X54023Y-47593D01*
X53918Y-47750D01*
X53881Y-47936D01*
X53881Y-48276D01*
X53918Y-48461D01*
X54023Y-48619D01*
X54180Y-48724D01*
X54366Y-48761D01*
X54551Y-48724D01*
X54708Y-48619D01*
X54813Y-48461D01*
X54850Y-48276D01*
X54850Y-50141D01*
X54048Y-49339D01*
X53949Y-49273D01*
X53850Y-49253D01*
X53850Y-48276D01*
X53850Y-47936D01*
X53813Y-47750D01*
X53708Y-47593D01*
X53551Y-47488D01*
X53366Y-47451D01*
X53331Y-47458D01*
X53331Y-46083D01*
X53331Y-45743D01*
X53294Y-45557D01*
X53189Y-45400D01*
X53031Y-45295D01*
X52846Y-45258D01*
X52660Y-45295D01*
X52503Y-45400D01*
X52398Y-45557D01*
X52361Y-45743D01*
X52361Y-46083D01*
X52398Y-46268D01*
X52503Y-46426D01*
X52660Y-46531D01*
X52846Y-46568D01*
X53031Y-46531D01*
X53189Y-46426D01*
X53294Y-46268D01*
X53331Y-46083D01*
X53331Y-47458D01*
X53180Y-47488D01*
X53023Y-47593D01*
X52918Y-47750D01*
X52881Y-47936D01*
X52881Y-48276D01*
X52918Y-48461D01*
X53023Y-48619D01*
X53180Y-48724D01*
X53366Y-48761D01*
X53551Y-48724D01*
X53708Y-48619D01*
X53813Y-48461D01*
X53850Y-48276D01*
X53850Y-49253D01*
X53832Y-49250D01*
X52850Y-49250D01*
X52850Y-48276D01*
X52850Y-47936D01*
X52813Y-47750D01*
X52708Y-47593D01*
X52551Y-47488D01*
X52366Y-47451D01*
X52331Y-47458D01*
X52331Y-46083D01*
X52331Y-45743D01*
X52294Y-45557D01*
X52189Y-45400D01*
X52031Y-45295D01*
X51846Y-45258D01*
X51660Y-45295D01*
X51503Y-45400D01*
X51398Y-45557D01*
X51369Y-45704D01*
X51352Y-45704D01*
X51324Y-45709D01*
X51294Y-45557D01*
X51189Y-45400D01*
X51031Y-45295D01*
X50846Y-45258D01*
X50660Y-45295D01*
X50503Y-45400D01*
X50398Y-45557D01*
X50361Y-45743D01*
X50361Y-46083D01*
X50398Y-46268D01*
X50503Y-46426D01*
X50660Y-46531D01*
X50778Y-46554D01*
X50664Y-46668D01*
X50023Y-46668D01*
X50039Y-46644D01*
X50055Y-46564D01*
X50055Y-46515D01*
X50189Y-46426D01*
X50294Y-46268D01*
X50331Y-46083D01*
X50331Y-45743D01*
X50294Y-45557D01*
X50189Y-45400D01*
X50031Y-45295D01*
X49846Y-45258D01*
X49660Y-45295D01*
X49503Y-45400D01*
X49398Y-45557D01*
X49361Y-45743D01*
X49361Y-46083D01*
X49398Y-46268D01*
X49456Y-46355D01*
X49331Y-46355D01*
X49331Y-45391D01*
X49308Y-45336D01*
X49266Y-45294D01*
X49211Y-45271D01*
X49151Y-45271D01*
X48482Y-45271D01*
X48426Y-45294D01*
X48384Y-45336D01*
X48361Y-45391D01*
X48361Y-45450D01*
X48361Y-46355D01*
X46458Y-46355D01*
X46353Y-46250D01*
X46357Y-46241D01*
X46357Y-46087D01*
X46298Y-45945D01*
X46190Y-45836D01*
X46048Y-45778D01*
X45894Y-45777D01*
X45752Y-45836D01*
X45643Y-45945D01*
X45584Y-46087D01*
X45584Y-46240D01*
X45643Y-46382D01*
X45751Y-46491D01*
X45629Y-46490D01*
X45487Y-46549D01*
X45378Y-46658D01*
X45319Y-46800D01*
X45319Y-46953D01*
X45378Y-47095D01*
X45486Y-47204D01*
X45628Y-47263D01*
X45782Y-47263D01*
X45924Y-47204D01*
X46032Y-47096D01*
X46037Y-47086D01*
X50750Y-47086D01*
X50830Y-47070D01*
X50898Y-47025D01*
X51500Y-46423D01*
X51500Y-46423D01*
X51500Y-46423D01*
X51501Y-46422D01*
X51503Y-46426D01*
X51660Y-46531D01*
X51846Y-46568D01*
X52031Y-46531D01*
X52189Y-46426D01*
X52294Y-46268D01*
X52331Y-46083D01*
X52331Y-47458D01*
X52180Y-47488D01*
X52023Y-47593D01*
X51918Y-47750D01*
X51881Y-47936D01*
X51881Y-48276D01*
X51918Y-48461D01*
X52023Y-48619D01*
X52180Y-48724D01*
X52366Y-48761D01*
X52551Y-48724D01*
X52708Y-48619D01*
X52813Y-48461D01*
X52850Y-48276D01*
X52850Y-49250D01*
X51850Y-49250D01*
X51850Y-48276D01*
X51850Y-47936D01*
X51813Y-47750D01*
X51708Y-47593D01*
X51551Y-47488D01*
X51366Y-47451D01*
X51180Y-47488D01*
X51023Y-47593D01*
X50918Y-47750D01*
X50881Y-47936D01*
X50881Y-48276D01*
X50918Y-48461D01*
X51023Y-48619D01*
X51180Y-48724D01*
X51366Y-48761D01*
X51551Y-48724D01*
X51708Y-48619D01*
X51813Y-48461D01*
X51850Y-48276D01*
X51850Y-49250D01*
X50850Y-49250D01*
X50850Y-48276D01*
X50850Y-47936D01*
X50813Y-47750D01*
X50708Y-47593D01*
X50551Y-47488D01*
X50366Y-47451D01*
X50180Y-47488D01*
X50023Y-47593D01*
X49918Y-47750D01*
X49881Y-47936D01*
X49881Y-48276D01*
X49918Y-48461D01*
X50023Y-48619D01*
X50180Y-48724D01*
X50366Y-48761D01*
X50551Y-48724D01*
X50708Y-48619D01*
X50813Y-48461D01*
X50850Y-48276D01*
X50850Y-49250D01*
X49850Y-49250D01*
X49850Y-48276D01*
X49850Y-47936D01*
X49813Y-47750D01*
X49708Y-47593D01*
X49551Y-47488D01*
X49366Y-47451D01*
X49180Y-47488D01*
X49023Y-47593D01*
X48918Y-47750D01*
X48881Y-47936D01*
X48881Y-48276D01*
X48918Y-48461D01*
X49023Y-48619D01*
X49180Y-48724D01*
X49366Y-48761D01*
X49551Y-48724D01*
X49708Y-48619D01*
X49813Y-48461D01*
X49850Y-48276D01*
X49850Y-49250D01*
X48851Y-49250D01*
X48851Y-48263D01*
X48851Y-48106D01*
X48851Y-48106D01*
X48851Y-47948D01*
X48814Y-47763D01*
X48708Y-47605D01*
X48551Y-47500D01*
X48442Y-47469D01*
X48366Y-47501D01*
X48366Y-48106D01*
X48851Y-48106D01*
X48851Y-48106D01*
X48366Y-48106D01*
X48366Y-48711D01*
X48442Y-48742D01*
X48551Y-48711D01*
X48708Y-48606D01*
X48814Y-48449D01*
X48851Y-48263D01*
X48851Y-49250D01*
X47672Y-49250D01*
X47672Y-48712D01*
X47749Y-48660D01*
X47867Y-48484D01*
X47896Y-48338D01*
X47918Y-48449D01*
X48023Y-48606D01*
X48180Y-48711D01*
X48290Y-48742D01*
X48365Y-48711D01*
X48365Y-48106D01*
X48358Y-48106D01*
X48358Y-48106D01*
X48365Y-48106D01*
X48365Y-47501D01*
X48290Y-47469D01*
X48180Y-47500D01*
X48023Y-47605D01*
X47918Y-47763D01*
X47896Y-47873D01*
X47867Y-47727D01*
X47749Y-47551D01*
X47573Y-47434D01*
X47366Y-47392D01*
X47158Y-47434D01*
X46982Y-47551D01*
X46865Y-47727D01*
X46824Y-47935D01*
X46824Y-48277D01*
X46865Y-48484D01*
X46982Y-48660D01*
X47060Y-48712D01*
X47060Y-49436D01*
X46948Y-49547D01*
X45868Y-48467D01*
X45785Y-48266D01*
X45616Y-48096D01*
X45395Y-48005D01*
X45156Y-48005D01*
X44935Y-48096D01*
X44766Y-48265D01*
X44674Y-48486D01*
X44674Y-48725D01*
X44765Y-48946D01*
X44934Y-49115D01*
X45155Y-49207D01*
X45394Y-49207D01*
X45615Y-49116D01*
X45633Y-49098D01*
X46516Y-49980D01*
X45984Y-50512D01*
X45918Y-50611D01*
X45894Y-50728D01*
X45894Y-53740D01*
X45918Y-53857D01*
X45984Y-53956D01*
X46299Y-54271D01*
X46299Y-54271D01*
X46398Y-54337D01*
X46515Y-54361D01*
X46515Y-54361D01*
X47253Y-54361D01*
X47253Y-54803D01*
X47276Y-54920D01*
X47342Y-55019D01*
X48885Y-56562D01*
X48885Y-56562D01*
X48985Y-56629D01*
X49102Y-56652D01*
X49102Y-56652D01*
X49150Y-56652D01*
X49150Y-56781D01*
X49182Y-56857D01*
X49240Y-56915D01*
X49316Y-56947D01*
X49399Y-56947D01*
X50186Y-56947D01*
X50263Y-56916D01*
X50300Y-56878D01*
X50328Y-56890D01*
X50387Y-56890D01*
X51175Y-56890D01*
X51230Y-56867D01*
X51251Y-56845D01*
X51273Y-56867D01*
X51328Y-56890D01*
X51387Y-56890D01*
X52175Y-56890D01*
X52230Y-56867D01*
X52251Y-56845D01*
X52273Y-56867D01*
X52328Y-56890D01*
X52387Y-56890D01*
X53175Y-56890D01*
X53230Y-56867D01*
X53251Y-56845D01*
X53273Y-56867D01*
X53328Y-56890D01*
X53387Y-56890D01*
X54175Y-56890D01*
X54230Y-56867D01*
X54251Y-56845D01*
X54273Y-56867D01*
X54328Y-56890D01*
X54387Y-56890D01*
X54542Y-56890D01*
X54542Y-56956D01*
X54558Y-57036D01*
X54604Y-57104D01*
X54773Y-57273D01*
X54773Y-57273D01*
X54841Y-57319D01*
X54907Y-57332D01*
X54921Y-57335D01*
X54921Y-57335D01*
X54921Y-57335D01*
X60551Y-57335D01*
X60631Y-57319D01*
X60699Y-57273D01*
X61643Y-56328D01*
X61643Y-56328D01*
X61643Y-56328D01*
X61689Y-56261D01*
X61705Y-56181D01*
X61705Y-55748D01*
X61689Y-55668D01*
X61643Y-55600D01*
X61407Y-55363D01*
X61339Y-55318D01*
X61259Y-55302D01*
X60952Y-55302D01*
X59982Y-54332D01*
X59915Y-54287D01*
X59835Y-54271D01*
X59001Y-54271D01*
X59137Y-54180D01*
X59193Y-54097D01*
X60195Y-54097D01*
X60489Y-54391D01*
X60489Y-54391D01*
X60608Y-54470D01*
X60747Y-54498D01*
X60747Y-54498D01*
X61347Y-54498D01*
X61347Y-54666D01*
X61379Y-54742D01*
X61437Y-54801D01*
X61513Y-54833D01*
X61596Y-54833D01*
X62580Y-54833D01*
X62656Y-54801D01*
X62715Y-54743D01*
X62746Y-54667D01*
X62746Y-54584D01*
X62746Y-54498D01*
X64055Y-54498D01*
X64195Y-54470D01*
X64195Y-54470D01*
X64313Y-54391D01*
X64324Y-54380D01*
X65107Y-54380D01*
X65037Y-54428D01*
X64927Y-54591D01*
X64916Y-54649D01*
X64916Y-54649D01*
X64860Y-54686D01*
X64860Y-54686D01*
X64234Y-55312D01*
X64188Y-55380D01*
X64172Y-55460D01*
X64172Y-55913D01*
X63958Y-55913D01*
X63903Y-55935D01*
X63861Y-55977D01*
X63838Y-56033D01*
X63838Y-56092D01*
X63838Y-57273D01*
X63861Y-57328D01*
X63903Y-57371D01*
X63958Y-57394D01*
X64018Y-57394D01*
X64805Y-57394D01*
X64860Y-57371D01*
X64902Y-57329D01*
X64925Y-57274D01*
X64925Y-57214D01*
X64925Y-57127D01*
X64997Y-57235D01*
X65173Y-57353D01*
X65296Y-57387D01*
X65381Y-57356D01*
X65381Y-56653D01*
X65373Y-56653D01*
X65373Y-56653D01*
X65381Y-56653D01*
X65381Y-55950D01*
X65296Y-55919D01*
X65173Y-55953D01*
X64997Y-56071D01*
X64925Y-56179D01*
X64925Y-56033D01*
X64902Y-55978D01*
X64860Y-55935D01*
X64805Y-55913D01*
X64745Y-55913D01*
X64590Y-55913D01*
X64590Y-55547D01*
X64980Y-55157D01*
X65037Y-55241D01*
X65200Y-55350D01*
X65393Y-55388D01*
X65586Y-55350D01*
X65750Y-55241D01*
X65859Y-55077D01*
X65898Y-54884D01*
X65898Y-54784D01*
X65859Y-54591D01*
X65750Y-54428D01*
X65679Y-54380D01*
X65714Y-54380D01*
X66017Y-54683D01*
X66135Y-54762D01*
X66135Y-54762D01*
X66275Y-54790D01*
X66292Y-54790D01*
X66292Y-54816D01*
X66324Y-54892D01*
X66382Y-54950D01*
X66458Y-54982D01*
X66541Y-54982D01*
X66548Y-54982D01*
X66567Y-55077D01*
X66634Y-55176D01*
X67382Y-55924D01*
X67382Y-55924D01*
X67949Y-56492D01*
X67942Y-56509D01*
X67942Y-56748D01*
X68033Y-56970D01*
X68202Y-57139D01*
X68423Y-57230D01*
X68662Y-57231D01*
X68883Y-57139D01*
X69052Y-56970D01*
X69144Y-56750D01*
X69144Y-56510D01*
X69053Y-56289D01*
X68884Y-56120D01*
X68663Y-56028D01*
X68424Y-56028D01*
X68372Y-56050D01*
X68336Y-56014D01*
X68740Y-56014D01*
X68857Y-55991D01*
X68956Y-55924D01*
X69507Y-55373D01*
X69507Y-55373D01*
X69507Y-55373D01*
X69573Y-55274D01*
X69573Y-55274D01*
X69597Y-55157D01*
X69597Y-55157D01*
X69597Y-51425D01*
X69880Y-51142D01*
X72706Y-51142D01*
X72823Y-51119D01*
X72863Y-51092D01*
X72863Y-55999D01*
X72699Y-55601D01*
X72352Y-55254D01*
X71899Y-55066D01*
X71409Y-55066D01*
X70956Y-55253D01*
X70609Y-55600D01*
X70421Y-56052D01*
X70420Y-56543D01*
X70607Y-56996D01*
X70954Y-57343D01*
X71407Y-57531D01*
X71897Y-57532D01*
X72350Y-57344D01*
X72697Y-56998D01*
X72863Y-56599D01*
X72863Y-57666D01*
X72863Y-57666D01*
G37*
G54D44*
X72863Y-57666D02*
X65925Y-57666D01*
X65925Y-56850D01*
X65925Y-56653D01*
X65925Y-56653D01*
X65925Y-56456D01*
X65884Y-56248D01*
X65766Y-56071D01*
X65589Y-55953D01*
X65467Y-55919D01*
X65382Y-55950D01*
X65382Y-56653D01*
X65925Y-56653D01*
X65925Y-56653D01*
X65382Y-56653D01*
X65382Y-57356D01*
X65467Y-57387D01*
X65589Y-57353D01*
X65766Y-57235D01*
X65884Y-57058D01*
X65925Y-56850D01*
X65925Y-57666D01*
X47394Y-57666D01*
X47394Y-55562D01*
X47207Y-55109D01*
X46860Y-54762D01*
X46407Y-54574D01*
X45917Y-54574D01*
X45823Y-54612D01*
X45823Y-50519D01*
X45748Y-50316D01*
X45724Y-50280D01*
X45641Y-50240D01*
X45641Y-50241D01*
X45641Y-50240D01*
X45601Y-50157D01*
X45404Y-50066D01*
X45188Y-50058D01*
X44985Y-50133D01*
X44949Y-50157D01*
X44910Y-50240D01*
X45275Y-50606D01*
X45641Y-50240D01*
X45641Y-50241D01*
X45275Y-50606D01*
X45641Y-50971D01*
X45724Y-50932D01*
X45815Y-50735D01*
X45823Y-50519D01*
X45823Y-54612D01*
X45641Y-54688D01*
X45641Y-50972D01*
X45275Y-50606D01*
X45275Y-50606D01*
X45275Y-50606D01*
X44909Y-50240D01*
X44826Y-50280D01*
X44736Y-50476D01*
X44727Y-50693D01*
X44802Y-50896D01*
X44826Y-50932D01*
X44909Y-50971D01*
X45275Y-50606D01*
X45275Y-50606D01*
X44910Y-50972D01*
X44949Y-51055D01*
X45146Y-51145D01*
X45362Y-51154D01*
X45565Y-51079D01*
X45601Y-51055D01*
X45641Y-50972D01*
X45641Y-54688D01*
X45464Y-54761D01*
X45117Y-55107D01*
X44928Y-55560D01*
X44928Y-56051D01*
X45115Y-56504D01*
X45462Y-56851D01*
X45915Y-57039D01*
X46405Y-57039D01*
X46858Y-56852D01*
X47205Y-56506D01*
X47393Y-56053D01*
X47394Y-55562D01*
X47394Y-57666D01*
X44223Y-57666D01*
X44223Y-47107D01*
X45768Y-45561D01*
X46162Y-45561D01*
X46571Y-45152D01*
X46571Y-45613D01*
X46562Y-45617D01*
X46453Y-45726D01*
X46394Y-45868D01*
X46394Y-46021D01*
X46452Y-46163D01*
X46561Y-46272D01*
X46703Y-46331D01*
X46857Y-46331D01*
X46999Y-46273D01*
X47107Y-46164D01*
X47166Y-46022D01*
X47166Y-45868D01*
X47108Y-45726D01*
X46999Y-45618D01*
X46989Y-45614D01*
X46989Y-45329D01*
X47098Y-45374D01*
X47252Y-45374D01*
X47394Y-45315D01*
X47503Y-45207D01*
X47518Y-45171D01*
X47570Y-45136D01*
X51081Y-41624D01*
X54637Y-41624D01*
X54637Y-44649D01*
X54653Y-44729D01*
X54698Y-44797D01*
X55135Y-45234D01*
X55135Y-45364D01*
X55031Y-45295D01*
X54846Y-45258D01*
X54660Y-45295D01*
X54503Y-45400D01*
X54398Y-45557D01*
X54361Y-45743D01*
X54361Y-46083D01*
X54398Y-46268D01*
X54503Y-46426D01*
X54660Y-46531D01*
X54846Y-46568D01*
X55031Y-46531D01*
X55135Y-46462D01*
X55135Y-46724D01*
X55029Y-46830D01*
X54984Y-46898D01*
X54968Y-46978D01*
X54968Y-47608D01*
X54984Y-47688D01*
X55029Y-47756D01*
X55873Y-48600D01*
X55873Y-49507D01*
X55889Y-49587D01*
X55934Y-49655D01*
X56596Y-50316D01*
X56592Y-50326D01*
X56592Y-50480D01*
X56650Y-50622D01*
X56759Y-50730D01*
X56901Y-50789D01*
X57054Y-50789D01*
X57196Y-50731D01*
X57305Y-50622D01*
X57364Y-50480D01*
X57364Y-50327D01*
X57305Y-50185D01*
X57197Y-50076D01*
X57055Y-50017D01*
X56901Y-50017D01*
X56891Y-50021D01*
X56291Y-49421D01*
X56291Y-48513D01*
X56275Y-48433D01*
X56230Y-48365D01*
X55386Y-47521D01*
X55386Y-47446D01*
X55475Y-47536D01*
X55617Y-47595D01*
X55771Y-47595D01*
X55882Y-47549D01*
X55873Y-47595D01*
X55873Y-47695D01*
X55912Y-47888D01*
X56021Y-48052D01*
X56184Y-48161D01*
X56377Y-48200D01*
X56570Y-48161D01*
X56734Y-48052D01*
X56843Y-47888D01*
X56882Y-47695D01*
X56882Y-47595D01*
X56843Y-47402D01*
X56734Y-47239D01*
X56642Y-47177D01*
X56994Y-46824D01*
X57039Y-46757D01*
X57055Y-46677D01*
X57055Y-46515D01*
X57189Y-46426D01*
X57294Y-46268D01*
X57317Y-46151D01*
X57345Y-46292D01*
X57463Y-46467D01*
X57540Y-46519D01*
X57540Y-46692D01*
X57342Y-46889D01*
X57276Y-46989D01*
X57253Y-47106D01*
X57253Y-47137D01*
X57218Y-47151D01*
X57049Y-47320D01*
X56957Y-47541D01*
X56957Y-47780D01*
X57049Y-48001D01*
X57218Y-48170D01*
X57438Y-48262D01*
X57678Y-48262D01*
X57899Y-48171D01*
X58068Y-48002D01*
X58160Y-47781D01*
X58160Y-47542D01*
X58069Y-47321D01*
X57922Y-47175D01*
X58062Y-47035D01*
X58062Y-47035D01*
X58062Y-47035D01*
X58129Y-46935D01*
X58129Y-46935D01*
X58152Y-46818D01*
X58152Y-46818D01*
X58152Y-46519D01*
X58229Y-46467D01*
X58347Y-46292D01*
X58376Y-46146D01*
X58398Y-46256D01*
X58503Y-46413D01*
X58661Y-46519D01*
X58770Y-46549D01*
X58846Y-46518D01*
X58846Y-45913D01*
X58838Y-45913D01*
X58838Y-45913D01*
X58846Y-45913D01*
X58846Y-45308D01*
X58770Y-45276D01*
X58661Y-45307D01*
X58503Y-45412D01*
X58398Y-45570D01*
X58376Y-45680D01*
X58347Y-45534D01*
X58229Y-45358D01*
X58202Y-45340D01*
X59851Y-43691D01*
X65629Y-43691D01*
X65637Y-43690D01*
X65637Y-45311D01*
X65503Y-45400D01*
X65398Y-45557D01*
X65361Y-45743D01*
X65361Y-46083D01*
X65398Y-46268D01*
X65503Y-46426D01*
X65660Y-46531D01*
X65846Y-46568D01*
X66031Y-46531D01*
X66189Y-46426D01*
X66294Y-46268D01*
X66331Y-46083D01*
X66331Y-45743D01*
X66294Y-45557D01*
X66189Y-45400D01*
X66055Y-45311D01*
X66055Y-43767D01*
X66637Y-43185D01*
X66637Y-45311D01*
X66503Y-45400D01*
X66398Y-45557D01*
X66361Y-45743D01*
X66361Y-46083D01*
X66398Y-46268D01*
X66503Y-46426D01*
X66660Y-46531D01*
X66846Y-46568D01*
X67031Y-46531D01*
X67189Y-46426D01*
X67294Y-46268D01*
X67331Y-46083D01*
X67331Y-45743D01*
X67294Y-45557D01*
X67189Y-45400D01*
X67055Y-45311D01*
X67055Y-43122D01*
X69281Y-40895D01*
X69281Y-40895D01*
X69281Y-40895D01*
X69327Y-40828D01*
X69342Y-40748D01*
X69342Y-40748D01*
X69342Y-40748D01*
X69342Y-35370D01*
X69352Y-35366D01*
X69461Y-35258D01*
X69520Y-35116D01*
X69520Y-34962D01*
X69513Y-34947D01*
X69615Y-35049D01*
X69615Y-35049D01*
X69683Y-35094D01*
X69763Y-35110D01*
X70846Y-35110D01*
X70926Y-35094D01*
X70994Y-35049D01*
X71645Y-34398D01*
X71690Y-34398D01*
X71754Y-34552D01*
X71935Y-34732D01*
X72170Y-34830D01*
X72426Y-34831D01*
X72662Y-34733D01*
X72764Y-34631D01*
X72764Y-35324D01*
X72620Y-35179D01*
X72399Y-35087D01*
X72160Y-35087D01*
X71939Y-35179D01*
X71770Y-35347D01*
X71678Y-35568D01*
X71678Y-35808D01*
X71769Y-36029D01*
X71938Y-36198D01*
X71973Y-36212D01*
X71973Y-36216D01*
X71959Y-36222D01*
X71789Y-36391D01*
X71698Y-36612D01*
X71697Y-36851D01*
X71789Y-37072D01*
X71958Y-37241D01*
X71973Y-37248D01*
X71973Y-37960D01*
X71854Y-38040D01*
X71745Y-38203D01*
X71663Y-38082D01*
X71488Y-37965D01*
X71488Y-36003D01*
X71488Y-36003D01*
X71488Y-36003D01*
X71485Y-35990D01*
X71472Y-35923D01*
X71427Y-35856D01*
X71427Y-35856D01*
X71112Y-35541D01*
X71044Y-35495D01*
X70964Y-35479D01*
X70781Y-35479D01*
X70740Y-35381D01*
X70587Y-35228D01*
X70388Y-35145D01*
X70171Y-35145D01*
X69971Y-35227D01*
X69818Y-35380D01*
X69735Y-35580D01*
X69735Y-35796D01*
X69818Y-35996D01*
X69971Y-36149D01*
X70128Y-36215D01*
X70009Y-36259D01*
X69973Y-36283D01*
X69933Y-36366D01*
X70299Y-36732D01*
X70664Y-36366D01*
X70625Y-36283D01*
X70454Y-36204D01*
X70587Y-36150D01*
X70740Y-35997D01*
X70781Y-35898D01*
X70877Y-35898D01*
X71070Y-36090D01*
X71070Y-37965D01*
X70895Y-38082D01*
X70847Y-38154D01*
X70847Y-36645D01*
X70772Y-36442D01*
X70748Y-36406D01*
X70665Y-36366D01*
X70299Y-36732D01*
X70665Y-37097D01*
X70748Y-37058D01*
X70838Y-36861D01*
X70847Y-36645D01*
X70847Y-38154D01*
X70777Y-38258D01*
X70776Y-38263D01*
X70664Y-38097D01*
X70664Y-37098D01*
X70299Y-36732D01*
X70298Y-36732D01*
X70298Y-36732D01*
X69933Y-36366D01*
X69850Y-36406D01*
X69759Y-36602D01*
X69751Y-36819D01*
X69826Y-37022D01*
X69850Y-37058D01*
X69933Y-37097D01*
X70298Y-36732D01*
X70298Y-36732D01*
X69933Y-37098D01*
X69973Y-37181D01*
X70169Y-37271D01*
X70386Y-37280D01*
X70589Y-37205D01*
X70625Y-37181D01*
X70664Y-37098D01*
X70664Y-38097D01*
X70664Y-38096D01*
X70487Y-37978D01*
X70364Y-37943D01*
X70279Y-37974D01*
X70279Y-38680D01*
X70287Y-38680D01*
X70287Y-38681D01*
X70279Y-38681D01*
X70279Y-39387D01*
X70364Y-39418D01*
X70487Y-39383D01*
X70664Y-39265D01*
X70776Y-39098D01*
X70777Y-39103D01*
X70895Y-39279D01*
X71070Y-39397D01*
X71070Y-41856D01*
X70914Y-41960D01*
X70847Y-42061D01*
X70847Y-40542D01*
X70772Y-40339D01*
X70748Y-40304D01*
X70665Y-40264D01*
X70664Y-40264D01*
X70664Y-40264D01*
X70625Y-40181D01*
X70428Y-40090D01*
X70279Y-40084D01*
X70279Y-39387D01*
X70279Y-38681D01*
X70279Y-38680D01*
X70279Y-37974D01*
X70194Y-37943D01*
X70071Y-37978D01*
X69894Y-38096D01*
X69776Y-38272D01*
X69735Y-38481D01*
X69735Y-38680D01*
X70279Y-38680D01*
X70279Y-38681D01*
X69735Y-38681D01*
X69735Y-38881D01*
X69776Y-39089D01*
X69894Y-39265D01*
X70071Y-39383D01*
X70194Y-39418D01*
X70279Y-39387D01*
X70279Y-40084D01*
X70212Y-40082D01*
X70009Y-40157D01*
X69973Y-40181D01*
X69933Y-40264D01*
X70299Y-40629D01*
X70664Y-40264D01*
X70664Y-40264D01*
X70299Y-40629D01*
X70665Y-40995D01*
X70748Y-40955D01*
X70838Y-40759D01*
X70847Y-40542D01*
X70847Y-42061D01*
X70796Y-42136D01*
X70795Y-42141D01*
X70683Y-41974D01*
X70664Y-41961D01*
X70664Y-40995D01*
X70299Y-40630D01*
X70298Y-40630D01*
X70298Y-40629D01*
X69933Y-40264D01*
X69850Y-40304D01*
X69759Y-40500D01*
X69751Y-40716D01*
X69826Y-40919D01*
X69850Y-40955D01*
X69933Y-40995D01*
X70298Y-40629D01*
X70298Y-40630D01*
X69933Y-40995D01*
X69973Y-41078D01*
X70169Y-41169D01*
X70386Y-41177D01*
X70589Y-41102D01*
X70625Y-41078D01*
X70664Y-40995D01*
X70664Y-41961D01*
X70507Y-41856D01*
X70384Y-41821D01*
X70299Y-41852D01*
X70299Y-42558D01*
X70307Y-42558D01*
X70307Y-42559D01*
X70299Y-42559D01*
X70299Y-43265D01*
X70384Y-43296D01*
X70507Y-43261D01*
X70683Y-43143D01*
X70795Y-42976D01*
X70796Y-42981D01*
X70914Y-43157D01*
X71090Y-43275D01*
X71090Y-45701D01*
X70914Y-45818D01*
X70847Y-45919D01*
X70847Y-44401D01*
X70772Y-44198D01*
X70748Y-44162D01*
X70665Y-44122D01*
X70664Y-44122D01*
X70664Y-44122D01*
X70625Y-44039D01*
X70428Y-43948D01*
X70299Y-43943D01*
X70299Y-43265D01*
X70299Y-42559D01*
X70299Y-42558D01*
X70299Y-41852D01*
X70213Y-41821D01*
X70091Y-41856D01*
X69914Y-41974D01*
X69796Y-42150D01*
X69755Y-42359D01*
X69755Y-42558D01*
X70299Y-42558D01*
X70299Y-42559D01*
X69755Y-42559D01*
X69755Y-42759D01*
X69796Y-42967D01*
X69914Y-43143D01*
X70091Y-43261D01*
X70213Y-43296D01*
X70299Y-43265D01*
X70299Y-43943D01*
X70212Y-43940D01*
X70009Y-44015D01*
X69973Y-44039D01*
X69933Y-44122D01*
X70299Y-44487D01*
X70664Y-44122D01*
X70664Y-44122D01*
X70299Y-44488D01*
X70665Y-44853D01*
X70748Y-44814D01*
X70838Y-44617D01*
X70847Y-44401D01*
X70847Y-45919D01*
X70796Y-45994D01*
X70795Y-46000D01*
X70683Y-45832D01*
X70664Y-45819D01*
X70664Y-44854D01*
X70299Y-44488D01*
X70298Y-44488D01*
X70298Y-44488D01*
X69933Y-44122D01*
X69850Y-44162D01*
X69759Y-44358D01*
X69751Y-44575D01*
X69826Y-44778D01*
X69850Y-44814D01*
X69933Y-44853D01*
X70298Y-44488D01*
X70298Y-44488D01*
X69933Y-44854D01*
X69973Y-44937D01*
X70169Y-45027D01*
X70386Y-45036D01*
X70589Y-44961D01*
X70625Y-44937D01*
X70664Y-44854D01*
X70664Y-45819D01*
X70507Y-45714D01*
X70384Y-45680D01*
X70299Y-45711D01*
X70299Y-46417D01*
X70307Y-46417D01*
X70307Y-46417D01*
X70299Y-46417D01*
X70299Y-47123D01*
X70384Y-47154D01*
X70507Y-47119D01*
X70683Y-47001D01*
X70795Y-46834D01*
X70796Y-46839D01*
X70914Y-47016D01*
X71091Y-47134D01*
X71299Y-47175D01*
X71507Y-47134D01*
X71683Y-47016D01*
X71764Y-46894D01*
X71874Y-47057D01*
X72069Y-47188D01*
X72299Y-47233D01*
X72529Y-47188D01*
X72724Y-47057D01*
X72764Y-46997D01*
X72764Y-47863D01*
X72758Y-47857D01*
X72703Y-47834D01*
X72643Y-47834D01*
X72372Y-47834D01*
X71958Y-47421D01*
X71891Y-47375D01*
X71811Y-47359D01*
X70299Y-47359D01*
X70299Y-47123D01*
X70299Y-46417D01*
X70299Y-46417D01*
X70299Y-45711D01*
X70213Y-45680D01*
X70091Y-45714D01*
X69914Y-45832D01*
X69796Y-46009D01*
X69755Y-46217D01*
X69755Y-46417D01*
X70299Y-46417D01*
X70299Y-46417D01*
X69755Y-46417D01*
X69755Y-46617D01*
X69796Y-46825D01*
X69914Y-47001D01*
X70091Y-47119D01*
X70213Y-47154D01*
X70299Y-47123D01*
X70299Y-47359D01*
X69862Y-47359D01*
X69782Y-47375D01*
X69714Y-47421D01*
X69683Y-47452D01*
X69673Y-47448D01*
X69519Y-47448D01*
X69377Y-47507D01*
X69269Y-47615D01*
X69210Y-47757D01*
X69210Y-47911D01*
X69268Y-48053D01*
X69377Y-48161D01*
X69519Y-48220D01*
X69672Y-48220D01*
X69733Y-48195D01*
X69696Y-48285D01*
X69696Y-48509D01*
X69781Y-48716D01*
X69940Y-48874D01*
X69994Y-48897D01*
X69941Y-48919D01*
X69782Y-49078D01*
X69696Y-49285D01*
X69696Y-49509D01*
X69781Y-49716D01*
X69940Y-49874D01*
X70147Y-49960D01*
X70371Y-49961D01*
X70578Y-49875D01*
X70737Y-49717D01*
X70758Y-49666D01*
X70769Y-49698D01*
X70794Y-49735D01*
X70879Y-49777D01*
X71259Y-49397D01*
X70879Y-49017D01*
X70794Y-49059D01*
X70760Y-49134D01*
X70737Y-49078D01*
X70579Y-48920D01*
X70524Y-48897D01*
X70578Y-48875D01*
X70737Y-48717D01*
X70759Y-48662D01*
X70781Y-48716D01*
X70940Y-48874D01*
X70990Y-48895D01*
X70959Y-48907D01*
X70922Y-48932D01*
X70880Y-49017D01*
X71259Y-49397D01*
X71639Y-49017D01*
X71597Y-48932D01*
X71523Y-48898D01*
X71578Y-48875D01*
X71696Y-48757D01*
X71696Y-48840D01*
X71719Y-48895D01*
X71761Y-48938D01*
X71816Y-48960D01*
X71818Y-48960D01*
X71733Y-49045D01*
X71726Y-49062D01*
X71725Y-49059D01*
X71639Y-49017D01*
X71260Y-49397D01*
X71639Y-49777D01*
X71725Y-49735D01*
X71726Y-49732D01*
X71733Y-49748D01*
X71907Y-49923D01*
X71953Y-49942D01*
X71953Y-50005D01*
X71782Y-50176D01*
X71639Y-50176D01*
X71639Y-49777D01*
X71259Y-49397D01*
X70880Y-49777D01*
X70922Y-49862D01*
X71125Y-49956D01*
X71349Y-49965D01*
X71560Y-49887D01*
X71597Y-49862D01*
X71639Y-49777D01*
X71639Y-50176D01*
X69673Y-50176D01*
X68982Y-49484D01*
X68882Y-49418D01*
X68765Y-49394D01*
X68331Y-49394D01*
X68331Y-46083D01*
X68331Y-45743D01*
X68294Y-45557D01*
X68189Y-45400D01*
X68031Y-45295D01*
X67846Y-45258D01*
X67660Y-45295D01*
X67503Y-45400D01*
X67398Y-45557D01*
X67361Y-45743D01*
X67361Y-46083D01*
X67398Y-46268D01*
X67503Y-46426D01*
X67660Y-46531D01*
X67846Y-46568D01*
X68031Y-46531D01*
X68189Y-46426D01*
X68294Y-46268D01*
X68331Y-46083D01*
X68331Y-49394D01*
X68022Y-49394D01*
X68022Y-49167D01*
X67990Y-49091D01*
X67969Y-49070D01*
X67969Y-47598D01*
X67881Y-47358D01*
X67852Y-47315D01*
X67759Y-47264D01*
X67759Y-47264D01*
X67759Y-47264D01*
X67707Y-47170D01*
X67475Y-47063D01*
X67220Y-47053D01*
X66980Y-47142D01*
X66938Y-47170D01*
X66886Y-47264D01*
X67322Y-47700D01*
X67759Y-47264D01*
X67759Y-47264D01*
X67323Y-47700D01*
X67759Y-48137D01*
X67852Y-48085D01*
X67959Y-47853D01*
X67969Y-47598D01*
X67969Y-49070D01*
X67932Y-49032D01*
X67856Y-49001D01*
X67773Y-49001D01*
X67759Y-49001D01*
X67759Y-48137D01*
X67322Y-47701D01*
X67322Y-47701D01*
X67322Y-47700D01*
X66886Y-47264D01*
X66792Y-47315D01*
X66685Y-47548D01*
X66675Y-47803D01*
X66764Y-48043D01*
X66792Y-48085D01*
X66886Y-48137D01*
X67322Y-47700D01*
X67322Y-47701D01*
X66886Y-48137D01*
X66938Y-48230D01*
X67170Y-48337D01*
X67425Y-48347D01*
X67665Y-48259D01*
X67707Y-48230D01*
X67759Y-48137D01*
X67759Y-49001D01*
X66789Y-49001D01*
X66713Y-49032D01*
X66655Y-49091D01*
X66623Y-49167D01*
X66623Y-49249D01*
X66623Y-49394D01*
X66527Y-49394D01*
X66410Y-49418D01*
X66311Y-49484D01*
X65544Y-50251D01*
X65393Y-50221D01*
X65331Y-50234D01*
X65331Y-46083D01*
X65331Y-45743D01*
X65294Y-45557D01*
X65189Y-45400D01*
X65031Y-45295D01*
X64846Y-45258D01*
X64660Y-45295D01*
X64503Y-45400D01*
X64398Y-45557D01*
X64361Y-45743D01*
X64361Y-46083D01*
X64398Y-46268D01*
X64503Y-46426D01*
X64660Y-46531D01*
X64846Y-46568D01*
X65031Y-46531D01*
X65189Y-46426D01*
X65294Y-46268D01*
X65331Y-46083D01*
X65331Y-50234D01*
X65178Y-50264D01*
X64996Y-50386D01*
X64874Y-50568D01*
X64831Y-50783D01*
X64831Y-50885D01*
X64874Y-51100D01*
X64996Y-51283D01*
X65178Y-51404D01*
X65385Y-51446D01*
X64331Y-51446D01*
X64331Y-46083D01*
X64331Y-45743D01*
X64294Y-45557D01*
X64189Y-45400D01*
X64031Y-45295D01*
X63846Y-45258D01*
X63660Y-45295D01*
X63503Y-45400D01*
X63398Y-45557D01*
X63361Y-45743D01*
X63361Y-46083D01*
X63398Y-46268D01*
X63503Y-46426D01*
X63660Y-46531D01*
X63846Y-46568D01*
X64031Y-46531D01*
X64189Y-46426D01*
X64294Y-46268D01*
X64331Y-46083D01*
X64331Y-51446D01*
X63773Y-51446D01*
X63618Y-51291D01*
X63618Y-47180D01*
X63543Y-46977D01*
X63519Y-46941D01*
X63436Y-46902D01*
X63436Y-46902D01*
X63436Y-46901D01*
X63396Y-46818D01*
X63331Y-46788D01*
X63331Y-46083D01*
X63331Y-45743D01*
X63294Y-45557D01*
X63189Y-45400D01*
X63031Y-45295D01*
X62846Y-45258D01*
X62660Y-45295D01*
X62503Y-45400D01*
X62398Y-45557D01*
X62361Y-45743D01*
X62361Y-46083D01*
X62398Y-46268D01*
X62503Y-46426D01*
X62660Y-46531D01*
X62846Y-46568D01*
X63031Y-46531D01*
X63189Y-46426D01*
X63294Y-46268D01*
X63331Y-46083D01*
X63331Y-46788D01*
X63200Y-46728D01*
X62983Y-46719D01*
X62780Y-46794D01*
X62744Y-46818D01*
X62705Y-46901D01*
X63070Y-47267D01*
X63436Y-46901D01*
X63436Y-46902D01*
X63071Y-47267D01*
X63436Y-47633D01*
X63519Y-47593D01*
X63610Y-47397D01*
X63618Y-47180D01*
X63618Y-51291D01*
X63614Y-51287D01*
X63614Y-49160D01*
X63532Y-48960D01*
X63436Y-48864D01*
X63436Y-47633D01*
X63070Y-47267D01*
X63070Y-47268D01*
X63070Y-47267D01*
X62705Y-46902D01*
X62621Y-46941D01*
X62531Y-47138D01*
X62522Y-47354D01*
X62597Y-47557D01*
X62621Y-47593D01*
X62705Y-47633D01*
X63070Y-47267D01*
X63070Y-47268D01*
X62705Y-47633D01*
X62744Y-47716D01*
X62941Y-47807D01*
X63157Y-47815D01*
X63360Y-47740D01*
X63396Y-47716D01*
X63436Y-47633D01*
X63436Y-48864D01*
X63379Y-48807D01*
X63179Y-48724D01*
X62963Y-48723D01*
X62863Y-48764D01*
X62331Y-48232D01*
X62331Y-46083D01*
X62331Y-45743D01*
X62294Y-45557D01*
X62189Y-45400D01*
X62031Y-45295D01*
X61846Y-45258D01*
X61660Y-45295D01*
X61503Y-45400D01*
X61398Y-45557D01*
X61361Y-45743D01*
X61361Y-46083D01*
X61398Y-46268D01*
X61503Y-46426D01*
X61660Y-46531D01*
X61846Y-46568D01*
X62031Y-46531D01*
X62189Y-46426D01*
X62294Y-46268D01*
X62331Y-46083D01*
X62331Y-48232D01*
X62061Y-47962D01*
X61993Y-47917D01*
X61913Y-47901D01*
X61766Y-47901D01*
X61725Y-47802D01*
X61573Y-47649D01*
X61474Y-47608D01*
X61474Y-46934D01*
X61458Y-46854D01*
X61412Y-46786D01*
X61107Y-46480D01*
X61189Y-46426D01*
X61294Y-46268D01*
X61331Y-46083D01*
X61331Y-45743D01*
X61294Y-45557D01*
X61189Y-45400D01*
X61031Y-45295D01*
X60846Y-45258D01*
X60660Y-45295D01*
X60503Y-45400D01*
X60398Y-45557D01*
X60361Y-45743D01*
X60361Y-46083D01*
X60398Y-46268D01*
X60503Y-46426D01*
X60637Y-46515D01*
X60637Y-46515D01*
X60653Y-46595D01*
X60698Y-46663D01*
X61055Y-47020D01*
X61055Y-47608D01*
X60957Y-47649D01*
X60804Y-47801D01*
X60721Y-48001D01*
X60721Y-48217D01*
X60803Y-48417D01*
X60956Y-48570D01*
X61156Y-48653D01*
X61372Y-48653D01*
X61572Y-48571D01*
X61725Y-48418D01*
X61766Y-48319D01*
X61826Y-48319D01*
X62568Y-49060D01*
X62527Y-49159D01*
X62527Y-49375D01*
X62609Y-49575D01*
X62762Y-49728D01*
X62962Y-49811D01*
X63178Y-49811D01*
X63378Y-49728D01*
X63531Y-49576D01*
X63614Y-49376D01*
X63614Y-49160D01*
X63614Y-51287D01*
X63289Y-50962D01*
X63171Y-50883D01*
X63031Y-50855D01*
X62571Y-50855D01*
X62571Y-49558D01*
X62496Y-49355D01*
X62472Y-49319D01*
X62389Y-49280D01*
X62389Y-49280D01*
X62389Y-49279D01*
X62349Y-49196D01*
X62152Y-49106D01*
X61936Y-49097D01*
X61733Y-49172D01*
X61697Y-49196D01*
X61658Y-49279D01*
X62023Y-49645D01*
X62389Y-49279D01*
X62389Y-49280D01*
X62023Y-49645D01*
X62389Y-50011D01*
X62472Y-49971D01*
X62563Y-49774D01*
X62571Y-49558D01*
X62571Y-50855D01*
X62389Y-50855D01*
X62389Y-50011D01*
X62023Y-49645D01*
X62023Y-49646D01*
X62023Y-49645D01*
X61657Y-49280D01*
X61574Y-49319D01*
X61484Y-49516D01*
X61475Y-49732D01*
X61550Y-49935D01*
X61574Y-49971D01*
X61657Y-50011D01*
X62023Y-49645D01*
X62023Y-49646D01*
X61658Y-50011D01*
X61697Y-50094D01*
X61894Y-50185D01*
X62110Y-50193D01*
X62313Y-50118D01*
X62349Y-50094D01*
X62389Y-50011D01*
X62389Y-50855D01*
X60567Y-50855D01*
X60567Y-49537D01*
X60484Y-49338D01*
X60332Y-49185D01*
X60132Y-49102D01*
X59915Y-49101D01*
X59827Y-49138D01*
X59574Y-48884D01*
X59574Y-48611D01*
X59672Y-48571D01*
X59825Y-48418D01*
X59908Y-48218D01*
X59908Y-48002D01*
X59825Y-47802D01*
X59673Y-47649D01*
X59574Y-47608D01*
X59574Y-47020D01*
X59994Y-46600D01*
X60039Y-46532D01*
X60041Y-46525D01*
X60189Y-46426D01*
X60294Y-46268D01*
X60331Y-46083D01*
X60331Y-45743D01*
X60294Y-45557D01*
X60189Y-45400D01*
X60031Y-45295D01*
X59846Y-45258D01*
X59660Y-45295D01*
X59503Y-45400D01*
X59398Y-45557D01*
X59361Y-45743D01*
X59361Y-46083D01*
X59398Y-46268D01*
X59503Y-46426D01*
X59547Y-46455D01*
X59331Y-46672D01*
X59331Y-46071D01*
X59331Y-45913D01*
X59331Y-45913D01*
X59331Y-45755D01*
X59294Y-45570D01*
X59189Y-45412D01*
X59031Y-45307D01*
X58922Y-45276D01*
X58846Y-45308D01*
X58846Y-45913D01*
X59331Y-45913D01*
X59331Y-45913D01*
X58846Y-45913D01*
X58846Y-46518D01*
X58922Y-46549D01*
X59031Y-46519D01*
X59189Y-46413D01*
X59294Y-46256D01*
X59331Y-46071D01*
X59331Y-46672D01*
X59217Y-46786D01*
X59171Y-46854D01*
X59155Y-46934D01*
X59155Y-47608D01*
X59057Y-47649D01*
X58904Y-47801D01*
X58821Y-48001D01*
X58821Y-48217D01*
X58903Y-48417D01*
X59056Y-48570D01*
X59155Y-48611D01*
X59155Y-48971D01*
X59171Y-49051D01*
X59217Y-49119D01*
X59525Y-49427D01*
X59480Y-49537D01*
X59479Y-49753D01*
X59562Y-49953D01*
X59715Y-50106D01*
X59914Y-50189D01*
X60131Y-50189D01*
X60331Y-50106D01*
X60484Y-49954D01*
X60567Y-49754D01*
X60567Y-49537D01*
X60567Y-50855D01*
X59757Y-50855D01*
X59105Y-50203D01*
X59105Y-50202D01*
X59137Y-50180D01*
X59259Y-49998D01*
X59301Y-49783D01*
X59301Y-49681D01*
X59259Y-49466D01*
X59137Y-49283D01*
X58955Y-49162D01*
X58740Y-49119D01*
X58525Y-49162D01*
X58342Y-49283D01*
X58221Y-49466D01*
X58178Y-49681D01*
X58178Y-49783D01*
X58221Y-49998D01*
X58342Y-50180D01*
X58375Y-50202D01*
X58375Y-50354D01*
X58402Y-50493D01*
X58482Y-50612D01*
X59348Y-51478D01*
X59348Y-51478D01*
X59466Y-51557D01*
X59606Y-51585D01*
X59606Y-51585D01*
X61763Y-51585D01*
X61704Y-51607D01*
X61662Y-51635D01*
X61610Y-51728D01*
X62047Y-52165D01*
X62483Y-51728D01*
X62432Y-51635D01*
X62323Y-51585D01*
X62880Y-51585D01*
X63363Y-52069D01*
X63482Y-52148D01*
X63482Y-52148D01*
X63622Y-52175D01*
X65866Y-52175D01*
X66005Y-52148D01*
X66005Y-52148D01*
X66124Y-52069D01*
X66478Y-51714D01*
X66557Y-51596D01*
X66557Y-51596D01*
X66585Y-51456D01*
X66585Y-51214D01*
X66765Y-51034D01*
X68516Y-51034D01*
X68527Y-51045D01*
X68602Y-51076D01*
X68384Y-51075D01*
X68163Y-51167D01*
X67994Y-51336D01*
X67902Y-51557D01*
X67902Y-51796D01*
X67993Y-52017D01*
X68095Y-52119D01*
X67327Y-52119D01*
X67323Y-52109D01*
X67166Y-51952D01*
X66961Y-51867D01*
X66739Y-51867D01*
X66535Y-51952D01*
X66378Y-52108D01*
X66293Y-52313D01*
X66292Y-52535D01*
X66377Y-52740D01*
X66534Y-52897D01*
X66675Y-52956D01*
X66583Y-52990D01*
X66550Y-53012D01*
X66516Y-53090D01*
X66850Y-53424D01*
X67184Y-53090D01*
X67150Y-53012D01*
X67026Y-52955D01*
X67165Y-52898D01*
X67322Y-52741D01*
X67327Y-52731D01*
X68224Y-52731D01*
X68341Y-52707D01*
X68440Y-52641D01*
X68720Y-52361D01*
X68786Y-52262D01*
X68797Y-52206D01*
X68844Y-52187D01*
X68985Y-52045D01*
X68985Y-53410D01*
X68976Y-53387D01*
X68952Y-53351D01*
X68869Y-53311D01*
X68869Y-53311D01*
X68869Y-53311D01*
X68829Y-53228D01*
X68633Y-53137D01*
X68416Y-53129D01*
X68213Y-53204D01*
X68178Y-53228D01*
X68138Y-53311D01*
X68503Y-53676D01*
X68869Y-53311D01*
X68869Y-53311D01*
X68504Y-53677D01*
X68869Y-54042D01*
X68952Y-54003D01*
X68985Y-53932D01*
X68985Y-54300D01*
X68909Y-54264D01*
X68908Y-54264D01*
X68908Y-54264D01*
X68869Y-54181D01*
X68797Y-54147D01*
X68829Y-54126D01*
X68869Y-54042D01*
X68503Y-53677D01*
X68503Y-53677D01*
X68503Y-53677D01*
X68138Y-53311D01*
X68055Y-53351D01*
X67964Y-53547D01*
X67956Y-53764D01*
X68031Y-53967D01*
X68055Y-54003D01*
X68138Y-54042D01*
X68503Y-53677D01*
X68503Y-53677D01*
X68138Y-54042D01*
X68178Y-54126D01*
X68249Y-54159D01*
X68217Y-54181D01*
X68177Y-54264D01*
X68543Y-54629D01*
X68908Y-54264D01*
X68908Y-54264D01*
X68543Y-54629D01*
X68909Y-54995D01*
X68985Y-54959D01*
X68985Y-55030D01*
X68908Y-55107D01*
X68908Y-54995D01*
X68543Y-54630D01*
X68543Y-54630D01*
X68543Y-54629D01*
X68177Y-54264D01*
X68094Y-54304D01*
X68003Y-54500D01*
X67995Y-54716D01*
X68070Y-54919D01*
X68094Y-54955D01*
X68177Y-54995D01*
X68543Y-54629D01*
X68543Y-54630D01*
X68177Y-54995D01*
X68217Y-55078D01*
X68413Y-55169D01*
X68630Y-55177D01*
X68833Y-55102D01*
X68869Y-55078D01*
X68908Y-54995D01*
X68908Y-55107D01*
X68613Y-55402D01*
X67725Y-55402D01*
X67286Y-54964D01*
X67317Y-54951D01*
X67376Y-54892D01*
X67407Y-54816D01*
X67407Y-54734D01*
X67407Y-54034D01*
X67376Y-53957D01*
X67354Y-53935D01*
X67354Y-53345D01*
X67285Y-53158D01*
X67263Y-53125D01*
X67184Y-53091D01*
X66850Y-53425D01*
X67184Y-53759D01*
X67263Y-53724D01*
X67346Y-53544D01*
X67354Y-53345D01*
X67354Y-53935D01*
X67318Y-53899D01*
X67241Y-53867D01*
X67159Y-53867D01*
X67096Y-53867D01*
X67117Y-53860D01*
X67150Y-53838D01*
X67184Y-53759D01*
X66850Y-53425D01*
X66850Y-53425D01*
X66850Y-53425D01*
X66516Y-53091D01*
X66437Y-53125D01*
X66354Y-53306D01*
X66346Y-53505D01*
X66415Y-53691D01*
X66437Y-53724D01*
X66516Y-53759D01*
X66850Y-53425D01*
X66850Y-53425D01*
X66516Y-53759D01*
X66550Y-53838D01*
X66614Y-53867D01*
X66459Y-53867D01*
X66383Y-53899D01*
X66324Y-53957D01*
X66324Y-53957D01*
X66124Y-53757D01*
X66005Y-53678D01*
X65866Y-53650D01*
X64173Y-53650D01*
X64033Y-53678D01*
X63915Y-53757D01*
X63915Y-53757D01*
X63915Y-53757D01*
X63904Y-53768D01*
X62746Y-53768D01*
X62746Y-53600D01*
X62715Y-53524D01*
X62694Y-53503D01*
X62694Y-52062D01*
X62605Y-51823D01*
X62577Y-51780D01*
X62483Y-51729D01*
X62047Y-52165D01*
X62483Y-52602D01*
X62577Y-52550D01*
X62684Y-52318D01*
X62694Y-52062D01*
X62694Y-53503D01*
X62656Y-53465D01*
X62580Y-53434D01*
X62498Y-53434D01*
X62483Y-53434D01*
X62483Y-52602D01*
X62047Y-52165D01*
X62046Y-52166D01*
X62046Y-52165D01*
X61610Y-51729D01*
X61517Y-51780D01*
X61410Y-52012D01*
X61400Y-52268D01*
X61488Y-52507D01*
X61517Y-52550D01*
X61610Y-52602D01*
X62046Y-52165D01*
X62046Y-52166D01*
X61610Y-52602D01*
X61662Y-52695D01*
X61894Y-52802D01*
X62149Y-52812D01*
X62389Y-52723D01*
X62432Y-52695D01*
X62483Y-52602D01*
X62483Y-53434D01*
X61514Y-53434D01*
X61437Y-53465D01*
X61379Y-53523D01*
X61347Y-53600D01*
X61347Y-53682D01*
X61347Y-53768D01*
X60898Y-53768D01*
X60604Y-53474D01*
X60486Y-53395D01*
X60346Y-53367D01*
X59193Y-53367D01*
X59137Y-53283D01*
X58955Y-53162D01*
X58740Y-53119D01*
X58525Y-53162D01*
X58342Y-53283D01*
X58338Y-53289D01*
X58338Y-52194D01*
X58323Y-52114D01*
X58277Y-52047D01*
X58106Y-51876D01*
X58106Y-49574D01*
X58031Y-49371D01*
X58007Y-49335D01*
X57924Y-49295D01*
X57924Y-49296D01*
X57924Y-49295D01*
X57884Y-49212D01*
X57688Y-49121D01*
X57472Y-49113D01*
X57269Y-49188D01*
X57233Y-49212D01*
X57193Y-49295D01*
X57559Y-49661D01*
X57924Y-49295D01*
X57924Y-49296D01*
X57559Y-49661D01*
X57924Y-50026D01*
X58007Y-49987D01*
X58098Y-49790D01*
X58106Y-49574D01*
X58106Y-51876D01*
X58071Y-51840D01*
X58003Y-51795D01*
X57924Y-51779D01*
X57924Y-50027D01*
X57559Y-49661D01*
X57558Y-49661D01*
X57558Y-49661D01*
X57193Y-49295D01*
X57110Y-49335D01*
X57019Y-49532D01*
X57011Y-49748D01*
X57086Y-49951D01*
X57110Y-49987D01*
X57193Y-50026D01*
X57558Y-49661D01*
X57558Y-49661D01*
X57193Y-50027D01*
X57233Y-50110D01*
X57429Y-50200D01*
X57646Y-50209D01*
X57849Y-50134D01*
X57884Y-50110D01*
X57924Y-50027D01*
X57924Y-51779D01*
X57923Y-51779D01*
X57529Y-51779D01*
X57529Y-51779D01*
X57516Y-51781D01*
X57449Y-51795D01*
X57381Y-51840D01*
X57381Y-51840D01*
X55256Y-53965D01*
X55256Y-53378D01*
X55256Y-53078D01*
X55218Y-52885D01*
X55108Y-52721D01*
X54946Y-52613D01*
X54945Y-52605D01*
X54899Y-52537D01*
X54399Y-52037D01*
X54331Y-51991D01*
X54251Y-51975D01*
X53850Y-51975D01*
X53850Y-51276D01*
X53850Y-50936D01*
X53813Y-50750D01*
X53708Y-50593D01*
X53551Y-50488D01*
X53366Y-50451D01*
X53180Y-50488D01*
X53023Y-50593D01*
X52918Y-50750D01*
X52881Y-50936D01*
X52881Y-51276D01*
X52918Y-51461D01*
X53023Y-51619D01*
X53180Y-51724D01*
X53366Y-51761D01*
X53551Y-51724D01*
X53708Y-51619D01*
X53813Y-51461D01*
X53850Y-51276D01*
X53850Y-51975D01*
X53118Y-51975D01*
X52729Y-51587D01*
X52813Y-51461D01*
X52850Y-51276D01*
X52850Y-50936D01*
X52813Y-50750D01*
X52708Y-50593D01*
X52551Y-50488D01*
X52366Y-50451D01*
X52180Y-50488D01*
X52023Y-50593D01*
X51918Y-50750D01*
X51881Y-50936D01*
X51881Y-51276D01*
X51899Y-51367D01*
X51843Y-51311D01*
X51850Y-51276D01*
X51850Y-50936D01*
X51813Y-50750D01*
X51708Y-50593D01*
X51551Y-50488D01*
X51366Y-50451D01*
X51180Y-50488D01*
X51023Y-50593D01*
X50918Y-50750D01*
X50881Y-50936D01*
X50881Y-51276D01*
X50918Y-51461D01*
X51023Y-51619D01*
X51180Y-51724D01*
X51366Y-51761D01*
X51551Y-51724D01*
X51619Y-51678D01*
X52338Y-52397D01*
X52338Y-52544D01*
X52190Y-52642D01*
X52081Y-52806D01*
X52051Y-52954D01*
X52051Y-52627D01*
X52028Y-52572D01*
X51986Y-52530D01*
X51931Y-52507D01*
X51872Y-52507D01*
X51661Y-52507D01*
X50734Y-51580D01*
X50813Y-51461D01*
X50850Y-51276D01*
X50850Y-50936D01*
X50813Y-50750D01*
X50708Y-50593D01*
X50551Y-50488D01*
X50366Y-50451D01*
X50180Y-50488D01*
X50023Y-50593D01*
X49918Y-50750D01*
X49881Y-50936D01*
X49881Y-51276D01*
X49918Y-51461D01*
X50023Y-51619D01*
X50180Y-51724D01*
X50313Y-51750D01*
X51100Y-52537D01*
X51065Y-52572D01*
X51042Y-52627D01*
X51042Y-52687D01*
X51042Y-53671D01*
X51065Y-53726D01*
X51107Y-53768D01*
X51162Y-53791D01*
X51222Y-53791D01*
X51931Y-53791D01*
X51986Y-53768D01*
X52028Y-53726D01*
X52051Y-53671D01*
X52051Y-53611D01*
X52051Y-53345D01*
X52081Y-53492D01*
X52190Y-53656D01*
X52354Y-53765D01*
X52547Y-53804D01*
X52740Y-53765D01*
X52903Y-53656D01*
X53013Y-53492D01*
X53051Y-53299D01*
X53051Y-52999D01*
X53013Y-52806D01*
X52903Y-52642D01*
X52756Y-52544D01*
X52756Y-52311D01*
X52740Y-52231D01*
X52695Y-52163D01*
X52695Y-52163D01*
X52274Y-51742D01*
X52298Y-51747D01*
X52883Y-52332D01*
X52883Y-52332D01*
X52951Y-52378D01*
X53018Y-52391D01*
X53031Y-52394D01*
X53031Y-52394D01*
X53031Y-52394D01*
X54165Y-52394D01*
X54453Y-52682D01*
X54395Y-52721D01*
X54285Y-52885D01*
X54256Y-53030D01*
X54256Y-52766D01*
X54256Y-52706D01*
X54233Y-52651D01*
X54191Y-52608D01*
X54136Y-52585D01*
X53789Y-52585D01*
X53752Y-52623D01*
X53752Y-53228D01*
X53760Y-53228D01*
X53760Y-53228D01*
X53752Y-53228D01*
X53752Y-53833D01*
X53789Y-53870D01*
X54136Y-53870D01*
X54191Y-53847D01*
X54233Y-53805D01*
X54256Y-53750D01*
X54256Y-53690D01*
X54256Y-53425D01*
X54285Y-53571D01*
X54395Y-53735D01*
X54558Y-53844D01*
X54751Y-53882D01*
X54945Y-53844D01*
X55108Y-53735D01*
X55218Y-53571D01*
X55256Y-53378D01*
X55256Y-53965D01*
X54950Y-54271D01*
X54821Y-54271D01*
X54817Y-54262D01*
X54708Y-54153D01*
X54566Y-54094D01*
X54413Y-54094D01*
X54271Y-54153D01*
X54162Y-54261D01*
X54103Y-54403D01*
X54103Y-54557D01*
X54161Y-54699D01*
X54270Y-54807D01*
X54293Y-54817D01*
X54273Y-54825D01*
X54251Y-54846D01*
X54230Y-54825D01*
X54175Y-54802D01*
X54115Y-54802D01*
X53751Y-54802D01*
X53751Y-53833D01*
X53751Y-53228D01*
X53751Y-53228D01*
X53751Y-52623D01*
X53714Y-52585D01*
X53367Y-52585D01*
X53312Y-52608D01*
X53270Y-52651D01*
X53247Y-52706D01*
X53247Y-52766D01*
X53247Y-53190D01*
X53284Y-53228D01*
X53751Y-53228D01*
X53751Y-53228D01*
X53284Y-53228D01*
X53247Y-53266D01*
X53247Y-53690D01*
X53247Y-53750D01*
X53270Y-53805D01*
X53312Y-53847D01*
X53367Y-53870D01*
X53714Y-53870D01*
X53751Y-53833D01*
X53751Y-54802D01*
X53328Y-54802D01*
X53273Y-54825D01*
X53251Y-54846D01*
X53230Y-54825D01*
X53175Y-54802D01*
X53115Y-54802D01*
X52328Y-54802D01*
X52273Y-54825D01*
X52251Y-54846D01*
X52230Y-54825D01*
X52175Y-54802D01*
X52115Y-54802D01*
X51328Y-54802D01*
X51273Y-54825D01*
X51251Y-54846D01*
X51230Y-54825D01*
X51175Y-54802D01*
X51115Y-54802D01*
X50328Y-54802D01*
X50273Y-54825D01*
X50252Y-54846D01*
X50230Y-54825D01*
X50175Y-54802D01*
X49789Y-54802D01*
X49752Y-54839D01*
X49752Y-55346D01*
X49760Y-55346D01*
X49760Y-55346D01*
X49752Y-55346D01*
X49752Y-55354D01*
X49751Y-55354D01*
X49751Y-55346D01*
X49751Y-55346D01*
X49751Y-54839D01*
X49714Y-54802D01*
X49328Y-54802D01*
X49273Y-54825D01*
X49230Y-54867D01*
X49207Y-54922D01*
X49207Y-54982D01*
X49207Y-55308D01*
X49245Y-55346D01*
X49751Y-55346D01*
X49751Y-55346D01*
X49245Y-55346D01*
X49207Y-55384D01*
X49207Y-55710D01*
X49207Y-55770D01*
X49219Y-55798D01*
X49182Y-55835D01*
X49150Y-55911D01*
X49150Y-55962D01*
X47864Y-54676D01*
X47864Y-54361D01*
X48602Y-54361D01*
X48719Y-54337D01*
X48818Y-54271D01*
X49246Y-53843D01*
X49342Y-53862D01*
X49557Y-53820D01*
X49739Y-53698D01*
X49837Y-53551D01*
X49837Y-53671D01*
X49860Y-53726D01*
X49902Y-53768D01*
X49958Y-53791D01*
X50017Y-53791D01*
X50726Y-53791D01*
X50781Y-53768D01*
X50824Y-53726D01*
X50846Y-53671D01*
X50847Y-53611D01*
X50847Y-52627D01*
X50824Y-52572D01*
X50782Y-52530D01*
X50726Y-52507D01*
X50667Y-52507D01*
X50480Y-52507D01*
X49813Y-51840D01*
X49745Y-51795D01*
X49665Y-51779D01*
X48787Y-51779D01*
X48659Y-51651D01*
X48708Y-51619D01*
X48813Y-51461D01*
X48850Y-51276D01*
X48850Y-50936D01*
X48813Y-50750D01*
X48714Y-50602D01*
X49017Y-50602D01*
X48918Y-50750D01*
X48881Y-50936D01*
X48881Y-51276D01*
X48918Y-51461D01*
X49023Y-51619D01*
X49180Y-51724D01*
X49366Y-51761D01*
X49551Y-51724D01*
X49708Y-51619D01*
X49813Y-51461D01*
X49850Y-51276D01*
X49850Y-50936D01*
X49813Y-50750D01*
X49708Y-50593D01*
X49551Y-50488D01*
X49546Y-50487D01*
X49546Y-50487D01*
X49513Y-50438D01*
X49513Y-50438D01*
X49321Y-50245D01*
X49253Y-50200D01*
X49173Y-50184D01*
X48051Y-50184D01*
X48051Y-50184D01*
X47971Y-50200D01*
X47903Y-50245D01*
X47903Y-50245D01*
X47706Y-50442D01*
X47664Y-50506D01*
X47646Y-50506D01*
X47026Y-50506D01*
X46971Y-50529D01*
X46929Y-50571D01*
X46906Y-50626D01*
X46906Y-50686D01*
X46906Y-51586D01*
X46928Y-51641D01*
X46971Y-51683D01*
X47026Y-51706D01*
X47085Y-51706D01*
X47157Y-51706D01*
X47157Y-51996D01*
X46989Y-52163D01*
X46944Y-52231D01*
X46928Y-52311D01*
X46928Y-52507D01*
X46753Y-52507D01*
X46698Y-52530D01*
X46656Y-52572D01*
X46633Y-52627D01*
X46633Y-52687D01*
X46633Y-53671D01*
X46656Y-53726D01*
X46678Y-53749D01*
X46642Y-53749D01*
X46506Y-53613D01*
X46506Y-50855D01*
X47165Y-50196D01*
X47165Y-50196D01*
X47165Y-50196D01*
X47499Y-49861D01*
X53705Y-49861D01*
X54307Y-50463D01*
X54180Y-50488D01*
X54023Y-50593D01*
X53918Y-50750D01*
X53881Y-50936D01*
X53881Y-51276D01*
X53918Y-51461D01*
X54023Y-51619D01*
X54180Y-51724D01*
X54366Y-51761D01*
X54551Y-51724D01*
X54708Y-51619D01*
X54813Y-51461D01*
X54850Y-51276D01*
X54850Y-51006D01*
X55461Y-51617D01*
X55461Y-51645D01*
X55484Y-51762D01*
X55551Y-51861D01*
X55650Y-51928D01*
X55767Y-51951D01*
X55885Y-51951D01*
X55980Y-52094D01*
X56162Y-52215D01*
X56377Y-52258D01*
X56592Y-52215D01*
X56775Y-52094D01*
X56896Y-51911D01*
X56939Y-51696D01*
X56939Y-51594D01*
X56896Y-51379D01*
X56775Y-51197D01*
X56592Y-51075D01*
X56377Y-51032D01*
X56162Y-51075D01*
X55980Y-51197D01*
X55951Y-51241D01*
X54850Y-50141D01*
X54850Y-48276D01*
X54850Y-47936D01*
X54813Y-47750D01*
X54708Y-47593D01*
X54551Y-47488D01*
X54366Y-47451D01*
X54331Y-47458D01*
X54331Y-46083D01*
X54331Y-45743D01*
X54294Y-45557D01*
X54189Y-45400D01*
X54031Y-45295D01*
X53846Y-45258D01*
X53660Y-45295D01*
X53503Y-45400D01*
X53398Y-45557D01*
X53361Y-45743D01*
X53361Y-46083D01*
X53398Y-46268D01*
X53503Y-46426D01*
X53660Y-46531D01*
X53846Y-46568D01*
X54031Y-46531D01*
X54189Y-46426D01*
X54294Y-46268D01*
X54331Y-46083D01*
X54331Y-47458D01*
X54180Y-47488D01*
X54023Y-47593D01*
X53918Y-47750D01*
X53881Y-47936D01*
X53881Y-48276D01*
X53918Y-48461D01*
X54023Y-48619D01*
X54180Y-48724D01*
X54366Y-48761D01*
X54551Y-48724D01*
X54708Y-48619D01*
X54813Y-48461D01*
X54850Y-48276D01*
X54850Y-50141D01*
X54048Y-49339D01*
X53949Y-49273D01*
X53850Y-49253D01*
X53850Y-48276D01*
X53850Y-47936D01*
X53813Y-47750D01*
X53708Y-47593D01*
X53551Y-47488D01*
X53366Y-47451D01*
X53331Y-47458D01*
X53331Y-46083D01*
X53331Y-45743D01*
X53294Y-45557D01*
X53189Y-45400D01*
X53031Y-45295D01*
X52846Y-45258D01*
X52660Y-45295D01*
X52503Y-45400D01*
X52398Y-45557D01*
X52361Y-45743D01*
X52361Y-46083D01*
X52398Y-46268D01*
X52503Y-46426D01*
X52660Y-46531D01*
X52846Y-46568D01*
X53031Y-46531D01*
X53189Y-46426D01*
X53294Y-46268D01*
X53331Y-46083D01*
X53331Y-47458D01*
X53180Y-47488D01*
X53023Y-47593D01*
X52918Y-47750D01*
X52881Y-47936D01*
X52881Y-48276D01*
X52918Y-48461D01*
X53023Y-48619D01*
X53180Y-48724D01*
X53366Y-48761D01*
X53551Y-48724D01*
X53708Y-48619D01*
X53813Y-48461D01*
X53850Y-48276D01*
X53850Y-49253D01*
X53832Y-49250D01*
X52850Y-49250D01*
X52850Y-48276D01*
X52850Y-47936D01*
X52813Y-47750D01*
X52708Y-47593D01*
X52551Y-47488D01*
X52366Y-47451D01*
X52331Y-47458D01*
X52331Y-46083D01*
X52331Y-45743D01*
X52294Y-45557D01*
X52189Y-45400D01*
X52031Y-45295D01*
X51846Y-45258D01*
X51660Y-45295D01*
X51503Y-45400D01*
X51398Y-45557D01*
X51369Y-45704D01*
X51352Y-45704D01*
X51324Y-45709D01*
X51294Y-45557D01*
X51189Y-45400D01*
X51031Y-45295D01*
X50846Y-45258D01*
X50660Y-45295D01*
X50503Y-45400D01*
X50398Y-45557D01*
X50361Y-45743D01*
X50361Y-46083D01*
X50398Y-46268D01*
X50503Y-46426D01*
X50660Y-46531D01*
X50778Y-46554D01*
X50664Y-46668D01*
X50023Y-46668D01*
X50039Y-46644D01*
X50055Y-46564D01*
X50055Y-46515D01*
X50189Y-46426D01*
X50294Y-46268D01*
X50331Y-46083D01*
X50331Y-45743D01*
X50294Y-45557D01*
X50189Y-45400D01*
X50031Y-45295D01*
X49846Y-45258D01*
X49660Y-45295D01*
X49503Y-45400D01*
X49398Y-45557D01*
X49361Y-45743D01*
X49361Y-46083D01*
X49398Y-46268D01*
X49456Y-46355D01*
X49331Y-46355D01*
X49331Y-45391D01*
X49308Y-45336D01*
X49266Y-45294D01*
X49211Y-45271D01*
X49151Y-45271D01*
X48482Y-45271D01*
X48426Y-45294D01*
X48384Y-45336D01*
X48361Y-45391D01*
X48361Y-45450D01*
X48361Y-46355D01*
X46458Y-46355D01*
X46353Y-46250D01*
X46357Y-46241D01*
X46357Y-46087D01*
X46298Y-45945D01*
X46190Y-45836D01*
X46048Y-45778D01*
X45894Y-45777D01*
X45752Y-45836D01*
X45643Y-45945D01*
X45584Y-46087D01*
X45584Y-46240D01*
X45643Y-46382D01*
X45751Y-46491D01*
X45629Y-46490D01*
X45487Y-46549D01*
X45378Y-46658D01*
X45319Y-46800D01*
X45319Y-46953D01*
X45378Y-47095D01*
X45486Y-47204D01*
X45628Y-47263D01*
X45782Y-47263D01*
X45924Y-47204D01*
X46032Y-47096D01*
X46037Y-47086D01*
X50750Y-47086D01*
X50830Y-47070D01*
X50898Y-47025D01*
X51500Y-46423D01*
X51500Y-46423D01*
X51500Y-46423D01*
X51501Y-46422D01*
X51503Y-46426D01*
X51660Y-46531D01*
X51846Y-46568D01*
X52031Y-46531D01*
X52189Y-46426D01*
X52294Y-46268D01*
X52331Y-46083D01*
X52331Y-47458D01*
X52180Y-47488D01*
X52023Y-47593D01*
X51918Y-47750D01*
X51881Y-47936D01*
X51881Y-48276D01*
X51918Y-48461D01*
X52023Y-48619D01*
X52180Y-48724D01*
X52366Y-48761D01*
X52551Y-48724D01*
X52708Y-48619D01*
X52813Y-48461D01*
X52850Y-48276D01*
X52850Y-49250D01*
X51850Y-49250D01*
X51850Y-48276D01*
X51850Y-47936D01*
X51813Y-47750D01*
X51708Y-47593D01*
X51551Y-47488D01*
X51366Y-47451D01*
X51180Y-47488D01*
X51023Y-47593D01*
X50918Y-47750D01*
X50881Y-47936D01*
X50881Y-48276D01*
X50918Y-48461D01*
X51023Y-48619D01*
X51180Y-48724D01*
X51366Y-48761D01*
X51551Y-48724D01*
X51708Y-48619D01*
X51813Y-48461D01*
X51850Y-48276D01*
X51850Y-49250D01*
X50850Y-49250D01*
X50850Y-48276D01*
X50850Y-47936D01*
X50813Y-47750D01*
X50708Y-47593D01*
X50551Y-47488D01*
X50366Y-47451D01*
X50180Y-47488D01*
X50023Y-47593D01*
X49918Y-47750D01*
X49881Y-47936D01*
X49881Y-48276D01*
X49918Y-48461D01*
X50023Y-48619D01*
X50180Y-48724D01*
X50366Y-48761D01*
X50551Y-48724D01*
X50708Y-48619D01*
X50813Y-48461D01*
X50850Y-48276D01*
X50850Y-49250D01*
X49850Y-49250D01*
X49850Y-48276D01*
X49850Y-47936D01*
X49813Y-47750D01*
X49708Y-47593D01*
X49551Y-47488D01*
X49366Y-47451D01*
X49180Y-47488D01*
X49023Y-47593D01*
X48918Y-47750D01*
X48881Y-47936D01*
X48881Y-48276D01*
X48918Y-48461D01*
X49023Y-48619D01*
X49180Y-48724D01*
X49366Y-48761D01*
X49551Y-48724D01*
X49708Y-48619D01*
X49813Y-48461D01*
X49850Y-48276D01*
X49850Y-49250D01*
X48851Y-49250D01*
X48851Y-48263D01*
X48851Y-48106D01*
X48851Y-48106D01*
X48851Y-47948D01*
X48814Y-47763D01*
X48708Y-47605D01*
X48551Y-47500D01*
X48442Y-47469D01*
X48366Y-47501D01*
X48366Y-48106D01*
X48851Y-48106D01*
X48851Y-48106D01*
X48366Y-48106D01*
X48366Y-48711D01*
X48442Y-48742D01*
X48551Y-48711D01*
X48708Y-48606D01*
X48814Y-48449D01*
X48851Y-48263D01*
X48851Y-49250D01*
X47672Y-49250D01*
X47672Y-48712D01*
X47749Y-48660D01*
X47867Y-48484D01*
X47896Y-48338D01*
X47918Y-48449D01*
X48023Y-48606D01*
X48180Y-48711D01*
X48290Y-48742D01*
X48365Y-48711D01*
X48365Y-48106D01*
X48358Y-48106D01*
X48358Y-48106D01*
X48365Y-48106D01*
X48365Y-47501D01*
X48290Y-47469D01*
X48180Y-47500D01*
X48023Y-47605D01*
X47918Y-47763D01*
X47896Y-47873D01*
X47867Y-47727D01*
X47749Y-47551D01*
X47573Y-47434D01*
X47366Y-47392D01*
X47158Y-47434D01*
X46982Y-47551D01*
X46865Y-47727D01*
X46824Y-47935D01*
X46824Y-48277D01*
X46865Y-48484D01*
X46982Y-48660D01*
X47060Y-48712D01*
X47060Y-49436D01*
X46948Y-49547D01*
X45868Y-48467D01*
X45785Y-48266D01*
X45616Y-48096D01*
X45395Y-48005D01*
X45156Y-48005D01*
X44935Y-48096D01*
X44766Y-48265D01*
X44674Y-48486D01*
X44674Y-48725D01*
X44765Y-48946D01*
X44934Y-49115D01*
X45155Y-49207D01*
X45394Y-49207D01*
X45615Y-49116D01*
X45633Y-49098D01*
X46516Y-49980D01*
X45984Y-50512D01*
X45918Y-50611D01*
X45894Y-50728D01*
X45894Y-53740D01*
X45918Y-53857D01*
X45984Y-53956D01*
X46299Y-54271D01*
X46299Y-54271D01*
X46398Y-54337D01*
X46515Y-54361D01*
X46515Y-54361D01*
X47253Y-54361D01*
X47253Y-54803D01*
X47276Y-54920D01*
X47342Y-55019D01*
X48885Y-56562D01*
X48885Y-56562D01*
X48985Y-56629D01*
X49102Y-56652D01*
X49102Y-56652D01*
X49150Y-56652D01*
X49150Y-56781D01*
X49182Y-56857D01*
X49240Y-56915D01*
X49316Y-56947D01*
X49399Y-56947D01*
X50186Y-56947D01*
X50263Y-56916D01*
X50300Y-56878D01*
X50328Y-56890D01*
X50387Y-56890D01*
X51175Y-56890D01*
X51230Y-56867D01*
X51251Y-56845D01*
X51273Y-56867D01*
X51328Y-56890D01*
X51387Y-56890D01*
X52175Y-56890D01*
X52230Y-56867D01*
X52251Y-56845D01*
X52273Y-56867D01*
X52328Y-56890D01*
X52387Y-56890D01*
X53175Y-56890D01*
X53230Y-56867D01*
X53251Y-56845D01*
X53273Y-56867D01*
X53328Y-56890D01*
X53387Y-56890D01*
X54175Y-56890D01*
X54230Y-56867D01*
X54251Y-56845D01*
X54273Y-56867D01*
X54328Y-56890D01*
X54387Y-56890D01*
X54542Y-56890D01*
X54542Y-56956D01*
X54558Y-57036D01*
X54604Y-57104D01*
X54773Y-57273D01*
X54773Y-57273D01*
X54841Y-57319D01*
X54907Y-57332D01*
X54921Y-57335D01*
X54921Y-57335D01*
X54921Y-57335D01*
X60551Y-57335D01*
X60631Y-57319D01*
X60699Y-57273D01*
X61643Y-56328D01*
X61643Y-56328D01*
X61643Y-56328D01*
X61689Y-56261D01*
X61705Y-56181D01*
X61705Y-55748D01*
X61689Y-55668D01*
X61643Y-55600D01*
X61407Y-55363D01*
X61339Y-55318D01*
X61259Y-55302D01*
X60952Y-55302D01*
X59982Y-54332D01*
X59915Y-54287D01*
X59835Y-54271D01*
X59001Y-54271D01*
X59137Y-54180D01*
X59193Y-54097D01*
X60195Y-54097D01*
X60489Y-54391D01*
X60489Y-54391D01*
X60608Y-54470D01*
X60747Y-54498D01*
X60747Y-54498D01*
X61347Y-54498D01*
X61347Y-54666D01*
X61379Y-54742D01*
X61437Y-54801D01*
X61513Y-54833D01*
X61596Y-54833D01*
X62580Y-54833D01*
X62656Y-54801D01*
X62715Y-54743D01*
X62746Y-54667D01*
X62746Y-54584D01*
X62746Y-54498D01*
X64055Y-54498D01*
X64195Y-54470D01*
X64195Y-54470D01*
X64313Y-54391D01*
X64324Y-54380D01*
X65107Y-54380D01*
X65037Y-54428D01*
X64927Y-54591D01*
X64916Y-54649D01*
X64916Y-54649D01*
X64860Y-54686D01*
X64860Y-54686D01*
X64234Y-55312D01*
X64188Y-55380D01*
X64172Y-55460D01*
X64172Y-55913D01*
X63958Y-55913D01*
X63903Y-55935D01*
X63861Y-55977D01*
X63838Y-56033D01*
X63838Y-56092D01*
X63838Y-57273D01*
X63861Y-57328D01*
X63903Y-57371D01*
X63958Y-57394D01*
X64018Y-57394D01*
X64805Y-57394D01*
X64860Y-57371D01*
X64902Y-57329D01*
X64925Y-57274D01*
X64925Y-57214D01*
X64925Y-57127D01*
X64997Y-57235D01*
X65173Y-57353D01*
X65296Y-57387D01*
X65381Y-57356D01*
X65381Y-56653D01*
X65373Y-56653D01*
X65373Y-56653D01*
X65381Y-56653D01*
X65381Y-55950D01*
X65296Y-55919D01*
X65173Y-55953D01*
X64997Y-56071D01*
X64925Y-56179D01*
X64925Y-56033D01*
X64902Y-55978D01*
X64860Y-55935D01*
X64805Y-55913D01*
X64745Y-55913D01*
X64590Y-55913D01*
X64590Y-55547D01*
X64980Y-55157D01*
X65037Y-55241D01*
X65200Y-55350D01*
X65393Y-55388D01*
X65586Y-55350D01*
X65750Y-55241D01*
X65859Y-55077D01*
X65898Y-54884D01*
X65898Y-54784D01*
X65859Y-54591D01*
X65750Y-54428D01*
X65679Y-54380D01*
X65714Y-54380D01*
X66017Y-54683D01*
X66135Y-54762D01*
X66135Y-54762D01*
X66275Y-54790D01*
X66292Y-54790D01*
X66292Y-54816D01*
X66324Y-54892D01*
X66382Y-54950D01*
X66458Y-54982D01*
X66541Y-54982D01*
X66548Y-54982D01*
X66567Y-55077D01*
X66634Y-55176D01*
X67382Y-55924D01*
X67382Y-55924D01*
X67949Y-56492D01*
X67942Y-56509D01*
X67942Y-56748D01*
X68033Y-56970D01*
X68202Y-57139D01*
X68423Y-57230D01*
X68662Y-57231D01*
X68883Y-57139D01*
X69052Y-56970D01*
X69144Y-56750D01*
X69144Y-56510D01*
X69053Y-56289D01*
X68884Y-56120D01*
X68663Y-56028D01*
X68424Y-56028D01*
X68372Y-56050D01*
X68336Y-56014D01*
X68740Y-56014D01*
X68857Y-55991D01*
X68956Y-55924D01*
X69507Y-55373D01*
X69507Y-55373D01*
X69507Y-55373D01*
X69573Y-55274D01*
X69573Y-55274D01*
X69597Y-55157D01*
X69597Y-55157D01*
X69597Y-51425D01*
X69880Y-51142D01*
X72706Y-51142D01*
X72823Y-51119D01*
X72863Y-51092D01*
X72863Y-55999D01*
X72699Y-55601D01*
X72352Y-55254D01*
X71899Y-55066D01*
X71409Y-55066D01*
X70956Y-55253D01*
X70609Y-55600D01*
X70421Y-56052D01*
X70420Y-56543D01*
X70607Y-56996D01*
X70954Y-57343D01*
X71407Y-57531D01*
X71897Y-57532D01*
X72350Y-57344D01*
X72697Y-56998D01*
X72863Y-56599D01*
X72863Y-57666D01*
M02*
