G04 (created by PCBNEW (2013-mar-13)-testing) date wto, 19 mar 2013, 20:20:01*
%MOIN*%
G04 Gerber Fmt 3.4, Leading zero omitted, Abs format*
%FSLAX34Y34*%
G01*
G70*
G90*
G04 APERTURE LIST*
%ADD10C,0.006*%
%ADD11C,0.0984252*%
%ADD12O,0.0984252X0.137795*%
%ADD13O,0.0708661X0.0787402*%
%ADD14C,0.0787*%
%ADD15R,0.0787402X0.0787402*%
%ADD16C,0.0787402*%
%ADD17C,0.0984*%
%ADD18O,0.0787402X0.1187*%
%ADD19R,0.0826772X0.0826772*%
%ADD20C,0.0826772*%
%ADD21R,0.062X0.09*%
%ADD22O,0.062X0.09*%
%ADD23R,0.0669291X0.0984252*%
%ADD24O,0.0669291X0.0984252*%
%ADD25R,0.19685X0.19685*%
%ADD26R,0.0984X0.0984*%
%ADD27R,0.0984X0.0709*%
%ADD28O,0.0984X0.0709*%
%ADD29R,0.0709X0.0984*%
%ADD30O,0.0709X0.0984*%
%ADD31R,0.0787X0.1181*%
%ADD32O,0.0787X0.1181*%
%ADD33O,0.0787402X0.0708661*%
%ADD34R,0.0984252X0.0984252*%
%ADD35C,0.07*%
%ADD36R,0.07X0.07*%
%ADD37R,0.055X0.055*%
%ADD38C,0.055*%
%ADD39C,0.216535*%
%ADD40C,0.0472441*%
%ADD41C,0.019685*%
%ADD42C,0.0314961*%
%ADD43C,0.011811*%
%ADD44C,0.01*%
G04 APERTURE END LIST*
G54D10*
G54D11*
X54015Y-19822D03*
X54015Y-22775D03*
G54D12*
X61889Y-19822D03*
X61889Y-22775D03*
X59921Y-19822D03*
X59921Y-22775D03*
X63858Y-19822D03*
X63858Y-22775D03*
G54D13*
X68031Y-33889D03*
X68031Y-29889D03*
G54D14*
X61264Y-48110D03*
X59364Y-48110D03*
G54D15*
X55602Y-34972D03*
G54D16*
X55602Y-35972D03*
X56602Y-35972D03*
G54D17*
X70299Y-34188D03*
X71299Y-32188D03*
X72299Y-34188D03*
X50842Y-33173D03*
X49842Y-35173D03*
X48842Y-33173D03*
X51755Y-35094D03*
X52755Y-33094D03*
X53755Y-35094D03*
G54D18*
X70299Y-42559D03*
X71299Y-42559D03*
X72299Y-42559D03*
X70279Y-38681D03*
X71279Y-38681D03*
X72279Y-38681D03*
X70299Y-46417D03*
X71299Y-46417D03*
X72299Y-46417D03*
G54D19*
X63314Y-36917D03*
G54D20*
X63314Y-35917D03*
X64314Y-36917D03*
X64314Y-35917D03*
X65314Y-36917D03*
X65314Y-35917D03*
X66314Y-36917D03*
X66314Y-35917D03*
X67314Y-36917D03*
X67314Y-35917D03*
G54D21*
X54964Y-25507D03*
G54D22*
X53964Y-25507D03*
X52964Y-25507D03*
X51964Y-25507D03*
X51964Y-28507D03*
X52964Y-28507D03*
X53964Y-28507D03*
X54964Y-28507D03*
G54D21*
X46334Y-28507D03*
G54D22*
X47334Y-28507D03*
X48334Y-28507D03*
X49334Y-28507D03*
X49334Y-25507D03*
X48334Y-25507D03*
X47334Y-25507D03*
X46334Y-25507D03*
G54D21*
X63862Y-25507D03*
G54D22*
X62862Y-25507D03*
X61862Y-25507D03*
X60862Y-25507D03*
X60862Y-28507D03*
X61862Y-28507D03*
X62862Y-28507D03*
X63862Y-28507D03*
G54D23*
X48846Y-45913D03*
G54D24*
X49846Y-45913D03*
X50846Y-45913D03*
X51846Y-45913D03*
X52846Y-45913D03*
X53846Y-45913D03*
X54846Y-45913D03*
X55846Y-45913D03*
X56846Y-45913D03*
X57846Y-45913D03*
X58846Y-45913D03*
X59846Y-45913D03*
X60846Y-45913D03*
X61846Y-45913D03*
X62846Y-45913D03*
X63846Y-45913D03*
X64846Y-45913D03*
X65846Y-45913D03*
X66846Y-45913D03*
X67846Y-45913D03*
X67846Y-39913D03*
X66846Y-39913D03*
X65846Y-39913D03*
X64846Y-39913D03*
X63846Y-39913D03*
X62846Y-39913D03*
X61846Y-39913D03*
X60846Y-39913D03*
X59846Y-39913D03*
X58846Y-39913D03*
X57846Y-39913D03*
X56846Y-39913D03*
X55846Y-39913D03*
X54846Y-39913D03*
X53846Y-39913D03*
X52846Y-39913D03*
X51846Y-39913D03*
X50846Y-39913D03*
X49846Y-39913D03*
X48846Y-39913D03*
G54D21*
X47366Y-51106D03*
G54D24*
X48366Y-51106D03*
X49366Y-51106D03*
X50366Y-51106D03*
X51366Y-51106D03*
X52366Y-51106D03*
X53366Y-51106D03*
X54366Y-51106D03*
X54366Y-48106D03*
X53366Y-48106D03*
X52366Y-48106D03*
X51366Y-48106D03*
X50366Y-48106D03*
X49366Y-48106D03*
X48366Y-48106D03*
X47366Y-48106D03*
G54D25*
X45011Y-34162D03*
X45011Y-44162D03*
G54D15*
X46011Y-41362D03*
X46011Y-40262D03*
X46011Y-39212D03*
X46011Y-38112D03*
X46011Y-37012D03*
X45011Y-40812D03*
X45011Y-39712D03*
X45011Y-38662D03*
X45011Y-37562D03*
G54D17*
X62047Y-52165D03*
G54D26*
X62047Y-54133D03*
X67322Y-49700D03*
G54D17*
X67322Y-47700D03*
G54D27*
X55078Y-38570D03*
G54D28*
X55078Y-37570D03*
G54D29*
X47137Y-53149D03*
G54D30*
X48137Y-53149D03*
G54D29*
X51547Y-53149D03*
G54D30*
X52547Y-53149D03*
G54D29*
X50342Y-53149D03*
G54D30*
X49342Y-53149D03*
G54D29*
X53751Y-53228D03*
G54D30*
X54751Y-53228D03*
G54D16*
X52795Y-36401D03*
X52795Y-38401D03*
X58700Y-38519D03*
X58700Y-36519D03*
X58582Y-31944D03*
X58582Y-29944D03*
X52992Y-29944D03*
X52992Y-31944D03*
X60787Y-29944D03*
X60787Y-31944D03*
X50551Y-36401D03*
X50551Y-38401D03*
X66377Y-31866D03*
X66377Y-29866D03*
X50944Y-31944D03*
X50944Y-29944D03*
X62023Y-49645D03*
X60023Y-49645D03*
X68543Y-56629D03*
X68543Y-54629D03*
X63070Y-47267D03*
X63070Y-49267D03*
X60551Y-38519D03*
X60551Y-36519D03*
X57559Y-47661D03*
X57559Y-49661D03*
X70299Y-44488D03*
X72299Y-44488D03*
X65196Y-27842D03*
X65196Y-25842D03*
X45275Y-48606D03*
X45275Y-50606D03*
X56574Y-28125D03*
X56574Y-26125D03*
X44881Y-28519D03*
X44881Y-26519D03*
X68503Y-51677D03*
X68503Y-53677D03*
X50629Y-25968D03*
X50629Y-27968D03*
X70299Y-40629D03*
X72299Y-40629D03*
X70299Y-36732D03*
X72299Y-36732D03*
G54D31*
X64381Y-56653D03*
G54D32*
X65381Y-56653D03*
G54D16*
X56889Y-37374D03*
X56889Y-38374D03*
G54D14*
X48740Y-35765D03*
X48740Y-38565D03*
X66181Y-27856D03*
X66181Y-25056D03*
X67401Y-25056D03*
X67401Y-27856D03*
G54D13*
X63622Y-33929D03*
X63622Y-29929D03*
X55826Y-33968D03*
X55826Y-29968D03*
X57519Y-24496D03*
X57519Y-28496D03*
G54D33*
X45401Y-30866D03*
X49401Y-30866D03*
X49401Y-29842D03*
X45401Y-29842D03*
G54D13*
X69055Y-33889D03*
X69055Y-29889D03*
X59566Y-28496D03*
X59566Y-24496D03*
X62559Y-29929D03*
X62559Y-33929D03*
X56377Y-51645D03*
X56377Y-47645D03*
X47795Y-38614D03*
X47795Y-34614D03*
X58543Y-28496D03*
X58543Y-24496D03*
X65393Y-50834D03*
X65393Y-54834D03*
X54724Y-29968D03*
X54724Y-33968D03*
X56929Y-29968D03*
X56929Y-33968D03*
X64665Y-29909D03*
X64665Y-33909D03*
X58740Y-53732D03*
X58740Y-49732D03*
G54D16*
X70279Y-35688D03*
X72279Y-35688D03*
G54D19*
X72259Y-48397D03*
G54D20*
X72259Y-49397D03*
X71259Y-48397D03*
X71259Y-49397D03*
X70259Y-48397D03*
X70259Y-49397D03*
G54D16*
X68582Y-27877D03*
X68582Y-24877D03*
G54D19*
X71917Y-29401D03*
G54D20*
X70917Y-29401D03*
X71917Y-28401D03*
X70917Y-28401D03*
X71917Y-27401D03*
X70917Y-27401D03*
X71917Y-26401D03*
X70917Y-26401D03*
X71917Y-25401D03*
X70917Y-25401D03*
G54D34*
X60488Y-34173D03*
G54D11*
X58488Y-34173D03*
G54D15*
X58751Y-55346D03*
X58751Y-56346D03*
X57751Y-55346D03*
X57751Y-56346D03*
X56751Y-55346D03*
X56751Y-56346D03*
X55751Y-55346D03*
X55751Y-56346D03*
X54751Y-55346D03*
X54751Y-56346D03*
X53751Y-55346D03*
X53751Y-56346D03*
X52751Y-55346D03*
X52751Y-56346D03*
X51751Y-55346D03*
X51751Y-56346D03*
X50751Y-55346D03*
X50751Y-56346D03*
X49751Y-55346D03*
X49751Y-56346D03*
G54D35*
X66850Y-52425D03*
X66850Y-53425D03*
G54D36*
X66850Y-54425D03*
G54D29*
X50169Y-23858D03*
G54D30*
X51169Y-23858D03*
G54D37*
X49775Y-22192D03*
G54D38*
X49775Y-21192D03*
X50775Y-21192D03*
G54D37*
X67098Y-22177D03*
G54D38*
X68098Y-22177D03*
X68098Y-23177D03*
G54D13*
X47913Y-23692D03*
X47913Y-19692D03*
X66023Y-23574D03*
X66023Y-19574D03*
G54D14*
X52047Y-22699D03*
X52047Y-19899D03*
X65039Y-22699D03*
X65039Y-19899D03*
X67695Y-28854D03*
X64895Y-28854D03*
G54D39*
X46161Y-55807D03*
X71653Y-56299D03*
X70866Y-20866D03*
X45669Y-20866D03*
G54D40*
X68188Y-37795D03*
X68779Y-50669D03*
X56978Y-50403D03*
X57706Y-52440D03*
X45971Y-46164D03*
X45705Y-46877D03*
X54489Y-54480D03*
X59707Y-55370D03*
X47176Y-44988D03*
X69596Y-47834D03*
X46614Y-29724D03*
X69133Y-35039D03*
X67322Y-34133D03*
X47637Y-44094D03*
X46780Y-45945D03*
X55694Y-47209D03*
X60984Y-56023D03*
X64271Y-39094D03*
X61850Y-27047D03*
X61240Y-33307D03*
G54D41*
X56574Y-28125D02*
X56574Y-27559D01*
X56574Y-27559D02*
X56574Y-27598D01*
X56574Y-27598D02*
X56574Y-27559D01*
X63862Y-28507D02*
X63862Y-27559D01*
X63858Y-27598D02*
X63858Y-27559D01*
X63858Y-27562D02*
X63858Y-27598D01*
X63862Y-27559D02*
X63858Y-27562D01*
X63228Y-27559D02*
X63858Y-27559D01*
X63858Y-27559D02*
X64212Y-27559D01*
X64496Y-27842D02*
X65196Y-27842D01*
X64212Y-27559D02*
X64496Y-27842D01*
X54964Y-28507D02*
X54964Y-28106D01*
X55511Y-27559D02*
X56574Y-27559D01*
X56574Y-27559D02*
X63228Y-27559D01*
X63228Y-27559D02*
X63267Y-27559D01*
X54964Y-28106D02*
X55511Y-27559D01*
X46334Y-25507D02*
X46334Y-24925D01*
X49667Y-19899D02*
X52047Y-19899D01*
X48858Y-20708D02*
X49667Y-19899D01*
X48858Y-24035D02*
X48858Y-20708D01*
X48129Y-24763D02*
X48858Y-24035D01*
X46496Y-24763D02*
X48129Y-24763D01*
X46334Y-24925D02*
X46496Y-24763D01*
G54D42*
X65393Y-50834D02*
X66070Y-50834D01*
X66850Y-51614D02*
X66850Y-52425D01*
X66070Y-50834D02*
X66850Y-51614D01*
G54D41*
X45275Y-47559D02*
X45275Y-47342D01*
X44881Y-26519D02*
X44881Y-27381D01*
X44881Y-27381D02*
X44192Y-28070D01*
X45275Y-47559D02*
X45275Y-48606D01*
X44192Y-31535D02*
X44192Y-28070D01*
X45157Y-32500D02*
X44192Y-31535D01*
X45905Y-32500D02*
X45157Y-32500D01*
X46397Y-32992D02*
X45905Y-32500D01*
X46397Y-35314D02*
X46397Y-32992D01*
X45964Y-35748D02*
X46397Y-35314D01*
X45314Y-35748D02*
X45964Y-35748D01*
X44291Y-36771D02*
X45314Y-35748D01*
X44291Y-41732D02*
X44291Y-36771D01*
X44960Y-42401D02*
X44291Y-41732D01*
X45964Y-42401D02*
X44960Y-42401D01*
X46437Y-42874D02*
X45964Y-42401D01*
X46437Y-45177D02*
X46437Y-42874D01*
X46069Y-45544D02*
X46437Y-45177D01*
X45735Y-45544D02*
X46069Y-45544D01*
X45059Y-46220D02*
X45735Y-45544D01*
X45059Y-47125D02*
X45059Y-46220D01*
X45275Y-47342D02*
X45059Y-47125D01*
X56377Y-49409D02*
X56377Y-51645D01*
X57559Y-48228D02*
X56377Y-49409D01*
X57559Y-47661D02*
X57559Y-48228D01*
X68188Y-37795D02*
X68188Y-37637D01*
X56377Y-52086D02*
X56377Y-51645D01*
X66850Y-52425D02*
X63952Y-52425D01*
X63952Y-52425D02*
X63366Y-53011D01*
X63366Y-53011D02*
X57303Y-53011D01*
X57303Y-53011D02*
X56377Y-52086D01*
X66850Y-37637D02*
X68188Y-37637D01*
X66314Y-37102D02*
X66850Y-37637D01*
X66314Y-36917D02*
X66314Y-37102D01*
X72299Y-37385D02*
X72299Y-36732D01*
X72047Y-37637D02*
X72299Y-37385D01*
X68188Y-37637D02*
X72047Y-37637D01*
X56574Y-26125D02*
X56574Y-26397D01*
X56574Y-26397D02*
X56712Y-26535D01*
X56712Y-26535D02*
X60511Y-26535D01*
X60511Y-26535D02*
X60862Y-26185D01*
X60862Y-26185D02*
X60862Y-25507D01*
G54D42*
X73031Y-50118D02*
X73031Y-34763D01*
X73031Y-34763D02*
X73110Y-34685D01*
X73110Y-34685D02*
X73110Y-33818D01*
X73110Y-33818D02*
X72677Y-33385D01*
X72677Y-33385D02*
X72677Y-31614D01*
X72677Y-31614D02*
X71917Y-30854D01*
X71917Y-29401D02*
X71917Y-30854D01*
X72716Y-50669D02*
X68779Y-50669D01*
X73031Y-50354D02*
X72716Y-50669D01*
X73031Y-50118D02*
X73031Y-50354D01*
G54D43*
X53755Y-35094D02*
X53755Y-37440D01*
X53755Y-37440D02*
X52795Y-38401D01*
X56978Y-50403D02*
X57706Y-51131D01*
X57706Y-51131D02*
X57706Y-52440D01*
X67695Y-28854D02*
X69610Y-28854D01*
X70062Y-28401D02*
X70917Y-28401D01*
X69610Y-28854D02*
X70062Y-28401D01*
X48846Y-45913D02*
X48846Y-47035D01*
X51751Y-54793D02*
X51008Y-54050D01*
X51008Y-54050D02*
X49282Y-54050D01*
X49282Y-54050D02*
X48764Y-53532D01*
X48764Y-53532D02*
X48764Y-52763D01*
X48764Y-52763D02*
X49866Y-51661D01*
X51751Y-54793D02*
X51751Y-55346D01*
X49870Y-51657D02*
X49866Y-51661D01*
X49870Y-47665D02*
X49870Y-51657D01*
X49625Y-47421D02*
X49870Y-47665D01*
X49232Y-47421D02*
X49625Y-47421D01*
X48846Y-47035D02*
X49232Y-47421D01*
X49083Y-57396D02*
X45388Y-57396D01*
X52751Y-56899D02*
X52255Y-57396D01*
X52255Y-57396D02*
X49083Y-57396D01*
X45969Y-51695D02*
X46110Y-51554D01*
X46110Y-51554D02*
X46110Y-46303D01*
X46110Y-46303D02*
X45971Y-46164D01*
X52751Y-56899D02*
X52751Y-56346D01*
X44606Y-53058D02*
X45969Y-51695D01*
X44606Y-56614D02*
X44606Y-53058D01*
X45388Y-57396D02*
X44606Y-56614D01*
X50866Y-46584D02*
X50846Y-46564D01*
X50866Y-53565D02*
X50866Y-46584D01*
X52094Y-54793D02*
X50866Y-53565D01*
X52751Y-54793D02*
X52094Y-54793D01*
X52751Y-55346D02*
X52751Y-54793D01*
X50846Y-45913D02*
X50846Y-46564D01*
X45624Y-57632D02*
X45230Y-57632D01*
X45624Y-57632D02*
X48999Y-57632D01*
X53751Y-56346D02*
X53751Y-56899D01*
X45885Y-47057D02*
X45705Y-46877D01*
X45885Y-49119D02*
X45885Y-47057D01*
X44665Y-50340D02*
X45885Y-49119D01*
X53019Y-57632D02*
X48999Y-57632D01*
X53751Y-56899D02*
X53019Y-57632D01*
X44330Y-50674D02*
X44665Y-50340D01*
X44330Y-56732D02*
X44330Y-50674D01*
X45230Y-57632D02*
X44330Y-56732D01*
X52866Y-46584D02*
X52846Y-46564D01*
X52866Y-52142D02*
X52866Y-46584D01*
X53180Y-52457D02*
X52866Y-52142D01*
X53180Y-54222D02*
X53180Y-52457D01*
X53751Y-54793D02*
X53180Y-54222D01*
X53751Y-55346D02*
X53751Y-54793D01*
X52846Y-45913D02*
X52846Y-46564D01*
X55067Y-47036D02*
X54763Y-46732D01*
X54763Y-46732D02*
X54015Y-46732D01*
X54015Y-46732D02*
X53846Y-46562D01*
X53846Y-45913D02*
X53846Y-46562D01*
X55067Y-47134D02*
X55067Y-52556D01*
X55067Y-52556D02*
X55278Y-52768D01*
X55278Y-52768D02*
X55278Y-53691D01*
X55278Y-53691D02*
X54489Y-54480D01*
X55067Y-47134D02*
X55067Y-47036D01*
X54846Y-45913D02*
X54846Y-46460D01*
X54751Y-54793D02*
X54751Y-55346D01*
X54751Y-54793D02*
X55497Y-54048D01*
X55497Y-54048D02*
X55497Y-52586D01*
X55497Y-52586D02*
X55293Y-52382D01*
X55285Y-52375D02*
X55293Y-52382D01*
X55285Y-46899D02*
X55285Y-52375D01*
X54846Y-46460D02*
X55285Y-46899D01*
X57382Y-53545D02*
X57382Y-53545D01*
X55846Y-46633D02*
X56181Y-46968D01*
X56181Y-46968D02*
X56614Y-46968D01*
X56614Y-46968D02*
X56911Y-47266D01*
X56911Y-47266D02*
X56911Y-48364D01*
X56911Y-48364D02*
X55779Y-49496D01*
X55779Y-49496D02*
X55779Y-51942D01*
X55779Y-51942D02*
X57382Y-53545D01*
X55846Y-45913D02*
X55846Y-46633D01*
X59707Y-54825D02*
X59707Y-55370D01*
X59429Y-54547D02*
X59707Y-54825D01*
X58384Y-54547D02*
X59429Y-54547D01*
X57382Y-53545D02*
X58384Y-54547D01*
X59707Y-55284D02*
X59707Y-55370D01*
X49174Y-57177D02*
X45563Y-57177D01*
X51751Y-56899D02*
X51473Y-57177D01*
X51473Y-57177D02*
X49174Y-57177D01*
X46187Y-51864D02*
X46374Y-51677D01*
X46374Y-51677D02*
X46374Y-45789D01*
X46374Y-45789D02*
X47176Y-44988D01*
X51751Y-56899D02*
X51751Y-56346D01*
X44842Y-53209D02*
X46187Y-51864D01*
X44842Y-56456D02*
X44842Y-53209D01*
X45563Y-57177D02*
X44842Y-56456D01*
X63846Y-45120D02*
X63846Y-45913D01*
X64222Y-44744D02*
X63846Y-45120D01*
X68257Y-44744D02*
X64222Y-44744D01*
X68848Y-45334D02*
X68257Y-44744D01*
X68848Y-47086D02*
X68848Y-45334D01*
X69596Y-47834D02*
X68848Y-47086D01*
X71917Y-28401D02*
X72188Y-28401D01*
X47913Y-21181D02*
X47913Y-23692D01*
X49832Y-19261D02*
X47913Y-21181D01*
X52608Y-19261D02*
X49832Y-19261D01*
X52864Y-19517D02*
X52608Y-19261D01*
X52864Y-20462D02*
X52864Y-19517D01*
X53671Y-21269D02*
X52864Y-20462D01*
X68051Y-21269D02*
X53671Y-21269D01*
X68799Y-22017D02*
X68051Y-21269D01*
X68799Y-23267D02*
X68799Y-22017D01*
X69261Y-23730D02*
X68799Y-23267D01*
X71722Y-23730D02*
X69261Y-23730D01*
X72657Y-24665D02*
X71722Y-23730D01*
X72657Y-27933D02*
X72657Y-24665D01*
X72188Y-28401D02*
X72657Y-27933D01*
X47913Y-24251D02*
X47913Y-23692D01*
X47736Y-24429D02*
X47913Y-24251D01*
X46318Y-24429D02*
X47736Y-24429D01*
X45590Y-25157D02*
X46318Y-24429D01*
X45590Y-29015D02*
X45590Y-25157D01*
X45826Y-29251D02*
X45590Y-29015D01*
X46141Y-29251D02*
X45826Y-29251D01*
X46614Y-29724D02*
X46141Y-29251D01*
X59846Y-39913D02*
X59846Y-39602D01*
X68444Y-35688D02*
X67519Y-34763D01*
X67519Y-34763D02*
X62992Y-34763D01*
X62992Y-34763D02*
X62629Y-35125D01*
X62629Y-35125D02*
X62629Y-35543D01*
X62629Y-35543D02*
X62629Y-38377D01*
X62629Y-38377D02*
X62188Y-38818D01*
X62188Y-38818D02*
X62027Y-38818D01*
X62027Y-38818D02*
X61771Y-39074D01*
X68444Y-35688D02*
X70279Y-35688D01*
X61633Y-39212D02*
X61771Y-39074D01*
X60236Y-39212D02*
X61633Y-39212D01*
X59846Y-39602D02*
X60236Y-39212D01*
X68228Y-35039D02*
X69133Y-35039D01*
X67322Y-34133D02*
X68228Y-35039D01*
X47589Y-44142D02*
X47637Y-44094D01*
X46811Y-47067D02*
X47589Y-46288D01*
X46811Y-51997D02*
X46811Y-47067D01*
X46624Y-52184D02*
X46811Y-51997D01*
X46624Y-53716D02*
X46624Y-52184D01*
X47394Y-54486D02*
X46624Y-53716D01*
X50445Y-54486D02*
X47394Y-54486D01*
X50751Y-54793D02*
X50445Y-54486D01*
X50751Y-54793D02*
X50751Y-55346D01*
X47589Y-46288D02*
X47589Y-44142D01*
X50751Y-56899D02*
X50691Y-56959D01*
X50691Y-56959D02*
X49264Y-56959D01*
X49264Y-56959D02*
X46405Y-54100D01*
X46405Y-54100D02*
X46405Y-52033D01*
X46405Y-52033D02*
X46592Y-51846D01*
X46592Y-51846D02*
X46592Y-46133D01*
X46592Y-46133D02*
X46780Y-45945D01*
X50751Y-56346D02*
X50751Y-56899D01*
X51348Y-48088D02*
X51366Y-48106D01*
X51348Y-45531D02*
X51348Y-48088D01*
X52057Y-44822D02*
X51348Y-45531D01*
X61456Y-44822D02*
X52057Y-44822D01*
X61846Y-45212D02*
X61456Y-44822D01*
X61846Y-45913D02*
X61846Y-45212D01*
X66846Y-40744D02*
X66846Y-39913D01*
X69360Y-43257D02*
X66846Y-40744D01*
X69360Y-46624D02*
X69360Y-43257D01*
X70531Y-47795D02*
X69360Y-46624D01*
X71171Y-47795D02*
X70531Y-47795D01*
X71259Y-47883D02*
X71171Y-47795D01*
X71259Y-48397D02*
X71259Y-47883D01*
X70259Y-47858D02*
X70259Y-48397D01*
X69124Y-46722D02*
X70259Y-47858D01*
X69124Y-43346D02*
X69124Y-46722D01*
X66751Y-40974D02*
X69124Y-43346D01*
X66348Y-40974D02*
X66751Y-40974D01*
X65846Y-40472D02*
X66348Y-40974D01*
X65846Y-39913D02*
X65846Y-40472D01*
X58695Y-54793D02*
X58751Y-54850D01*
X58751Y-55346D02*
X58751Y-54850D01*
X55551Y-52023D02*
X58322Y-54793D01*
X55551Y-47352D02*
X55551Y-52023D01*
X55694Y-47209D02*
X55551Y-47352D01*
X58322Y-54793D02*
X58695Y-54793D01*
X58751Y-56346D02*
X59304Y-56346D01*
X64846Y-45913D02*
X64846Y-46564D01*
X60255Y-55395D02*
X59304Y-56346D01*
X66904Y-55395D02*
X60255Y-55395D01*
X67418Y-54881D02*
X66904Y-55395D01*
X67418Y-51615D02*
X67418Y-54881D01*
X64846Y-49043D02*
X67418Y-51615D01*
X64846Y-46564D02*
X64846Y-49043D01*
X67893Y-55041D02*
X67893Y-55059D01*
X67846Y-45913D02*
X67846Y-46564D01*
X67893Y-55041D02*
X67893Y-51285D01*
X67893Y-51285D02*
X68031Y-51147D01*
X68031Y-51147D02*
X68031Y-46749D01*
X68031Y-46749D02*
X67846Y-46564D01*
X61175Y-55832D02*
X60984Y-56023D01*
X67120Y-55832D02*
X61175Y-55832D01*
X67893Y-55059D02*
X67120Y-55832D01*
X60984Y-56023D02*
X61043Y-55964D01*
X67052Y-39251D02*
X67715Y-39251D01*
X67052Y-39251D02*
X65642Y-39251D01*
X65642Y-39251D02*
X65346Y-39547D01*
X65346Y-39547D02*
X65346Y-41170D01*
X65346Y-41170D02*
X63346Y-43170D01*
X63346Y-43170D02*
X63346Y-46281D01*
X63346Y-46281D02*
X63657Y-46592D01*
X63657Y-46592D02*
X64046Y-46592D01*
X64046Y-46592D02*
X64346Y-46292D01*
X64346Y-46292D02*
X64346Y-45534D01*
X64346Y-45534D02*
X64624Y-45256D01*
X64624Y-45256D02*
X65051Y-45256D01*
X65051Y-45256D02*
X65352Y-45557D01*
X65352Y-45557D02*
X65352Y-49240D01*
X65352Y-49240D02*
X67638Y-51527D01*
X67638Y-51527D02*
X67638Y-54973D01*
X67638Y-54973D02*
X66997Y-55613D01*
X64230Y-55613D02*
X66997Y-55613D01*
X67846Y-39381D02*
X67846Y-39913D01*
X67715Y-39251D02*
X67846Y-39381D01*
X57751Y-56346D02*
X57751Y-56767D01*
X64230Y-55613D02*
X64230Y-55613D01*
X60685Y-55613D02*
X64230Y-55613D01*
X59330Y-56968D02*
X60685Y-55613D01*
X57952Y-56968D02*
X59330Y-56968D01*
X57751Y-56767D02*
X57952Y-56968D01*
X64230Y-55613D02*
X64230Y-55613D01*
X64846Y-39078D02*
X64846Y-39913D01*
X63314Y-37547D02*
X64846Y-39078D01*
X63314Y-36917D02*
X63314Y-37547D01*
X61846Y-39334D02*
X61846Y-39913D01*
X62086Y-39094D02*
X61846Y-39334D01*
X64271Y-39094D02*
X62086Y-39094D01*
X62846Y-46405D02*
X62846Y-45913D01*
X62687Y-46564D02*
X62846Y-46405D01*
X61555Y-46564D02*
X62687Y-46564D01*
X61348Y-46358D02*
X61555Y-46564D01*
X61348Y-45305D02*
X61348Y-46358D01*
X61102Y-45059D02*
X61348Y-45305D01*
X52647Y-45059D02*
X61102Y-45059D01*
X52352Y-45354D02*
X52647Y-45059D01*
X52352Y-46299D02*
X52352Y-45354D01*
X52366Y-46312D02*
X52352Y-46299D01*
X52366Y-48106D02*
X52366Y-46312D01*
X55767Y-26515D02*
X55767Y-26614D01*
X51850Y-24488D02*
X51299Y-25039D01*
X51299Y-25039D02*
X50314Y-25039D01*
X50314Y-25039D02*
X49960Y-25393D01*
X49960Y-25393D02*
X49960Y-28897D01*
X49960Y-28897D02*
X49606Y-29251D01*
X49606Y-29251D02*
X48818Y-29251D01*
X48818Y-29251D02*
X48307Y-29763D01*
X48307Y-29763D02*
X48307Y-30078D01*
X48307Y-30078D02*
X47519Y-30866D01*
X45401Y-30866D02*
X47519Y-30866D01*
X52322Y-24488D02*
X51850Y-24488D01*
X55196Y-24488D02*
X52322Y-24488D01*
X55767Y-25059D02*
X55196Y-24488D01*
X55767Y-26515D02*
X55767Y-25059D01*
X66433Y-26401D02*
X66338Y-26496D01*
X66338Y-26496D02*
X61614Y-26496D01*
X61614Y-26496D02*
X61240Y-26870D01*
X61240Y-26870D02*
X57637Y-26870D01*
X66433Y-26401D02*
X70917Y-26401D01*
X56023Y-26870D02*
X57637Y-26870D01*
X55767Y-26614D02*
X56023Y-26870D01*
G54D41*
X61862Y-25507D02*
X61862Y-24751D01*
X71917Y-24673D02*
X71917Y-25401D01*
X71377Y-24133D02*
X71917Y-24673D01*
X68110Y-24133D02*
X71377Y-24133D01*
X67913Y-24330D02*
X68110Y-24133D01*
X62283Y-24330D02*
X67913Y-24330D01*
X61862Y-24751D02*
X62283Y-24330D01*
X52964Y-26566D02*
X52964Y-26533D01*
X53582Y-27185D02*
X57500Y-27185D01*
X52964Y-26566D02*
X53582Y-27185D01*
X61712Y-27185D02*
X57500Y-27185D01*
X61850Y-27047D02*
X61712Y-27185D01*
X51708Y-36401D02*
X51708Y-38578D01*
X54377Y-37570D02*
X55078Y-37570D01*
X54015Y-37933D02*
X54377Y-37570D01*
X54015Y-38543D02*
X54015Y-37933D01*
X53444Y-39114D02*
X54015Y-38543D01*
X52244Y-39114D02*
X53444Y-39114D01*
X51708Y-38578D02*
X52244Y-39114D01*
X46082Y-31692D02*
X46161Y-31692D01*
X46082Y-31692D02*
X45216Y-31692D01*
X45216Y-31692D02*
X44744Y-31220D01*
X44744Y-31220D02*
X44744Y-30118D01*
X44744Y-30118D02*
X45019Y-29842D01*
X45401Y-29842D02*
X45019Y-29842D01*
X47261Y-35765D02*
X48740Y-35765D01*
X46850Y-35354D02*
X47261Y-35765D01*
X46850Y-32381D02*
X46850Y-35354D01*
X46161Y-31692D02*
X46850Y-32381D01*
X57755Y-39822D02*
X57846Y-39913D01*
X57755Y-36519D02*
X57755Y-39822D01*
X51708Y-36401D02*
X51165Y-36401D01*
X52834Y-35275D02*
X51708Y-36401D01*
X52834Y-34507D02*
X52834Y-35275D01*
X54507Y-32834D02*
X52834Y-34507D01*
X55748Y-32834D02*
X54507Y-32834D01*
X56929Y-31653D02*
X55748Y-32834D01*
X56929Y-30620D02*
X56929Y-31653D01*
X52964Y-25507D02*
X52964Y-26533D01*
X52401Y-30620D02*
X56929Y-30620D01*
X52964Y-26533D02*
X51397Y-28100D01*
X51397Y-28100D02*
X51397Y-29074D01*
X51397Y-29074D02*
X52116Y-29793D01*
X52116Y-29793D02*
X52116Y-30334D01*
X52116Y-30334D02*
X52401Y-30620D01*
X59307Y-30669D02*
X58582Y-29944D01*
X63976Y-30669D02*
X59307Y-30669D01*
X64665Y-29980D02*
X63976Y-30669D01*
X64665Y-29909D02*
X64665Y-29980D01*
X64708Y-29866D02*
X64665Y-29909D01*
X66377Y-29866D02*
X64708Y-29866D01*
X56929Y-30620D02*
X56929Y-29968D01*
X50551Y-36401D02*
X51165Y-36401D01*
X49561Y-36401D02*
X50551Y-36401D01*
X48924Y-35765D02*
X49561Y-36401D01*
X48740Y-35765D02*
X48924Y-35765D01*
X56952Y-29944D02*
X56929Y-29968D01*
X58582Y-29944D02*
X56952Y-29944D01*
X55440Y-37570D02*
X56599Y-36412D01*
X55078Y-37570D02*
X55440Y-37570D01*
X56602Y-36409D02*
X56602Y-35972D01*
X56599Y-36412D02*
X56602Y-36409D01*
X71917Y-26401D02*
X71917Y-25401D01*
X58700Y-36519D02*
X57755Y-36519D01*
X56706Y-36519D02*
X56599Y-36412D01*
X57755Y-36519D02*
X56706Y-36519D01*
X71917Y-27401D02*
X71917Y-26401D01*
X49775Y-22192D02*
X50799Y-22192D01*
X50799Y-22192D02*
X51259Y-21732D01*
X51259Y-21732D02*
X65944Y-21732D01*
X65944Y-21732D02*
X66389Y-22177D01*
X66389Y-22177D02*
X67098Y-22177D01*
X65381Y-56653D02*
X65629Y-56653D01*
X68543Y-55039D02*
X68543Y-54629D01*
X67401Y-56181D02*
X68543Y-55039D01*
X66102Y-56181D02*
X67401Y-56181D01*
X65629Y-56653D02*
X66102Y-56181D01*
G54D42*
X62047Y-52165D02*
X62047Y-49669D01*
X62047Y-49669D02*
X62023Y-49645D01*
G54D41*
X70787Y-36732D02*
X70299Y-36732D01*
X71338Y-36181D02*
X70787Y-36732D01*
X71338Y-33464D02*
X71338Y-36181D01*
X72204Y-32598D02*
X71338Y-33464D01*
X72204Y-31889D02*
X72204Y-32598D01*
X71377Y-31062D02*
X72204Y-31889D01*
X71377Y-30354D02*
X71377Y-31062D01*
X70917Y-29893D02*
X71377Y-30354D01*
X70917Y-29401D02*
X70917Y-29893D01*
X69826Y-37204D02*
X70299Y-36732D01*
X68366Y-37204D02*
X69826Y-37204D01*
X68129Y-36968D02*
X68366Y-37204D01*
X68129Y-36496D02*
X68129Y-36968D01*
X67551Y-35917D02*
X68129Y-36496D01*
X67314Y-35917D02*
X67551Y-35917D01*
X67314Y-35385D02*
X67314Y-35917D01*
X67106Y-35177D02*
X67314Y-35385D01*
X63858Y-35177D02*
X67106Y-35177D01*
X63314Y-35720D02*
X63858Y-35177D01*
X63314Y-35917D02*
X63314Y-35720D01*
G54D43*
X57519Y-28496D02*
X57519Y-28641D01*
X51964Y-29070D02*
X51964Y-28507D01*
X52106Y-29212D02*
X51964Y-29070D01*
X56948Y-29212D02*
X52106Y-29212D01*
X57519Y-28641D02*
X56948Y-29212D01*
X56929Y-33968D02*
X57153Y-33968D01*
X58582Y-32539D02*
X58582Y-31944D01*
X57153Y-33968D02*
X58582Y-32539D01*
X49366Y-48106D02*
X49366Y-47948D01*
X46935Y-40262D02*
X46011Y-40262D01*
X48307Y-41633D02*
X46935Y-40262D01*
X48307Y-46889D02*
X48307Y-41633D01*
X49366Y-47948D02*
X48307Y-46889D01*
X46011Y-39212D02*
X46240Y-39212D01*
X50366Y-47492D02*
X50366Y-48106D01*
X50157Y-47283D02*
X50366Y-47492D01*
X49881Y-47283D02*
X50157Y-47283D01*
X49350Y-46751D02*
X49881Y-47283D01*
X49350Y-45216D02*
X49350Y-46751D01*
X49251Y-45118D02*
X49350Y-45216D01*
X48759Y-45118D02*
X49251Y-45118D01*
X48562Y-44921D02*
X48759Y-45118D01*
X48562Y-41535D02*
X48562Y-44921D01*
X46240Y-39212D02*
X48562Y-41535D01*
X45011Y-38662D02*
X45011Y-39712D01*
G54D42*
X58846Y-39460D02*
X58846Y-39913D01*
X59527Y-38779D02*
X58846Y-39460D01*
X59527Y-37440D02*
X59527Y-38779D01*
X60448Y-36519D02*
X59527Y-37440D01*
X60551Y-36519D02*
X60448Y-36519D01*
X60488Y-36456D02*
X60551Y-36519D01*
X60488Y-34173D02*
X60488Y-36456D01*
G54D41*
X61078Y-29944D02*
X60787Y-29944D01*
X61862Y-29161D02*
X61078Y-29944D01*
X61862Y-28507D02*
X61862Y-29161D01*
X53015Y-29968D02*
X52992Y-29944D01*
X54724Y-29968D02*
X53015Y-29968D01*
G54D43*
X62862Y-28507D02*
X62862Y-28885D01*
X64497Y-29251D02*
X64895Y-28854D01*
X63228Y-29251D02*
X64497Y-29251D01*
X62862Y-28885D02*
X63228Y-29251D01*
X70456Y-33031D02*
X71299Y-32188D01*
X61515Y-33031D02*
X70456Y-33031D01*
X61240Y-33307D02*
X61515Y-33031D01*
G54D10*
G36*
X72448Y-27846D02*
X72303Y-27991D01*
X72236Y-27924D01*
X72186Y-27903D01*
X72217Y-27891D01*
X72255Y-27866D01*
X72297Y-27781D01*
X71917Y-27401D01*
X71537Y-27781D01*
X71579Y-27866D01*
X71653Y-27900D01*
X71598Y-27923D01*
X71439Y-28082D01*
X71417Y-28136D01*
X71395Y-28082D01*
X71236Y-27924D01*
X71182Y-27901D01*
X71236Y-27879D01*
X71394Y-27721D01*
X71415Y-27670D01*
X71427Y-27702D01*
X71452Y-27739D01*
X71537Y-27781D01*
X71917Y-27401D01*
X71537Y-27021D01*
X71452Y-27063D01*
X71418Y-27138D01*
X71395Y-27082D01*
X71236Y-26924D01*
X71182Y-26901D01*
X71236Y-26879D01*
X71394Y-26721D01*
X71415Y-26670D01*
X71427Y-26702D01*
X71452Y-26739D01*
X71537Y-26781D01*
X71917Y-26401D01*
X71537Y-26021D01*
X71452Y-26063D01*
X71418Y-26138D01*
X71395Y-26082D01*
X71236Y-25924D01*
X71182Y-25901D01*
X71236Y-25879D01*
X71394Y-25721D01*
X71415Y-25670D01*
X71427Y-25702D01*
X71452Y-25739D01*
X71537Y-25781D01*
X71917Y-25401D01*
X71537Y-25021D01*
X71452Y-25063D01*
X71418Y-25138D01*
X71395Y-25082D01*
X71236Y-24924D01*
X71029Y-24838D01*
X70805Y-24838D01*
X70598Y-24923D01*
X70439Y-25082D01*
X70354Y-25289D01*
X70353Y-25513D01*
X70439Y-25720D01*
X70597Y-25878D01*
X70652Y-25901D01*
X70598Y-25923D01*
X70439Y-26082D01*
X70394Y-26192D01*
X69126Y-26192D01*
X69126Y-24770D01*
X69043Y-24570D01*
X68891Y-24417D01*
X68691Y-24334D01*
X68523Y-24334D01*
X68523Y-23092D01*
X68458Y-22936D01*
X68339Y-22817D01*
X68183Y-22752D01*
X68014Y-22752D01*
X67857Y-22816D01*
X67738Y-22936D01*
X67673Y-23092D01*
X67673Y-23261D01*
X67737Y-23417D01*
X67857Y-23537D01*
X68013Y-23602D01*
X68182Y-23602D01*
X68338Y-23537D01*
X68458Y-23418D01*
X68523Y-23262D01*
X68523Y-23092D01*
X68523Y-24334D01*
X68475Y-24334D01*
X68275Y-24416D01*
X68122Y-24569D01*
X68039Y-24769D01*
X68038Y-24985D01*
X68121Y-25185D01*
X68274Y-25338D01*
X68474Y-25421D01*
X68690Y-25421D01*
X68890Y-25339D01*
X69043Y-25186D01*
X69126Y-24986D01*
X69126Y-24770D01*
X69126Y-26192D01*
X67945Y-26192D01*
X67945Y-24949D01*
X67862Y-24749D01*
X67709Y-24596D01*
X67510Y-24513D01*
X67293Y-24513D01*
X67094Y-24595D01*
X66941Y-24748D01*
X66858Y-24948D01*
X66857Y-25164D01*
X66940Y-25364D01*
X67093Y-25517D01*
X67292Y-25600D01*
X67509Y-25600D01*
X67709Y-25517D01*
X67862Y-25364D01*
X67944Y-25165D01*
X67945Y-24949D01*
X67945Y-26192D01*
X66724Y-26192D01*
X66724Y-24949D01*
X66642Y-24749D01*
X66527Y-24634D01*
X66527Y-23624D01*
X66527Y-23524D01*
X66489Y-23331D01*
X66380Y-23168D01*
X66216Y-23058D01*
X66023Y-23020D01*
X65830Y-23058D01*
X65667Y-23168D01*
X65557Y-23331D01*
X65519Y-23524D01*
X65519Y-23624D01*
X65557Y-23817D01*
X65667Y-23981D01*
X65830Y-24090D01*
X66023Y-24129D01*
X66216Y-24090D01*
X66380Y-23981D01*
X66489Y-23817D01*
X66527Y-23624D01*
X66527Y-24634D01*
X66489Y-24596D01*
X66289Y-24513D01*
X66073Y-24513D01*
X65873Y-24595D01*
X65720Y-24748D01*
X65637Y-24948D01*
X65637Y-25164D01*
X65720Y-25364D01*
X65872Y-25517D01*
X66072Y-25600D01*
X66288Y-25600D01*
X66488Y-25517D01*
X66641Y-25364D01*
X66724Y-25165D01*
X66724Y-24949D01*
X66724Y-26192D01*
X66433Y-26192D01*
X66353Y-26208D01*
X66285Y-26253D01*
X66251Y-26287D01*
X65602Y-26287D01*
X65706Y-26183D01*
X65797Y-25962D01*
X65798Y-25723D01*
X65706Y-25502D01*
X65537Y-25333D01*
X65316Y-25241D01*
X65077Y-25241D01*
X64856Y-25332D01*
X64687Y-25501D01*
X64595Y-25722D01*
X64595Y-25961D01*
X64686Y-26182D01*
X64791Y-26287D01*
X64322Y-26287D01*
X64322Y-25928D01*
X64322Y-25028D01*
X64299Y-24973D01*
X64257Y-24930D01*
X64202Y-24907D01*
X64142Y-24907D01*
X63522Y-24907D01*
X63467Y-24930D01*
X63425Y-24972D01*
X63402Y-25027D01*
X63402Y-25087D01*
X63402Y-25987D01*
X63424Y-26042D01*
X63467Y-26084D01*
X63522Y-26107D01*
X63581Y-26107D01*
X64201Y-26107D01*
X64257Y-26085D01*
X64299Y-26042D01*
X64322Y-25987D01*
X64322Y-25928D01*
X64322Y-26287D01*
X63322Y-26287D01*
X63322Y-25659D01*
X63322Y-25356D01*
X63287Y-25180D01*
X63187Y-25030D01*
X63038Y-24931D01*
X62862Y-24896D01*
X62686Y-24931D01*
X62536Y-25030D01*
X62437Y-25180D01*
X62402Y-25356D01*
X62402Y-25659D01*
X62437Y-25835D01*
X62536Y-25984D01*
X62686Y-26084D01*
X62862Y-26119D01*
X63038Y-26084D01*
X63187Y-25984D01*
X63287Y-25835D01*
X63322Y-25659D01*
X63322Y-26287D01*
X62322Y-26287D01*
X62322Y-25648D01*
X62322Y-25508D01*
X62322Y-25507D01*
X62322Y-25367D01*
X62287Y-25191D01*
X62187Y-25042D01*
X62038Y-24942D01*
X61934Y-24913D01*
X61862Y-24945D01*
X61862Y-25507D01*
X62322Y-25507D01*
X62322Y-25508D01*
X61862Y-25508D01*
X61862Y-26070D01*
X61934Y-26102D01*
X62038Y-26073D01*
X62187Y-25973D01*
X62287Y-25824D01*
X62322Y-25648D01*
X62322Y-26287D01*
X61862Y-26287D01*
X61862Y-26070D01*
X61862Y-25508D01*
X61862Y-25507D01*
X61862Y-24945D01*
X61789Y-24913D01*
X61686Y-24942D01*
X61536Y-25042D01*
X61436Y-25191D01*
X61401Y-25367D01*
X61401Y-25507D01*
X61862Y-25507D01*
X61862Y-25508D01*
X61401Y-25508D01*
X61401Y-25648D01*
X61436Y-25824D01*
X61536Y-25973D01*
X61686Y-26073D01*
X61789Y-26102D01*
X61862Y-26070D01*
X61862Y-26287D01*
X61614Y-26287D01*
X61534Y-26302D01*
X61466Y-26348D01*
X61153Y-26661D01*
X60818Y-26661D01*
X61078Y-26401D01*
X61144Y-26302D01*
X61168Y-26185D01*
X61168Y-26066D01*
X61228Y-26026D01*
X61340Y-25858D01*
X61379Y-25660D01*
X61379Y-25354D01*
X61340Y-25156D01*
X61228Y-24989D01*
X61060Y-24876D01*
X60862Y-24837D01*
X60664Y-24876D01*
X60496Y-24989D01*
X60384Y-25156D01*
X60344Y-25354D01*
X60344Y-25660D01*
X60384Y-25858D01*
X60496Y-26026D01*
X60551Y-26063D01*
X60385Y-26229D01*
X60071Y-26229D01*
X60071Y-24546D01*
X60071Y-24446D01*
X60032Y-24253D01*
X59923Y-24089D01*
X59759Y-23980D01*
X59566Y-23941D01*
X59373Y-23980D01*
X59210Y-24089D01*
X59100Y-24253D01*
X59062Y-24446D01*
X59062Y-24546D01*
X59100Y-24739D01*
X59210Y-24902D01*
X59373Y-25012D01*
X59566Y-25050D01*
X59759Y-25012D01*
X59923Y-24902D01*
X60032Y-24739D01*
X60071Y-24546D01*
X60071Y-26229D01*
X59047Y-26229D01*
X59047Y-24546D01*
X59047Y-24446D01*
X59009Y-24253D01*
X58899Y-24089D01*
X58736Y-23980D01*
X58543Y-23941D01*
X58350Y-23980D01*
X58186Y-24089D01*
X58077Y-24253D01*
X58038Y-24446D01*
X58038Y-24546D01*
X58077Y-24739D01*
X58186Y-24902D01*
X58350Y-25012D01*
X58543Y-25050D01*
X58736Y-25012D01*
X58899Y-24902D01*
X59009Y-24739D01*
X59047Y-24546D01*
X59047Y-26229D01*
X58024Y-26229D01*
X58024Y-24546D01*
X58024Y-24446D01*
X57985Y-24253D01*
X57876Y-24089D01*
X57712Y-23980D01*
X57519Y-23941D01*
X57326Y-23980D01*
X57163Y-24089D01*
X57053Y-24253D01*
X57015Y-24446D01*
X57015Y-24546D01*
X57053Y-24739D01*
X57163Y-24902D01*
X57326Y-25012D01*
X57519Y-25050D01*
X57712Y-25012D01*
X57876Y-24902D01*
X57985Y-24739D01*
X58024Y-24546D01*
X58024Y-26229D01*
X57175Y-26229D01*
X57176Y-26006D01*
X57084Y-25785D01*
X56915Y-25616D01*
X56694Y-25524D01*
X56455Y-25524D01*
X56234Y-25616D01*
X56065Y-25784D01*
X55976Y-25998D01*
X55976Y-25059D01*
X55960Y-24979D01*
X55915Y-24911D01*
X55915Y-24911D01*
X55344Y-24340D01*
X55276Y-24295D01*
X55196Y-24279D01*
X54657Y-24279D01*
X54657Y-22648D01*
X54560Y-22412D01*
X54379Y-22231D01*
X54144Y-22133D01*
X53888Y-22133D01*
X53652Y-22230D01*
X53471Y-22411D01*
X53373Y-22647D01*
X53373Y-22902D01*
X53471Y-23138D01*
X53651Y-23319D01*
X53887Y-23417D01*
X54142Y-23417D01*
X54379Y-23320D01*
X54559Y-23139D01*
X54657Y-22903D01*
X54657Y-22648D01*
X54657Y-24279D01*
X52590Y-24279D01*
X52590Y-22591D01*
X52508Y-22391D01*
X52355Y-22238D01*
X52155Y-22155D01*
X51939Y-22155D01*
X51739Y-22238D01*
X51586Y-22390D01*
X51503Y-22590D01*
X51503Y-22806D01*
X51586Y-23006D01*
X51738Y-23159D01*
X51938Y-23242D01*
X52154Y-23242D01*
X52354Y-23160D01*
X52507Y-23007D01*
X52590Y-22807D01*
X52590Y-22591D01*
X52590Y-24279D01*
X52322Y-24279D01*
X51850Y-24279D01*
X51850Y-24279D01*
X51834Y-24282D01*
X51770Y-24295D01*
X51731Y-24321D01*
X51731Y-24009D01*
X51731Y-23707D01*
X51688Y-23492D01*
X51566Y-23309D01*
X51384Y-23187D01*
X51169Y-23145D01*
X50954Y-23187D01*
X50771Y-23309D01*
X50731Y-23370D01*
X50731Y-23325D01*
X50699Y-23248D01*
X50641Y-23190D01*
X50565Y-23158D01*
X50482Y-23158D01*
X49773Y-23158D01*
X49697Y-23190D01*
X49639Y-23248D01*
X49607Y-23324D01*
X49607Y-23407D01*
X49607Y-24391D01*
X49638Y-24467D01*
X49697Y-24526D01*
X49773Y-24557D01*
X49855Y-24557D01*
X50564Y-24557D01*
X50641Y-24526D01*
X50699Y-24467D01*
X50731Y-24391D01*
X50731Y-24346D01*
X50771Y-24406D01*
X50954Y-24528D01*
X51169Y-24571D01*
X51384Y-24528D01*
X51566Y-24406D01*
X51688Y-24224D01*
X51731Y-24009D01*
X51731Y-24321D01*
X51702Y-24340D01*
X51702Y-24340D01*
X51212Y-24830D01*
X50314Y-24830D01*
X50234Y-24846D01*
X50167Y-24891D01*
X49827Y-25231D01*
X49812Y-25156D01*
X49700Y-24989D01*
X49532Y-24876D01*
X49334Y-24837D01*
X49136Y-24876D01*
X48968Y-24989D01*
X48856Y-25156D01*
X48817Y-25354D01*
X48817Y-25660D01*
X48856Y-25858D01*
X48968Y-26026D01*
X49136Y-26138D01*
X49334Y-26178D01*
X49532Y-26138D01*
X49700Y-26026D01*
X49751Y-25950D01*
X49751Y-28168D01*
X49659Y-28030D01*
X49510Y-27931D01*
X49334Y-27896D01*
X49158Y-27931D01*
X49009Y-28030D01*
X48909Y-28180D01*
X48874Y-28356D01*
X48874Y-28659D01*
X48909Y-28835D01*
X49009Y-28984D01*
X49096Y-29042D01*
X48852Y-29042D01*
X48852Y-28660D01*
X48852Y-28354D01*
X48812Y-28156D01*
X48700Y-27989D01*
X48532Y-27876D01*
X48334Y-27837D01*
X48136Y-27876D01*
X47968Y-27989D01*
X47856Y-28156D01*
X47817Y-28354D01*
X47817Y-28660D01*
X47856Y-28858D01*
X47968Y-29026D01*
X48136Y-29138D01*
X48334Y-29178D01*
X48532Y-29138D01*
X48700Y-29026D01*
X48812Y-28858D01*
X48852Y-28660D01*
X48852Y-29042D01*
X48818Y-29042D01*
X48738Y-29058D01*
X48671Y-29104D01*
X48671Y-29104D01*
X48159Y-29615D01*
X48113Y-29683D01*
X48098Y-29763D01*
X48098Y-29992D01*
X47794Y-30295D01*
X47794Y-28659D01*
X47794Y-28356D01*
X47759Y-28180D01*
X47659Y-28030D01*
X47510Y-27931D01*
X47334Y-27896D01*
X47158Y-27931D01*
X47009Y-28030D01*
X46909Y-28180D01*
X46874Y-28356D01*
X46874Y-28659D01*
X46909Y-28835D01*
X47009Y-28984D01*
X47158Y-29084D01*
X47334Y-29119D01*
X47510Y-29084D01*
X47659Y-28984D01*
X47759Y-28835D01*
X47794Y-28659D01*
X47794Y-30295D01*
X47433Y-30657D01*
X45939Y-30657D01*
X45939Y-29921D01*
X45939Y-29763D01*
X45907Y-29649D01*
X45797Y-29485D01*
X45634Y-29376D01*
X45441Y-29337D01*
X45401Y-29337D01*
X45401Y-29842D01*
X45908Y-29842D01*
X45939Y-29763D01*
X45939Y-29921D01*
X45908Y-29842D01*
X45401Y-29842D01*
X45401Y-30347D01*
X45441Y-30347D01*
X45634Y-30308D01*
X45797Y-30199D01*
X45907Y-30035D01*
X45939Y-29921D01*
X45939Y-30657D01*
X45906Y-30657D01*
X45808Y-30509D01*
X45644Y-30400D01*
X45451Y-30361D01*
X45401Y-30361D01*
X45401Y-30347D01*
X45401Y-29842D01*
X45401Y-29842D01*
X45401Y-29337D01*
X45362Y-29337D01*
X45168Y-29376D01*
X45005Y-29485D01*
X44895Y-29649D01*
X44863Y-29763D01*
X44895Y-29842D01*
X45401Y-29842D01*
X45401Y-29842D01*
X44895Y-29842D01*
X44863Y-29921D01*
X44895Y-30035D01*
X45005Y-30199D01*
X45168Y-30308D01*
X45362Y-30347D01*
X45401Y-30347D01*
X45401Y-30361D01*
X45351Y-30361D01*
X45158Y-30400D01*
X44994Y-30509D01*
X44885Y-30673D01*
X44847Y-30866D01*
X44885Y-31059D01*
X44994Y-31222D01*
X45158Y-31332D01*
X45351Y-31370D01*
X45451Y-31370D01*
X45644Y-31332D01*
X45808Y-31222D01*
X45906Y-31075D01*
X47519Y-31075D01*
X47599Y-31059D01*
X47667Y-31013D01*
X48454Y-30226D01*
X48500Y-30158D01*
X48516Y-30078D01*
X48516Y-29850D01*
X48905Y-29461D01*
X49032Y-29461D01*
X48994Y-29485D01*
X48885Y-29649D01*
X48847Y-29842D01*
X48885Y-30035D01*
X48994Y-30199D01*
X49158Y-30308D01*
X49351Y-30346D01*
X49451Y-30346D01*
X49644Y-30308D01*
X49808Y-30199D01*
X49917Y-30035D01*
X49955Y-29842D01*
X49917Y-29649D01*
X49808Y-29485D01*
X49716Y-29424D01*
X49754Y-29399D01*
X50108Y-29045D01*
X50153Y-28977D01*
X50169Y-28897D01*
X50169Y-28358D01*
X50288Y-28477D01*
X50509Y-28569D01*
X50748Y-28569D01*
X50970Y-28478D01*
X51139Y-28309D01*
X51230Y-28088D01*
X51231Y-27849D01*
X51139Y-27628D01*
X50970Y-27459D01*
X50750Y-27367D01*
X50510Y-27367D01*
X50289Y-27458D01*
X50169Y-27578D01*
X50169Y-26358D01*
X50288Y-26477D01*
X50509Y-26569D01*
X50748Y-26569D01*
X50970Y-26478D01*
X51139Y-26309D01*
X51230Y-26088D01*
X51231Y-25849D01*
X51139Y-25628D01*
X50970Y-25459D01*
X50750Y-25367D01*
X50510Y-25367D01*
X50289Y-25458D01*
X50169Y-25578D01*
X50169Y-25480D01*
X50401Y-25248D01*
X51299Y-25248D01*
X51379Y-25232D01*
X51447Y-25187D01*
X51505Y-25129D01*
X51486Y-25156D01*
X51447Y-25354D01*
X51447Y-25660D01*
X51486Y-25858D01*
X51598Y-26026D01*
X51766Y-26138D01*
X51964Y-26178D01*
X52162Y-26138D01*
X52330Y-26026D01*
X52442Y-25858D01*
X52482Y-25660D01*
X52482Y-25354D01*
X52442Y-25156D01*
X52330Y-24989D01*
X52162Y-24876D01*
X51964Y-24837D01*
X51766Y-24876D01*
X51738Y-24895D01*
X51936Y-24697D01*
X52322Y-24697D01*
X55110Y-24697D01*
X55332Y-24919D01*
X55304Y-24907D01*
X55244Y-24907D01*
X54624Y-24907D01*
X54569Y-24930D01*
X54527Y-24972D01*
X54504Y-25027D01*
X54504Y-25087D01*
X54504Y-25987D01*
X54527Y-26042D01*
X54569Y-26084D01*
X54624Y-26107D01*
X54684Y-26107D01*
X55304Y-26107D01*
X55359Y-26085D01*
X55401Y-26042D01*
X55424Y-25987D01*
X55424Y-25928D01*
X55424Y-25028D01*
X55412Y-24999D01*
X55558Y-25145D01*
X55558Y-26515D01*
X55558Y-26614D01*
X55574Y-26694D01*
X55619Y-26761D01*
X55875Y-27017D01*
X55875Y-27017D01*
X55943Y-27063D01*
X56023Y-27079D01*
X56023Y-27079D01*
X56023Y-27079D01*
X57637Y-27079D01*
X61240Y-27079D01*
X61320Y-27063D01*
X61387Y-27017D01*
X61700Y-26705D01*
X66338Y-26705D01*
X66418Y-26689D01*
X66486Y-26643D01*
X66519Y-26610D01*
X70394Y-26610D01*
X70439Y-26720D01*
X70597Y-26878D01*
X70652Y-26901D01*
X70598Y-26923D01*
X70439Y-27082D01*
X70354Y-27289D01*
X70353Y-27513D01*
X70439Y-27720D01*
X70597Y-27878D01*
X70652Y-27901D01*
X70598Y-27923D01*
X70439Y-28082D01*
X70394Y-28192D01*
X70062Y-28192D01*
X69982Y-28208D01*
X69915Y-28253D01*
X69915Y-28253D01*
X69523Y-28645D01*
X69126Y-28645D01*
X69126Y-27770D01*
X69043Y-27570D01*
X68891Y-27417D01*
X68691Y-27334D01*
X68475Y-27334D01*
X68275Y-27416D01*
X68122Y-27569D01*
X68039Y-27769D01*
X68038Y-27985D01*
X68121Y-28185D01*
X68274Y-28338D01*
X68474Y-28421D01*
X68690Y-28421D01*
X68890Y-28339D01*
X69043Y-28186D01*
X69126Y-27986D01*
X69126Y-27770D01*
X69126Y-28645D01*
X68196Y-28645D01*
X68156Y-28546D01*
X68003Y-28393D01*
X67803Y-28310D01*
X67715Y-28310D01*
X67862Y-28164D01*
X67944Y-27965D01*
X67945Y-27749D01*
X67862Y-27549D01*
X67709Y-27396D01*
X67510Y-27313D01*
X67293Y-27313D01*
X67094Y-27395D01*
X66941Y-27548D01*
X66858Y-27748D01*
X66857Y-27964D01*
X66940Y-28164D01*
X67093Y-28317D01*
X67292Y-28400D01*
X67380Y-28400D01*
X67234Y-28546D01*
X67151Y-28745D01*
X67151Y-28961D01*
X67234Y-29161D01*
X67387Y-29314D01*
X67586Y-29397D01*
X67802Y-29397D01*
X67674Y-29483D01*
X67565Y-29646D01*
X67527Y-29839D01*
X67527Y-29939D01*
X67565Y-30132D01*
X67674Y-30296D01*
X67838Y-30405D01*
X68031Y-30444D01*
X68224Y-30405D01*
X68388Y-30296D01*
X68497Y-30132D01*
X68535Y-29939D01*
X68535Y-29839D01*
X68497Y-29646D01*
X68388Y-29483D01*
X68224Y-29373D01*
X68031Y-29335D01*
X67882Y-29365D01*
X68002Y-29315D01*
X68155Y-29162D01*
X68196Y-29063D01*
X69610Y-29063D01*
X69690Y-29047D01*
X69758Y-29002D01*
X70149Y-28610D01*
X70394Y-28610D01*
X70439Y-28720D01*
X70585Y-28866D01*
X70566Y-28874D01*
X70391Y-29049D01*
X70296Y-29277D01*
X70296Y-29524D01*
X70390Y-29752D01*
X70565Y-29927D01*
X70622Y-29951D01*
X70634Y-30010D01*
X70701Y-30110D01*
X71072Y-30481D01*
X71072Y-30501D01*
X70530Y-30501D01*
X69559Y-31472D01*
X69559Y-29939D01*
X69559Y-29839D01*
X69521Y-29646D01*
X69411Y-29483D01*
X69248Y-29373D01*
X69055Y-29335D01*
X68862Y-29373D01*
X68698Y-29483D01*
X68589Y-29646D01*
X68550Y-29839D01*
X68550Y-29939D01*
X68589Y-30132D01*
X68698Y-30296D01*
X68862Y-30405D01*
X69055Y-30444D01*
X69248Y-30405D01*
X69411Y-30296D01*
X69521Y-30132D01*
X69559Y-29939D01*
X69559Y-31472D01*
X68209Y-32822D01*
X66925Y-32822D01*
X66925Y-29779D01*
X66850Y-29576D01*
X66826Y-29540D01*
X66743Y-29500D01*
X66743Y-29500D01*
X66743Y-29500D01*
X66724Y-29460D01*
X66724Y-27749D01*
X66642Y-27549D01*
X66489Y-27396D01*
X66289Y-27313D01*
X66073Y-27313D01*
X65873Y-27395D01*
X65724Y-27544D01*
X65706Y-27502D01*
X65537Y-27333D01*
X65316Y-27241D01*
X65077Y-27241D01*
X64856Y-27332D01*
X64687Y-27501D01*
X64672Y-27536D01*
X64622Y-27536D01*
X64428Y-27342D01*
X64329Y-27276D01*
X64212Y-27253D01*
X63862Y-27253D01*
X63858Y-27253D01*
X63267Y-27253D01*
X63228Y-27253D01*
X56574Y-27253D01*
X55511Y-27253D01*
X55394Y-27276D01*
X55295Y-27342D01*
X55295Y-27342D01*
X55295Y-27342D01*
X54750Y-27887D01*
X54598Y-27989D01*
X54486Y-28156D01*
X54447Y-28354D01*
X54447Y-28660D01*
X54486Y-28858D01*
X54583Y-29003D01*
X54261Y-29003D01*
X54289Y-28984D01*
X54389Y-28835D01*
X54424Y-28659D01*
X54424Y-28356D01*
X54424Y-25659D01*
X54424Y-25356D01*
X54389Y-25180D01*
X54289Y-25030D01*
X54140Y-24931D01*
X53964Y-24896D01*
X53788Y-24931D01*
X53639Y-25030D01*
X53539Y-25180D01*
X53504Y-25356D01*
X53504Y-25659D01*
X53539Y-25835D01*
X53639Y-25984D01*
X53788Y-26084D01*
X53964Y-26119D01*
X54140Y-26084D01*
X54289Y-25984D01*
X54389Y-25835D01*
X54424Y-25659D01*
X54424Y-28356D01*
X54389Y-28180D01*
X54289Y-28030D01*
X54140Y-27931D01*
X53964Y-27896D01*
X53788Y-27931D01*
X53639Y-28030D01*
X53539Y-28180D01*
X53504Y-28356D01*
X53504Y-28659D01*
X53539Y-28835D01*
X53639Y-28984D01*
X53667Y-29003D01*
X53424Y-29003D01*
X53424Y-25648D01*
X53424Y-25508D01*
X53424Y-25507D01*
X53424Y-25367D01*
X53389Y-25191D01*
X53289Y-25042D01*
X53140Y-24942D01*
X53036Y-24913D01*
X52964Y-24945D01*
X52964Y-25507D01*
X53424Y-25507D01*
X53424Y-25508D01*
X52964Y-25508D01*
X52964Y-26070D01*
X53036Y-26102D01*
X53140Y-26073D01*
X53289Y-25973D01*
X53389Y-25824D01*
X53424Y-25648D01*
X53424Y-29003D01*
X53261Y-29003D01*
X53289Y-28984D01*
X53389Y-28835D01*
X53424Y-28659D01*
X53424Y-28356D01*
X53389Y-28180D01*
X53289Y-28030D01*
X53140Y-27931D01*
X52964Y-27896D01*
X52964Y-27896D01*
X52964Y-26070D01*
X52964Y-25508D01*
X52964Y-25507D01*
X52964Y-24945D01*
X52892Y-24913D01*
X52788Y-24942D01*
X52639Y-25042D01*
X52539Y-25191D01*
X52504Y-25367D01*
X52504Y-25507D01*
X52964Y-25507D01*
X52964Y-25508D01*
X52504Y-25508D01*
X52504Y-25648D01*
X52539Y-25824D01*
X52639Y-25973D01*
X52788Y-26073D01*
X52892Y-26102D01*
X52964Y-26070D01*
X52964Y-27896D01*
X52788Y-27931D01*
X52639Y-28030D01*
X52539Y-28180D01*
X52504Y-28356D01*
X52504Y-28659D01*
X52539Y-28835D01*
X52639Y-28984D01*
X52667Y-29003D01*
X52261Y-29003D01*
X52289Y-28984D01*
X52389Y-28835D01*
X52424Y-28659D01*
X52424Y-28356D01*
X52389Y-28180D01*
X52289Y-28030D01*
X52140Y-27931D01*
X51964Y-27896D01*
X51788Y-27931D01*
X51639Y-28030D01*
X51539Y-28180D01*
X51504Y-28356D01*
X51504Y-28659D01*
X51539Y-28835D01*
X51639Y-28984D01*
X51755Y-29062D01*
X51755Y-29070D01*
X51771Y-29150D01*
X51816Y-29218D01*
X51958Y-29360D01*
X51958Y-29360D01*
X52026Y-29405D01*
X52093Y-29419D01*
X52106Y-29421D01*
X52106Y-29421D01*
X52106Y-29421D01*
X52834Y-29421D01*
X52684Y-29483D01*
X52531Y-29636D01*
X52448Y-29836D01*
X52448Y-30052D01*
X52530Y-30252D01*
X52683Y-30405D01*
X52883Y-30488D01*
X53099Y-30488D01*
X53299Y-30406D01*
X53452Y-30253D01*
X53467Y-30216D01*
X54262Y-30216D01*
X54367Y-30375D01*
X54531Y-30484D01*
X54724Y-30522D01*
X54917Y-30484D01*
X55081Y-30375D01*
X55190Y-30211D01*
X55228Y-30018D01*
X55228Y-29918D01*
X55190Y-29725D01*
X55081Y-29561D01*
X54917Y-29452D01*
X54762Y-29421D01*
X55789Y-29421D01*
X55633Y-29452D01*
X55470Y-29561D01*
X55360Y-29725D01*
X55322Y-29918D01*
X55322Y-30018D01*
X55360Y-30211D01*
X55470Y-30375D01*
X55633Y-30484D01*
X55826Y-30522D01*
X56019Y-30484D01*
X56183Y-30375D01*
X56292Y-30211D01*
X56331Y-30018D01*
X56331Y-29918D01*
X56292Y-29725D01*
X56183Y-29561D01*
X56019Y-29452D01*
X55864Y-29421D01*
X56948Y-29421D01*
X57028Y-29405D01*
X57096Y-29360D01*
X57425Y-29031D01*
X57519Y-29050D01*
X57712Y-29012D01*
X57876Y-28902D01*
X57985Y-28739D01*
X58024Y-28546D01*
X58024Y-28446D01*
X57985Y-28253D01*
X57876Y-28089D01*
X57712Y-27980D01*
X57519Y-27941D01*
X57326Y-27980D01*
X57176Y-28080D01*
X57176Y-28006D01*
X57117Y-27864D01*
X63228Y-27864D01*
X63267Y-27864D01*
X63556Y-27864D01*
X63556Y-27948D01*
X63496Y-27989D01*
X63384Y-28156D01*
X63344Y-28354D01*
X63344Y-28660D01*
X63384Y-28858D01*
X63496Y-29026D01*
X63520Y-29042D01*
X63314Y-29042D01*
X63215Y-28943D01*
X63287Y-28835D01*
X63322Y-28659D01*
X63322Y-28356D01*
X63287Y-28180D01*
X63187Y-28030D01*
X63038Y-27931D01*
X62862Y-27896D01*
X62686Y-27931D01*
X62536Y-28030D01*
X62437Y-28180D01*
X62402Y-28356D01*
X62402Y-28659D01*
X62437Y-28835D01*
X62536Y-28984D01*
X62686Y-29084D01*
X62785Y-29104D01*
X63080Y-29399D01*
X63080Y-29399D01*
X63148Y-29445D01*
X63228Y-29461D01*
X63357Y-29461D01*
X63265Y-29522D01*
X63156Y-29686D01*
X63117Y-29879D01*
X63117Y-29979D01*
X63156Y-30172D01*
X63265Y-30335D01*
X63429Y-30445D01*
X63622Y-30483D01*
X63815Y-30445D01*
X63978Y-30335D01*
X64087Y-30172D01*
X64126Y-29979D01*
X64126Y-29879D01*
X64087Y-29686D01*
X63978Y-29522D01*
X63886Y-29461D01*
X64386Y-29461D01*
X64308Y-29513D01*
X64199Y-29676D01*
X64160Y-29869D01*
X64160Y-29909D01*
X64665Y-29909D01*
X64665Y-29901D01*
X64665Y-29901D01*
X64665Y-29909D01*
X65170Y-29909D01*
X65170Y-29869D01*
X65131Y-29676D01*
X65022Y-29513D01*
X64858Y-29403D01*
X64837Y-29397D01*
X65002Y-29397D01*
X65202Y-29315D01*
X65355Y-29162D01*
X65438Y-28962D01*
X65438Y-28746D01*
X65356Y-28546D01*
X65253Y-28443D01*
X65315Y-28443D01*
X65536Y-28352D01*
X65706Y-28183D01*
X65717Y-28157D01*
X65720Y-28164D01*
X65872Y-28317D01*
X66072Y-28400D01*
X66288Y-28400D01*
X66488Y-28317D01*
X66641Y-28164D01*
X66724Y-27965D01*
X66724Y-27749D01*
X66724Y-29460D01*
X66703Y-29417D01*
X66507Y-29326D01*
X66290Y-29318D01*
X66087Y-29393D01*
X66052Y-29417D01*
X66012Y-29500D01*
X66377Y-29865D01*
X66743Y-29500D01*
X66743Y-29500D01*
X66378Y-29866D01*
X66743Y-30231D01*
X66826Y-30192D01*
X66917Y-29995D01*
X66925Y-29779D01*
X66925Y-32822D01*
X66921Y-32822D01*
X66921Y-31758D01*
X66839Y-31558D01*
X66743Y-31462D01*
X66743Y-30231D01*
X66377Y-29866D01*
X66377Y-29866D01*
X66377Y-29866D01*
X66012Y-29500D01*
X65929Y-29540D01*
X65838Y-29736D01*
X65830Y-29953D01*
X65905Y-30156D01*
X65929Y-30192D01*
X66012Y-30231D01*
X66377Y-29866D01*
X66377Y-29866D01*
X66012Y-30231D01*
X66052Y-30315D01*
X66248Y-30405D01*
X66464Y-30414D01*
X66667Y-30339D01*
X66703Y-30315D01*
X66743Y-30231D01*
X66743Y-31462D01*
X66686Y-31405D01*
X66486Y-31322D01*
X66270Y-31322D01*
X66070Y-31404D01*
X65917Y-31557D01*
X65834Y-31757D01*
X65834Y-31973D01*
X65916Y-32173D01*
X66069Y-32326D01*
X66269Y-32409D01*
X66485Y-32409D01*
X66685Y-32327D01*
X66838Y-32174D01*
X66921Y-31974D01*
X66921Y-31758D01*
X66921Y-32822D01*
X65170Y-32822D01*
X65170Y-29949D01*
X65170Y-29909D01*
X64665Y-29909D01*
X64665Y-30415D01*
X64744Y-30447D01*
X64858Y-30415D01*
X65022Y-30305D01*
X65131Y-30142D01*
X65170Y-29949D01*
X65170Y-32822D01*
X64665Y-32822D01*
X64665Y-30415D01*
X64665Y-29909D01*
X64160Y-29909D01*
X64160Y-29949D01*
X64199Y-30142D01*
X64308Y-30305D01*
X64472Y-30415D01*
X64586Y-30447D01*
X64665Y-30415D01*
X64665Y-32822D01*
X63063Y-32822D01*
X63063Y-29979D01*
X63063Y-29879D01*
X63024Y-29686D01*
X62915Y-29522D01*
X62752Y-29413D01*
X62559Y-29374D01*
X62366Y-29413D01*
X62322Y-29442D01*
X62322Y-28659D01*
X62322Y-28356D01*
X62287Y-28180D01*
X62187Y-28030D01*
X62038Y-27931D01*
X61862Y-27896D01*
X61686Y-27931D01*
X61536Y-28030D01*
X61437Y-28180D01*
X61402Y-28356D01*
X61402Y-28659D01*
X61437Y-28835D01*
X61536Y-28984D01*
X61613Y-29036D01*
X61613Y-29058D01*
X61322Y-29350D01*
X61322Y-28659D01*
X61322Y-28356D01*
X61287Y-28180D01*
X61187Y-28030D01*
X61038Y-27931D01*
X60862Y-27896D01*
X60686Y-27931D01*
X60536Y-28030D01*
X60437Y-28180D01*
X60402Y-28356D01*
X60402Y-28659D01*
X60437Y-28835D01*
X60536Y-28984D01*
X60686Y-29084D01*
X60862Y-29119D01*
X61038Y-29084D01*
X61187Y-28984D01*
X61287Y-28835D01*
X61322Y-28659D01*
X61322Y-29350D01*
X61141Y-29530D01*
X61095Y-29484D01*
X60896Y-29401D01*
X60679Y-29401D01*
X60479Y-29483D01*
X60326Y-29636D01*
X60243Y-29836D01*
X60243Y-30052D01*
X60326Y-30252D01*
X60479Y-30405D01*
X60678Y-30488D01*
X60895Y-30488D01*
X61094Y-30406D01*
X61248Y-30253D01*
X61331Y-30053D01*
X61331Y-30043D01*
X62037Y-29337D01*
X62037Y-29337D01*
X62073Y-29283D01*
X62091Y-29256D01*
X62091Y-29256D01*
X62110Y-29161D01*
X62110Y-29161D01*
X62110Y-29036D01*
X62187Y-28984D01*
X62287Y-28835D01*
X62322Y-28659D01*
X62322Y-29442D01*
X62202Y-29522D01*
X62093Y-29686D01*
X62054Y-29879D01*
X62054Y-29979D01*
X62093Y-30172D01*
X62202Y-30335D01*
X62366Y-30445D01*
X62559Y-30483D01*
X62752Y-30445D01*
X62915Y-30335D01*
X63024Y-30172D01*
X63063Y-29979D01*
X63063Y-32822D01*
X61515Y-32822D01*
X61435Y-32838D01*
X61367Y-32883D01*
X61367Y-32883D01*
X61331Y-32920D01*
X61331Y-31837D01*
X61248Y-31637D01*
X61095Y-31484D01*
X60896Y-31401D01*
X60679Y-31401D01*
X60479Y-31483D01*
X60326Y-31636D01*
X60243Y-31836D01*
X60243Y-32052D01*
X60326Y-32252D01*
X60479Y-32405D01*
X60678Y-32488D01*
X60895Y-32488D01*
X61094Y-32406D01*
X61248Y-32253D01*
X61331Y-32053D01*
X61331Y-31837D01*
X61331Y-32920D01*
X61326Y-32924D01*
X61317Y-32920D01*
X61163Y-32920D01*
X61021Y-32979D01*
X60912Y-33088D01*
X60854Y-33229D01*
X60853Y-33383D01*
X60912Y-33525D01*
X60918Y-33531D01*
X60071Y-33531D01*
X60071Y-28546D01*
X60071Y-28446D01*
X60032Y-28253D01*
X59923Y-28089D01*
X59759Y-27980D01*
X59566Y-27941D01*
X59373Y-27980D01*
X59210Y-28089D01*
X59100Y-28253D01*
X59062Y-28446D01*
X59062Y-28546D01*
X59100Y-28739D01*
X59210Y-28902D01*
X59373Y-29012D01*
X59566Y-29050D01*
X59759Y-29012D01*
X59923Y-28902D01*
X60032Y-28739D01*
X60071Y-28546D01*
X60071Y-33531D01*
X59966Y-33531D01*
X59911Y-33553D01*
X59868Y-33596D01*
X59846Y-33651D01*
X59846Y-33710D01*
X59846Y-34695D01*
X59868Y-34750D01*
X59910Y-34792D01*
X59966Y-34815D01*
X60025Y-34815D01*
X60180Y-34815D01*
X60180Y-36121D01*
X60090Y-36211D01*
X60007Y-36411D01*
X60007Y-36526D01*
X59310Y-37223D01*
X59248Y-37315D01*
X59248Y-36432D01*
X59187Y-36268D01*
X59187Y-34034D01*
X59130Y-33895D01*
X59130Y-29857D01*
X59055Y-29654D01*
X59047Y-29642D01*
X59047Y-28546D01*
X59047Y-28446D01*
X59009Y-28253D01*
X58899Y-28089D01*
X58736Y-27980D01*
X58543Y-27941D01*
X58350Y-27980D01*
X58186Y-28089D01*
X58077Y-28253D01*
X58038Y-28446D01*
X58038Y-28546D01*
X58077Y-28739D01*
X58186Y-28902D01*
X58350Y-29012D01*
X58543Y-29050D01*
X58736Y-29012D01*
X58899Y-28902D01*
X59009Y-28739D01*
X59047Y-28546D01*
X59047Y-29642D01*
X59031Y-29618D01*
X58948Y-29579D01*
X58948Y-29579D01*
X58948Y-29579D01*
X58908Y-29495D01*
X58711Y-29405D01*
X58495Y-29396D01*
X58292Y-29471D01*
X58256Y-29495D01*
X58217Y-29579D01*
X58582Y-29944D01*
X58948Y-29579D01*
X58948Y-29579D01*
X58582Y-29944D01*
X58948Y-30310D01*
X59031Y-30270D01*
X59122Y-30074D01*
X59130Y-29857D01*
X59130Y-33895D01*
X59126Y-33885D01*
X59126Y-31837D01*
X59043Y-31637D01*
X58948Y-31541D01*
X58948Y-30310D01*
X58582Y-29945D01*
X58582Y-29945D01*
X58582Y-29944D01*
X58216Y-29579D01*
X58133Y-29618D01*
X58043Y-29815D01*
X58034Y-30031D01*
X58109Y-30234D01*
X58133Y-30270D01*
X58216Y-30310D01*
X58582Y-29944D01*
X58582Y-29945D01*
X58217Y-30310D01*
X58256Y-30393D01*
X58453Y-30484D01*
X58669Y-30492D01*
X58872Y-30417D01*
X58908Y-30393D01*
X58948Y-30310D01*
X58948Y-31541D01*
X58891Y-31484D01*
X58691Y-31401D01*
X58475Y-31401D01*
X58275Y-31483D01*
X58122Y-31636D01*
X58039Y-31836D01*
X58038Y-32052D01*
X58121Y-32252D01*
X58274Y-32405D01*
X58373Y-32446D01*
X58373Y-32452D01*
X57433Y-33392D01*
X57433Y-30008D01*
X57433Y-29968D01*
X57433Y-29968D01*
X57433Y-29928D01*
X57395Y-29735D01*
X57285Y-29572D01*
X57122Y-29462D01*
X57008Y-29430D01*
X56929Y-29462D01*
X56929Y-29968D01*
X57433Y-29968D01*
X57433Y-29968D01*
X56929Y-29968D01*
X56929Y-30474D01*
X57008Y-30506D01*
X57122Y-30474D01*
X57285Y-30364D01*
X57395Y-30201D01*
X57433Y-30008D01*
X57433Y-33392D01*
X57273Y-33553D01*
X57122Y-33452D01*
X56929Y-33414D01*
X56928Y-33414D01*
X56928Y-30474D01*
X56928Y-29968D01*
X56928Y-29968D01*
X56928Y-29462D01*
X56849Y-29430D01*
X56736Y-29462D01*
X56572Y-29572D01*
X56462Y-29735D01*
X56424Y-29928D01*
X56424Y-29968D01*
X56928Y-29968D01*
X56928Y-29968D01*
X56424Y-29968D01*
X56424Y-30008D01*
X56462Y-30201D01*
X56572Y-30364D01*
X56736Y-30474D01*
X56849Y-30506D01*
X56928Y-30474D01*
X56928Y-33414D01*
X56736Y-33452D01*
X56572Y-33561D01*
X56463Y-33725D01*
X56424Y-33918D01*
X56424Y-34018D01*
X56463Y-34211D01*
X56572Y-34375D01*
X56736Y-34484D01*
X56929Y-34522D01*
X57122Y-34484D01*
X57285Y-34375D01*
X57395Y-34211D01*
X57433Y-34018D01*
X57433Y-33984D01*
X58730Y-32687D01*
X58775Y-32619D01*
X58791Y-32539D01*
X58791Y-32446D01*
X58890Y-32406D01*
X59043Y-32253D01*
X59126Y-32053D01*
X59126Y-31837D01*
X59126Y-33885D01*
X59081Y-33777D01*
X58885Y-33580D01*
X58627Y-33473D01*
X58349Y-33473D01*
X58092Y-33579D01*
X57895Y-33776D01*
X57788Y-34033D01*
X57788Y-34311D01*
X57894Y-34569D01*
X58091Y-34765D01*
X58348Y-34872D01*
X58626Y-34872D01*
X58883Y-34766D01*
X59080Y-34570D01*
X59187Y-34312D01*
X59187Y-34034D01*
X59187Y-36268D01*
X59173Y-36229D01*
X59149Y-36193D01*
X59066Y-36154D01*
X59066Y-36154D01*
X59066Y-36153D01*
X59026Y-36070D01*
X58830Y-35980D01*
X58613Y-35971D01*
X58410Y-36046D01*
X58374Y-36070D01*
X58335Y-36153D01*
X58700Y-36519D01*
X59066Y-36153D01*
X59066Y-36154D01*
X58701Y-36519D01*
X59066Y-36885D01*
X59149Y-36845D01*
X59240Y-36648D01*
X59248Y-36432D01*
X59248Y-37315D01*
X59243Y-37323D01*
X59220Y-37440D01*
X59220Y-38352D01*
X59161Y-38212D01*
X59066Y-38116D01*
X59066Y-36885D01*
X58700Y-36519D01*
X58700Y-36520D01*
X58700Y-36519D01*
X58334Y-36154D01*
X58251Y-36193D01*
X58161Y-36390D01*
X58152Y-36606D01*
X58227Y-36809D01*
X58251Y-36845D01*
X58334Y-36885D01*
X58700Y-36519D01*
X58700Y-36520D01*
X58335Y-36885D01*
X58374Y-36968D01*
X58571Y-37059D01*
X58787Y-37067D01*
X58990Y-36992D01*
X59026Y-36968D01*
X59066Y-36885D01*
X59066Y-38116D01*
X59009Y-38059D01*
X58809Y-37976D01*
X58593Y-37975D01*
X58393Y-38058D01*
X58240Y-38211D01*
X58157Y-38411D01*
X58156Y-38627D01*
X58239Y-38827D01*
X58392Y-38980D01*
X58592Y-39063D01*
X58808Y-39063D01*
X58808Y-39063D01*
X58629Y-39243D01*
X58562Y-39342D01*
X58558Y-39364D01*
X58558Y-39364D01*
X58503Y-39400D01*
X58398Y-39557D01*
X58361Y-39743D01*
X58361Y-40083D01*
X58398Y-40268D01*
X58503Y-40426D01*
X58660Y-40531D01*
X58690Y-40537D01*
X58690Y-40766D01*
X58331Y-41125D01*
X58331Y-40071D01*
X58331Y-39913D01*
X58331Y-39913D01*
X58331Y-39755D01*
X58294Y-39570D01*
X58189Y-39412D01*
X58031Y-39307D01*
X57922Y-39276D01*
X57846Y-39308D01*
X57846Y-39913D01*
X58331Y-39913D01*
X58331Y-39913D01*
X57846Y-39913D01*
X57846Y-40518D01*
X57922Y-40549D01*
X58031Y-40519D01*
X58189Y-40413D01*
X58294Y-40256D01*
X58331Y-40071D01*
X58331Y-41125D01*
X57932Y-41524D01*
X57846Y-41524D01*
X57846Y-40518D01*
X57846Y-39913D01*
X57846Y-39913D01*
X57846Y-39308D01*
X57770Y-39276D01*
X57661Y-39307D01*
X57503Y-39412D01*
X57433Y-39517D01*
X57433Y-38266D01*
X57350Y-38066D01*
X57198Y-37913D01*
X57103Y-37874D01*
X57197Y-37835D01*
X57350Y-37682D01*
X57433Y-37482D01*
X57433Y-37266D01*
X57350Y-37066D01*
X57198Y-36913D01*
X57150Y-36893D01*
X57150Y-35885D01*
X57075Y-35682D01*
X57051Y-35646D01*
X56968Y-35606D01*
X56967Y-35607D01*
X56967Y-35606D01*
X56928Y-35523D01*
X56731Y-35432D01*
X56515Y-35424D01*
X56312Y-35499D01*
X56276Y-35523D01*
X56236Y-35606D01*
X56602Y-35972D01*
X56967Y-35606D01*
X56967Y-35607D01*
X56602Y-35972D01*
X56968Y-36337D01*
X57051Y-36298D01*
X57141Y-36101D01*
X57150Y-35885D01*
X57150Y-36893D01*
X56998Y-36830D01*
X56967Y-36830D01*
X56967Y-36338D01*
X56602Y-35972D01*
X56602Y-35972D01*
X56602Y-35972D01*
X56236Y-35606D01*
X56153Y-35646D01*
X56102Y-35758D01*
X56063Y-35664D01*
X55972Y-35573D01*
X56037Y-35573D01*
X56113Y-35542D01*
X56171Y-35483D01*
X56203Y-35407D01*
X56203Y-35325D01*
X56203Y-34537D01*
X56172Y-34461D01*
X56124Y-34414D01*
X56183Y-34375D01*
X56292Y-34211D01*
X56331Y-34018D01*
X56331Y-33918D01*
X56292Y-33725D01*
X56183Y-33561D01*
X56019Y-33452D01*
X55826Y-33414D01*
X55633Y-33452D01*
X55470Y-33561D01*
X55360Y-33725D01*
X55322Y-33918D01*
X55322Y-34018D01*
X55360Y-34211D01*
X55467Y-34371D01*
X55228Y-34371D01*
X55228Y-34018D01*
X55228Y-33918D01*
X55190Y-33725D01*
X55081Y-33561D01*
X54917Y-33452D01*
X54724Y-33414D01*
X54531Y-33452D01*
X54367Y-33561D01*
X54258Y-33725D01*
X54220Y-33918D01*
X54220Y-34018D01*
X54258Y-34211D01*
X54367Y-34375D01*
X54531Y-34484D01*
X54724Y-34522D01*
X54917Y-34484D01*
X55081Y-34375D01*
X55190Y-34211D01*
X55228Y-34018D01*
X55228Y-34371D01*
X55167Y-34371D01*
X55091Y-34402D01*
X55032Y-34461D01*
X55001Y-34537D01*
X55001Y-34619D01*
X55001Y-35407D01*
X55032Y-35483D01*
X55090Y-35541D01*
X55167Y-35573D01*
X55232Y-35573D01*
X55141Y-35664D01*
X55058Y-35863D01*
X55058Y-36080D01*
X55141Y-36280D01*
X55293Y-36433D01*
X55493Y-36516D01*
X55710Y-36516D01*
X55909Y-36433D01*
X56063Y-36280D01*
X56101Y-36187D01*
X56129Y-36262D01*
X56153Y-36298D01*
X56236Y-36337D01*
X56602Y-35972D01*
X56602Y-35972D01*
X56236Y-36338D01*
X56276Y-36421D01*
X56473Y-36511D01*
X56689Y-36520D01*
X56892Y-36445D01*
X56928Y-36421D01*
X56967Y-36338D01*
X56967Y-36830D01*
X56782Y-36830D01*
X56582Y-36912D01*
X56429Y-37065D01*
X56346Y-37265D01*
X56345Y-37481D01*
X56428Y-37681D01*
X56581Y-37834D01*
X56676Y-37874D01*
X56582Y-37912D01*
X56429Y-38065D01*
X56346Y-38265D01*
X56345Y-38481D01*
X56428Y-38681D01*
X56581Y-38834D01*
X56781Y-38917D01*
X56997Y-38917D01*
X57197Y-38835D01*
X57350Y-38682D01*
X57433Y-38482D01*
X57433Y-38266D01*
X57433Y-39517D01*
X57398Y-39570D01*
X57361Y-39755D01*
X57361Y-39913D01*
X57846Y-39913D01*
X57846Y-39913D01*
X57361Y-39913D01*
X57361Y-40071D01*
X57398Y-40256D01*
X57503Y-40413D01*
X57661Y-40519D01*
X57770Y-40549D01*
X57846Y-40518D01*
X57846Y-41524D01*
X57331Y-41524D01*
X57331Y-40083D01*
X57331Y-39743D01*
X57294Y-39557D01*
X57189Y-39400D01*
X57031Y-39295D01*
X56846Y-39258D01*
X56660Y-39295D01*
X56503Y-39400D01*
X56398Y-39557D01*
X56361Y-39743D01*
X56361Y-40083D01*
X56398Y-40268D01*
X56503Y-40426D01*
X56660Y-40531D01*
X56846Y-40568D01*
X57031Y-40531D01*
X57189Y-40426D01*
X57294Y-40268D01*
X57331Y-40083D01*
X57331Y-41524D01*
X56331Y-41524D01*
X56331Y-40083D01*
X56331Y-39743D01*
X56294Y-39557D01*
X56189Y-39400D01*
X56031Y-39295D01*
X55846Y-39258D01*
X55720Y-39283D01*
X55720Y-38895D01*
X55720Y-38186D01*
X55697Y-38131D01*
X55655Y-38089D01*
X55600Y-38066D01*
X55541Y-38066D01*
X55263Y-38066D01*
X55409Y-38037D01*
X55573Y-37927D01*
X55682Y-37763D01*
X55714Y-37650D01*
X55714Y-37491D01*
X55682Y-37377D01*
X55573Y-37213D01*
X55409Y-37104D01*
X55216Y-37065D01*
X55078Y-37065D01*
X55078Y-37570D01*
X55683Y-37570D01*
X55714Y-37491D01*
X55714Y-37650D01*
X55683Y-37571D01*
X55078Y-37571D01*
X55078Y-37578D01*
X55078Y-37578D01*
X55078Y-37571D01*
X55078Y-37570D01*
X55078Y-37065D01*
X54941Y-37065D01*
X54747Y-37104D01*
X54584Y-37213D01*
X54474Y-37377D01*
X54442Y-37491D01*
X54473Y-37570D01*
X55078Y-37570D01*
X55078Y-37571D01*
X54473Y-37571D01*
X54442Y-37650D01*
X54474Y-37763D01*
X54584Y-37927D01*
X54747Y-38037D01*
X54893Y-38066D01*
X54557Y-38066D01*
X54501Y-38089D01*
X54459Y-38131D01*
X54436Y-38186D01*
X54436Y-38246D01*
X54436Y-38955D01*
X54459Y-39010D01*
X54501Y-39052D01*
X54556Y-39075D01*
X54616Y-39075D01*
X55600Y-39075D01*
X55655Y-39052D01*
X55697Y-39010D01*
X55720Y-38955D01*
X55720Y-38895D01*
X55720Y-39283D01*
X55660Y-39295D01*
X55503Y-39400D01*
X55398Y-39557D01*
X55361Y-39743D01*
X55361Y-40083D01*
X55398Y-40268D01*
X55503Y-40426D01*
X55660Y-40531D01*
X55846Y-40568D01*
X56031Y-40531D01*
X56189Y-40426D01*
X56294Y-40268D01*
X56331Y-40083D01*
X56331Y-41524D01*
X55331Y-41524D01*
X55331Y-40083D01*
X55331Y-39743D01*
X55294Y-39557D01*
X55189Y-39400D01*
X55031Y-39295D01*
X54846Y-39258D01*
X54660Y-39295D01*
X54503Y-39400D01*
X54398Y-39557D01*
X54398Y-39561D01*
X54398Y-34967D01*
X54300Y-34731D01*
X54120Y-34550D01*
X53884Y-34452D01*
X53628Y-34452D01*
X53535Y-34490D01*
X53535Y-31837D01*
X53453Y-31637D01*
X53300Y-31484D01*
X53100Y-31401D01*
X52884Y-31401D01*
X52684Y-31483D01*
X52531Y-31636D01*
X52448Y-31836D01*
X52448Y-32052D01*
X52530Y-32252D01*
X52683Y-32405D01*
X52796Y-32452D01*
X52628Y-32452D01*
X52392Y-32549D01*
X52211Y-32730D01*
X52114Y-32966D01*
X52113Y-33221D01*
X52211Y-33457D01*
X52391Y-33638D01*
X52627Y-33736D01*
X52883Y-33736D01*
X53119Y-33639D01*
X53299Y-33458D01*
X53397Y-33222D01*
X53398Y-32967D01*
X53300Y-32731D01*
X53120Y-32550D01*
X52970Y-32488D01*
X53099Y-32488D01*
X53299Y-32406D01*
X53452Y-32253D01*
X53535Y-32053D01*
X53535Y-31837D01*
X53535Y-34490D01*
X53392Y-34549D01*
X53211Y-34730D01*
X53114Y-34966D01*
X53113Y-35221D01*
X53211Y-35457D01*
X53391Y-35638D01*
X53546Y-35702D01*
X53546Y-37354D01*
X53339Y-37562D01*
X53339Y-36293D01*
X53256Y-36093D01*
X53103Y-35940D01*
X52903Y-35857D01*
X52687Y-35857D01*
X52487Y-35940D01*
X52398Y-36029D01*
X52398Y-34967D01*
X52300Y-34731D01*
X52120Y-34550D01*
X51884Y-34452D01*
X51628Y-34452D01*
X51488Y-34510D01*
X51488Y-31837D01*
X51488Y-29837D01*
X51406Y-29637D01*
X51253Y-29484D01*
X51053Y-29401D01*
X50837Y-29401D01*
X50637Y-29483D01*
X50484Y-29636D01*
X50401Y-29836D01*
X50401Y-30052D01*
X50483Y-30252D01*
X50636Y-30405D01*
X50836Y-30488D01*
X51052Y-30488D01*
X51252Y-30406D01*
X51405Y-30253D01*
X51488Y-30053D01*
X51488Y-29837D01*
X51488Y-31837D01*
X51406Y-31637D01*
X51253Y-31484D01*
X51053Y-31401D01*
X50837Y-31401D01*
X50637Y-31483D01*
X50484Y-31636D01*
X50401Y-31836D01*
X50401Y-32052D01*
X50483Y-32252D01*
X50636Y-32405D01*
X50836Y-32488D01*
X51052Y-32488D01*
X51252Y-32406D01*
X51405Y-32253D01*
X51488Y-32053D01*
X51488Y-31837D01*
X51488Y-34510D01*
X51484Y-34511D01*
X51484Y-33046D01*
X51387Y-32810D01*
X51206Y-32629D01*
X50970Y-32531D01*
X50715Y-32531D01*
X50479Y-32628D01*
X50298Y-32809D01*
X50200Y-33044D01*
X50200Y-33300D01*
X50297Y-33536D01*
X50478Y-33717D01*
X50714Y-33815D01*
X50969Y-33815D01*
X51205Y-33717D01*
X51386Y-33537D01*
X51484Y-33301D01*
X51484Y-33046D01*
X51484Y-34511D01*
X51392Y-34549D01*
X51211Y-34730D01*
X51114Y-34966D01*
X51113Y-35221D01*
X51211Y-35457D01*
X51391Y-35638D01*
X51627Y-35736D01*
X51883Y-35736D01*
X52119Y-35639D01*
X52299Y-35458D01*
X52397Y-35222D01*
X52398Y-34967D01*
X52398Y-36029D01*
X52334Y-36093D01*
X52251Y-36292D01*
X52251Y-36509D01*
X52334Y-36709D01*
X52486Y-36862D01*
X52686Y-36945D01*
X52902Y-36945D01*
X53102Y-36862D01*
X53255Y-36709D01*
X53338Y-36510D01*
X53339Y-36293D01*
X53339Y-37562D01*
X53002Y-37898D01*
X52903Y-37857D01*
X52687Y-37857D01*
X52487Y-37940D01*
X52334Y-38093D01*
X52251Y-38292D01*
X52251Y-38509D01*
X52334Y-38709D01*
X52486Y-38862D01*
X52686Y-38945D01*
X52902Y-38945D01*
X53102Y-38862D01*
X53255Y-38709D01*
X53338Y-38510D01*
X53339Y-38293D01*
X53297Y-38194D01*
X53903Y-37588D01*
X53949Y-37520D01*
X53964Y-37440D01*
X53964Y-35702D01*
X54119Y-35639D01*
X54299Y-35458D01*
X54397Y-35222D01*
X54398Y-34967D01*
X54398Y-39561D01*
X54361Y-39743D01*
X54361Y-40083D01*
X54398Y-40268D01*
X54503Y-40426D01*
X54660Y-40531D01*
X54846Y-40568D01*
X55031Y-40531D01*
X55189Y-40426D01*
X55294Y-40268D01*
X55331Y-40083D01*
X55331Y-41524D01*
X54331Y-41524D01*
X54331Y-40083D01*
X54331Y-39743D01*
X54294Y-39557D01*
X54189Y-39400D01*
X54031Y-39295D01*
X53846Y-39258D01*
X53660Y-39295D01*
X53503Y-39400D01*
X53398Y-39557D01*
X53361Y-39743D01*
X53361Y-40083D01*
X53398Y-40268D01*
X53503Y-40426D01*
X53660Y-40531D01*
X53846Y-40568D01*
X54031Y-40531D01*
X54189Y-40426D01*
X54294Y-40268D01*
X54331Y-40083D01*
X54331Y-41524D01*
X53331Y-41524D01*
X53331Y-40083D01*
X53331Y-39743D01*
X53294Y-39557D01*
X53189Y-39400D01*
X53031Y-39295D01*
X52846Y-39258D01*
X52660Y-39295D01*
X52503Y-39400D01*
X52398Y-39557D01*
X52361Y-39743D01*
X52361Y-40083D01*
X52398Y-40268D01*
X52503Y-40426D01*
X52660Y-40531D01*
X52846Y-40568D01*
X53031Y-40531D01*
X53189Y-40426D01*
X53294Y-40268D01*
X53331Y-40083D01*
X53331Y-41524D01*
X52331Y-41524D01*
X52331Y-40083D01*
X52331Y-39743D01*
X52294Y-39557D01*
X52189Y-39400D01*
X52031Y-39295D01*
X51846Y-39258D01*
X51660Y-39295D01*
X51503Y-39400D01*
X51398Y-39557D01*
X51361Y-39743D01*
X51361Y-40083D01*
X51398Y-40268D01*
X51503Y-40426D01*
X51660Y-40531D01*
X51846Y-40568D01*
X52031Y-40531D01*
X52189Y-40426D01*
X52294Y-40268D01*
X52331Y-40083D01*
X52331Y-41524D01*
X51331Y-41524D01*
X51331Y-40083D01*
X51331Y-39743D01*
X51294Y-39557D01*
X51189Y-39400D01*
X51099Y-39340D01*
X51099Y-36314D01*
X51024Y-36111D01*
X51000Y-36075D01*
X50917Y-36036D01*
X50916Y-36036D01*
X50916Y-36035D01*
X50877Y-35952D01*
X50680Y-35862D01*
X50484Y-35854D01*
X50484Y-35046D01*
X50387Y-34810D01*
X50206Y-34629D01*
X49970Y-34531D01*
X49955Y-34531D01*
X49955Y-30866D01*
X49917Y-30673D01*
X49808Y-30509D01*
X49644Y-30400D01*
X49451Y-30361D01*
X49351Y-30361D01*
X49158Y-30400D01*
X48994Y-30509D01*
X48885Y-30673D01*
X48847Y-30866D01*
X48885Y-31059D01*
X48994Y-31222D01*
X49158Y-31332D01*
X49351Y-31370D01*
X49451Y-31370D01*
X49644Y-31332D01*
X49808Y-31222D01*
X49917Y-31059D01*
X49955Y-30866D01*
X49955Y-34531D01*
X49715Y-34531D01*
X49484Y-34626D01*
X49484Y-33046D01*
X49387Y-32810D01*
X49206Y-32629D01*
X48970Y-32531D01*
X48715Y-32531D01*
X48479Y-32628D01*
X48298Y-32809D01*
X48200Y-33044D01*
X48200Y-33300D01*
X48297Y-33536D01*
X48478Y-33717D01*
X48714Y-33815D01*
X48969Y-33815D01*
X49205Y-33717D01*
X49386Y-33537D01*
X49484Y-33301D01*
X49484Y-33046D01*
X49484Y-34626D01*
X49479Y-34628D01*
X49298Y-34809D01*
X49200Y-35044D01*
X49200Y-35300D01*
X49297Y-35536D01*
X49478Y-35717D01*
X49714Y-35815D01*
X49969Y-35815D01*
X50205Y-35717D01*
X50386Y-35537D01*
X50484Y-35301D01*
X50484Y-35046D01*
X50484Y-35854D01*
X50464Y-35853D01*
X50261Y-35928D01*
X50225Y-35952D01*
X50185Y-36035D01*
X50551Y-36401D01*
X50916Y-36035D01*
X50916Y-36036D01*
X50551Y-36401D01*
X50917Y-36767D01*
X51000Y-36727D01*
X51090Y-36530D01*
X51099Y-36314D01*
X51099Y-39340D01*
X51094Y-39337D01*
X51094Y-38293D01*
X51012Y-38093D01*
X50916Y-37998D01*
X50916Y-36767D01*
X50551Y-36401D01*
X50550Y-36402D01*
X50550Y-36401D01*
X50185Y-36036D01*
X50102Y-36075D01*
X50011Y-36272D01*
X50003Y-36488D01*
X50078Y-36691D01*
X50102Y-36727D01*
X50185Y-36767D01*
X50550Y-36401D01*
X50550Y-36402D01*
X50185Y-36767D01*
X50225Y-36850D01*
X50421Y-36941D01*
X50638Y-36949D01*
X50841Y-36874D01*
X50877Y-36850D01*
X50916Y-36767D01*
X50916Y-37998D01*
X50859Y-37940D01*
X50659Y-37857D01*
X50443Y-37857D01*
X50243Y-37940D01*
X50090Y-38093D01*
X50007Y-38292D01*
X50007Y-38509D01*
X50089Y-38709D01*
X50242Y-38862D01*
X50442Y-38945D01*
X50658Y-38945D01*
X50858Y-38862D01*
X51011Y-38709D01*
X51094Y-38510D01*
X51094Y-38293D01*
X51094Y-39337D01*
X51031Y-39295D01*
X50846Y-39258D01*
X50660Y-39295D01*
X50503Y-39400D01*
X50398Y-39557D01*
X50361Y-39743D01*
X50361Y-40083D01*
X50398Y-40268D01*
X50503Y-40426D01*
X50660Y-40531D01*
X50846Y-40568D01*
X51031Y-40531D01*
X51189Y-40426D01*
X51294Y-40268D01*
X51331Y-40083D01*
X51331Y-41524D01*
X50331Y-41524D01*
X50331Y-40083D01*
X50331Y-39743D01*
X50294Y-39557D01*
X50189Y-39400D01*
X50031Y-39295D01*
X49846Y-39258D01*
X49660Y-39295D01*
X49503Y-39400D01*
X49398Y-39557D01*
X49361Y-39743D01*
X49361Y-40083D01*
X49398Y-40268D01*
X49503Y-40426D01*
X49660Y-40531D01*
X49846Y-40568D01*
X50031Y-40531D01*
X50189Y-40426D01*
X50294Y-40268D01*
X50331Y-40083D01*
X50331Y-41524D01*
X49331Y-41524D01*
X49331Y-40083D01*
X49331Y-39743D01*
X49294Y-39557D01*
X49287Y-39548D01*
X49287Y-35678D01*
X49212Y-35475D01*
X49188Y-35439D01*
X49105Y-35399D01*
X49105Y-35400D01*
X49105Y-35399D01*
X49065Y-35316D01*
X48869Y-35226D01*
X48653Y-35217D01*
X48450Y-35292D01*
X48414Y-35316D01*
X48374Y-35399D01*
X48740Y-35765D01*
X49105Y-35399D01*
X49105Y-35400D01*
X48740Y-35765D01*
X49105Y-36130D01*
X49188Y-36091D01*
X49279Y-35894D01*
X49287Y-35678D01*
X49287Y-39548D01*
X49283Y-39542D01*
X49283Y-38457D01*
X49201Y-38257D01*
X49105Y-38162D01*
X49105Y-36131D01*
X48740Y-35765D01*
X48739Y-35765D01*
X48739Y-35765D01*
X48374Y-35399D01*
X48299Y-35435D01*
X48299Y-34664D01*
X48299Y-34564D01*
X48261Y-34371D01*
X48151Y-34207D01*
X47988Y-34098D01*
X47795Y-34059D01*
X47602Y-34098D01*
X47438Y-34207D01*
X47329Y-34371D01*
X47290Y-34564D01*
X47290Y-34664D01*
X47329Y-34857D01*
X47438Y-35020D01*
X47602Y-35130D01*
X47795Y-35168D01*
X47988Y-35130D01*
X48151Y-35020D01*
X48261Y-34857D01*
X48299Y-34664D01*
X48299Y-35435D01*
X48291Y-35439D01*
X48200Y-35636D01*
X48192Y-35852D01*
X48267Y-36055D01*
X48291Y-36091D01*
X48374Y-36130D01*
X48739Y-35765D01*
X48739Y-35765D01*
X48374Y-36131D01*
X48414Y-36214D01*
X48610Y-36304D01*
X48827Y-36313D01*
X49030Y-36238D01*
X49065Y-36214D01*
X49105Y-36131D01*
X49105Y-38162D01*
X49048Y-38104D01*
X48848Y-38021D01*
X48632Y-38021D01*
X48432Y-38104D01*
X48279Y-38257D01*
X48243Y-38344D01*
X48151Y-38207D01*
X47988Y-38098D01*
X47795Y-38059D01*
X47602Y-38098D01*
X47438Y-38207D01*
X47329Y-38371D01*
X47290Y-38564D01*
X47290Y-38664D01*
X47329Y-38857D01*
X47438Y-39020D01*
X47602Y-39130D01*
X47795Y-39168D01*
X47988Y-39130D01*
X48151Y-39020D01*
X48261Y-38857D01*
X48264Y-38838D01*
X48279Y-38872D01*
X48431Y-39025D01*
X48631Y-39108D01*
X48847Y-39108D01*
X49047Y-39026D01*
X49200Y-38873D01*
X49283Y-38673D01*
X49283Y-38457D01*
X49283Y-39542D01*
X49189Y-39400D01*
X49031Y-39295D01*
X48846Y-39258D01*
X48660Y-39295D01*
X48503Y-39400D01*
X48398Y-39557D01*
X48361Y-39743D01*
X48361Y-40083D01*
X48398Y-40268D01*
X48503Y-40426D01*
X48660Y-40531D01*
X48846Y-40568D01*
X49031Y-40531D01*
X49189Y-40426D01*
X49294Y-40268D01*
X49331Y-40083D01*
X49331Y-41524D01*
X48769Y-41524D01*
X48756Y-41455D01*
X48710Y-41387D01*
X46979Y-39655D01*
X46979Y-33286D01*
X46703Y-33010D01*
X46703Y-32992D01*
X46703Y-32992D01*
X46680Y-32875D01*
X46613Y-32775D01*
X46613Y-32775D01*
X46121Y-32283D01*
X46022Y-32217D01*
X45905Y-32194D01*
X45886Y-32194D01*
X45768Y-32075D01*
X45166Y-32075D01*
X44498Y-31408D01*
X44498Y-28986D01*
X44540Y-29029D01*
X44761Y-29120D01*
X45000Y-29120D01*
X45221Y-29029D01*
X45381Y-28870D01*
X45381Y-29015D01*
X45397Y-29095D01*
X45442Y-29163D01*
X45678Y-29399D01*
X45746Y-29445D01*
X45826Y-29461D01*
X46055Y-29461D01*
X46231Y-29637D01*
X46228Y-29647D01*
X46227Y-29800D01*
X46286Y-29942D01*
X46395Y-30051D01*
X46537Y-30110D01*
X46690Y-30110D01*
X46832Y-30052D01*
X46941Y-29943D01*
X47000Y-29801D01*
X47000Y-29647D01*
X46941Y-29505D01*
X46833Y-29397D01*
X46691Y-29338D01*
X46537Y-29338D01*
X46527Y-29342D01*
X46293Y-29107D01*
X46674Y-29107D01*
X46729Y-29085D01*
X46771Y-29042D01*
X46794Y-28987D01*
X46794Y-28928D01*
X46794Y-28028D01*
X46771Y-27973D01*
X46729Y-27930D01*
X46674Y-27907D01*
X46614Y-27907D01*
X45994Y-27907D01*
X45939Y-27930D01*
X45897Y-27972D01*
X45874Y-28027D01*
X45874Y-28087D01*
X45874Y-28987D01*
X45886Y-29015D01*
X45799Y-28929D01*
X45799Y-25244D01*
X45849Y-25194D01*
X45817Y-25354D01*
X45817Y-25660D01*
X45856Y-25858D01*
X45968Y-26026D01*
X46136Y-26138D01*
X46334Y-26178D01*
X46532Y-26138D01*
X46700Y-26026D01*
X46812Y-25858D01*
X46852Y-25660D01*
X46852Y-25354D01*
X46812Y-25156D01*
X46754Y-25069D01*
X46983Y-25069D01*
X46909Y-25180D01*
X46874Y-25356D01*
X46874Y-25659D01*
X46909Y-25835D01*
X47009Y-25984D01*
X47158Y-26084D01*
X47334Y-26119D01*
X47510Y-26084D01*
X47659Y-25984D01*
X47759Y-25835D01*
X47794Y-25659D01*
X47794Y-25356D01*
X47759Y-25180D01*
X47685Y-25069D01*
X47983Y-25069D01*
X47909Y-25180D01*
X47874Y-25356D01*
X47874Y-25659D01*
X47909Y-25835D01*
X48009Y-25984D01*
X48158Y-26084D01*
X48334Y-26119D01*
X48510Y-26084D01*
X48659Y-25984D01*
X48759Y-25835D01*
X48794Y-25659D01*
X48794Y-25356D01*
X48759Y-25180D01*
X48659Y-25030D01*
X48510Y-24931D01*
X48414Y-24911D01*
X49074Y-24251D01*
X49140Y-24152D01*
X49164Y-24035D01*
X49164Y-20835D01*
X49794Y-20205D01*
X51523Y-20205D01*
X51537Y-20239D01*
X51706Y-20408D01*
X51927Y-20500D01*
X52166Y-20500D01*
X52387Y-20408D01*
X52556Y-20240D01*
X52648Y-20019D01*
X52648Y-19780D01*
X52557Y-19559D01*
X52468Y-19470D01*
X52521Y-19470D01*
X52655Y-19604D01*
X52655Y-20462D01*
X52671Y-20542D01*
X52716Y-20610D01*
X53523Y-21417D01*
X53523Y-21417D01*
X53536Y-21426D01*
X51259Y-21426D01*
X51142Y-21449D01*
X51073Y-21495D01*
X51135Y-21433D01*
X51200Y-21277D01*
X51200Y-21108D01*
X51136Y-20952D01*
X51016Y-20832D01*
X50860Y-20767D01*
X50691Y-20767D01*
X50535Y-20832D01*
X50415Y-20951D01*
X50350Y-21108D01*
X50350Y-21277D01*
X50415Y-21433D01*
X50534Y-21553D01*
X50690Y-21617D01*
X50859Y-21617D01*
X50999Y-21560D01*
X50672Y-21887D01*
X50258Y-21887D01*
X50258Y-21876D01*
X50226Y-21800D01*
X50200Y-21774D01*
X50200Y-21108D01*
X50136Y-20952D01*
X50016Y-20832D01*
X49860Y-20767D01*
X49691Y-20767D01*
X49535Y-20832D01*
X49415Y-20951D01*
X49350Y-21108D01*
X49350Y-21277D01*
X49415Y-21433D01*
X49534Y-21553D01*
X49690Y-21617D01*
X49859Y-21617D01*
X50016Y-21553D01*
X50135Y-21433D01*
X50200Y-21277D01*
X50200Y-21108D01*
X50200Y-21774D01*
X50168Y-21742D01*
X50092Y-21710D01*
X50009Y-21710D01*
X49459Y-21710D01*
X49383Y-21741D01*
X49324Y-21800D01*
X49293Y-21876D01*
X49293Y-21959D01*
X49293Y-22509D01*
X49324Y-22585D01*
X49382Y-22643D01*
X49459Y-22675D01*
X49541Y-22675D01*
X50091Y-22675D01*
X50167Y-22643D01*
X50226Y-22585D01*
X50258Y-22509D01*
X50258Y-22498D01*
X50799Y-22498D01*
X50916Y-22475D01*
X51015Y-22409D01*
X51386Y-22038D01*
X59572Y-22038D01*
X59467Y-22108D01*
X59328Y-22316D01*
X59279Y-22562D01*
X59279Y-22988D01*
X59328Y-23234D01*
X59467Y-23442D01*
X59675Y-23582D01*
X59921Y-23631D01*
X60166Y-23582D01*
X60375Y-23442D01*
X60514Y-23234D01*
X60563Y-22988D01*
X60563Y-22562D01*
X60514Y-22316D01*
X60375Y-22108D01*
X60270Y-22038D01*
X61540Y-22038D01*
X61435Y-22108D01*
X61296Y-22316D01*
X61247Y-22562D01*
X61247Y-22988D01*
X61296Y-23234D01*
X61435Y-23442D01*
X61644Y-23582D01*
X61889Y-23631D01*
X62135Y-23582D01*
X62343Y-23442D01*
X62483Y-23234D01*
X62531Y-22988D01*
X62531Y-22562D01*
X62483Y-22316D01*
X62343Y-22108D01*
X62238Y-22038D01*
X63509Y-22038D01*
X63404Y-22108D01*
X63265Y-22316D01*
X63216Y-22562D01*
X63216Y-22988D01*
X63265Y-23234D01*
X63404Y-23442D01*
X63612Y-23582D01*
X63858Y-23631D01*
X64103Y-23582D01*
X64312Y-23442D01*
X64451Y-23234D01*
X64500Y-22988D01*
X64500Y-22818D01*
X64578Y-23006D01*
X64731Y-23159D01*
X64930Y-23242D01*
X65147Y-23242D01*
X65346Y-23160D01*
X65499Y-23007D01*
X65582Y-22807D01*
X65582Y-22591D01*
X65500Y-22391D01*
X65347Y-22238D01*
X65147Y-22155D01*
X64931Y-22155D01*
X64731Y-22238D01*
X64578Y-22390D01*
X64500Y-22579D01*
X64500Y-22562D01*
X64451Y-22316D01*
X64312Y-22108D01*
X64207Y-22038D01*
X65818Y-22038D01*
X66173Y-22393D01*
X66272Y-22459D01*
X66389Y-22483D01*
X66615Y-22483D01*
X66615Y-22493D01*
X66647Y-22569D01*
X66705Y-22627D01*
X66781Y-22659D01*
X66864Y-22659D01*
X67414Y-22659D01*
X67490Y-22628D01*
X67549Y-22569D01*
X67580Y-22493D01*
X67580Y-22411D01*
X67580Y-21861D01*
X67549Y-21784D01*
X67491Y-21726D01*
X67414Y-21694D01*
X67332Y-21694D01*
X66782Y-21694D01*
X66706Y-21726D01*
X66647Y-21784D01*
X66615Y-21860D01*
X66615Y-21871D01*
X66516Y-21871D01*
X66161Y-21515D01*
X66105Y-21478D01*
X67964Y-21478D01*
X68276Y-21791D01*
X68183Y-21752D01*
X68014Y-21752D01*
X67857Y-21816D01*
X67738Y-21936D01*
X67673Y-22092D01*
X67673Y-22261D01*
X67737Y-22417D01*
X67857Y-22537D01*
X68013Y-22602D01*
X68182Y-22602D01*
X68338Y-22537D01*
X68458Y-22418D01*
X68523Y-22262D01*
X68523Y-22092D01*
X68484Y-21998D01*
X68590Y-22104D01*
X68590Y-23267D01*
X68606Y-23347D01*
X68651Y-23415D01*
X69113Y-23878D01*
X69113Y-23878D01*
X69181Y-23923D01*
X69248Y-23936D01*
X69261Y-23939D01*
X69261Y-23939D01*
X69261Y-23939D01*
X71635Y-23939D01*
X72448Y-24751D01*
X72448Y-25212D01*
X72407Y-25101D01*
X72382Y-25063D01*
X72297Y-25021D01*
X72297Y-25022D01*
X72297Y-25021D01*
X72255Y-24936D01*
X72051Y-24842D01*
X71827Y-24833D01*
X71616Y-24911D01*
X71579Y-24936D01*
X71537Y-25021D01*
X71917Y-25401D01*
X72297Y-25021D01*
X72297Y-25022D01*
X71917Y-25401D01*
X72297Y-25781D01*
X72382Y-25739D01*
X72448Y-25596D01*
X72448Y-26212D01*
X72407Y-26101D01*
X72382Y-26063D01*
X72297Y-26021D01*
X72297Y-26022D01*
X72297Y-26021D01*
X72255Y-25936D01*
X72184Y-25903D01*
X72217Y-25891D01*
X72255Y-25866D01*
X72297Y-25781D01*
X71917Y-25401D01*
X71537Y-25781D01*
X71579Y-25866D01*
X71650Y-25899D01*
X71616Y-25911D01*
X71579Y-25936D01*
X71537Y-26021D01*
X71917Y-26401D01*
X72297Y-26021D01*
X72297Y-26022D01*
X71917Y-26401D01*
X72297Y-26781D01*
X72382Y-26739D01*
X72448Y-26596D01*
X72448Y-27212D01*
X72407Y-27101D01*
X72382Y-27063D01*
X72297Y-27021D01*
X72297Y-27022D01*
X72297Y-27021D01*
X72255Y-26936D01*
X72184Y-26903D01*
X72217Y-26891D01*
X72255Y-26866D01*
X72297Y-26781D01*
X71917Y-26401D01*
X71537Y-26781D01*
X71579Y-26866D01*
X71650Y-26899D01*
X71616Y-26911D01*
X71579Y-26936D01*
X71537Y-27021D01*
X71917Y-27401D01*
X72297Y-27021D01*
X72297Y-27022D01*
X71917Y-27401D01*
X72297Y-27781D01*
X72382Y-27739D01*
X72448Y-27596D01*
X72448Y-27846D01*
X72448Y-27846D01*
G37*
G54D44*
X72448Y-27846D02*
X72303Y-27991D01*
X72236Y-27924D01*
X72186Y-27903D01*
X72217Y-27891D01*
X72255Y-27866D01*
X72297Y-27781D01*
X71917Y-27401D01*
X71537Y-27781D01*
X71579Y-27866D01*
X71653Y-27900D01*
X71598Y-27923D01*
X71439Y-28082D01*
X71417Y-28136D01*
X71395Y-28082D01*
X71236Y-27924D01*
X71182Y-27901D01*
X71236Y-27879D01*
X71394Y-27721D01*
X71415Y-27670D01*
X71427Y-27702D01*
X71452Y-27739D01*
X71537Y-27781D01*
X71917Y-27401D01*
X71537Y-27021D01*
X71452Y-27063D01*
X71418Y-27138D01*
X71395Y-27082D01*
X71236Y-26924D01*
X71182Y-26901D01*
X71236Y-26879D01*
X71394Y-26721D01*
X71415Y-26670D01*
X71427Y-26702D01*
X71452Y-26739D01*
X71537Y-26781D01*
X71917Y-26401D01*
X71537Y-26021D01*
X71452Y-26063D01*
X71418Y-26138D01*
X71395Y-26082D01*
X71236Y-25924D01*
X71182Y-25901D01*
X71236Y-25879D01*
X71394Y-25721D01*
X71415Y-25670D01*
X71427Y-25702D01*
X71452Y-25739D01*
X71537Y-25781D01*
X71917Y-25401D01*
X71537Y-25021D01*
X71452Y-25063D01*
X71418Y-25138D01*
X71395Y-25082D01*
X71236Y-24924D01*
X71029Y-24838D01*
X70805Y-24838D01*
X70598Y-24923D01*
X70439Y-25082D01*
X70354Y-25289D01*
X70353Y-25513D01*
X70439Y-25720D01*
X70597Y-25878D01*
X70652Y-25901D01*
X70598Y-25923D01*
X70439Y-26082D01*
X70394Y-26192D01*
X69126Y-26192D01*
X69126Y-24770D01*
X69043Y-24570D01*
X68891Y-24417D01*
X68691Y-24334D01*
X68523Y-24334D01*
X68523Y-23092D01*
X68458Y-22936D01*
X68339Y-22817D01*
X68183Y-22752D01*
X68014Y-22752D01*
X67857Y-22816D01*
X67738Y-22936D01*
X67673Y-23092D01*
X67673Y-23261D01*
X67737Y-23417D01*
X67857Y-23537D01*
X68013Y-23602D01*
X68182Y-23602D01*
X68338Y-23537D01*
X68458Y-23418D01*
X68523Y-23262D01*
X68523Y-23092D01*
X68523Y-24334D01*
X68475Y-24334D01*
X68275Y-24416D01*
X68122Y-24569D01*
X68039Y-24769D01*
X68038Y-24985D01*
X68121Y-25185D01*
X68274Y-25338D01*
X68474Y-25421D01*
X68690Y-25421D01*
X68890Y-25339D01*
X69043Y-25186D01*
X69126Y-24986D01*
X69126Y-24770D01*
X69126Y-26192D01*
X67945Y-26192D01*
X67945Y-24949D01*
X67862Y-24749D01*
X67709Y-24596D01*
X67510Y-24513D01*
X67293Y-24513D01*
X67094Y-24595D01*
X66941Y-24748D01*
X66858Y-24948D01*
X66857Y-25164D01*
X66940Y-25364D01*
X67093Y-25517D01*
X67292Y-25600D01*
X67509Y-25600D01*
X67709Y-25517D01*
X67862Y-25364D01*
X67944Y-25165D01*
X67945Y-24949D01*
X67945Y-26192D01*
X66724Y-26192D01*
X66724Y-24949D01*
X66642Y-24749D01*
X66527Y-24634D01*
X66527Y-23624D01*
X66527Y-23524D01*
X66489Y-23331D01*
X66380Y-23168D01*
X66216Y-23058D01*
X66023Y-23020D01*
X65830Y-23058D01*
X65667Y-23168D01*
X65557Y-23331D01*
X65519Y-23524D01*
X65519Y-23624D01*
X65557Y-23817D01*
X65667Y-23981D01*
X65830Y-24090D01*
X66023Y-24129D01*
X66216Y-24090D01*
X66380Y-23981D01*
X66489Y-23817D01*
X66527Y-23624D01*
X66527Y-24634D01*
X66489Y-24596D01*
X66289Y-24513D01*
X66073Y-24513D01*
X65873Y-24595D01*
X65720Y-24748D01*
X65637Y-24948D01*
X65637Y-25164D01*
X65720Y-25364D01*
X65872Y-25517D01*
X66072Y-25600D01*
X66288Y-25600D01*
X66488Y-25517D01*
X66641Y-25364D01*
X66724Y-25165D01*
X66724Y-24949D01*
X66724Y-26192D01*
X66433Y-26192D01*
X66353Y-26208D01*
X66285Y-26253D01*
X66251Y-26287D01*
X65602Y-26287D01*
X65706Y-26183D01*
X65797Y-25962D01*
X65798Y-25723D01*
X65706Y-25502D01*
X65537Y-25333D01*
X65316Y-25241D01*
X65077Y-25241D01*
X64856Y-25332D01*
X64687Y-25501D01*
X64595Y-25722D01*
X64595Y-25961D01*
X64686Y-26182D01*
X64791Y-26287D01*
X64322Y-26287D01*
X64322Y-25928D01*
X64322Y-25028D01*
X64299Y-24973D01*
X64257Y-24930D01*
X64202Y-24907D01*
X64142Y-24907D01*
X63522Y-24907D01*
X63467Y-24930D01*
X63425Y-24972D01*
X63402Y-25027D01*
X63402Y-25087D01*
X63402Y-25987D01*
X63424Y-26042D01*
X63467Y-26084D01*
X63522Y-26107D01*
X63581Y-26107D01*
X64201Y-26107D01*
X64257Y-26085D01*
X64299Y-26042D01*
X64322Y-25987D01*
X64322Y-25928D01*
X64322Y-26287D01*
X63322Y-26287D01*
X63322Y-25659D01*
X63322Y-25356D01*
X63287Y-25180D01*
X63187Y-25030D01*
X63038Y-24931D01*
X62862Y-24896D01*
X62686Y-24931D01*
X62536Y-25030D01*
X62437Y-25180D01*
X62402Y-25356D01*
X62402Y-25659D01*
X62437Y-25835D01*
X62536Y-25984D01*
X62686Y-26084D01*
X62862Y-26119D01*
X63038Y-26084D01*
X63187Y-25984D01*
X63287Y-25835D01*
X63322Y-25659D01*
X63322Y-26287D01*
X62322Y-26287D01*
X62322Y-25648D01*
X62322Y-25508D01*
X62322Y-25507D01*
X62322Y-25367D01*
X62287Y-25191D01*
X62187Y-25042D01*
X62038Y-24942D01*
X61934Y-24913D01*
X61862Y-24945D01*
X61862Y-25507D01*
X62322Y-25507D01*
X62322Y-25508D01*
X61862Y-25508D01*
X61862Y-26070D01*
X61934Y-26102D01*
X62038Y-26073D01*
X62187Y-25973D01*
X62287Y-25824D01*
X62322Y-25648D01*
X62322Y-26287D01*
X61862Y-26287D01*
X61862Y-26070D01*
X61862Y-25508D01*
X61862Y-25507D01*
X61862Y-24945D01*
X61789Y-24913D01*
X61686Y-24942D01*
X61536Y-25042D01*
X61436Y-25191D01*
X61401Y-25367D01*
X61401Y-25507D01*
X61862Y-25507D01*
X61862Y-25508D01*
X61401Y-25508D01*
X61401Y-25648D01*
X61436Y-25824D01*
X61536Y-25973D01*
X61686Y-26073D01*
X61789Y-26102D01*
X61862Y-26070D01*
X61862Y-26287D01*
X61614Y-26287D01*
X61534Y-26302D01*
X61466Y-26348D01*
X61153Y-26661D01*
X60818Y-26661D01*
X61078Y-26401D01*
X61144Y-26302D01*
X61168Y-26185D01*
X61168Y-26066D01*
X61228Y-26026D01*
X61340Y-25858D01*
X61379Y-25660D01*
X61379Y-25354D01*
X61340Y-25156D01*
X61228Y-24989D01*
X61060Y-24876D01*
X60862Y-24837D01*
X60664Y-24876D01*
X60496Y-24989D01*
X60384Y-25156D01*
X60344Y-25354D01*
X60344Y-25660D01*
X60384Y-25858D01*
X60496Y-26026D01*
X60551Y-26063D01*
X60385Y-26229D01*
X60071Y-26229D01*
X60071Y-24546D01*
X60071Y-24446D01*
X60032Y-24253D01*
X59923Y-24089D01*
X59759Y-23980D01*
X59566Y-23941D01*
X59373Y-23980D01*
X59210Y-24089D01*
X59100Y-24253D01*
X59062Y-24446D01*
X59062Y-24546D01*
X59100Y-24739D01*
X59210Y-24902D01*
X59373Y-25012D01*
X59566Y-25050D01*
X59759Y-25012D01*
X59923Y-24902D01*
X60032Y-24739D01*
X60071Y-24546D01*
X60071Y-26229D01*
X59047Y-26229D01*
X59047Y-24546D01*
X59047Y-24446D01*
X59009Y-24253D01*
X58899Y-24089D01*
X58736Y-23980D01*
X58543Y-23941D01*
X58350Y-23980D01*
X58186Y-24089D01*
X58077Y-24253D01*
X58038Y-24446D01*
X58038Y-24546D01*
X58077Y-24739D01*
X58186Y-24902D01*
X58350Y-25012D01*
X58543Y-25050D01*
X58736Y-25012D01*
X58899Y-24902D01*
X59009Y-24739D01*
X59047Y-24546D01*
X59047Y-26229D01*
X58024Y-26229D01*
X58024Y-24546D01*
X58024Y-24446D01*
X57985Y-24253D01*
X57876Y-24089D01*
X57712Y-23980D01*
X57519Y-23941D01*
X57326Y-23980D01*
X57163Y-24089D01*
X57053Y-24253D01*
X57015Y-24446D01*
X57015Y-24546D01*
X57053Y-24739D01*
X57163Y-24902D01*
X57326Y-25012D01*
X57519Y-25050D01*
X57712Y-25012D01*
X57876Y-24902D01*
X57985Y-24739D01*
X58024Y-24546D01*
X58024Y-26229D01*
X57175Y-26229D01*
X57176Y-26006D01*
X57084Y-25785D01*
X56915Y-25616D01*
X56694Y-25524D01*
X56455Y-25524D01*
X56234Y-25616D01*
X56065Y-25784D01*
X55976Y-25998D01*
X55976Y-25059D01*
X55960Y-24979D01*
X55915Y-24911D01*
X55915Y-24911D01*
X55344Y-24340D01*
X55276Y-24295D01*
X55196Y-24279D01*
X54657Y-24279D01*
X54657Y-22648D01*
X54560Y-22412D01*
X54379Y-22231D01*
X54144Y-22133D01*
X53888Y-22133D01*
X53652Y-22230D01*
X53471Y-22411D01*
X53373Y-22647D01*
X53373Y-22902D01*
X53471Y-23138D01*
X53651Y-23319D01*
X53887Y-23417D01*
X54142Y-23417D01*
X54379Y-23320D01*
X54559Y-23139D01*
X54657Y-22903D01*
X54657Y-22648D01*
X54657Y-24279D01*
X52590Y-24279D01*
X52590Y-22591D01*
X52508Y-22391D01*
X52355Y-22238D01*
X52155Y-22155D01*
X51939Y-22155D01*
X51739Y-22238D01*
X51586Y-22390D01*
X51503Y-22590D01*
X51503Y-22806D01*
X51586Y-23006D01*
X51738Y-23159D01*
X51938Y-23242D01*
X52154Y-23242D01*
X52354Y-23160D01*
X52507Y-23007D01*
X52590Y-22807D01*
X52590Y-22591D01*
X52590Y-24279D01*
X52322Y-24279D01*
X51850Y-24279D01*
X51850Y-24279D01*
X51834Y-24282D01*
X51770Y-24295D01*
X51731Y-24321D01*
X51731Y-24009D01*
X51731Y-23707D01*
X51688Y-23492D01*
X51566Y-23309D01*
X51384Y-23187D01*
X51169Y-23145D01*
X50954Y-23187D01*
X50771Y-23309D01*
X50731Y-23370D01*
X50731Y-23325D01*
X50699Y-23248D01*
X50641Y-23190D01*
X50565Y-23158D01*
X50482Y-23158D01*
X49773Y-23158D01*
X49697Y-23190D01*
X49639Y-23248D01*
X49607Y-23324D01*
X49607Y-23407D01*
X49607Y-24391D01*
X49638Y-24467D01*
X49697Y-24526D01*
X49773Y-24557D01*
X49855Y-24557D01*
X50564Y-24557D01*
X50641Y-24526D01*
X50699Y-24467D01*
X50731Y-24391D01*
X50731Y-24346D01*
X50771Y-24406D01*
X50954Y-24528D01*
X51169Y-24571D01*
X51384Y-24528D01*
X51566Y-24406D01*
X51688Y-24224D01*
X51731Y-24009D01*
X51731Y-24321D01*
X51702Y-24340D01*
X51702Y-24340D01*
X51212Y-24830D01*
X50314Y-24830D01*
X50234Y-24846D01*
X50167Y-24891D01*
X49827Y-25231D01*
X49812Y-25156D01*
X49700Y-24989D01*
X49532Y-24876D01*
X49334Y-24837D01*
X49136Y-24876D01*
X48968Y-24989D01*
X48856Y-25156D01*
X48817Y-25354D01*
X48817Y-25660D01*
X48856Y-25858D01*
X48968Y-26026D01*
X49136Y-26138D01*
X49334Y-26178D01*
X49532Y-26138D01*
X49700Y-26026D01*
X49751Y-25950D01*
X49751Y-28168D01*
X49659Y-28030D01*
X49510Y-27931D01*
X49334Y-27896D01*
X49158Y-27931D01*
X49009Y-28030D01*
X48909Y-28180D01*
X48874Y-28356D01*
X48874Y-28659D01*
X48909Y-28835D01*
X49009Y-28984D01*
X49096Y-29042D01*
X48852Y-29042D01*
X48852Y-28660D01*
X48852Y-28354D01*
X48812Y-28156D01*
X48700Y-27989D01*
X48532Y-27876D01*
X48334Y-27837D01*
X48136Y-27876D01*
X47968Y-27989D01*
X47856Y-28156D01*
X47817Y-28354D01*
X47817Y-28660D01*
X47856Y-28858D01*
X47968Y-29026D01*
X48136Y-29138D01*
X48334Y-29178D01*
X48532Y-29138D01*
X48700Y-29026D01*
X48812Y-28858D01*
X48852Y-28660D01*
X48852Y-29042D01*
X48818Y-29042D01*
X48738Y-29058D01*
X48671Y-29104D01*
X48671Y-29104D01*
X48159Y-29615D01*
X48113Y-29683D01*
X48098Y-29763D01*
X48098Y-29992D01*
X47794Y-30295D01*
X47794Y-28659D01*
X47794Y-28356D01*
X47759Y-28180D01*
X47659Y-28030D01*
X47510Y-27931D01*
X47334Y-27896D01*
X47158Y-27931D01*
X47009Y-28030D01*
X46909Y-28180D01*
X46874Y-28356D01*
X46874Y-28659D01*
X46909Y-28835D01*
X47009Y-28984D01*
X47158Y-29084D01*
X47334Y-29119D01*
X47510Y-29084D01*
X47659Y-28984D01*
X47759Y-28835D01*
X47794Y-28659D01*
X47794Y-30295D01*
X47433Y-30657D01*
X45939Y-30657D01*
X45939Y-29921D01*
X45939Y-29763D01*
X45907Y-29649D01*
X45797Y-29485D01*
X45634Y-29376D01*
X45441Y-29337D01*
X45401Y-29337D01*
X45401Y-29842D01*
X45908Y-29842D01*
X45939Y-29763D01*
X45939Y-29921D01*
X45908Y-29842D01*
X45401Y-29842D01*
X45401Y-30347D01*
X45441Y-30347D01*
X45634Y-30308D01*
X45797Y-30199D01*
X45907Y-30035D01*
X45939Y-29921D01*
X45939Y-30657D01*
X45906Y-30657D01*
X45808Y-30509D01*
X45644Y-30400D01*
X45451Y-30361D01*
X45401Y-30361D01*
X45401Y-30347D01*
X45401Y-29842D01*
X45401Y-29842D01*
X45401Y-29337D01*
X45362Y-29337D01*
X45168Y-29376D01*
X45005Y-29485D01*
X44895Y-29649D01*
X44863Y-29763D01*
X44895Y-29842D01*
X45401Y-29842D01*
X45401Y-29842D01*
X44895Y-29842D01*
X44863Y-29921D01*
X44895Y-30035D01*
X45005Y-30199D01*
X45168Y-30308D01*
X45362Y-30347D01*
X45401Y-30347D01*
X45401Y-30361D01*
X45351Y-30361D01*
X45158Y-30400D01*
X44994Y-30509D01*
X44885Y-30673D01*
X44847Y-30866D01*
X44885Y-31059D01*
X44994Y-31222D01*
X45158Y-31332D01*
X45351Y-31370D01*
X45451Y-31370D01*
X45644Y-31332D01*
X45808Y-31222D01*
X45906Y-31075D01*
X47519Y-31075D01*
X47599Y-31059D01*
X47667Y-31013D01*
X48454Y-30226D01*
X48500Y-30158D01*
X48516Y-30078D01*
X48516Y-29850D01*
X48905Y-29461D01*
X49032Y-29461D01*
X48994Y-29485D01*
X48885Y-29649D01*
X48847Y-29842D01*
X48885Y-30035D01*
X48994Y-30199D01*
X49158Y-30308D01*
X49351Y-30346D01*
X49451Y-30346D01*
X49644Y-30308D01*
X49808Y-30199D01*
X49917Y-30035D01*
X49955Y-29842D01*
X49917Y-29649D01*
X49808Y-29485D01*
X49716Y-29424D01*
X49754Y-29399D01*
X50108Y-29045D01*
X50153Y-28977D01*
X50169Y-28897D01*
X50169Y-28358D01*
X50288Y-28477D01*
X50509Y-28569D01*
X50748Y-28569D01*
X50970Y-28478D01*
X51139Y-28309D01*
X51230Y-28088D01*
X51231Y-27849D01*
X51139Y-27628D01*
X50970Y-27459D01*
X50750Y-27367D01*
X50510Y-27367D01*
X50289Y-27458D01*
X50169Y-27578D01*
X50169Y-26358D01*
X50288Y-26477D01*
X50509Y-26569D01*
X50748Y-26569D01*
X50970Y-26478D01*
X51139Y-26309D01*
X51230Y-26088D01*
X51231Y-25849D01*
X51139Y-25628D01*
X50970Y-25459D01*
X50750Y-25367D01*
X50510Y-25367D01*
X50289Y-25458D01*
X50169Y-25578D01*
X50169Y-25480D01*
X50401Y-25248D01*
X51299Y-25248D01*
X51379Y-25232D01*
X51447Y-25187D01*
X51505Y-25129D01*
X51486Y-25156D01*
X51447Y-25354D01*
X51447Y-25660D01*
X51486Y-25858D01*
X51598Y-26026D01*
X51766Y-26138D01*
X51964Y-26178D01*
X52162Y-26138D01*
X52330Y-26026D01*
X52442Y-25858D01*
X52482Y-25660D01*
X52482Y-25354D01*
X52442Y-25156D01*
X52330Y-24989D01*
X52162Y-24876D01*
X51964Y-24837D01*
X51766Y-24876D01*
X51738Y-24895D01*
X51936Y-24697D01*
X52322Y-24697D01*
X55110Y-24697D01*
X55332Y-24919D01*
X55304Y-24907D01*
X55244Y-24907D01*
X54624Y-24907D01*
X54569Y-24930D01*
X54527Y-24972D01*
X54504Y-25027D01*
X54504Y-25087D01*
X54504Y-25987D01*
X54527Y-26042D01*
X54569Y-26084D01*
X54624Y-26107D01*
X54684Y-26107D01*
X55304Y-26107D01*
X55359Y-26085D01*
X55401Y-26042D01*
X55424Y-25987D01*
X55424Y-25928D01*
X55424Y-25028D01*
X55412Y-24999D01*
X55558Y-25145D01*
X55558Y-26515D01*
X55558Y-26614D01*
X55574Y-26694D01*
X55619Y-26761D01*
X55875Y-27017D01*
X55875Y-27017D01*
X55943Y-27063D01*
X56023Y-27079D01*
X56023Y-27079D01*
X56023Y-27079D01*
X57637Y-27079D01*
X61240Y-27079D01*
X61320Y-27063D01*
X61387Y-27017D01*
X61700Y-26705D01*
X66338Y-26705D01*
X66418Y-26689D01*
X66486Y-26643D01*
X66519Y-26610D01*
X70394Y-26610D01*
X70439Y-26720D01*
X70597Y-26878D01*
X70652Y-26901D01*
X70598Y-26923D01*
X70439Y-27082D01*
X70354Y-27289D01*
X70353Y-27513D01*
X70439Y-27720D01*
X70597Y-27878D01*
X70652Y-27901D01*
X70598Y-27923D01*
X70439Y-28082D01*
X70394Y-28192D01*
X70062Y-28192D01*
X69982Y-28208D01*
X69915Y-28253D01*
X69915Y-28253D01*
X69523Y-28645D01*
X69126Y-28645D01*
X69126Y-27770D01*
X69043Y-27570D01*
X68891Y-27417D01*
X68691Y-27334D01*
X68475Y-27334D01*
X68275Y-27416D01*
X68122Y-27569D01*
X68039Y-27769D01*
X68038Y-27985D01*
X68121Y-28185D01*
X68274Y-28338D01*
X68474Y-28421D01*
X68690Y-28421D01*
X68890Y-28339D01*
X69043Y-28186D01*
X69126Y-27986D01*
X69126Y-27770D01*
X69126Y-28645D01*
X68196Y-28645D01*
X68156Y-28546D01*
X68003Y-28393D01*
X67803Y-28310D01*
X67715Y-28310D01*
X67862Y-28164D01*
X67944Y-27965D01*
X67945Y-27749D01*
X67862Y-27549D01*
X67709Y-27396D01*
X67510Y-27313D01*
X67293Y-27313D01*
X67094Y-27395D01*
X66941Y-27548D01*
X66858Y-27748D01*
X66857Y-27964D01*
X66940Y-28164D01*
X67093Y-28317D01*
X67292Y-28400D01*
X67380Y-28400D01*
X67234Y-28546D01*
X67151Y-28745D01*
X67151Y-28961D01*
X67234Y-29161D01*
X67387Y-29314D01*
X67586Y-29397D01*
X67802Y-29397D01*
X67674Y-29483D01*
X67565Y-29646D01*
X67527Y-29839D01*
X67527Y-29939D01*
X67565Y-30132D01*
X67674Y-30296D01*
X67838Y-30405D01*
X68031Y-30444D01*
X68224Y-30405D01*
X68388Y-30296D01*
X68497Y-30132D01*
X68535Y-29939D01*
X68535Y-29839D01*
X68497Y-29646D01*
X68388Y-29483D01*
X68224Y-29373D01*
X68031Y-29335D01*
X67882Y-29365D01*
X68002Y-29315D01*
X68155Y-29162D01*
X68196Y-29063D01*
X69610Y-29063D01*
X69690Y-29047D01*
X69758Y-29002D01*
X70149Y-28610D01*
X70394Y-28610D01*
X70439Y-28720D01*
X70585Y-28866D01*
X70566Y-28874D01*
X70391Y-29049D01*
X70296Y-29277D01*
X70296Y-29524D01*
X70390Y-29752D01*
X70565Y-29927D01*
X70622Y-29951D01*
X70634Y-30010D01*
X70701Y-30110D01*
X71072Y-30481D01*
X71072Y-30501D01*
X70530Y-30501D01*
X69559Y-31472D01*
X69559Y-29939D01*
X69559Y-29839D01*
X69521Y-29646D01*
X69411Y-29483D01*
X69248Y-29373D01*
X69055Y-29335D01*
X68862Y-29373D01*
X68698Y-29483D01*
X68589Y-29646D01*
X68550Y-29839D01*
X68550Y-29939D01*
X68589Y-30132D01*
X68698Y-30296D01*
X68862Y-30405D01*
X69055Y-30444D01*
X69248Y-30405D01*
X69411Y-30296D01*
X69521Y-30132D01*
X69559Y-29939D01*
X69559Y-31472D01*
X68209Y-32822D01*
X66925Y-32822D01*
X66925Y-29779D01*
X66850Y-29576D01*
X66826Y-29540D01*
X66743Y-29500D01*
X66743Y-29500D01*
X66743Y-29500D01*
X66724Y-29460D01*
X66724Y-27749D01*
X66642Y-27549D01*
X66489Y-27396D01*
X66289Y-27313D01*
X66073Y-27313D01*
X65873Y-27395D01*
X65724Y-27544D01*
X65706Y-27502D01*
X65537Y-27333D01*
X65316Y-27241D01*
X65077Y-27241D01*
X64856Y-27332D01*
X64687Y-27501D01*
X64672Y-27536D01*
X64622Y-27536D01*
X64428Y-27342D01*
X64329Y-27276D01*
X64212Y-27253D01*
X63862Y-27253D01*
X63858Y-27253D01*
X63267Y-27253D01*
X63228Y-27253D01*
X56574Y-27253D01*
X55511Y-27253D01*
X55394Y-27276D01*
X55295Y-27342D01*
X55295Y-27342D01*
X55295Y-27342D01*
X54750Y-27887D01*
X54598Y-27989D01*
X54486Y-28156D01*
X54447Y-28354D01*
X54447Y-28660D01*
X54486Y-28858D01*
X54583Y-29003D01*
X54261Y-29003D01*
X54289Y-28984D01*
X54389Y-28835D01*
X54424Y-28659D01*
X54424Y-28356D01*
X54424Y-25659D01*
X54424Y-25356D01*
X54389Y-25180D01*
X54289Y-25030D01*
X54140Y-24931D01*
X53964Y-24896D01*
X53788Y-24931D01*
X53639Y-25030D01*
X53539Y-25180D01*
X53504Y-25356D01*
X53504Y-25659D01*
X53539Y-25835D01*
X53639Y-25984D01*
X53788Y-26084D01*
X53964Y-26119D01*
X54140Y-26084D01*
X54289Y-25984D01*
X54389Y-25835D01*
X54424Y-25659D01*
X54424Y-28356D01*
X54389Y-28180D01*
X54289Y-28030D01*
X54140Y-27931D01*
X53964Y-27896D01*
X53788Y-27931D01*
X53639Y-28030D01*
X53539Y-28180D01*
X53504Y-28356D01*
X53504Y-28659D01*
X53539Y-28835D01*
X53639Y-28984D01*
X53667Y-29003D01*
X53424Y-29003D01*
X53424Y-25648D01*
X53424Y-25508D01*
X53424Y-25507D01*
X53424Y-25367D01*
X53389Y-25191D01*
X53289Y-25042D01*
X53140Y-24942D01*
X53036Y-24913D01*
X52964Y-24945D01*
X52964Y-25507D01*
X53424Y-25507D01*
X53424Y-25508D01*
X52964Y-25508D01*
X52964Y-26070D01*
X53036Y-26102D01*
X53140Y-26073D01*
X53289Y-25973D01*
X53389Y-25824D01*
X53424Y-25648D01*
X53424Y-29003D01*
X53261Y-29003D01*
X53289Y-28984D01*
X53389Y-28835D01*
X53424Y-28659D01*
X53424Y-28356D01*
X53389Y-28180D01*
X53289Y-28030D01*
X53140Y-27931D01*
X52964Y-27896D01*
X52964Y-27896D01*
X52964Y-26070D01*
X52964Y-25508D01*
X52964Y-25507D01*
X52964Y-24945D01*
X52892Y-24913D01*
X52788Y-24942D01*
X52639Y-25042D01*
X52539Y-25191D01*
X52504Y-25367D01*
X52504Y-25507D01*
X52964Y-25507D01*
X52964Y-25508D01*
X52504Y-25508D01*
X52504Y-25648D01*
X52539Y-25824D01*
X52639Y-25973D01*
X52788Y-26073D01*
X52892Y-26102D01*
X52964Y-26070D01*
X52964Y-27896D01*
X52788Y-27931D01*
X52639Y-28030D01*
X52539Y-28180D01*
X52504Y-28356D01*
X52504Y-28659D01*
X52539Y-28835D01*
X52639Y-28984D01*
X52667Y-29003D01*
X52261Y-29003D01*
X52289Y-28984D01*
X52389Y-28835D01*
X52424Y-28659D01*
X52424Y-28356D01*
X52389Y-28180D01*
X52289Y-28030D01*
X52140Y-27931D01*
X51964Y-27896D01*
X51788Y-27931D01*
X51639Y-28030D01*
X51539Y-28180D01*
X51504Y-28356D01*
X51504Y-28659D01*
X51539Y-28835D01*
X51639Y-28984D01*
X51755Y-29062D01*
X51755Y-29070D01*
X51771Y-29150D01*
X51816Y-29218D01*
X51958Y-29360D01*
X51958Y-29360D01*
X52026Y-29405D01*
X52093Y-29419D01*
X52106Y-29421D01*
X52106Y-29421D01*
X52106Y-29421D01*
X52834Y-29421D01*
X52684Y-29483D01*
X52531Y-29636D01*
X52448Y-29836D01*
X52448Y-30052D01*
X52530Y-30252D01*
X52683Y-30405D01*
X52883Y-30488D01*
X53099Y-30488D01*
X53299Y-30406D01*
X53452Y-30253D01*
X53467Y-30216D01*
X54262Y-30216D01*
X54367Y-30375D01*
X54531Y-30484D01*
X54724Y-30522D01*
X54917Y-30484D01*
X55081Y-30375D01*
X55190Y-30211D01*
X55228Y-30018D01*
X55228Y-29918D01*
X55190Y-29725D01*
X55081Y-29561D01*
X54917Y-29452D01*
X54762Y-29421D01*
X55789Y-29421D01*
X55633Y-29452D01*
X55470Y-29561D01*
X55360Y-29725D01*
X55322Y-29918D01*
X55322Y-30018D01*
X55360Y-30211D01*
X55470Y-30375D01*
X55633Y-30484D01*
X55826Y-30522D01*
X56019Y-30484D01*
X56183Y-30375D01*
X56292Y-30211D01*
X56331Y-30018D01*
X56331Y-29918D01*
X56292Y-29725D01*
X56183Y-29561D01*
X56019Y-29452D01*
X55864Y-29421D01*
X56948Y-29421D01*
X57028Y-29405D01*
X57096Y-29360D01*
X57425Y-29031D01*
X57519Y-29050D01*
X57712Y-29012D01*
X57876Y-28902D01*
X57985Y-28739D01*
X58024Y-28546D01*
X58024Y-28446D01*
X57985Y-28253D01*
X57876Y-28089D01*
X57712Y-27980D01*
X57519Y-27941D01*
X57326Y-27980D01*
X57176Y-28080D01*
X57176Y-28006D01*
X57117Y-27864D01*
X63228Y-27864D01*
X63267Y-27864D01*
X63556Y-27864D01*
X63556Y-27948D01*
X63496Y-27989D01*
X63384Y-28156D01*
X63344Y-28354D01*
X63344Y-28660D01*
X63384Y-28858D01*
X63496Y-29026D01*
X63520Y-29042D01*
X63314Y-29042D01*
X63215Y-28943D01*
X63287Y-28835D01*
X63322Y-28659D01*
X63322Y-28356D01*
X63287Y-28180D01*
X63187Y-28030D01*
X63038Y-27931D01*
X62862Y-27896D01*
X62686Y-27931D01*
X62536Y-28030D01*
X62437Y-28180D01*
X62402Y-28356D01*
X62402Y-28659D01*
X62437Y-28835D01*
X62536Y-28984D01*
X62686Y-29084D01*
X62785Y-29104D01*
X63080Y-29399D01*
X63080Y-29399D01*
X63148Y-29445D01*
X63228Y-29461D01*
X63357Y-29461D01*
X63265Y-29522D01*
X63156Y-29686D01*
X63117Y-29879D01*
X63117Y-29979D01*
X63156Y-30172D01*
X63265Y-30335D01*
X63429Y-30445D01*
X63622Y-30483D01*
X63815Y-30445D01*
X63978Y-30335D01*
X64087Y-30172D01*
X64126Y-29979D01*
X64126Y-29879D01*
X64087Y-29686D01*
X63978Y-29522D01*
X63886Y-29461D01*
X64386Y-29461D01*
X64308Y-29513D01*
X64199Y-29676D01*
X64160Y-29869D01*
X64160Y-29909D01*
X64665Y-29909D01*
X64665Y-29901D01*
X64665Y-29901D01*
X64665Y-29909D01*
X65170Y-29909D01*
X65170Y-29869D01*
X65131Y-29676D01*
X65022Y-29513D01*
X64858Y-29403D01*
X64837Y-29397D01*
X65002Y-29397D01*
X65202Y-29315D01*
X65355Y-29162D01*
X65438Y-28962D01*
X65438Y-28746D01*
X65356Y-28546D01*
X65253Y-28443D01*
X65315Y-28443D01*
X65536Y-28352D01*
X65706Y-28183D01*
X65717Y-28157D01*
X65720Y-28164D01*
X65872Y-28317D01*
X66072Y-28400D01*
X66288Y-28400D01*
X66488Y-28317D01*
X66641Y-28164D01*
X66724Y-27965D01*
X66724Y-27749D01*
X66724Y-29460D01*
X66703Y-29417D01*
X66507Y-29326D01*
X66290Y-29318D01*
X66087Y-29393D01*
X66052Y-29417D01*
X66012Y-29500D01*
X66377Y-29865D01*
X66743Y-29500D01*
X66743Y-29500D01*
X66378Y-29866D01*
X66743Y-30231D01*
X66826Y-30192D01*
X66917Y-29995D01*
X66925Y-29779D01*
X66925Y-32822D01*
X66921Y-32822D01*
X66921Y-31758D01*
X66839Y-31558D01*
X66743Y-31462D01*
X66743Y-30231D01*
X66377Y-29866D01*
X66377Y-29866D01*
X66377Y-29866D01*
X66012Y-29500D01*
X65929Y-29540D01*
X65838Y-29736D01*
X65830Y-29953D01*
X65905Y-30156D01*
X65929Y-30192D01*
X66012Y-30231D01*
X66377Y-29866D01*
X66377Y-29866D01*
X66012Y-30231D01*
X66052Y-30315D01*
X66248Y-30405D01*
X66464Y-30414D01*
X66667Y-30339D01*
X66703Y-30315D01*
X66743Y-30231D01*
X66743Y-31462D01*
X66686Y-31405D01*
X66486Y-31322D01*
X66270Y-31322D01*
X66070Y-31404D01*
X65917Y-31557D01*
X65834Y-31757D01*
X65834Y-31973D01*
X65916Y-32173D01*
X66069Y-32326D01*
X66269Y-32409D01*
X66485Y-32409D01*
X66685Y-32327D01*
X66838Y-32174D01*
X66921Y-31974D01*
X66921Y-31758D01*
X66921Y-32822D01*
X65170Y-32822D01*
X65170Y-29949D01*
X65170Y-29909D01*
X64665Y-29909D01*
X64665Y-30415D01*
X64744Y-30447D01*
X64858Y-30415D01*
X65022Y-30305D01*
X65131Y-30142D01*
X65170Y-29949D01*
X65170Y-32822D01*
X64665Y-32822D01*
X64665Y-30415D01*
X64665Y-29909D01*
X64160Y-29909D01*
X64160Y-29949D01*
X64199Y-30142D01*
X64308Y-30305D01*
X64472Y-30415D01*
X64586Y-30447D01*
X64665Y-30415D01*
X64665Y-32822D01*
X63063Y-32822D01*
X63063Y-29979D01*
X63063Y-29879D01*
X63024Y-29686D01*
X62915Y-29522D01*
X62752Y-29413D01*
X62559Y-29374D01*
X62366Y-29413D01*
X62322Y-29442D01*
X62322Y-28659D01*
X62322Y-28356D01*
X62287Y-28180D01*
X62187Y-28030D01*
X62038Y-27931D01*
X61862Y-27896D01*
X61686Y-27931D01*
X61536Y-28030D01*
X61437Y-28180D01*
X61402Y-28356D01*
X61402Y-28659D01*
X61437Y-28835D01*
X61536Y-28984D01*
X61613Y-29036D01*
X61613Y-29058D01*
X61322Y-29350D01*
X61322Y-28659D01*
X61322Y-28356D01*
X61287Y-28180D01*
X61187Y-28030D01*
X61038Y-27931D01*
X60862Y-27896D01*
X60686Y-27931D01*
X60536Y-28030D01*
X60437Y-28180D01*
X60402Y-28356D01*
X60402Y-28659D01*
X60437Y-28835D01*
X60536Y-28984D01*
X60686Y-29084D01*
X60862Y-29119D01*
X61038Y-29084D01*
X61187Y-28984D01*
X61287Y-28835D01*
X61322Y-28659D01*
X61322Y-29350D01*
X61141Y-29530D01*
X61095Y-29484D01*
X60896Y-29401D01*
X60679Y-29401D01*
X60479Y-29483D01*
X60326Y-29636D01*
X60243Y-29836D01*
X60243Y-30052D01*
X60326Y-30252D01*
X60479Y-30405D01*
X60678Y-30488D01*
X60895Y-30488D01*
X61094Y-30406D01*
X61248Y-30253D01*
X61331Y-30053D01*
X61331Y-30043D01*
X62037Y-29337D01*
X62037Y-29337D01*
X62073Y-29283D01*
X62091Y-29256D01*
X62091Y-29256D01*
X62110Y-29161D01*
X62110Y-29161D01*
X62110Y-29036D01*
X62187Y-28984D01*
X62287Y-28835D01*
X62322Y-28659D01*
X62322Y-29442D01*
X62202Y-29522D01*
X62093Y-29686D01*
X62054Y-29879D01*
X62054Y-29979D01*
X62093Y-30172D01*
X62202Y-30335D01*
X62366Y-30445D01*
X62559Y-30483D01*
X62752Y-30445D01*
X62915Y-30335D01*
X63024Y-30172D01*
X63063Y-29979D01*
X63063Y-32822D01*
X61515Y-32822D01*
X61435Y-32838D01*
X61367Y-32883D01*
X61367Y-32883D01*
X61331Y-32920D01*
X61331Y-31837D01*
X61248Y-31637D01*
X61095Y-31484D01*
X60896Y-31401D01*
X60679Y-31401D01*
X60479Y-31483D01*
X60326Y-31636D01*
X60243Y-31836D01*
X60243Y-32052D01*
X60326Y-32252D01*
X60479Y-32405D01*
X60678Y-32488D01*
X60895Y-32488D01*
X61094Y-32406D01*
X61248Y-32253D01*
X61331Y-32053D01*
X61331Y-31837D01*
X61331Y-32920D01*
X61326Y-32924D01*
X61317Y-32920D01*
X61163Y-32920D01*
X61021Y-32979D01*
X60912Y-33088D01*
X60854Y-33229D01*
X60853Y-33383D01*
X60912Y-33525D01*
X60918Y-33531D01*
X60071Y-33531D01*
X60071Y-28546D01*
X60071Y-28446D01*
X60032Y-28253D01*
X59923Y-28089D01*
X59759Y-27980D01*
X59566Y-27941D01*
X59373Y-27980D01*
X59210Y-28089D01*
X59100Y-28253D01*
X59062Y-28446D01*
X59062Y-28546D01*
X59100Y-28739D01*
X59210Y-28902D01*
X59373Y-29012D01*
X59566Y-29050D01*
X59759Y-29012D01*
X59923Y-28902D01*
X60032Y-28739D01*
X60071Y-28546D01*
X60071Y-33531D01*
X59966Y-33531D01*
X59911Y-33553D01*
X59868Y-33596D01*
X59846Y-33651D01*
X59846Y-33710D01*
X59846Y-34695D01*
X59868Y-34750D01*
X59910Y-34792D01*
X59966Y-34815D01*
X60025Y-34815D01*
X60180Y-34815D01*
X60180Y-36121D01*
X60090Y-36211D01*
X60007Y-36411D01*
X60007Y-36526D01*
X59310Y-37223D01*
X59248Y-37315D01*
X59248Y-36432D01*
X59187Y-36268D01*
X59187Y-34034D01*
X59130Y-33895D01*
X59130Y-29857D01*
X59055Y-29654D01*
X59047Y-29642D01*
X59047Y-28546D01*
X59047Y-28446D01*
X59009Y-28253D01*
X58899Y-28089D01*
X58736Y-27980D01*
X58543Y-27941D01*
X58350Y-27980D01*
X58186Y-28089D01*
X58077Y-28253D01*
X58038Y-28446D01*
X58038Y-28546D01*
X58077Y-28739D01*
X58186Y-28902D01*
X58350Y-29012D01*
X58543Y-29050D01*
X58736Y-29012D01*
X58899Y-28902D01*
X59009Y-28739D01*
X59047Y-28546D01*
X59047Y-29642D01*
X59031Y-29618D01*
X58948Y-29579D01*
X58948Y-29579D01*
X58948Y-29579D01*
X58908Y-29495D01*
X58711Y-29405D01*
X58495Y-29396D01*
X58292Y-29471D01*
X58256Y-29495D01*
X58217Y-29579D01*
X58582Y-29944D01*
X58948Y-29579D01*
X58948Y-29579D01*
X58582Y-29944D01*
X58948Y-30310D01*
X59031Y-30270D01*
X59122Y-30074D01*
X59130Y-29857D01*
X59130Y-33895D01*
X59126Y-33885D01*
X59126Y-31837D01*
X59043Y-31637D01*
X58948Y-31541D01*
X58948Y-30310D01*
X58582Y-29945D01*
X58582Y-29945D01*
X58582Y-29944D01*
X58216Y-29579D01*
X58133Y-29618D01*
X58043Y-29815D01*
X58034Y-30031D01*
X58109Y-30234D01*
X58133Y-30270D01*
X58216Y-30310D01*
X58582Y-29944D01*
X58582Y-29945D01*
X58217Y-30310D01*
X58256Y-30393D01*
X58453Y-30484D01*
X58669Y-30492D01*
X58872Y-30417D01*
X58908Y-30393D01*
X58948Y-30310D01*
X58948Y-31541D01*
X58891Y-31484D01*
X58691Y-31401D01*
X58475Y-31401D01*
X58275Y-31483D01*
X58122Y-31636D01*
X58039Y-31836D01*
X58038Y-32052D01*
X58121Y-32252D01*
X58274Y-32405D01*
X58373Y-32446D01*
X58373Y-32452D01*
X57433Y-33392D01*
X57433Y-30008D01*
X57433Y-29968D01*
X57433Y-29968D01*
X57433Y-29928D01*
X57395Y-29735D01*
X57285Y-29572D01*
X57122Y-29462D01*
X57008Y-29430D01*
X56929Y-29462D01*
X56929Y-29968D01*
X57433Y-29968D01*
X57433Y-29968D01*
X56929Y-29968D01*
X56929Y-30474D01*
X57008Y-30506D01*
X57122Y-30474D01*
X57285Y-30364D01*
X57395Y-30201D01*
X57433Y-30008D01*
X57433Y-33392D01*
X57273Y-33553D01*
X57122Y-33452D01*
X56929Y-33414D01*
X56928Y-33414D01*
X56928Y-30474D01*
X56928Y-29968D01*
X56928Y-29968D01*
X56928Y-29462D01*
X56849Y-29430D01*
X56736Y-29462D01*
X56572Y-29572D01*
X56462Y-29735D01*
X56424Y-29928D01*
X56424Y-29968D01*
X56928Y-29968D01*
X56928Y-29968D01*
X56424Y-29968D01*
X56424Y-30008D01*
X56462Y-30201D01*
X56572Y-30364D01*
X56736Y-30474D01*
X56849Y-30506D01*
X56928Y-30474D01*
X56928Y-33414D01*
X56736Y-33452D01*
X56572Y-33561D01*
X56463Y-33725D01*
X56424Y-33918D01*
X56424Y-34018D01*
X56463Y-34211D01*
X56572Y-34375D01*
X56736Y-34484D01*
X56929Y-34522D01*
X57122Y-34484D01*
X57285Y-34375D01*
X57395Y-34211D01*
X57433Y-34018D01*
X57433Y-33984D01*
X58730Y-32687D01*
X58775Y-32619D01*
X58791Y-32539D01*
X58791Y-32446D01*
X58890Y-32406D01*
X59043Y-32253D01*
X59126Y-32053D01*
X59126Y-31837D01*
X59126Y-33885D01*
X59081Y-33777D01*
X58885Y-33580D01*
X58627Y-33473D01*
X58349Y-33473D01*
X58092Y-33579D01*
X57895Y-33776D01*
X57788Y-34033D01*
X57788Y-34311D01*
X57894Y-34569D01*
X58091Y-34765D01*
X58348Y-34872D01*
X58626Y-34872D01*
X58883Y-34766D01*
X59080Y-34570D01*
X59187Y-34312D01*
X59187Y-34034D01*
X59187Y-36268D01*
X59173Y-36229D01*
X59149Y-36193D01*
X59066Y-36154D01*
X59066Y-36154D01*
X59066Y-36153D01*
X59026Y-36070D01*
X58830Y-35980D01*
X58613Y-35971D01*
X58410Y-36046D01*
X58374Y-36070D01*
X58335Y-36153D01*
X58700Y-36519D01*
X59066Y-36153D01*
X59066Y-36154D01*
X58701Y-36519D01*
X59066Y-36885D01*
X59149Y-36845D01*
X59240Y-36648D01*
X59248Y-36432D01*
X59248Y-37315D01*
X59243Y-37323D01*
X59220Y-37440D01*
X59220Y-38352D01*
X59161Y-38212D01*
X59066Y-38116D01*
X59066Y-36885D01*
X58700Y-36519D01*
X58700Y-36520D01*
X58700Y-36519D01*
X58334Y-36154D01*
X58251Y-36193D01*
X58161Y-36390D01*
X58152Y-36606D01*
X58227Y-36809D01*
X58251Y-36845D01*
X58334Y-36885D01*
X58700Y-36519D01*
X58700Y-36520D01*
X58335Y-36885D01*
X58374Y-36968D01*
X58571Y-37059D01*
X58787Y-37067D01*
X58990Y-36992D01*
X59026Y-36968D01*
X59066Y-36885D01*
X59066Y-38116D01*
X59009Y-38059D01*
X58809Y-37976D01*
X58593Y-37975D01*
X58393Y-38058D01*
X58240Y-38211D01*
X58157Y-38411D01*
X58156Y-38627D01*
X58239Y-38827D01*
X58392Y-38980D01*
X58592Y-39063D01*
X58808Y-39063D01*
X58808Y-39063D01*
X58629Y-39243D01*
X58562Y-39342D01*
X58558Y-39364D01*
X58558Y-39364D01*
X58503Y-39400D01*
X58398Y-39557D01*
X58361Y-39743D01*
X58361Y-40083D01*
X58398Y-40268D01*
X58503Y-40426D01*
X58660Y-40531D01*
X58690Y-40537D01*
X58690Y-40766D01*
X58331Y-41125D01*
X58331Y-40071D01*
X58331Y-39913D01*
X58331Y-39913D01*
X58331Y-39755D01*
X58294Y-39570D01*
X58189Y-39412D01*
X58031Y-39307D01*
X57922Y-39276D01*
X57846Y-39308D01*
X57846Y-39913D01*
X58331Y-39913D01*
X58331Y-39913D01*
X57846Y-39913D01*
X57846Y-40518D01*
X57922Y-40549D01*
X58031Y-40519D01*
X58189Y-40413D01*
X58294Y-40256D01*
X58331Y-40071D01*
X58331Y-41125D01*
X57932Y-41524D01*
X57846Y-41524D01*
X57846Y-40518D01*
X57846Y-39913D01*
X57846Y-39913D01*
X57846Y-39308D01*
X57770Y-39276D01*
X57661Y-39307D01*
X57503Y-39412D01*
X57433Y-39517D01*
X57433Y-38266D01*
X57350Y-38066D01*
X57198Y-37913D01*
X57103Y-37874D01*
X57197Y-37835D01*
X57350Y-37682D01*
X57433Y-37482D01*
X57433Y-37266D01*
X57350Y-37066D01*
X57198Y-36913D01*
X57150Y-36893D01*
X57150Y-35885D01*
X57075Y-35682D01*
X57051Y-35646D01*
X56968Y-35606D01*
X56967Y-35607D01*
X56967Y-35606D01*
X56928Y-35523D01*
X56731Y-35432D01*
X56515Y-35424D01*
X56312Y-35499D01*
X56276Y-35523D01*
X56236Y-35606D01*
X56602Y-35972D01*
X56967Y-35606D01*
X56967Y-35607D01*
X56602Y-35972D01*
X56968Y-36337D01*
X57051Y-36298D01*
X57141Y-36101D01*
X57150Y-35885D01*
X57150Y-36893D01*
X56998Y-36830D01*
X56967Y-36830D01*
X56967Y-36338D01*
X56602Y-35972D01*
X56602Y-35972D01*
X56602Y-35972D01*
X56236Y-35606D01*
X56153Y-35646D01*
X56102Y-35758D01*
X56063Y-35664D01*
X55972Y-35573D01*
X56037Y-35573D01*
X56113Y-35542D01*
X56171Y-35483D01*
X56203Y-35407D01*
X56203Y-35325D01*
X56203Y-34537D01*
X56172Y-34461D01*
X56124Y-34414D01*
X56183Y-34375D01*
X56292Y-34211D01*
X56331Y-34018D01*
X56331Y-33918D01*
X56292Y-33725D01*
X56183Y-33561D01*
X56019Y-33452D01*
X55826Y-33414D01*
X55633Y-33452D01*
X55470Y-33561D01*
X55360Y-33725D01*
X55322Y-33918D01*
X55322Y-34018D01*
X55360Y-34211D01*
X55467Y-34371D01*
X55228Y-34371D01*
X55228Y-34018D01*
X55228Y-33918D01*
X55190Y-33725D01*
X55081Y-33561D01*
X54917Y-33452D01*
X54724Y-33414D01*
X54531Y-33452D01*
X54367Y-33561D01*
X54258Y-33725D01*
X54220Y-33918D01*
X54220Y-34018D01*
X54258Y-34211D01*
X54367Y-34375D01*
X54531Y-34484D01*
X54724Y-34522D01*
X54917Y-34484D01*
X55081Y-34375D01*
X55190Y-34211D01*
X55228Y-34018D01*
X55228Y-34371D01*
X55167Y-34371D01*
X55091Y-34402D01*
X55032Y-34461D01*
X55001Y-34537D01*
X55001Y-34619D01*
X55001Y-35407D01*
X55032Y-35483D01*
X55090Y-35541D01*
X55167Y-35573D01*
X55232Y-35573D01*
X55141Y-35664D01*
X55058Y-35863D01*
X55058Y-36080D01*
X55141Y-36280D01*
X55293Y-36433D01*
X55493Y-36516D01*
X55710Y-36516D01*
X55909Y-36433D01*
X56063Y-36280D01*
X56101Y-36187D01*
X56129Y-36262D01*
X56153Y-36298D01*
X56236Y-36337D01*
X56602Y-35972D01*
X56602Y-35972D01*
X56236Y-36338D01*
X56276Y-36421D01*
X56473Y-36511D01*
X56689Y-36520D01*
X56892Y-36445D01*
X56928Y-36421D01*
X56967Y-36338D01*
X56967Y-36830D01*
X56782Y-36830D01*
X56582Y-36912D01*
X56429Y-37065D01*
X56346Y-37265D01*
X56345Y-37481D01*
X56428Y-37681D01*
X56581Y-37834D01*
X56676Y-37874D01*
X56582Y-37912D01*
X56429Y-38065D01*
X56346Y-38265D01*
X56345Y-38481D01*
X56428Y-38681D01*
X56581Y-38834D01*
X56781Y-38917D01*
X56997Y-38917D01*
X57197Y-38835D01*
X57350Y-38682D01*
X57433Y-38482D01*
X57433Y-38266D01*
X57433Y-39517D01*
X57398Y-39570D01*
X57361Y-39755D01*
X57361Y-39913D01*
X57846Y-39913D01*
X57846Y-39913D01*
X57361Y-39913D01*
X57361Y-40071D01*
X57398Y-40256D01*
X57503Y-40413D01*
X57661Y-40519D01*
X57770Y-40549D01*
X57846Y-40518D01*
X57846Y-41524D01*
X57331Y-41524D01*
X57331Y-40083D01*
X57331Y-39743D01*
X57294Y-39557D01*
X57189Y-39400D01*
X57031Y-39295D01*
X56846Y-39258D01*
X56660Y-39295D01*
X56503Y-39400D01*
X56398Y-39557D01*
X56361Y-39743D01*
X56361Y-40083D01*
X56398Y-40268D01*
X56503Y-40426D01*
X56660Y-40531D01*
X56846Y-40568D01*
X57031Y-40531D01*
X57189Y-40426D01*
X57294Y-40268D01*
X57331Y-40083D01*
X57331Y-41524D01*
X56331Y-41524D01*
X56331Y-40083D01*
X56331Y-39743D01*
X56294Y-39557D01*
X56189Y-39400D01*
X56031Y-39295D01*
X55846Y-39258D01*
X55720Y-39283D01*
X55720Y-38895D01*
X55720Y-38186D01*
X55697Y-38131D01*
X55655Y-38089D01*
X55600Y-38066D01*
X55541Y-38066D01*
X55263Y-38066D01*
X55409Y-38037D01*
X55573Y-37927D01*
X55682Y-37763D01*
X55714Y-37650D01*
X55714Y-37491D01*
X55682Y-37377D01*
X55573Y-37213D01*
X55409Y-37104D01*
X55216Y-37065D01*
X55078Y-37065D01*
X55078Y-37570D01*
X55683Y-37570D01*
X55714Y-37491D01*
X55714Y-37650D01*
X55683Y-37571D01*
X55078Y-37571D01*
X55078Y-37578D01*
X55078Y-37578D01*
X55078Y-37571D01*
X55078Y-37570D01*
X55078Y-37065D01*
X54941Y-37065D01*
X54747Y-37104D01*
X54584Y-37213D01*
X54474Y-37377D01*
X54442Y-37491D01*
X54473Y-37570D01*
X55078Y-37570D01*
X55078Y-37571D01*
X54473Y-37571D01*
X54442Y-37650D01*
X54474Y-37763D01*
X54584Y-37927D01*
X54747Y-38037D01*
X54893Y-38066D01*
X54557Y-38066D01*
X54501Y-38089D01*
X54459Y-38131D01*
X54436Y-38186D01*
X54436Y-38246D01*
X54436Y-38955D01*
X54459Y-39010D01*
X54501Y-39052D01*
X54556Y-39075D01*
X54616Y-39075D01*
X55600Y-39075D01*
X55655Y-39052D01*
X55697Y-39010D01*
X55720Y-38955D01*
X55720Y-38895D01*
X55720Y-39283D01*
X55660Y-39295D01*
X55503Y-39400D01*
X55398Y-39557D01*
X55361Y-39743D01*
X55361Y-40083D01*
X55398Y-40268D01*
X55503Y-40426D01*
X55660Y-40531D01*
X55846Y-40568D01*
X56031Y-40531D01*
X56189Y-40426D01*
X56294Y-40268D01*
X56331Y-40083D01*
X56331Y-41524D01*
X55331Y-41524D01*
X55331Y-40083D01*
X55331Y-39743D01*
X55294Y-39557D01*
X55189Y-39400D01*
X55031Y-39295D01*
X54846Y-39258D01*
X54660Y-39295D01*
X54503Y-39400D01*
X54398Y-39557D01*
X54398Y-39561D01*
X54398Y-34967D01*
X54300Y-34731D01*
X54120Y-34550D01*
X53884Y-34452D01*
X53628Y-34452D01*
X53535Y-34490D01*
X53535Y-31837D01*
X53453Y-31637D01*
X53300Y-31484D01*
X53100Y-31401D01*
X52884Y-31401D01*
X52684Y-31483D01*
X52531Y-31636D01*
X52448Y-31836D01*
X52448Y-32052D01*
X52530Y-32252D01*
X52683Y-32405D01*
X52796Y-32452D01*
X52628Y-32452D01*
X52392Y-32549D01*
X52211Y-32730D01*
X52114Y-32966D01*
X52113Y-33221D01*
X52211Y-33457D01*
X52391Y-33638D01*
X52627Y-33736D01*
X52883Y-33736D01*
X53119Y-33639D01*
X53299Y-33458D01*
X53397Y-33222D01*
X53398Y-32967D01*
X53300Y-32731D01*
X53120Y-32550D01*
X52970Y-32488D01*
X53099Y-32488D01*
X53299Y-32406D01*
X53452Y-32253D01*
X53535Y-32053D01*
X53535Y-31837D01*
X53535Y-34490D01*
X53392Y-34549D01*
X53211Y-34730D01*
X53114Y-34966D01*
X53113Y-35221D01*
X53211Y-35457D01*
X53391Y-35638D01*
X53546Y-35702D01*
X53546Y-37354D01*
X53339Y-37562D01*
X53339Y-36293D01*
X53256Y-36093D01*
X53103Y-35940D01*
X52903Y-35857D01*
X52687Y-35857D01*
X52487Y-35940D01*
X52398Y-36029D01*
X52398Y-34967D01*
X52300Y-34731D01*
X52120Y-34550D01*
X51884Y-34452D01*
X51628Y-34452D01*
X51488Y-34510D01*
X51488Y-31837D01*
X51488Y-29837D01*
X51406Y-29637D01*
X51253Y-29484D01*
X51053Y-29401D01*
X50837Y-29401D01*
X50637Y-29483D01*
X50484Y-29636D01*
X50401Y-29836D01*
X50401Y-30052D01*
X50483Y-30252D01*
X50636Y-30405D01*
X50836Y-30488D01*
X51052Y-30488D01*
X51252Y-30406D01*
X51405Y-30253D01*
X51488Y-30053D01*
X51488Y-29837D01*
X51488Y-31837D01*
X51406Y-31637D01*
X51253Y-31484D01*
X51053Y-31401D01*
X50837Y-31401D01*
X50637Y-31483D01*
X50484Y-31636D01*
X50401Y-31836D01*
X50401Y-32052D01*
X50483Y-32252D01*
X50636Y-32405D01*
X50836Y-32488D01*
X51052Y-32488D01*
X51252Y-32406D01*
X51405Y-32253D01*
X51488Y-32053D01*
X51488Y-31837D01*
X51488Y-34510D01*
X51484Y-34511D01*
X51484Y-33046D01*
X51387Y-32810D01*
X51206Y-32629D01*
X50970Y-32531D01*
X50715Y-32531D01*
X50479Y-32628D01*
X50298Y-32809D01*
X50200Y-33044D01*
X50200Y-33300D01*
X50297Y-33536D01*
X50478Y-33717D01*
X50714Y-33815D01*
X50969Y-33815D01*
X51205Y-33717D01*
X51386Y-33537D01*
X51484Y-33301D01*
X51484Y-33046D01*
X51484Y-34511D01*
X51392Y-34549D01*
X51211Y-34730D01*
X51114Y-34966D01*
X51113Y-35221D01*
X51211Y-35457D01*
X51391Y-35638D01*
X51627Y-35736D01*
X51883Y-35736D01*
X52119Y-35639D01*
X52299Y-35458D01*
X52397Y-35222D01*
X52398Y-34967D01*
X52398Y-36029D01*
X52334Y-36093D01*
X52251Y-36292D01*
X52251Y-36509D01*
X52334Y-36709D01*
X52486Y-36862D01*
X52686Y-36945D01*
X52902Y-36945D01*
X53102Y-36862D01*
X53255Y-36709D01*
X53338Y-36510D01*
X53339Y-36293D01*
X53339Y-37562D01*
X53002Y-37898D01*
X52903Y-37857D01*
X52687Y-37857D01*
X52487Y-37940D01*
X52334Y-38093D01*
X52251Y-38292D01*
X52251Y-38509D01*
X52334Y-38709D01*
X52486Y-38862D01*
X52686Y-38945D01*
X52902Y-38945D01*
X53102Y-38862D01*
X53255Y-38709D01*
X53338Y-38510D01*
X53339Y-38293D01*
X53297Y-38194D01*
X53903Y-37588D01*
X53949Y-37520D01*
X53964Y-37440D01*
X53964Y-35702D01*
X54119Y-35639D01*
X54299Y-35458D01*
X54397Y-35222D01*
X54398Y-34967D01*
X54398Y-39561D01*
X54361Y-39743D01*
X54361Y-40083D01*
X54398Y-40268D01*
X54503Y-40426D01*
X54660Y-40531D01*
X54846Y-40568D01*
X55031Y-40531D01*
X55189Y-40426D01*
X55294Y-40268D01*
X55331Y-40083D01*
X55331Y-41524D01*
X54331Y-41524D01*
X54331Y-40083D01*
X54331Y-39743D01*
X54294Y-39557D01*
X54189Y-39400D01*
X54031Y-39295D01*
X53846Y-39258D01*
X53660Y-39295D01*
X53503Y-39400D01*
X53398Y-39557D01*
X53361Y-39743D01*
X53361Y-40083D01*
X53398Y-40268D01*
X53503Y-40426D01*
X53660Y-40531D01*
X53846Y-40568D01*
X54031Y-40531D01*
X54189Y-40426D01*
X54294Y-40268D01*
X54331Y-40083D01*
X54331Y-41524D01*
X53331Y-41524D01*
X53331Y-40083D01*
X53331Y-39743D01*
X53294Y-39557D01*
X53189Y-39400D01*
X53031Y-39295D01*
X52846Y-39258D01*
X52660Y-39295D01*
X52503Y-39400D01*
X52398Y-39557D01*
X52361Y-39743D01*
X52361Y-40083D01*
X52398Y-40268D01*
X52503Y-40426D01*
X52660Y-40531D01*
X52846Y-40568D01*
X53031Y-40531D01*
X53189Y-40426D01*
X53294Y-40268D01*
X53331Y-40083D01*
X53331Y-41524D01*
X52331Y-41524D01*
X52331Y-40083D01*
X52331Y-39743D01*
X52294Y-39557D01*
X52189Y-39400D01*
X52031Y-39295D01*
X51846Y-39258D01*
X51660Y-39295D01*
X51503Y-39400D01*
X51398Y-39557D01*
X51361Y-39743D01*
X51361Y-40083D01*
X51398Y-40268D01*
X51503Y-40426D01*
X51660Y-40531D01*
X51846Y-40568D01*
X52031Y-40531D01*
X52189Y-40426D01*
X52294Y-40268D01*
X52331Y-40083D01*
X52331Y-41524D01*
X51331Y-41524D01*
X51331Y-40083D01*
X51331Y-39743D01*
X51294Y-39557D01*
X51189Y-39400D01*
X51099Y-39340D01*
X51099Y-36314D01*
X51024Y-36111D01*
X51000Y-36075D01*
X50917Y-36036D01*
X50916Y-36036D01*
X50916Y-36035D01*
X50877Y-35952D01*
X50680Y-35862D01*
X50484Y-35854D01*
X50484Y-35046D01*
X50387Y-34810D01*
X50206Y-34629D01*
X49970Y-34531D01*
X49955Y-34531D01*
X49955Y-30866D01*
X49917Y-30673D01*
X49808Y-30509D01*
X49644Y-30400D01*
X49451Y-30361D01*
X49351Y-30361D01*
X49158Y-30400D01*
X48994Y-30509D01*
X48885Y-30673D01*
X48847Y-30866D01*
X48885Y-31059D01*
X48994Y-31222D01*
X49158Y-31332D01*
X49351Y-31370D01*
X49451Y-31370D01*
X49644Y-31332D01*
X49808Y-31222D01*
X49917Y-31059D01*
X49955Y-30866D01*
X49955Y-34531D01*
X49715Y-34531D01*
X49484Y-34626D01*
X49484Y-33046D01*
X49387Y-32810D01*
X49206Y-32629D01*
X48970Y-32531D01*
X48715Y-32531D01*
X48479Y-32628D01*
X48298Y-32809D01*
X48200Y-33044D01*
X48200Y-33300D01*
X48297Y-33536D01*
X48478Y-33717D01*
X48714Y-33815D01*
X48969Y-33815D01*
X49205Y-33717D01*
X49386Y-33537D01*
X49484Y-33301D01*
X49484Y-33046D01*
X49484Y-34626D01*
X49479Y-34628D01*
X49298Y-34809D01*
X49200Y-35044D01*
X49200Y-35300D01*
X49297Y-35536D01*
X49478Y-35717D01*
X49714Y-35815D01*
X49969Y-35815D01*
X50205Y-35717D01*
X50386Y-35537D01*
X50484Y-35301D01*
X50484Y-35046D01*
X50484Y-35854D01*
X50464Y-35853D01*
X50261Y-35928D01*
X50225Y-35952D01*
X50185Y-36035D01*
X50551Y-36401D01*
X50916Y-36035D01*
X50916Y-36036D01*
X50551Y-36401D01*
X50917Y-36767D01*
X51000Y-36727D01*
X51090Y-36530D01*
X51099Y-36314D01*
X51099Y-39340D01*
X51094Y-39337D01*
X51094Y-38293D01*
X51012Y-38093D01*
X50916Y-37998D01*
X50916Y-36767D01*
X50551Y-36401D01*
X50550Y-36402D01*
X50550Y-36401D01*
X50185Y-36036D01*
X50102Y-36075D01*
X50011Y-36272D01*
X50003Y-36488D01*
X50078Y-36691D01*
X50102Y-36727D01*
X50185Y-36767D01*
X50550Y-36401D01*
X50550Y-36402D01*
X50185Y-36767D01*
X50225Y-36850D01*
X50421Y-36941D01*
X50638Y-36949D01*
X50841Y-36874D01*
X50877Y-36850D01*
X50916Y-36767D01*
X50916Y-37998D01*
X50859Y-37940D01*
X50659Y-37857D01*
X50443Y-37857D01*
X50243Y-37940D01*
X50090Y-38093D01*
X50007Y-38292D01*
X50007Y-38509D01*
X50089Y-38709D01*
X50242Y-38862D01*
X50442Y-38945D01*
X50658Y-38945D01*
X50858Y-38862D01*
X51011Y-38709D01*
X51094Y-38510D01*
X51094Y-38293D01*
X51094Y-39337D01*
X51031Y-39295D01*
X50846Y-39258D01*
X50660Y-39295D01*
X50503Y-39400D01*
X50398Y-39557D01*
X50361Y-39743D01*
X50361Y-40083D01*
X50398Y-40268D01*
X50503Y-40426D01*
X50660Y-40531D01*
X50846Y-40568D01*
X51031Y-40531D01*
X51189Y-40426D01*
X51294Y-40268D01*
X51331Y-40083D01*
X51331Y-41524D01*
X50331Y-41524D01*
X50331Y-40083D01*
X50331Y-39743D01*
X50294Y-39557D01*
X50189Y-39400D01*
X50031Y-39295D01*
X49846Y-39258D01*
X49660Y-39295D01*
X49503Y-39400D01*
X49398Y-39557D01*
X49361Y-39743D01*
X49361Y-40083D01*
X49398Y-40268D01*
X49503Y-40426D01*
X49660Y-40531D01*
X49846Y-40568D01*
X50031Y-40531D01*
X50189Y-40426D01*
X50294Y-40268D01*
X50331Y-40083D01*
X50331Y-41524D01*
X49331Y-41524D01*
X49331Y-40083D01*
X49331Y-39743D01*
X49294Y-39557D01*
X49287Y-39548D01*
X49287Y-35678D01*
X49212Y-35475D01*
X49188Y-35439D01*
X49105Y-35399D01*
X49105Y-35400D01*
X49105Y-35399D01*
X49065Y-35316D01*
X48869Y-35226D01*
X48653Y-35217D01*
X48450Y-35292D01*
X48414Y-35316D01*
X48374Y-35399D01*
X48740Y-35765D01*
X49105Y-35399D01*
X49105Y-35400D01*
X48740Y-35765D01*
X49105Y-36130D01*
X49188Y-36091D01*
X49279Y-35894D01*
X49287Y-35678D01*
X49287Y-39548D01*
X49283Y-39542D01*
X49283Y-38457D01*
X49201Y-38257D01*
X49105Y-38162D01*
X49105Y-36131D01*
X48740Y-35765D01*
X48739Y-35765D01*
X48739Y-35765D01*
X48374Y-35399D01*
X48299Y-35435D01*
X48299Y-34664D01*
X48299Y-34564D01*
X48261Y-34371D01*
X48151Y-34207D01*
X47988Y-34098D01*
X47795Y-34059D01*
X47602Y-34098D01*
X47438Y-34207D01*
X47329Y-34371D01*
X47290Y-34564D01*
X47290Y-34664D01*
X47329Y-34857D01*
X47438Y-35020D01*
X47602Y-35130D01*
X47795Y-35168D01*
X47988Y-35130D01*
X48151Y-35020D01*
X48261Y-34857D01*
X48299Y-34664D01*
X48299Y-35435D01*
X48291Y-35439D01*
X48200Y-35636D01*
X48192Y-35852D01*
X48267Y-36055D01*
X48291Y-36091D01*
X48374Y-36130D01*
X48739Y-35765D01*
X48739Y-35765D01*
X48374Y-36131D01*
X48414Y-36214D01*
X48610Y-36304D01*
X48827Y-36313D01*
X49030Y-36238D01*
X49065Y-36214D01*
X49105Y-36131D01*
X49105Y-38162D01*
X49048Y-38104D01*
X48848Y-38021D01*
X48632Y-38021D01*
X48432Y-38104D01*
X48279Y-38257D01*
X48243Y-38344D01*
X48151Y-38207D01*
X47988Y-38098D01*
X47795Y-38059D01*
X47602Y-38098D01*
X47438Y-38207D01*
X47329Y-38371D01*
X47290Y-38564D01*
X47290Y-38664D01*
X47329Y-38857D01*
X47438Y-39020D01*
X47602Y-39130D01*
X47795Y-39168D01*
X47988Y-39130D01*
X48151Y-39020D01*
X48261Y-38857D01*
X48264Y-38838D01*
X48279Y-38872D01*
X48431Y-39025D01*
X48631Y-39108D01*
X48847Y-39108D01*
X49047Y-39026D01*
X49200Y-38873D01*
X49283Y-38673D01*
X49283Y-38457D01*
X49283Y-39542D01*
X49189Y-39400D01*
X49031Y-39295D01*
X48846Y-39258D01*
X48660Y-39295D01*
X48503Y-39400D01*
X48398Y-39557D01*
X48361Y-39743D01*
X48361Y-40083D01*
X48398Y-40268D01*
X48503Y-40426D01*
X48660Y-40531D01*
X48846Y-40568D01*
X49031Y-40531D01*
X49189Y-40426D01*
X49294Y-40268D01*
X49331Y-40083D01*
X49331Y-41524D01*
X48769Y-41524D01*
X48756Y-41455D01*
X48710Y-41387D01*
X46979Y-39655D01*
X46979Y-33286D01*
X46703Y-33010D01*
X46703Y-32992D01*
X46703Y-32992D01*
X46680Y-32875D01*
X46613Y-32775D01*
X46613Y-32775D01*
X46121Y-32283D01*
X46022Y-32217D01*
X45905Y-32194D01*
X45886Y-32194D01*
X45768Y-32075D01*
X45166Y-32075D01*
X44498Y-31408D01*
X44498Y-28986D01*
X44540Y-29029D01*
X44761Y-29120D01*
X45000Y-29120D01*
X45221Y-29029D01*
X45381Y-28870D01*
X45381Y-29015D01*
X45397Y-29095D01*
X45442Y-29163D01*
X45678Y-29399D01*
X45746Y-29445D01*
X45826Y-29461D01*
X46055Y-29461D01*
X46231Y-29637D01*
X46228Y-29647D01*
X46227Y-29800D01*
X46286Y-29942D01*
X46395Y-30051D01*
X46537Y-30110D01*
X46690Y-30110D01*
X46832Y-30052D01*
X46941Y-29943D01*
X47000Y-29801D01*
X47000Y-29647D01*
X46941Y-29505D01*
X46833Y-29397D01*
X46691Y-29338D01*
X46537Y-29338D01*
X46527Y-29342D01*
X46293Y-29107D01*
X46674Y-29107D01*
X46729Y-29085D01*
X46771Y-29042D01*
X46794Y-28987D01*
X46794Y-28928D01*
X46794Y-28028D01*
X46771Y-27973D01*
X46729Y-27930D01*
X46674Y-27907D01*
X46614Y-27907D01*
X45994Y-27907D01*
X45939Y-27930D01*
X45897Y-27972D01*
X45874Y-28027D01*
X45874Y-28087D01*
X45874Y-28987D01*
X45886Y-29015D01*
X45799Y-28929D01*
X45799Y-25244D01*
X45849Y-25194D01*
X45817Y-25354D01*
X45817Y-25660D01*
X45856Y-25858D01*
X45968Y-26026D01*
X46136Y-26138D01*
X46334Y-26178D01*
X46532Y-26138D01*
X46700Y-26026D01*
X46812Y-25858D01*
X46852Y-25660D01*
X46852Y-25354D01*
X46812Y-25156D01*
X46754Y-25069D01*
X46983Y-25069D01*
X46909Y-25180D01*
X46874Y-25356D01*
X46874Y-25659D01*
X46909Y-25835D01*
X47009Y-25984D01*
X47158Y-26084D01*
X47334Y-26119D01*
X47510Y-26084D01*
X47659Y-25984D01*
X47759Y-25835D01*
X47794Y-25659D01*
X47794Y-25356D01*
X47759Y-25180D01*
X47685Y-25069D01*
X47983Y-25069D01*
X47909Y-25180D01*
X47874Y-25356D01*
X47874Y-25659D01*
X47909Y-25835D01*
X48009Y-25984D01*
X48158Y-26084D01*
X48334Y-26119D01*
X48510Y-26084D01*
X48659Y-25984D01*
X48759Y-25835D01*
X48794Y-25659D01*
X48794Y-25356D01*
X48759Y-25180D01*
X48659Y-25030D01*
X48510Y-24931D01*
X48414Y-24911D01*
X49074Y-24251D01*
X49140Y-24152D01*
X49164Y-24035D01*
X49164Y-20835D01*
X49794Y-20205D01*
X51523Y-20205D01*
X51537Y-20239D01*
X51706Y-20408D01*
X51927Y-20500D01*
X52166Y-20500D01*
X52387Y-20408D01*
X52556Y-20240D01*
X52648Y-20019D01*
X52648Y-19780D01*
X52557Y-19559D01*
X52468Y-19470D01*
X52521Y-19470D01*
X52655Y-19604D01*
X52655Y-20462D01*
X52671Y-20542D01*
X52716Y-20610D01*
X53523Y-21417D01*
X53523Y-21417D01*
X53536Y-21426D01*
X51259Y-21426D01*
X51142Y-21449D01*
X51073Y-21495D01*
X51135Y-21433D01*
X51200Y-21277D01*
X51200Y-21108D01*
X51136Y-20952D01*
X51016Y-20832D01*
X50860Y-20767D01*
X50691Y-20767D01*
X50535Y-20832D01*
X50415Y-20951D01*
X50350Y-21108D01*
X50350Y-21277D01*
X50415Y-21433D01*
X50534Y-21553D01*
X50690Y-21617D01*
X50859Y-21617D01*
X50999Y-21560D01*
X50672Y-21887D01*
X50258Y-21887D01*
X50258Y-21876D01*
X50226Y-21800D01*
X50200Y-21774D01*
X50200Y-21108D01*
X50136Y-20952D01*
X50016Y-20832D01*
X49860Y-20767D01*
X49691Y-20767D01*
X49535Y-20832D01*
X49415Y-20951D01*
X49350Y-21108D01*
X49350Y-21277D01*
X49415Y-21433D01*
X49534Y-21553D01*
X49690Y-21617D01*
X49859Y-21617D01*
X50016Y-21553D01*
X50135Y-21433D01*
X50200Y-21277D01*
X50200Y-21108D01*
X50200Y-21774D01*
X50168Y-21742D01*
X50092Y-21710D01*
X50009Y-21710D01*
X49459Y-21710D01*
X49383Y-21741D01*
X49324Y-21800D01*
X49293Y-21876D01*
X49293Y-21959D01*
X49293Y-22509D01*
X49324Y-22585D01*
X49382Y-22643D01*
X49459Y-22675D01*
X49541Y-22675D01*
X50091Y-22675D01*
X50167Y-22643D01*
X50226Y-22585D01*
X50258Y-22509D01*
X50258Y-22498D01*
X50799Y-22498D01*
X50916Y-22475D01*
X51015Y-22409D01*
X51386Y-22038D01*
X59572Y-22038D01*
X59467Y-22108D01*
X59328Y-22316D01*
X59279Y-22562D01*
X59279Y-22988D01*
X59328Y-23234D01*
X59467Y-23442D01*
X59675Y-23582D01*
X59921Y-23631D01*
X60166Y-23582D01*
X60375Y-23442D01*
X60514Y-23234D01*
X60563Y-22988D01*
X60563Y-22562D01*
X60514Y-22316D01*
X60375Y-22108D01*
X60270Y-22038D01*
X61540Y-22038D01*
X61435Y-22108D01*
X61296Y-22316D01*
X61247Y-22562D01*
X61247Y-22988D01*
X61296Y-23234D01*
X61435Y-23442D01*
X61644Y-23582D01*
X61889Y-23631D01*
X62135Y-23582D01*
X62343Y-23442D01*
X62483Y-23234D01*
X62531Y-22988D01*
X62531Y-22562D01*
X62483Y-22316D01*
X62343Y-22108D01*
X62238Y-22038D01*
X63509Y-22038D01*
X63404Y-22108D01*
X63265Y-22316D01*
X63216Y-22562D01*
X63216Y-22988D01*
X63265Y-23234D01*
X63404Y-23442D01*
X63612Y-23582D01*
X63858Y-23631D01*
X64103Y-23582D01*
X64312Y-23442D01*
X64451Y-23234D01*
X64500Y-22988D01*
X64500Y-22818D01*
X64578Y-23006D01*
X64731Y-23159D01*
X64930Y-23242D01*
X65147Y-23242D01*
X65346Y-23160D01*
X65499Y-23007D01*
X65582Y-22807D01*
X65582Y-22591D01*
X65500Y-22391D01*
X65347Y-22238D01*
X65147Y-22155D01*
X64931Y-22155D01*
X64731Y-22238D01*
X64578Y-22390D01*
X64500Y-22579D01*
X64500Y-22562D01*
X64451Y-22316D01*
X64312Y-22108D01*
X64207Y-22038D01*
X65818Y-22038D01*
X66173Y-22393D01*
X66272Y-22459D01*
X66389Y-22483D01*
X66615Y-22483D01*
X66615Y-22493D01*
X66647Y-22569D01*
X66705Y-22627D01*
X66781Y-22659D01*
X66864Y-22659D01*
X67414Y-22659D01*
X67490Y-22628D01*
X67549Y-22569D01*
X67580Y-22493D01*
X67580Y-22411D01*
X67580Y-21861D01*
X67549Y-21784D01*
X67491Y-21726D01*
X67414Y-21694D01*
X67332Y-21694D01*
X66782Y-21694D01*
X66706Y-21726D01*
X66647Y-21784D01*
X66615Y-21860D01*
X66615Y-21871D01*
X66516Y-21871D01*
X66161Y-21515D01*
X66105Y-21478D01*
X67964Y-21478D01*
X68276Y-21791D01*
X68183Y-21752D01*
X68014Y-21752D01*
X67857Y-21816D01*
X67738Y-21936D01*
X67673Y-22092D01*
X67673Y-22261D01*
X67737Y-22417D01*
X67857Y-22537D01*
X68013Y-22602D01*
X68182Y-22602D01*
X68338Y-22537D01*
X68458Y-22418D01*
X68523Y-22262D01*
X68523Y-22092D01*
X68484Y-21998D01*
X68590Y-22104D01*
X68590Y-23267D01*
X68606Y-23347D01*
X68651Y-23415D01*
X69113Y-23878D01*
X69113Y-23878D01*
X69181Y-23923D01*
X69248Y-23936D01*
X69261Y-23939D01*
X69261Y-23939D01*
X69261Y-23939D01*
X71635Y-23939D01*
X72448Y-24751D01*
X72448Y-25212D01*
X72407Y-25101D01*
X72382Y-25063D01*
X72297Y-25021D01*
X72297Y-25022D01*
X72297Y-25021D01*
X72255Y-24936D01*
X72051Y-24842D01*
X71827Y-24833D01*
X71616Y-24911D01*
X71579Y-24936D01*
X71537Y-25021D01*
X71917Y-25401D01*
X72297Y-25021D01*
X72297Y-25022D01*
X71917Y-25401D01*
X72297Y-25781D01*
X72382Y-25739D01*
X72448Y-25596D01*
X72448Y-26212D01*
X72407Y-26101D01*
X72382Y-26063D01*
X72297Y-26021D01*
X72297Y-26022D01*
X72297Y-26021D01*
X72255Y-25936D01*
X72184Y-25903D01*
X72217Y-25891D01*
X72255Y-25866D01*
X72297Y-25781D01*
X71917Y-25401D01*
X71537Y-25781D01*
X71579Y-25866D01*
X71650Y-25899D01*
X71616Y-25911D01*
X71579Y-25936D01*
X71537Y-26021D01*
X71917Y-26401D01*
X72297Y-26021D01*
X72297Y-26022D01*
X71917Y-26401D01*
X72297Y-26781D01*
X72382Y-26739D01*
X72448Y-26596D01*
X72448Y-27212D01*
X72407Y-27101D01*
X72382Y-27063D01*
X72297Y-27021D01*
X72297Y-27022D01*
X72297Y-27021D01*
X72255Y-26936D01*
X72184Y-26903D01*
X72217Y-26891D01*
X72255Y-26866D01*
X72297Y-26781D01*
X71917Y-26401D01*
X71537Y-26781D01*
X71579Y-26866D01*
X71650Y-26899D01*
X71616Y-26911D01*
X71579Y-26936D01*
X71537Y-27021D01*
X71917Y-27401D01*
X72297Y-27021D01*
X72297Y-27022D01*
X71917Y-27401D01*
X72297Y-27781D01*
X72382Y-27739D01*
X72448Y-27596D01*
X72448Y-27846D01*
M02*
